<?xml version="1.0" standalone="no"?>
<!DOCTYPE svg PUBLIC "-//W3C//DTD SVG 1.1//EN" "http://www.w3.org/Graphics/SVG/1.1/DTD/svg11.dtd" >
<svg xmlns="http://www.w3.org/2000/svg" xmlns:xlink="http://www.w3.org/1999/xlink" version="1.1">
<metadata>
Created by FontForge 20190801 at Fri Sep 20 16:13:05 2019
 By Jimmy Wärting
Copyright 2019 The Karla Project Authors (https://github.com/bghryct/karmilla)
</metadata>
<defs>
<font id="Karla-LightItalic" horiz-adv-x="1200" >
  <font-face 
    font-family="Karla Light"
    font-weight="300"
    font-style="italic"
    font-stretch="normal"
    units-per-em="2000"
    panose-1="2 11 0 4 3 5 3 3 0 3"
    ascent="1600"
    descent="-400"
    x-height="948"
    cap-height="1237"
    bbox="-303.862 -497 1801.12 1941"
    underline-thickness="50"
    underline-position="-125"
    slope="-8"
    unicode-range="U+000D-FB02"
  />
<missing-glyph horiz-adv-x="1265" 
d="M166 -5v1660h1031v-1660h-1031zM246 44h871l-435 732zM223 104l429 721l-429 721v-1442zM1140 104v1442l-429 -721zM682 874l435 732h-871z" />
    <glyph glyph-name="fi" unicode="fi" horiz-adv-x="1107" 
d="M245 0l80 866h-146l6 82h147l15 162q8 92 45 150t93 85t122 27q31 0 64 -5.5t67 -21.5l-28 -92q-26 13 -55.5 21t-56.5 8q-31 0 -62 -14t-54.5 -51.5t-30.5 -108.5l-16 -160h186l-6 -82h-186l-84 -866h-100zM788 0l90 950h104l-90 -950h-104zM956 1200q-34 0 -50.5 21.5
t-14.5 54.5q3 30 23 55t56 25q35 0 52 -23t14 -57q-4 -35 -26 -55.5t-54 -20.5z" />
    <glyph glyph-name="fl" unicode="fl" horiz-adv-x="1077" 
d="M179 866l6 82h147l15 162q8 92 45 150t93 85t122 27q31 0 64 -5.5t67 -21.5l-28 -92q-26 13 -55.5 21t-56.5 8q-31 0 -62 -14t-54.5 -51.5t-30.5 -108.5l-16 -160h186l-6 -82h-186l-84 -866h-100l80 866h-146zM786 0l128 1356h104l-128 -1356h-104z" />
    <glyph glyph-name=".notdef" horiz-adv-x="1265" 
d="M166 -5v1660h1031v-1660h-1031zM246 44h871l-435 732zM223 104l429 721l-429 721v-1442zM1140 104v1442l-429 -721zM682 874l435 732h-871z" />
    <glyph glyph-name=".null" horiz-adv-x="0" 
 />
    <glyph glyph-name="CR" unicode="&#xd;" 
 />
    <glyph glyph-name="space" unicode=" " horiz-adv-x="413" 
 />
    <glyph glyph-name="comma" unicode="," horiz-adv-x="335" 
d="M118 -188l-73 41q50 23 84 57t49 80q-38 1 -60 23t-17 59q5 33 28.5 56t58.5 23q29 0 49 -16t30 -44t7 -64q-2 -35 -19.5 -75t-50.5 -76.5t-86 -63.5z" />
    <glyph glyph-name="period" unicode="." horiz-adv-x="288" 
d="M139 -18q-37 0 -57 27t-16 63q4 37 29.5 62t62.5 25q35 0 56.5 -24t16.5 -63q-3 -35 -29 -62.5t-63 -27.5z" />
    <glyph glyph-name="semicolon" unicode=";" horiz-adv-x="427" 
d="M163 -188l-73 41q50 23 84 57t49 80q-38 0 -59 24.5t-18 57.5t27.5 56t59.5 23q44 0 68 -34.5t19 -89.5q-6 -55 -44 -116.5t-113 -98.5zM289 684q-33 0 -55.5 25.5t-19.5 61.5q3 32 26 61t63 29q38 0 59.5 -27t16.5 -63q-4 -34 -29 -60.5t-61 -26.5z" />
    <glyph glyph-name="colon" unicode=":" horiz-adv-x="378" 
d="M251 690q-34 0 -56 24.5t-19 62.5q3 31 25.5 60.5t63.5 29.5q38 0 59 -26.5t16 -63.5q-3 -33 -28 -60t-61 -27zM194 63q-36 0 -57 26t-18 61q3 30 25.5 60t63.5 30q39 0 59 -27.5t16 -62.5q-3 -34 -28.5 -60.5t-60.5 -26.5z" />
    <glyph glyph-name="hyphen" unicode="-" horiz-adv-x="604" 
d="M109 521l10 98h481l-11 -98h-480z" />
    <glyph glyph-name="endash" unicode="&#x2013;" horiz-adv-x="805" 
d="M149 521l7 98h608l-11 -98h-604z" />
    <glyph glyph-name="emdash" unicode="&#x2014;" horiz-adv-x="1264" 
d="M149 521l7 98h1067l-9 -98h-1065z" />
    <glyph glyph-name="exclam" unicode="!" horiz-adv-x="485" 
d="M233 306l73 908h102l-95 -908h-80zM242 -18q-37 0 -58 27t-19 60q3 35 28.5 62.5t63.5 27.5q37 0 58 -26.5t17 -63.5q-4 -36 -29.5 -61.5t-60.5 -25.5z" />
    <glyph glyph-name="a" unicode="a" horiz-adv-x="984" 
d="M430 -18q-94 0 -155.5 41t-88 105t-19.5 132q11 99 61.5 160.5t126.5 90.5t161 29q63 0 129 -15t123 -45l14 136q15 144 -36.5 205t-155.5 61q-58 0 -108.5 -18.5t-83.5 -59.5t-38 -107h-117q9 103 61.5 162.5t129.5 85t157 25.5q147 0 228 -82t63 -273l-58 -615h-87
q1 45 2.5 88t1.5 87q-48 -99 -133 -146t-178 -47zM439 72q79 0 153.5 40t123 116t45.5 180q-62 21 -124.5 32.5t-119.5 11.5q-94 0 -162.5 -42t-78.5 -150q-7 -78 31 -133t132 -55z" />
    <glyph glyph-name="b" unicode="b" horiz-adv-x="1022" 
d="M557 -18q-89 0 -155.5 46.5t-97.5 139.5l-38 -168h-77l128 1356h104l-56 -564q48 83 123 130.5t162 47.5q92 0 167.5 -51t120 -145t44.5 -221q0 -89 -26 -189t-78.5 -186.5t-132.5 -141t-188 -54.5zM553 81q86 0 147 45.5t99.5 117t56.5 152.5t18 152q0 150 -70.5 236
t-174.5 86q-70 0 -133 -41.5t-105 -120t-53 -190.5l-7 -85q-12 -100 10.5 -180t76 -126t135.5 -46z" />
    <glyph glyph-name="c" unicode="c" horiz-adv-x="911" 
d="M477 -18q-104 0 -187 59t-125 170t-28 265q15 157 77.5 267t156 168.5t197.5 58.5q64 0 115 -21t89.5 -58.5t63.5 -87.5t34 -109l-104 -19q-18 93 -74 144t-135 51q-75 0 -142 -46.5t-112.5 -134.5t-56.5 -213q-11 -115 14.5 -204.5t84 -140t146.5 -50.5q97 0 163.5 59
t72.5 169h110q-8 -98 -58.5 -171.5t-129.5 -114.5t-172 -41z" />
    <glyph glyph-name="d" unicode="d" horiz-adv-x="1050" 
d="M491 -18q-95 0 -171 51.5t-120 144.5t-44 217q0 89 25.5 189t76.5 187.5t129.5 143t186.5 55.5q92 0 156 -45t98 -129l54 560h102l-126 -1356h-84l-1 164q-49 -89 -123.5 -135.5t-158.5 -46.5zM509 81q60 0 121.5 33t106.5 98t53 158l21 237q1 10 1.5 12.5t0.5 12.5
q0 81 -34.5 133.5t-89 78.5t-112.5 26q-85 0 -144 -46.5t-95.5 -118.5t-53 -152t-16.5 -147q0 -150 69 -237.5t172 -87.5z" />
    <glyph glyph-name="e" unicode="e" horiz-adv-x="911" 
d="M469 -18q-112 0 -192.5 57.5t-118 166.5t-22.5 264q15 156 73 268t149 172t202 60q77 0 134 -28t95 -77.5t55.5 -116t15.5 -143.5q-1 -33 -5.5 -73.5t-12.5 -78.5h-648l49 31q-13 -114 5.5 -206.5t75 -147.5t157.5 -55q92 0 157 51t87 148h109q-24 -97 -77.5 -162
t-127.5 -97.5t-160 -32.5zM243 512l-36 17h596l-49 -11q13 94 1 176t-59 133t-140 51q-92 0 -157.5 -51.5t-104 -134.5t-51.5 -180z" />
    <glyph glyph-name="f" unicode="f" horiz-adv-x="597" 
d="M179 866l6 82h147l15 162q8 92 45 150t93 85t122 27q31 0 64 -5.5t67 -21.5l-28 -92q-26 13 -55.5 21t-56.5 8q-31 0 -62 -14t-54.5 -51.5t-30.5 -108.5l-16 -160h186l-6 -82h-186l-84 -866h-100l80 866h-146z" />
    <glyph glyph-name="g" unicode="g" horiz-adv-x="998" 
d="M434 -486q-128 0 -217.5 38.5t-134.5 105t-39 149.5q6 80 54.5 137.5t128.5 81.5q-51 27 -74 71t-19 96q5 70 53.5 116t112.5 61q-38 47 -56 111.5t-11 142.5q10 104 60.5 181.5t130 121t175.5 43.5q66 0 121.5 -20.5t93.5 -59.5q15 67 48.5 117.5t85 78.5t122.5 28
l-29 -118q-77 0 -123.5 -38.5t-59.5 -124.5q25 -42 36.5 -94.5t6.5 -114.5q-10 -104 -62 -184t-133.5 -125.5t-179.5 -45.5q-50 0 -97.5 14t-84.5 41q-42 -7 -75.5 -40t-40.5 -87q-6 -50 26 -82t132 -32h357q110 0 170 -57t53 -151q-7 -91 -75.5 -174t-185.5 -135t-270 -52z
M434 -394q117 0 211.5 37t151.5 96.5t62 128.5q5 53 -25.5 91t-99.5 38h-372q-93 0 -151.5 -55t-62.5 -132q-4 -84 66 -144t220 -60zM540 355q71 0 127 35t91 96.5t42 137.5q11 114 -45.5 187t-163.5 73q-106 0 -176 -72t-82 -188q-11 -114 45.5 -191.5t161.5 -77.5z" />
    <glyph glyph-name="h" unicode="h" horiz-adv-x="1070" 
d="M189 0l128 1356h104l-57 -596q48 98 127.5 154t184.5 56q98 0 166.5 -48.5t100.5 -140.5t20 -223l-54 -558h-100l52 558q15 153 -44 232.5t-168 79.5q-93 0 -160 -54t-106 -151.5t-49 -229.5l-41 -435h-104z" />
    <glyph glyph-name="i" unicode="i" horiz-adv-x="510" 
d="M359 1200q-34 0 -50.5 21.5t-13.5 54.5q3 30 22.5 55t56.5 25q34 0 51 -23t15 -57q-4 -35 -26.5 -55.5t-54.5 -20.5zM192 0l89 950h104l-89 -950h-104z" />
    <glyph glyph-name="j" unicode="j" horiz-adv-x="546" 
d="M394 1200q-30 0 -49.5 20t-15.5 56q3 36 25.5 58t55.5 22t52.5 -22t14.5 -58q-3 -31 -26 -53.5t-57 -22.5zM27 -486q-59 0 -114.5 20t-111.5 60l17 102q51 -39 99 -60t100 -21q84 0 133 56t62 183l106 1098h104l-104 -1096q-11 -124 -53 -199.5t-104 -109t-134 -33.5z
" />
    <glyph glyph-name="k" unicode="k" horiz-adv-x="1006" 
d="M786 0l-318 524l-136 -114l-39 -410h-104l128 1356h104l-76 -816l492 408h148l-433 -357l364 -591h-130z" />
    <glyph glyph-name="l" unicode="l" horiz-adv-x="480" 
d="M189 0l128 1356h104l-128 -1356h-104z" />
    <glyph glyph-name="m" unicode="m" horiz-adv-x="1668" 
d="M187 0l89 948h88q-1 -50 -3 -99.5t-3 -98.5q49 106 129.5 163t185.5 57q112 0 184.5 -62.5t95.5 -177.5q50 121 132.5 180.5t190.5 59.5q98 0 167 -48t100.5 -140t18.5 -224l-52 -558h-100l53 558q14 150 -44 231t-170 81q-90 0 -151 -49t-97.5 -137.5t-51.5 -206.5
l-43 -477h-100l52 558q15 155 -45.5 233.5t-167.5 78.5q-134 0 -214.5 -112t-97.5 -296l-42 -462h-104z" />
    <glyph glyph-name="n" unicode="n" horiz-adv-x="1066" 
d="M187 0l89 948h88l-6 -198q49 106 129.5 163t185.5 57q99 0 167.5 -48t100 -140t17.5 -224l-52 -558h-100l52 558q15 155 -45.5 233.5t-167.5 78.5q-134 0 -214.5 -112t-97.5 -296l-42 -462h-104z" />
    <glyph glyph-name="o" unicode="o" horiz-adv-x="962" 
d="M479 -18q-116 0 -198.5 56.5t-121 166.5t-23.5 269q16 160 75.5 271t153 168t208.5 57q117 0 199 -58.5t120 -169t23 -268.5t-75 -268t-153 -167t-208 -57zM484 80q141 0 224 107.5t101 286.5q18 181 -43 289t-203 108q-140 0 -219.5 -106.5t-97.5 -290.5
q-10 -117 10.5 -206t76.5 -138.5t151 -49.5z" />
    <glyph glyph-name="p" unicode="p" horiz-adv-x="1055" 
d="M143 -468l136 1416h84v-77.5t-1 -77.5q52 87 126 132t159 45q100 0 179.5 -59t122.5 -169.5t28 -265.5q-14 -154 -77.5 -264.5t-156 -170t-194.5 -59.5q-84 0 -147 40t-96 114l-59 -604h-104zM558 81q68 0 135 45t115 132.5t60 217.5q12 127 -17 214.5t-88 133.5t-135 46
q-66 0 -127.5 -35.5t-104 -105.5t-52.5 -173l-17 -170q-8 -99 23.5 -167t87.5 -103t120 -35z" />
    <glyph glyph-name="q" unicode="q" horiz-adv-x="1027" 
d="M691 -470l58 638q-43 -87 -116.5 -136.5t-163.5 -49.5q-99 0 -179.5 60t-122 170.5t-27.5 263.5q15 155 78.5 265.5t155.5 169.5t190 59q86 0 152.5 -48t95.5 -137l38 163h77l-135 -1419zM490 81q64 0 125.5 35t104 103.5t51.5 166.5l21 217q-3 89 -36.5 148t-85 89
t-110.5 30q-72 0 -139 -45.5t-113 -133t-59 -215.5q-12 -131 19.5 -219t91.5 -132t130 -44z" />
    <glyph glyph-name="r" unicode="r" horiz-adv-x="653" 
d="M187 0l89 950h104l-18 -178q43 100 103 147t145 47q22 0 50.5 -4.5t54.5 -16.5l-20 -110q-29 12 -58.5 18.5t-58.5 6.5q-80 0 -131 -55t-79.5 -150t-39.5 -219l-37 -436h-104z" />
    <glyph glyph-name="s" unicode="s" horiz-adv-x="945" 
d="M476 -18q-114 0 -189.5 39.5t-111 106t-31.5 147.5h102q-5 -96 62.5 -150t172.5 -54q102 0 174 49t81 128q7 65 -36.5 100.5t-123.5 62.5l-151 55q-107 38 -161.5 99t-44.5 156q8 74 51 130t117 87.5t173 31.5q148 0 227 -67t74 -169h-105q-3 72 -57 108.5t-142 36.5
q-76 0 -125 -23.5t-74.5 -59.5t-30.5 -74q-9 -65 35.5 -106t123.5 -66l149 -52q107 -35 164.5 -95.5t46.5 -154.5q-8 -70 -53 -131t-125 -98t-192 -37z" />
    <glyph glyph-name="t" unicode="t" horiz-adv-x="658" 
d="M436 -18q-67 0 -115.5 27.5t-71.5 83.5t-15 143l60 657l41 -25h-195l13 80h188l-49 -45l32 315h104l-32 -315l-41 45h333l-10 -80h-332l49 25l-63 -658q-7 -80 24 -120.5t96 -40.5q38 0 77 10.5t83 28.5l7 -83q-47 -24 -92.5 -36t-90.5 -12z" />
    <glyph glyph-name="u" unicode="u" horiz-adv-x="1070" 
d="M477 -18q-99 0 -166.5 41.5t-98 123t-20.5 201.5l56 602h104l-54 -596q-15 -135 36.5 -203t164.5 -68q90 0 158.5 54t110.5 145t52 200l44 468h104l-90 -950h-102l19 198q-53 -101 -135 -158.5t-183 -57.5z" />
    <glyph glyph-name="v" unicode="v" horiz-adv-x="891" 
d="M127 948h113l217 -820l368 820h114l-440 -948h-111z" />
    <glyph glyph-name="w" unicode="w" horiz-adv-x="1272" 
d="M127 948h107l154 -797l292 754h80l153 -765l302 808h104l-369 -948h-98l-152 718l-280 -718h-98z" />
    <glyph glyph-name="x" unicode="x" horiz-adv-x="880" 
d="M56 0l364 474l-276 476h127l227 -386l289 386h126l-368 -476l276 -474h-126l-225 389l-288 -389h-126z" />
    <glyph glyph-name="y" unicode="y" horiz-adv-x="852" 
d="M164 -486q-52 0 -97 18.5t-90 53.5l11 110q40 -44 82 -62.5t90 -18.5q61 0 104 43.5t73.5 109.5t52.5 132l36 100l-263 948h113l212 -794l290 794h105l-422 -1145q-32 -87 -75 -152.5t-98 -101t-124 -35.5z" />
    <glyph glyph-name="z" unicode="z" horiz-adv-x="834" 
d="M92 0l7 94l606 760h-534l10 94h654l-10 -94l-602 -760h529l-5 -94h-655z" />
    <glyph glyph-name="A" unicode="A" horiz-adv-x="984" 
d="M50 0l500 1237h125l258 -1237h-105l-72 341h-459l-138 -341h-109zM333 437h402l-138 655z" />
    <glyph glyph-name="B" unicode="B" horiz-adv-x="1095" 
d="M189 0l117 1237h398q119 0 193 -45t105.5 -118.5t22.5 -159.5q-8 -105 -69 -186t-175 -109q71 -10 120 -54t73.5 -105t19.5 -124q-7 -67 -32.5 -127t-73.5 -107t-122.5 -74.5t-177.5 -27.5h-399zM303 101h293q144 0 210.5 66t76.5 170q12 104 -52.5 167.5t-191.5 63.5
h-293zM398 1137l-43 -471h293q108 0 184 63.5t86 175.5q10 109 -52 170.5t-175 61.5h-293z" />
    <glyph glyph-name="C" unicode="C" horiz-adv-x="1084" 
d="M560 -18q-147 0 -244 83.5t-137.5 229.5t-22.5 333q18 203 93.5 343t189 212.5t243.5 72.5q170 0 270 -96t134 -251l-120 -27q-27 126 -106.5 198.5t-187.5 72.5q-96 0 -183 -60t-147.5 -177t-75.5 -288q-15 -154 12 -277.5t99 -195.5t194 -72q147 0 242.5 86.5
t108.5 227.5h110q-10 -130 -75 -223t-167.5 -142.5t-229.5 -49.5z" />
    <glyph glyph-name="D" unicode="D" horiz-adv-x="1166" 
d="M304 1237h308q170 0 285 -77t168 -215.5t35 -324.5q-17 -188 -97 -327.5t-210 -216t-299 -76.5h-307zM396 1136l-98 -1040h207q134 0 239 68t169.5 186.5t77.5 269.5q13 149 -29 265.5t-133 183.5t-226 67h-207z" />
    <glyph glyph-name="E" unicode="E" horiz-adv-x="989" 
d="M187 0l117 1237h668l-13 -100h-563l-43 -465h530l-7 -96h-532l-43 -475h564l-12 -101h-666z" />
    <glyph glyph-name="F" unicode="F" horiz-adv-x="923" 
d="M189 0l117 1237h662l-12 -100h-558l-43 -459h523l-7 -100h-525l-53 -578h-104z" />
    <glyph glyph-name="G" unicode="G" horiz-adv-x="1129" 
d="M569 -18q-129 0 -230.5 73.5t-152.5 212t-32 331.5q14 165 68 288t135 204t178.5 121.5t198.5 40.5q115 0 205 -50.5t155 -159.5l-98 -51q-60 83 -129.5 120.5t-146.5 37.5q-109 0 -207 -66t-166 -189t-86 -296q-13 -149 20.5 -264.5t110.5 -182.5t193 -67q85 0 161 42.5
t124.5 132.5t51.5 232q1 10 -2.5 22.5t-17.5 34.5l67 -47l-341 17l8 78h398l-52 -597h-87q1 62 3.5 125.5t2.5 126.5l12 3q-45 -129 -129.5 -201t-214.5 -72z" />
    <glyph glyph-name="H" unicode="H" horiz-adv-x="1168" 
d="M189 0l117 1237h104l-55 -561h581l55 561h106l-119 -1237h-104l53 578h-581l-53 -578h-104z" />
    <glyph glyph-name="I" unicode="I" horiz-adv-x="480" 
d="M189 0l117 1237h104l-117 -1237h-104z" />
    <glyph glyph-name="J" unicode="J" horiz-adv-x="689" 
d="M13 67l9 125q56 -49 115 -75t121 -26q105 0 153 66.5t61 185.5l84 894h102l-83 -894q-13 -126 -56 -206t-110.5 -117.5t-154.5 -37.5q-73 0 -129.5 24.5t-111.5 60.5z" />
    <glyph glyph-name="K" unicode="K" horiz-adv-x="1051" 
d="M306 1237h106l-56 -609l587 609h144l-538 -554l450 -683h-135l-392 600l-135 -137l-42 -463h-106z" />
    <glyph glyph-name="L" unicode="L" horiz-adv-x="816" 
d="M189 0l117 1237h104l-107 -1136h517l-10 -101h-621z" />
    <glyph glyph-name="M" unicode="M" horiz-adv-x="1500" 
d="M189 0l117 1237h149l329 -896l497 896h149l-119 -1237h-103l102 1103l19 2l-525 -939h-73l-353 953l20 -6l-105 -1113h-104z" />
    <glyph glyph-name="N" unicode="N" horiz-adv-x="1201" 
d="M185 0l117 1237h130l510 -1108l-25 4l107 1104h104l-115 -1237h-124l-519 1115l26 -4l-104 -1111h-107z" />
    <glyph glyph-name="O" unicode="O" horiz-adv-x="1125" 
d="M560 -18q-132 0 -230.5 69t-146.5 210t-27 355q19 215 93.5 357t187 212.5t245.5 70.5t232.5 -71t148.5 -213t29 -356q-22 -216 -98 -357t-188.5 -209t-245.5 -68zM572 88q165 0 275 132.5t136 394.5q26 259 -60 398t-252 139q-168 0 -275.5 -139t-134.5 -397
q-24 -262 60.5 -395t250.5 -133z" />
    <glyph glyph-name="P" unicode="P" horiz-adv-x="972" 
d="M186 0l117 1237h341q120 0 196 -48t109 -133t22 -196q-16 -165 -117.5 -266t-282.5 -101h-235l-47 -493h-103zM345 591h237q126 0 199.5 72t84.5 197q11 128 -49 202.5t-184 74.5h-239z" />
    <glyph glyph-name="Q" unicode="Q" horiz-adv-x="1142" 
d="M864 -320q-77 0 -131 41.5t-99 123.5l-77 137q-133 1 -230.5 70.5t-144.5 210t-26 353.5q19 215 93.5 357t187 212.5t245.5 70.5t232.5 -71t148.5 -213t29 -356q-27 -278 -143 -431t-278 -193l62 -108q29 -46 56 -64t57 -20q50 0 90 13.5t91 38.5l-13 -133
q-43 -21 -79 -30t-71 -9zM572 88q165 0 275 132.5t136 394.5q26 259 -60 398t-252 139q-168 0 -275.5 -139t-134.5 -397q-24 -262 60.5 -395t250.5 -133z" />
    <glyph glyph-name="R" unicode="R" horiz-adv-x="1073" 
d="M189 0l117 1237h373q187 0 270 -101t66 -260q-13 -145 -99.5 -241.5t-242.5 -114.5l282 -520h-131l-264 519h-218l-49 -519h-104zM351 603h261q134 0 210.5 74.5t88.5 194.5q12 123 -51.5 194t-191.5 71h-270z" />
    <glyph glyph-name="S" unicode="S" horiz-adv-x="1056" 
d="M523 -18q-108 0 -193 44.5t-131.5 130t-38.5 206.5h98q-8 -95 28 -156.5t102 -91.5t144 -30q92 0 161 33.5t109 87.5t45 116q8 87 -35 142t-133 86l-175 71q-137 49 -203 118t-54 197q14 140 117 230t283 90q160 0 244 -81.5t87 -215.5h-102q-3 92 -65.5 141.5
t-174.5 49.5q-124 0 -197 -62.5t-81 -157.5q-6 -78 30.5 -122.5t124.5 -76.5l217 -79q113 -41 177 -119t52 -210q-7 -91 -60.5 -168.5t-148 -125t-227.5 -47.5z" />
    <glyph glyph-name="T" unicode="T" horiz-adv-x="871" 
d="M385 0l104 1137h-372l11 100h850l-12 -100h-373l-104 -1137h-104z" />
    <glyph glyph-name="U" unicode="U" horiz-adv-x="1144" 
d="M564 -18q-183 0 -283.5 111.5t-80.5 340.5l78 803h104l-78 -803q-17 -183 58.5 -266t214.5 -83q135 0 225 83t107 266l78 803h104l-78 -803q-13 -152 -74 -253t-157.5 -150t-217.5 -49z" />
    <glyph glyph-name="V" unicode="V" horiz-adv-x="971" 
d="M148 1237h107l243 -1096l448 1096h111l-519 -1237h-106z" />
    <glyph glyph-name="W" unicode="W" horiz-adv-x="1541" 
d="M137 1237h114l183 -1076l383 922h70l193 -926l445 1080h109l-514 -1237h-110l-180 843l-356 -843h-108z" />
    <glyph glyph-name="X" unicode="X" horiz-adv-x="1114" 
d="M99 0l452 612l-335 625h121l290 -539l373 539h123l-451 -624l341 -613h-130l-288 525l-367 -525h-129z" />
    <glyph glyph-name="Y" unicode="Y" horiz-adv-x="933" 
d="M414 0l47 505l-333 732h125l273 -612l391 612h121l-470 -732l-47 -505h-107z" />
    <glyph glyph-name="Z" unicode="Z" horiz-adv-x="1030" 
d="M132 0l8 109l771 1014l-673 9l10 105h803l-10 -110l-772 -1014l676 -8l-13 -105h-800z" />
    <glyph glyph-name="quotesingle" unicode="'" horiz-adv-x="200" 
d="M132 934l24 420h113l-55 -420h-82z" />
    <glyph glyph-name="apostrophe" unicode="&#x2bc;" horiz-adv-x="281" 
d="M241 1018l-74 41q50 25 84.5 58t49.5 79q-36 2 -59 23.5t-19 59.5q4 33 28 56t59 23q43 0 68.5 -34.5t18.5 -89.5q-3 -38 -21 -78t-51.5 -76t-83.5 -62z" />
    <glyph glyph-name="quoteleft" unicode="&#x2018;" horiz-adv-x="330" 
d="M245 879q-41 0 -65.5 36.5t-20.5 89.5q5 40 23.5 80.5t52.5 77t83 61.5l69 -40q-48 -29 -81 -63t-46 -77q36 -2 56.5 -23t17.5 -59q-4 -33 -28.5 -58t-60.5 -25z" />
    <glyph glyph-name="quoteright" unicode="&#x2019;" horiz-adv-x="330" 
d="M172 879l-71 43q49 29 82.5 62t46.5 77q-34 2 -56 23.5t-20 56.5q3 34 27.5 58.5t59.5 24.5q30 0 51 -15.5t31 -44t5 -66.5q-3 -38 -22 -78t-52.5 -76.5t-81.5 -64.5z" />
    <glyph glyph-name="parenleft" unicode="(" horiz-adv-x="596" 
d="M610 1428l72 -60q-113 -111 -194.5 -237t-130 -259.5t-61.5 -269.5q-12 -135 10.5 -268.5t80 -260t149.5 -239.5l-80 -54q-100 113 -164.5 247t-91.5 280.5t-13 294.5q22 224 131.5 438.5t291.5 387.5z" />
    <glyph glyph-name="parenright" unicode=")" horiz-adv-x="596" 
d="M101 -220l-71 54q113 113 194 239.5t129.5 260t61.5 268.5q12 136 -10.5 269.5t-80 259.5t-149.5 237l81 60q151 -173 219.5 -387.5t45.5 -438.5q-13 -148 -67 -294.5t-143 -280.5t-210 -247z" />
    <glyph glyph-name="plus" unicode="+" horiz-adv-x="930" 
d="M504 982h107l-43 -444h382l-8 -94h-384l-39 -444h-104l39 444h-380l8 94h382z" />
    <glyph glyph-name="minus" unicode="&#x2212;" horiz-adv-x="930" 
d="M117 536h739l-13 -96h-739z" />
    <glyph glyph-name="equal" unicode="=" horiz-adv-x="860" 
d="M175 356h577l-8 -98h-576zM208 721h578l-10 -103h-576z" />
    <glyph glyph-name="zero" unicode="0" horiz-adv-x="1032" 
d="M510 -18q-126 0 -212.5 71t-124.5 212.5t-17 354.5q18 211 82.5 352t166 212.5t231.5 71.5q127 0 214.5 -71.5t125.5 -212.5t19 -352q-18 -213 -84 -354.5t-169 -212.5t-232 -71zM525 85q156 0 246 139.5t115 395.5q26 254 -40 392t-224 138q-152 0 -243 -138t-118 -392
q-24 -256 43 -395.5t221 -139.5z" />
    <glyph glyph-name="one" unicode="1" horiz-adv-x="571" 
d="M408 1238h90l-116 -1238h-101l103 1101q-46 -34 -98 -55t-97 -25l12 118q54 6 107.5 30t99.5 69z" />
    <glyph glyph-name="two" unicode="2" horiz-adv-x="1020" 
d="M239 180l-7 -72h649l-7 -108h-753l13 166q10 109 49.5 180.5t102.5 117.5t140 78l222 99q93 40 147 105.5t62 165.5q12 108 -49 174t-176 66q-114 0 -192 -51.5t-98 -153.5h-112q16 96 69.5 165t140.5 106.5t202 37.5q107 0 183.5 -46t115.5 -125.5t30 -178.5
q-15 -146 -94 -233t-192 -134l-230 -102q-99 -44 -153 -104t-63 -153z" />
    <glyph glyph-name="three" unicode="3" horiz-adv-x="1033" 
d="M517 -18q-82 0 -154.5 25t-126.5 74.5t-81.5 122.5t-17.5 170h105q-9 -95 27.5 -159.5t105.5 -97t155 -32.5q131 0 210.5 74.5t90.5 183.5q6 69 -20 124t-90 87.5t-175 32.5h-116l12 94h63q143 0 234 62.5t101 169.5q10 101 -51 169t-181 68q-89 0 -163.5 -41
t-108.5 -152h-107q38 162 146 230.5t245 68.5q104 0 183 -43.5t120 -119t32 -171.5q-11 -99 -69 -168.5t-159 -107.5q104 -31 164.5 -108.5t49.5 -201.5q-11 -105 -64.5 -185.5t-144.5 -124.5t-215 -44z" />
    <glyph glyph-name="four" unicode="4" horiz-adv-x="972" 
d="M632 0l26 312h-579l9 93l672 851h90l-80 -843h193l-12 -101h-192l-28 -312h-99zM213 405h454l62 655z" />
    <glyph glyph-name="five" unicode="5" horiz-adv-x="998" 
d="M493 -18q-96 0 -177.5 39t-126 116.5t-32.5 192.5h101q-12 -120 61 -182.5t184 -62.5q132 0 213.5 88.5t94.5 221.5q11 127 -61 193t-217 66h-276l103 583h589l-10 -105h-488l-72 -400q42 8 89 13t86 5q187 0 284.5 -88.5t82.5 -266.5q-13 -119 -68.5 -213t-147.5 -147
t-212 -53z" />
    <glyph glyph-name="six" unicode="6" horiz-adv-x="1000" 
d="M517 -22q-130 0 -217 82t-125 221.5t-23 313.5q19 204 86.5 352t175.5 228.5t250 80.5q95 0 161.5 -40.5t103 -111.5t37.5 -165h-112q-7 97 -53.5 154t-145.5 57q-121 0 -218.5 -96.5t-150.5 -271.5t-41 -411q19 138 73 218t128.5 114.5t154.5 34.5q98 0 173.5 -49.5
t115 -136t29.5 -199.5q-12 -112 -65.5 -196.5t-140.5 -131.5t-196 -47zM527 85q113 0 192.5 72t90.5 200q12 125 -53 197t-177 72q-72 0 -133.5 -36t-100.5 -97t-46 -136q-12 -128 54.5 -200t172.5 -72z" />
    <glyph glyph-name="seven" unicode="7" horiz-adv-x="819" 
d="M117 0l655 1126h-622l10 111h742l-9 -104l-635 -1133h-141z" />
    <glyph glyph-name="eight" unicode="8" horiz-adv-x="1075" 
d="M531 -18q-123 0 -216 45t-141 123.5t-38 178.5q9 124 87.5 204.5t196.5 101.5q-48 25 -96 65t-76.5 98t-19.5 135q8 91 62 164t147.5 116t218.5 43q115 0 198.5 -44.5t126 -121t32.5 -172.5q-9 -104 -79.5 -189.5t-196.5 -106.5l43 -16q115 -51 173.5 -121t46.5 -188
q-10 -95 -69 -166t-161 -110t-239 -39zM546 85q148 0 242.5 59t102.5 154q8 73 -38 123t-125 81l-204 88q-119 -18 -195.5 -91t-84.5 -162q-13 -122 74.5 -187t227.5 -65zM620 675q115 4 195.5 69.5t91.5 170.5q11 103 -62.5 169t-201.5 66q-81 0 -147 -30t-107.5 -80.5
t-48.5 -110.5q-6 -77 35.5 -121t118.5 -78z" />
    <glyph glyph-name="nine" unicode="9" horiz-adv-x="1018" 
d="M496 -18q-109 0 -187 50t-116 137t-28 196h112q-11 -127 48.5 -203.5t178.5 -76.5q166 0 255 157t117 424q3 44 4.5 81t-0.5 82q-19 -106 -68 -179.5t-121 -112t-160 -38.5q-99 0 -174.5 49.5t-114.5 136.5t-28 199t64.5 195.5t140 130t193.5 46.5q125 0 214.5 -75
t132 -212.5t24.5 -326.5q-20 -205 -79.5 -353t-160.5 -227.5t-247 -79.5zM553 607q72 0 133 36t99.5 98t44.5 137q12 126 -52 198t-177 72q-110 0 -188.5 -72t-89.5 -198q-12 -126 52.5 -198.5t177.5 -72.5z" />
    <glyph glyph-name="dollar" unicode="$" horiz-adv-x="1082" 
d="M476 -171l14 155q-100 9 -178 55t-119.5 128t-32.5 196h98q-10 -131 58.5 -197t182.5 -78l51 517l-38 16q-141 50 -209 118.5t-54 196.5q11 130 103.5 216t259.5 99l14 149h89l-13 -151q144 -9 219 -87.5t81 -202.5h-102q-10 83 -61.5 131.5t-147.5 58.5l-43 -466
l106 -37q112 -41 176.5 -118t52.5 -206q-9 -82 -57.5 -156.5t-134.5 -124t-210 -57.5l-13 -155h-92zM590 87q126 11 197.5 81.5t81.5 155.5q6 85 -36.5 142t-125.5 86l-69 24zM562 714l38 432q-108 -10 -172 -69.5t-70 -145.5q-6 -78 30.5 -123.5t121.5 -76.5z" />
    <glyph glyph-name="question" unicode="?" horiz-adv-x="880" 
d="M347 286l8 95q8 91 30.5 145.5t66 94t114.5 85.5q60 40 102.5 72.5t66.5 72t27 97.5q5 98 -54 150t-173 52q-116 0 -180.5 -52.5t-89.5 -138.5h-114q23 130 126.5 213.5t265.5 83.5q117 0 192 -42t109.5 -113t28.5 -158q-6 -82 -42.5 -139t-87.5 -96.5t-101 -70.5
q-64 -40 -101 -70t-56 -72t-28 -120l-11 -89h-99zM369 -18q-40 0 -58 26t-14 62t28 61t63 25q43 0 60 -27t14 -60q-3 -38 -28.5 -62.5t-64.5 -24.5z" />
    <glyph glyph-name="sterling" unicode="&#xa3;" horiz-adv-x="979" 
d="M34 0l7 96h47q70 0 108.5 45.5t44.5 138.5l23 239h-168l7 87h171l23 245q13 124 54.5 215t115.5 140.5t182 49.5q113 0 184.5 -70.5t77.5 -201.5h-100q-10 84 -58 125t-115 41q-99 0 -161 -70.5t-76 -228.5l-26 -245h340l-9 -87h-338l-24 -236q-7 -68 -25.5 -114.5
t-61.5 -72.5h379q87 0 133 44.5t67 135.5h105q-23 -126 -92.5 -201t-223.5 -75h-591z" />
    <glyph glyph-name="grave" unicode="`" horiz-adv-x="526" 
d="M192 1572l59 104l366 -267l-38 -73z" />
    <glyph glyph-name="acute" unicode="&#xb4;" horiz-adv-x="617" 
d="M262 1096l-29 74l416 267l42 -105z" />
    <glyph glyph-name="agrave" unicode="&#xe0;" horiz-adv-x="984" 
d="M430 -18q-94 0 -155.5 41t-88 105t-19.5 132q11 99 61.5 160.5t126.5 90.5t161 29q63 0 129 -15t123 -45l14 136q15 144 -36.5 205t-155.5 61q-58 0 -108.5 -18.5t-83.5 -59.5t-38 -107h-117q9 103 61.5 162.5t129.5 85t157 25.5q147 0 228 -82t63 -273l-58 -615h-87
q1 45 2.5 88t1.5 87q-48 -99 -133 -146t-178 -47zM439 72q79 0 153.5 40t123 116t45.5 180q-62 21 -124.5 32.5t-119.5 11.5q-94 0 -162.5 -42t-78.5 -150q-7 -78 31 -133t132 -55zM766 1087l-385 236l59 105l366 -267z" />
    <glyph glyph-name="egrave" unicode="&#xe8;" horiz-adv-x="911" 
d="M469 -18q-112 0 -192.5 57.5t-118 166.5t-22.5 264q15 156 73 268t149 172t202 60q77 0 134 -28t95 -77.5t55.5 -116t15.5 -143.5q-1 -33 -5.5 -73.5t-12.5 -78.5h-648l49 31q-13 -114 5.5 -206.5t75 -147.5t157.5 -55q92 0 157 51t87 148h109q-24 -97 -77.5 -162
t-127.5 -97.5t-160 -32.5zM243 512l-36 17h596l-49 -11q13 94 1 176t-59 133t-140 51q-92 0 -157.5 -51.5t-104 -134.5t-51.5 -180zM730 1087l-385 236l59 105l366 -267z" />
    <glyph glyph-name="ograve" unicode="&#xf2;" horiz-adv-x="962" 
d="M479 -18q-116 0 -198.5 56.5t-121 166.5t-23.5 269q16 160 75.5 271t153 168t208.5 57q117 0 199 -58.5t120 -169t23 -268.5t-75 -268t-153 -167t-208 -57zM484 80q141 0 224 107.5t101 286.5q18 181 -43 289t-203 108q-140 0 -219.5 -106.5t-97.5 -290.5
q-10 -117 10.5 -206t76.5 -138.5t151 -49.5zM767 1087l-385 236l59 105l366 -267z" />
    <glyph glyph-name="Agrave" unicode="&#xc0;" horiz-adv-x="984" 
d="M50 0l500 1237h125l258 -1237h-105l-72 341h-459l-138 -341h-109zM333 437h402l-138 655zM807 1376l-385 236l59 105l366 -267z" />
    <glyph glyph-name="Egrave" unicode="&#xc8;" horiz-adv-x="989" 
d="M187 0l117 1237h668l-13 -100h-563l-43 -465h530l-7 -96h-532l-43 -475h564l-12 -101h-666zM809 1376l-385 236l59 105l366 -267z" />
    <glyph glyph-name="ugrave" unicode="&#xf9;" horiz-adv-x="1070" 
d="M477 -18q-99 0 -166.5 41.5t-98 123t-20.5 201.5l56 602h104l-54 -596q-15 -135 36.5 -203t164.5 -68q90 0 158.5 54t110.5 145t52 200l44 468h104l-90 -950h-102l19 198q-53 -101 -135 -158.5t-183 -57.5zM809 1087l-385 236l59 105l366 -267z" />
    <glyph glyph-name="aacute" unicode="&#xe1;" horiz-adv-x="984" 
d="M430 -18q-94 0 -155.5 41t-88 105t-19.5 132q11 99 61.5 160.5t126.5 90.5t161 29q63 0 129 -15t123 -45l14 136q15 144 -36.5 205t-155.5 61q-58 0 -108.5 -18.5t-83.5 -59.5t-38 -107h-117q9 103 61.5 162.5t129.5 85t157 25.5q147 0 228 -82t63 -273l-58 -615h-87
q1 45 2.5 88t1.5 87q-48 -99 -133 -146t-178 -47zM439 72q79 0 153.5 40t123 116t45.5 180q-62 21 -124.5 32.5t-119.5 11.5q-94 0 -162.5 -42t-78.5 -150q-7 -78 31 -133t132 -55zM493 1096l-29 74l416 267l42 -105z" />
    <glyph glyph-name="eacute" unicode="&#xe9;" horiz-adv-x="911" 
d="M469 -18q-112 0 -192.5 57.5t-118 166.5t-22.5 264q15 156 73 268t149 172t202 60q77 0 134 -28t95 -77.5t55.5 -116t15.5 -143.5q-1 -33 -5.5 -73.5t-12.5 -78.5h-648l49 31q-13 -114 5.5 -206.5t75 -147.5t157.5 -55q92 0 157 51t87 148h109q-24 -97 -77.5 -162
t-127.5 -97.5t-160 -32.5zM243 512l-36 17h596l-49 -11q13 94 1 176t-59 133t-140 51q-92 0 -157.5 -51.5t-104 -134.5t-51.5 -180zM457 1096l-29 74l416 267l42 -105z" />
    <glyph glyph-name="oacute" unicode="&#xf3;" horiz-adv-x="962" 
d="M479 -18q-116 0 -198.5 56.5t-121 166.5t-23.5 269q16 160 75.5 271t153 168t208.5 57q117 0 199 -58.5t120 -169t23 -268.5t-75 -268t-153 -167t-208 -57zM484 80q141 0 224 107.5t101 286.5q18 181 -43 289t-203 108q-140 0 -219.5 -106.5t-97.5 -290.5
q-10 -117 10.5 -206t76.5 -138.5t151 -49.5zM495 1096l-29 74l416 267l42 -105z" />
    <glyph glyph-name="uacute" unicode="&#xfa;" horiz-adv-x="1070" 
d="M477 -18q-99 0 -166.5 41.5t-98 123t-20.5 201.5l56 602h104l-54 -596q-15 -135 36.5 -203t164.5 -68q90 0 158.5 54t110.5 145t52 200l44 468h104l-90 -950h-102l19 198q-53 -101 -135 -158.5t-183 -57.5zM536 1096l-29 74l416 267l42 -105z" />
    <glyph glyph-name="Aacute" unicode="&#xc1;" horiz-adv-x="984" 
d="M50 0l500 1237h125l258 -1237h-105l-72 341h-459l-138 -341h-109zM333 437h402l-138 655zM534 1385l-29 74l416 267l42 -105z" />
    <glyph glyph-name="Eacute" unicode="&#xc9;" horiz-adv-x="989" 
d="M187 0l117 1237h668l-13 -100h-563l-43 -465h530l-7 -96h-532l-43 -475h564l-12 -101h-666zM536 1385l-29 74l416 267l42 -105z" />
    <glyph glyph-name="Igrave" unicode="&#xcc;" horiz-adv-x="480" 
d="M189 0l117 1237h104l-117 -1237h-104zM555 1376l-385 236l59 105l366 -267z" />
    <glyph glyph-name="Iacute" unicode="&#xcd;" horiz-adv-x="480" 
d="M189 0l117 1237h104l-117 -1237h-104zM282 1385l-29 74l416 267l42 -105z" />
    <glyph glyph-name="Ograve" unicode="&#xd2;" horiz-adv-x="1125" 
d="M560 -18q-132 0 -230.5 69t-146.5 210t-27 355q19 215 93.5 357t187 212.5t245.5 70.5t232.5 -71t148.5 -213t29 -356q-22 -216 -98 -357t-188.5 -209t-245.5 -68zM572 88q165 0 275 132.5t136 394.5q26 259 -60 398t-252 139q-168 0 -275.5 -139t-134.5 -397
q-24 -262 60.5 -395t250.5 -133zM877 1376l-385 236l59 105l366 -267z" />
    <glyph glyph-name="Oacute" unicode="&#xd3;" horiz-adv-x="1125" 
d="M560 -18q-132 0 -230.5 69t-146.5 210t-27 355q19 215 93.5 357t187 212.5t245.5 70.5t232.5 -71t148.5 -213t29 -356q-22 -216 -98 -357t-188.5 -209t-245.5 -68zM572 88q165 0 275 132.5t136 394.5q26 259 -60 398t-252 139q-168 0 -275.5 -139t-134.5 -397
q-24 -262 60.5 -395t250.5 -133zM605 1385l-29 74l416 267l42 -105z" />
    <glyph glyph-name="Ugrave" unicode="&#xd9;" horiz-adv-x="1144" 
d="M564 -18q-183 0 -283.5 111.5t-80.5 340.5l78 803h104l-78 -803q-17 -183 58.5 -266t214.5 -83q135 0 225 83t107 266l78 803h104l-78 -803q-13 -152 -74 -253t-157.5 -150t-217.5 -49zM887 1376l-385 236l59 105l366 -267z" />
    <glyph glyph-name="Uacute" unicode="&#xda;" horiz-adv-x="1144" 
d="M564 -18q-183 0 -283.5 111.5t-80.5 340.5l78 803h104l-78 -803q-17 -183 58.5 -266t214.5 -83q135 0 225 83t107 266l78 803h104l-78 -803q-13 -152 -74 -253t-157.5 -150t-217.5 -49zM614 1385l-29 74l416 267l42 -105z" />
    <glyph glyph-name="circumflex" unicode="&#x2c6;" horiz-adv-x="676" 
d="M498 1699l265 -306l-67 -57l-212 224l-250 -224l-61 57z" />
    <glyph glyph-name="acircumflex" unicode="&#xe2;" horiz-adv-x="984" 
d="M430 -18q-94 0 -155.5 41t-88 105t-19.5 132q11 99 61.5 160.5t126.5 90.5t161 29q63 0 129 -15t123 -45l14 136q15 144 -36.5 205t-155.5 61q-58 0 -108.5 -18.5t-83.5 -59.5t-38 -107h-117q9 103 61.5 162.5t129.5 85t157 25.5q147 0 228 -82t63 -273l-58 -615h-87
q1 45 2.5 88t1.5 87q-48 -99 -133 -146t-178 -47zM439 72q79 0 153.5 40t123 116t45.5 180q-62 21 -124.5 32.5t-119.5 11.5q-94 0 -162.5 -42t-78.5 -150q-7 -78 31 -133t132 -55zM333 1113l-60 57l323 306l266 -306l-68 -57l-210 224z" />
    <glyph glyph-name="ecircumflex" unicode="&#xea;" horiz-adv-x="911" 
d="M469 -18q-112 0 -192.5 57.5t-118 166.5t-22.5 264q15 156 73 268t149 172t202 60q77 0 134 -28t95 -77.5t55.5 -116t15.5 -143.5q-1 -33 -5.5 -73.5t-12.5 -78.5h-648l49 31q-13 -114 5.5 -206.5t75 -147.5t157.5 -55q92 0 157 51t87 148h109q-24 -97 -77.5 -162
t-127.5 -97.5t-160 -32.5zM243 512l-36 17h596l-49 -11q13 94 1 176t-59 133t-140 51q-92 0 -157.5 -51.5t-104 -134.5t-51.5 -180zM296 1113l-60 57l323 306l266 -306l-68 -57l-210 224z" />
    <glyph glyph-name="ocircumflex" unicode="&#xf4;" horiz-adv-x="962" 
d="M479 -18q-116 0 -198.5 56.5t-121 166.5t-23.5 269q16 160 75.5 271t153 168t208.5 57q117 0 199 -58.5t120 -169t23 -268.5t-75 -268t-153 -167t-208 -57zM484 80q141 0 224 107.5t101 286.5q18 181 -43 289t-203 108q-140 0 -219.5 -106.5t-97.5 -290.5
q-10 -117 10.5 -206t76.5 -138.5t151 -49.5zM334 1113l-60 57l323 306l266 -306l-68 -57l-210 224z" />
    <glyph glyph-name="ucircumflex" unicode="&#xfb;" horiz-adv-x="1070" 
d="M477 -18q-99 0 -166.5 41.5t-98 123t-20.5 201.5l56 602h104l-54 -596q-15 -135 36.5 -203t164.5 -68q90 0 158.5 54t110.5 145t52 200l44 468h104l-90 -950h-102l19 198q-53 -101 -135 -158.5t-183 -57.5zM376 1113l-60 57l323 306l266 -306l-68 -57l-210 224z" />
    <glyph glyph-name="Acircumflex" unicode="&#xc2;" horiz-adv-x="984" 
d="M50 0l500 1237h125l258 -1237h-105l-72 341h-459l-138 -341h-109zM333 437h402l-138 655zM374 1402l-60 57l323 306l266 -306l-68 -57l-210 224z" />
    <glyph glyph-name="Ecircumflex" unicode="&#xca;" horiz-adv-x="989" 
d="M187 0l117 1237h668l-13 -100h-563l-43 -465h530l-7 -96h-532l-43 -475h564l-12 -101h-666zM376 1402l-60 57l323 306l266 -306l-68 -57l-210 224z" />
    <glyph glyph-name="Icircumflex" unicode="&#xce;" horiz-adv-x="480" 
d="M189 0l117 1237h104l-117 -1237h-104zM122 1402l-60 57l323 306l266 -306l-68 -57l-210 224z" />
    <glyph glyph-name="Ocircumflex" unicode="&#xd4;" horiz-adv-x="1125" 
d="M560 -18q-132 0 -230.5 69t-146.5 210t-27 355q19 215 93.5 357t187 212.5t245.5 70.5t232.5 -71t148.5 -213t29 -356q-22 -216 -98 -357t-188.5 -209t-245.5 -68zM572 88q165 0 275 132.5t136 394.5q26 259 -60 398t-252 139q-168 0 -275.5 -139t-134.5 -397
q-24 -262 60.5 -395t250.5 -133zM444 1402l-60 57l323 306l266 -306l-68 -57l-210 224z" />
    <glyph glyph-name="Ucircumflex" unicode="&#xdb;" horiz-adv-x="1144" 
d="M564 -18q-183 0 -283.5 111.5t-80.5 340.5l78 803h104l-78 -803q-17 -183 58.5 -266t214.5 -83q135 0 225 83t107 266l78 803h104l-78 -803q-13 -152 -74 -253t-157.5 -150t-217.5 -49zM454 1402l-60 57l323 306l266 -306l-68 -57l-210 224z" />
    <glyph glyph-name="tilde" unicode="&#x2dc;" horiz-adv-x="630" 
d="M219 1425l-41 28q30 92 71 137t88 45q21 0 45 -10t81 -44q59 -35 79.5 -44t39.5 -9q29 0 54.5 26t49.5 81l46 -35q-19 -58 -45.5 -97t-55 -58.5t-58.5 -19.5q-24 0 -51.5 10.5t-86.5 48.5q-52 28 -71.5 36t-37.5 8q-25 0 -51.5 -22t-55.5 -81z" />
    <glyph glyph-name="ampersand" unicode="&#x26;" horiz-adv-x="1600" 
d="M579 -18q-125 0 -216.5 47t-138 127.5t-37.5 179.5q15 135 108 210t266 105l-23 24q-66 66 -95.5 140.5t-22.5 157.5q8 82 55 146t125 100t177 36q89 0 154.5 -37t98.5 -100.5t25 -143.5q-9 -107 -84.5 -192t-244.5 -165l289 -305q75 89 135 201.5t111 238.5l71 -45
q-49 -132 -112 -250.5t-142 -210.5l94 -97q33 -37 60 -52t72 -15q44 0 84.5 39t55.5 133h102q-21 -133 -84 -202.5t-165 -69.5q-45 0 -76 10.5t-59.5 33.5t-63.5 58.5t-88 84.5q-90 -88 -197.5 -137.5t-233.5 -49.5zM592 81q101 0 189.5 41t166.5 115l-323 347
q-155 -21 -235.5 -81.5t-89.5 -165.5q-11 -105 62.5 -180.5t229.5 -75.5zM670 674q109 56 166.5 104.5t80.5 97t29 99.5q7 79 -42.5 131.5t-135.5 52.5q-108 0 -168.5 -61.5t-66.5 -143.5q-6 -57 13.5 -112t72.5 -113z" />
    <glyph glyph-name="at" unicode="@" horiz-adv-x="1608" 
d="M924 -322q-189 0 -337.5 57.5t-248.5 162.5t-145.5 248.5t-29.5 316.5q15 170 84 314.5t179.5 252t254 167t309.5 59.5q146 0 261.5 -52t194.5 -143t115 -210.5t23 -254.5q-11 -116 -50 -211t-97 -163t-126 -105t-137 -37q-72 0 -111 36.5t-37 106.5l-3 32
q-38 -75 -98 -125t-150 -50q-72 0 -130.5 40.5t-90.5 115t-23 176.5q10 99 48.5 181.5t98 143t131 94t147.5 33.5q99 0 151.5 -67.5t39.5 -206.5l-32 -327q-4 -53 12 -77.5t55 -24.5q41 0 87 29.5t89 86t74.5 137t42.5 182.5q14 160 -42 286t-171.5 198t-281.5 72
q-147 0 -270.5 -56t-216.5 -152.5t-150 -222t-69 -265.5q-21 -207 52.5 -361t229 -239t379.5 -85zM798 170q76 0 131 51.5t110 148.5l17 218q10 98 -16.5 141t-93.5 43q-61 0 -130.5 -43.5t-121 -124t-60.5 -192.5q-15 -114 33.5 -178t130.5 -64z" />
    <glyph glyph-name="dieresis" unicode="&#xa8;" horiz-adv-x="524" 
d="M200 1649q5 35 27.5 59.5t54.5 24.5q35 0 57 -24.5t17 -59.5q-2 -32 -29 -56.5t-63 -24.5q-32 0 -50 24.5t-14 56.5zM477 1648q5 36 28.5 60t53.5 24q35 0 56.5 -24t18.5 -60q-2 -31 -29.5 -56.5t-63.5 -25.5q-30 0 -49 25.5t-15 56.5z" />
    <glyph glyph-name="adieresis" unicode="&#xe4;" horiz-adv-x="984" 
d="M430 -18q-94 0 -155.5 41t-88 105t-19.5 132q11 99 61.5 160.5t126.5 90.5t161 29q63 0 129 -15t123 -45l14 136q15 144 -36.5 205t-155.5 61q-58 0 -108.5 -18.5t-83.5 -59.5t-38 -107h-117q9 103 61.5 162.5t129.5 85t157 25.5q147 0 228 -82t63 -273l-58 -615h-87
q1 45 2.5 88t1.5 87q-48 -99 -133 -146t-178 -47zM439 72q79 0 153.5 40t123 116t45.5 180q-62 21 -124.5 32.5t-119.5 11.5q-94 0 -162.5 -42t-78.5 -150q-7 -78 31 -133t132 -55zM455 1202q-34 0 -52 24t-14 56q2 29 24 56.5t60 27.5q29 0 51 -20t21 -57q-2 -42 -31 -64.5
t-59 -22.5zM730 1200q-32 0 -49.5 25t-14.5 56q2 30 25 57t58 27q25 0 49.5 -18t23.5 -59q-1 -46 -33.5 -67t-58.5 -21z" />
    <glyph glyph-name="edieresis" unicode="&#xeb;" horiz-adv-x="911" 
d="M469 -18q-112 0 -192.5 57.5t-118 166.5t-22.5 264q15 156 73 268t149 172t202 60q77 0 134 -28t95 -77.5t55.5 -116t15.5 -143.5q-1 -33 -5.5 -73.5t-12.5 -78.5h-648l49 31q-13 -114 5.5 -206.5t75 -147.5t157.5 -55q92 0 157 51t87 148h109q-24 -97 -77.5 -162
t-127.5 -97.5t-160 -32.5zM243 512l-36 17h596l-49 -11q13 94 1 176t-59 133t-140 51q-92 0 -157.5 -51.5t-104 -134.5t-51.5 -180zM419 1202q-34 0 -52 24t-14 56q2 29 24 56.5t60 27.5q29 0 51 -20t21 -57q-2 -42 -31 -64.5t-59 -22.5zM694 1200q-32 0 -49.5 25t-14.5 56
q2 30 25 57t58 27q25 0 49.5 -18t23.5 -59q-1 -46 -33.5 -67t-58.5 -21z" />
    <glyph glyph-name="odieresis" unicode="&#xf6;" horiz-adv-x="962" 
d="M479 -18q-116 0 -198.5 56.5t-121 166.5t-23.5 269q16 160 75.5 271t153 168t208.5 57q117 0 199 -58.5t120 -169t23 -268.5t-75 -268t-153 -167t-208 -57zM484 80q141 0 224 107.5t101 286.5q18 181 -43 289t-203 108q-140 0 -219.5 -106.5t-97.5 -290.5
q-10 -117 10.5 -206t76.5 -138.5t151 -49.5zM456 1202q-34 0 -52 24t-14 56q2 29 24 56.5t60 27.5q29 0 51 -20t21 -57q-2 -42 -31 -64.5t-59 -22.5zM731 1200q-32 0 -49.5 25t-14.5 56q2 30 25 57t58 27q25 0 49.5 -18t23.5 -59q-1 -46 -33.5 -67t-58.5 -21z" />
    <glyph glyph-name="udieresis" unicode="&#xfc;" horiz-adv-x="1070" 
d="M477 -18q-99 0 -166.5 41.5t-98 123t-20.5 201.5l56 602h104l-54 -596q-15 -135 36.5 -203t164.5 -68q90 0 158.5 54t110.5 145t52 200l44 468h104l-90 -950h-102l19 198q-53 -101 -135 -158.5t-183 -57.5zM498 1202q-34 0 -52 24t-14 56q2 29 24 56.5t60 27.5
q29 0 51 -20t21 -57q-2 -42 -31 -64.5t-59 -22.5zM773 1200q-32 0 -49.5 25t-14.5 56q2 30 25 57t58 27q25 0 49.5 -18t23.5 -59q-1 -46 -33.5 -67t-58.5 -21z" />
    <glyph glyph-name="Adieresis" unicode="&#xc4;" horiz-adv-x="984" 
d="M50 0l500 1237h125l258 -1237h-105l-72 341h-459l-138 -341h-109zM333 437h402l-138 655zM496 1491q-34 0 -52 24t-14 56q2 29 24 56.5t60 27.5q29 0 51 -20t21 -57q-2 -42 -31 -64.5t-59 -22.5zM771 1489q-32 0 -49.5 25t-14.5 56q2 30 25 57t58 27q25 0 49.5 -18
t23.5 -59q-1 -46 -33.5 -67t-58.5 -21z" />
    <glyph glyph-name="Edieresis" unicode="&#xcb;" horiz-adv-x="989" 
d="M187 0l117 1237h668l-13 -100h-563l-43 -465h530l-7 -96h-532l-43 -475h564l-12 -101h-666zM498 1491q-34 0 -52 24t-14 56q2 29 24 56.5t60 27.5q29 0 51 -20t21 -57q-2 -42 -31 -64.5t-59 -22.5zM773 1489q-32 0 -49.5 25t-14.5 56q2 30 25 57t58 27q25 0 49.5 -18
t23.5 -59q-1 -46 -33.5 -67t-58.5 -21z" />
    <glyph glyph-name="Idieresis" unicode="&#xcf;" horiz-adv-x="480" 
d="M189 0l117 1237h104l-117 -1237h-104zM244 1491q-34 0 -52 24t-14 56q2 29 24 56.5t60 27.5q29 0 51 -20t21 -57q-2 -42 -31 -64.5t-59 -22.5zM519 1489q-32 0 -49.5 25t-14.5 56q2 30 25 57t58 27q25 0 49.5 -18t23.5 -59q-1 -46 -33.5 -67t-58.5 -21z" />
    <glyph glyph-name="Odieresis" unicode="&#xd6;" horiz-adv-x="1125" 
d="M560 -18q-132 0 -230.5 69t-146.5 210t-27 355q19 215 93.5 357t187 212.5t245.5 70.5t232.5 -71t148.5 -213t29 -356q-22 -216 -98 -357t-188.5 -209t-245.5 -68zM572 88q165 0 275 132.5t136 394.5q26 259 -60 398t-252 139q-168 0 -275.5 -139t-134.5 -397
q-24 -262 60.5 -395t250.5 -133zM566 1491q-34 0 -52 24t-14 56q2 29 24 56.5t60 27.5q29 0 51 -20t21 -57q-2 -42 -31 -64.5t-59 -22.5zM841 1489q-32 0 -49.5 25t-14.5 56q2 30 25 57t58 27q25 0 49.5 -18t23.5 -59q-1 -46 -33.5 -67t-58.5 -21z" />
    <glyph glyph-name="Udieresis" unicode="&#xdc;" horiz-adv-x="1144" 
d="M564 -18q-183 0 -283.5 111.5t-80.5 340.5l78 803h104l-78 -803q-17 -183 58.5 -266t214.5 -83q135 0 225 83t107 266l78 803h104l-78 -803q-13 -152 -74 -253t-157.5 -150t-217.5 -49zM576 1491q-34 0 -52 24t-14 56q2 29 24 56.5t60 27.5q29 0 51 -20t21 -57
q-2 -42 -31 -64.5t-59 -22.5zM851 1489q-32 0 -49.5 25t-14.5 56q2 30 25 57t58 27q25 0 49.5 -18t23.5 -59q-1 -46 -33.5 -67t-58.5 -21z" />
    <glyph glyph-name="igrave" unicode="&#xec;" horiz-adv-x="510" 
d="M192 0l89 950h104l-89 -950h-104zM529 1087l-385 236l59 105l366 -267z" />
    <glyph glyph-name="iacute" unicode="&#xed;" horiz-adv-x="510" 
d="M192 0l89 950h104l-89 -950h-104zM256 1096l-29 74l416 267l42 -105z" />
    <glyph glyph-name="icircumflex" unicode="&#xee;" horiz-adv-x="510" 
d="M192 0l89 950h104l-89 -950h-104zM96 1113l-60 57l323 306l266 -306l-68 -57l-210 224z" />
    <glyph glyph-name="idieresis" unicode="&#xef;" horiz-adv-x="510" 
d="M192 0l89 950h104l-89 -950h-104zM218 1202q-34 0 -52 24t-14 56q2 29 24 56.5t60 27.5q29 0 51 -20t21 -57q-2 -42 -31 -64.5t-59 -22.5zM493 1200q-32 0 -49.5 25t-14.5 56q2 30 25 57t58 27q25 0 49.5 -18t23.5 -59q-1 -46 -33.5 -67t-58.5 -21z" />
    <glyph glyph-name="less" unicode="&#x3c;" horiz-adv-x="772" 
d="M721 1095l59 -88l-556 -415l478 -408l-74 -91l-512 451l8 97z" />
    <glyph glyph-name="greater" unicode="&#x3e;" horiz-adv-x="772" 
d="M163 93l-61 91l549 408l-471 415l76 88l507 -454l-9 -97z" />
    <glyph glyph-name="quotedbl" unicode="&#x22;" horiz-adv-x="474" 
d="M173 1356h114l-55 -420h-83zM443 1356h114l-56 -420h-82z" />
    <glyph glyph-name="numbersign" unicode="#" horiz-adv-x="1078" 
d="M258 60l53 287h-190l18 83h187l73 378h-192l15 78h191l53 286h98l-53 -286h293l54 286h94l-52 -286h190l-13 -78h-192l-73 -378h191l-15 -83h-191l-53 -287h-99l54 287h-293l-53 -287h-95zM424 430h294l72 378h-293z" />
    <glyph glyph-name="asterisk" unicode="*" horiz-adv-x="746" 
d="M296 768l-62 65l185 186l-207 83l47 91l186 -112l6 266h94l-41 -266l210 109l27 -89l-223 -83l147 -185l-70 -65l-130 210z" />
    <glyph glyph-name="slash" unicode="/" horiz-adv-x="739" 
d="M93 -138l595 1585h104l-598 -1585h-101z" />
    <glyph glyph-name="percent" unicode="%" horiz-adv-x="1268" 
d="M450 1256q87 0 147.5 -72.5t48.5 -208.5q-13 -133 -87 -204.5t-161 -71.5q-59 0 -106.5 32t-72.5 93.5t-16 150.5q9 91 45.5 153.5t89.5 95t112 32.5zM443 1174q-62 0 -104 -49.5t-52 -149.5q-9 -98 23.5 -144.5t94.5 -46.5q55 0 97 46.5t52 144.5q10 100 -23 149.5
t-88 49.5zM209 0l857 1237h112l-861 -1237h-108zM984 537q89 0 149.5 -71.5t46.5 -208.5q-12 -135 -86.5 -205t-163.5 -70q-85 0 -144.5 70t-46.5 205q13 137 86.5 208.5t158.5 71.5zM978 454q-60 0 -102 -49t-54 -148q-7 -98 25.5 -144.5t92.5 -46.5q59 0 100 46.5
t48 144.5q12 99 -20.5 148t-89.5 49z" />
    <glyph glyph-name="backslash" unicode="\" horiz-adv-x="739" 
d="M785 -139l-595 1584h101l598 -1584h-104z" />
    <glyph glyph-name="bar" unicode="|" horiz-adv-x="480" 
d="M165 -244l162 1721h104l-162 -1721h-104z" />
    <glyph glyph-name="bracketleft" unicode="[" horiz-adv-x="536" 
d="M135 -161l145 1559h306l-6 -101h-204l-130 -1359h205l-8 -99h-308z" />
    <glyph glyph-name="bracketright" unicode="]" horiz-adv-x="462" 
d="M-23 -161l9 99h204l144 1359h-204l10 101h310l-165 -1559h-308z" />
    <glyph glyph-name="asciicircum" unicode="^" horiz-adv-x="729" 
d="M86 520l355 634h77l236 -634h-117l-171 495l-261 -495h-119z" />
    <glyph glyph-name="underscore" unicode="_" horiz-adv-x="1264" 
d="M79 -1l8 98h1065l-7 -98h-1066z" />
    <glyph glyph-name="braceleft" unicode="{" horiz-adv-x="586" 
d="M542 -256q-127 0 -195 57.5t-90.5 159t-9.5 231.5l16 185q9 87 -4.5 125.5t-46.5 38.5h-20l9 106h22q34 0 54 38t29 127l15 181q13 130 55 232t121.5 161t206.5 59l-7 -97q-132 0 -194 -93t-80 -263l-15 -180q-9 -91 -36 -141.5t-65 -73.5l-3 -6q36 -19 53.5 -71
t6.5 -144l-15 -182q-15 -170 27.5 -261.5t177.5 -91.5z" />
    <glyph glyph-name="braceright" unicode="}" horiz-adv-x="532" 
d="M-23 -256l9 97q132 0 195.5 92.5t76.5 263.5l15 179q9 92 38 144.5t67 73.5v3q-30 18 -46.5 57.5t-15.5 110.5q0 10 0.5 23t1.5 24l14 183q3 34 3.5 51t0.5 30q2 131 -44.5 201.5t-162.5 70.5l10 97q113 0 179 -45.5t94 -127t26 -188.5q0 -20 -1.5 -43t-2.5 -44l-16 -185
q-1 -17 -2.5 -30t-1.5 -26q0 -61 14 -85t41 -24h21l-10 -106h-22q-33 0 -54 -37.5t-29 -126.5l-15 -181q-12 -130 -53.5 -232.5t-122 -161t-207.5 -58.5z" />
    <glyph glyph-name="asciitilde" unicode="~" horiz-adv-x="871" 
d="M196 466l-61 34q38 95 88.5 143t103.5 48q30 0 65.5 -11.5t104.5 -44.5q75 -33 106.5 -44t56.5 -11q71 0 129 115l52 -38q-38 -98 -88.5 -144t-106.5 -46q-25 0 -64.5 14.5t-106.5 41.5q-73 35 -105.5 47t-57.5 12q-28 0 -59 -26t-57 -90z" />
    <glyph glyph-name="atilde" unicode="&#xe3;" horiz-adv-x="984" 
d="M430 -18q-94 0 -155.5 41t-88 105t-19.5 132q11 99 61.5 160.5t126.5 90.5t161 29q63 0 129 -15t123 -45l14 136q15 144 -36.5 205t-155.5 61q-58 0 -108.5 -18.5t-83.5 -59.5t-38 -107h-117q9 103 61.5 162.5t129.5 85t157 25.5q147 0 228 -82t63 -273l-58 -615h-87
q1 45 2.5 88t1.5 87q-48 -99 -133 -146t-178 -47zM439 72q79 0 153.5 40t123 116t45.5 180q-62 21 -124.5 32.5t-119.5 11.5q-94 0 -162.5 -42t-78.5 -150q-7 -78 31 -133t132 -55zM369 1174l-41 29q33 96 73 138.5t88 42.5q22 0 46 -10.5t79 -43.5q54 -31 75 -42t39 -11
q31 0 56.5 23.5t52.5 83.5l45 -35q-19 -58 -45 -96.5t-55 -58.5t-59 -20q-22 0 -48.5 13t-89.5 46q-52 29 -70.5 36.5t-34.5 7.5q-28 0 -54.5 -22t-56.5 -81z" />
    <glyph glyph-name="ntilde" unicode="&#xf1;" horiz-adv-x="1066" 
d="M187 0l89 948h88l-6 -198q49 106 129.5 163t185.5 57q99 0 167.5 -48t100 -140t17.5 -224l-52 -558h-100l52 558q15 155 -45.5 233.5t-167.5 78.5q-134 0 -214.5 -112t-97.5 -296l-42 -462h-104zM411 1174l-41 29q33 96 73 138.5t88 42.5q22 0 46 -10.5t79 -43.5
q54 -31 75 -42t39 -11q31 0 56.5 23.5t52.5 83.5l45 -35q-19 -58 -45 -96.5t-55 -58.5t-59 -20q-22 0 -48.5 13t-89.5 46q-52 29 -70.5 36.5t-34.5 7.5q-28 0 -54.5 -22t-56.5 -81z" />
    <glyph glyph-name="otilde" unicode="&#xf5;" horiz-adv-x="962" 
d="M479 -18q-116 0 -198.5 56.5t-121 166.5t-23.5 269q16 160 75.5 271t153 168t208.5 57q117 0 199 -58.5t120 -169t23 -268.5t-75 -268t-153 -167t-208 -57zM484 80q141 0 224 107.5t101 286.5q18 181 -43 289t-203 108q-140 0 -219.5 -106.5t-97.5 -290.5
q-10 -117 10.5 -206t76.5 -138.5t151 -49.5zM371 1174l-41 29q33 96 73 138.5t88 42.5q22 0 46 -10.5t79 -43.5q54 -31 75 -42t39 -11q31 0 56.5 23.5t52.5 83.5l45 -35q-19 -58 -45 -96.5t-55 -58.5t-59 -20q-22 0 -48.5 13t-89.5 46q-52 29 -70.5 36.5t-34.5 7.5
q-28 0 -54.5 -22t-56.5 -81z" />
    <glyph glyph-name="Atilde" unicode="&#xc3;" horiz-adv-x="984" 
d="M50 0l500 1237h125l258 -1237h-105l-72 341h-459l-138 -341h-109zM333 437h402l-138 655zM410 1463l-41 29q33 96 73 138.5t88 42.5q22 0 46 -10.5t79 -43.5q54 -31 75 -42t39 -11q31 0 56.5 23.5t52.5 83.5l45 -35q-19 -58 -45 -96.5t-55 -58.5t-59 -20q-22 0 -48.5 13
t-89.5 46q-52 29 -70.5 36.5t-34.5 7.5q-28 0 -54.5 -22t-56.5 -81z" />
    <glyph glyph-name="Ntilde" unicode="&#xd1;" horiz-adv-x="1201" 
d="M185 0l117 1237h130l510 -1108l-25 4l107 1104h104l-115 -1237h-124l-519 1115l26 -4l-104 -1111h-107zM519 1463l-41 29q33 96 73 138.5t88 42.5q22 0 46 -10.5t79 -43.5q54 -31 75 -42t39 -11q31 0 56.5 23.5t52.5 83.5l45 -35q-19 -58 -45 -96.5t-55 -58.5t-59 -20
q-22 0 -48.5 13t-89.5 46q-52 29 -70.5 36.5t-34.5 7.5q-28 0 -54.5 -22t-56.5 -81z" />
    <glyph glyph-name="Otilde" unicode="&#xd5;" horiz-adv-x="1125" 
d="M560 -18q-132 0 -230.5 69t-146.5 210t-27 355q19 215 93.5 357t187 212.5t245.5 70.5t232.5 -71t148.5 -213t29 -356q-22 -216 -98 -357t-188.5 -209t-245.5 -68zM572 88q165 0 275 132.5t136 394.5q26 259 -60 398t-252 139q-168 0 -275.5 -139t-134.5 -397
q-24 -262 60.5 -395t250.5 -133zM481 1463l-41 29q33 96 73 138.5t88 42.5q22 0 46 -10.5t79 -43.5q54 -31 75 -42t39 -11q31 0 56.5 23.5t52.5 83.5l45 -35q-19 -58 -45 -96.5t-55 -58.5t-59 -20q-22 0 -48.5 13t-89.5 46q-52 29 -70.5 36.5t-34.5 7.5q-28 0 -54.5 -22
t-56.5 -81z" />
    <glyph glyph-name="Abreve" unicode="&#x102;" horiz-adv-x="984" 
d="M50 0l500 1237h125l258 -1237h-105l-72 341h-459l-138 -341h-109zM333 437h402l-138 655zM613 1437q-116 0 -177.5 66t-49.5 159h101q-9 -67 29.5 -105t108.5 -38q71 0 119 38t57 105h102q-9 -97 -90 -161t-200 -64z" />
    <glyph glyph-name="Amacron" unicode="&#x100;" horiz-adv-x="984" 
d="M50 0l500 1237h125l258 -1237h-105l-72 341h-459l-138 -341h-109zM333 437h402l-138 655zM351 1554h590l-18 -98h-590z" />
    <glyph glyph-name="Aogonek" unicode="&#x104;" horiz-adv-x="984" 
d="M50 0l500 1237h125l258 -1237h-105l-72 341h-459l-138 -341h-109zM333 437h402l-138 655zM1052 -334q-62 -36 -131 -55t-131 -19q-94 0 -148 43t-54 118q0 83 70 159.5t210 127.5l61 -39q-117 -51 -184.5 -106t-67.5 -118q0 -48 38 -72t94 -24q48 0 99.5 16.5t112.5 50.5
z" />
    <glyph glyph-name="Aring" unicode="&#xc5;" horiz-adv-x="984" 
d="M50 0l500 1237h125l258 -1237h-105l-72 341h-459l-138 -341h-109zM333 437h402l-138 655zM636 1381q-49 0 -90.5 24.5t-66 66t-24.5 90.5q0 50 24.5 91t66 65.5t90.5 24.5q50 0 91 -24.5t65.5 -65.5t24.5 -91q0 -49 -24.5 -90.5t-65.5 -66t-91 -24.5zM636 1469
q39 0 66 27.5t27 65.5q0 39 -27 66t-66 27q-38 0 -65.5 -27t-27.5 -66q0 -38 27.5 -65.5t65.5 -27.5z" />
    <glyph glyph-name="AE" unicode="&#xc6;" horiz-adv-x="1450" 
d="M50 0l498 1237h879l-8 -100h-612l38 38l-50 -536l-30 33h578l-7 -96h-581l39 42l-51 -546l-30 29h612l-10 -101h-687l35 376l41 -25h-441l48 31l-152 -382h-109zM665 401l72 774l41 -38h-197l47 35l-306 -762l-13 37h406z" />
    <glyph glyph-name="Cacute" unicode="&#x106;" horiz-adv-x="1084" 
d="M560 -18q-147 0 -244 83.5t-137.5 229.5t-22.5 333q18 203 93.5 343t189 212.5t243.5 72.5q170 0 270 -96t134 -251l-120 -27q-27 126 -106.5 198.5t-187.5 72.5q-96 0 -183 -60t-147.5 -177t-75.5 -288q-15 -154 12 -277.5t99 -195.5t194 -72q147 0 242.5 86.5
t108.5 227.5h110q-10 -130 -75 -223t-167.5 -142.5t-229.5 -49.5zM626 1385l-29 74l416 267l42 -105z" />
    <glyph glyph-name="Ccaron" unicode="&#x10c;" horiz-adv-x="1084" 
d="M560 -18q-147 0 -244 83.5t-137.5 229.5t-22.5 333q18 203 93.5 343t189 212.5t243.5 72.5q170 0 270 -96t134 -251l-120 -27q-27 126 -106.5 198.5t-187.5 72.5q-96 0 -183 -60t-147.5 -177t-75.5 -288q-15 -154 12 -277.5t99 -195.5t194 -72q147 0 242.5 86.5
t108.5 227.5h110q-10 -130 -75 -223t-167.5 -142.5t-229.5 -49.5zM983 1769l60 -57l-324 -306l-266 306l68 57l211 -224z" />
    <glyph glyph-name="Ccedilla" unicode="&#xc7;" horiz-adv-x="1084" 
d="M560 -18q-147 0 -244 83.5t-137.5 229.5t-22.5 333q18 203 93.5 343t189 212.5t243.5 72.5q170 0 270 -96t134 -251l-120 -27q-27 126 -106.5 198.5t-187.5 72.5q-96 0 -183 -60t-147.5 -177t-75.5 -288q-15 -154 12 -277.5t99 -195.5t194 -72q147 0 242.5 86.5
t108.5 227.5h110q-10 -130 -75 -223t-167.5 -142.5t-229.5 -49.5zM397 -350l21 57q80 -43 142.5 -49t98.5 15t36 58q0 39 -35 67.5t-85 47t-96 28.5l56 171l82 -6l-54 -161l-43 55q89 -22 152.5 -51t97 -66.5t33.5 -86.5q0 -57 -41 -91t-105.5 -44t-134 4t-125.5 52z" />
    <glyph glyph-name="Cdotaccent" unicode="&#x10a;" horiz-adv-x="1084" 
d="M560 -18q-147 0 -244 83.5t-137.5 229.5t-22.5 333q18 203 93.5 343t189 212.5t243.5 72.5q170 0 270 -96t134 -251l-120 -27q-27 126 -106.5 198.5t-187.5 72.5q-96 0 -183 -60t-147.5 -177t-75.5 -288q-15 -154 12 -277.5t99 -195.5t194 -72q147 0 242.5 86.5
t108.5 227.5h110q-10 -130 -75 -223t-167.5 -142.5t-229.5 -49.5zM726 1489q-33 0 -51 25t-15 56q3 30 27 57t65 27q24 0 46 -20t19 -57q-5 -41 -31 -64.5t-60 -23.5z" />
    <glyph glyph-name="Eth" unicode="&#xd0;" horiz-adv-x="1166" 
d="M126 675h541l-9 -99h-544zM304 1237h308q170 0 285 -77t168 -215.5t35 -324.5q-17 -188 -97 -327.5t-210 -216t-299 -76.5h-307zM396 1136l-98 -1040h207q134 0 239 68t169.5 186.5t77.5 269.5q13 149 -29 265.5t-133 183.5t-226 67h-207z" />
    <glyph glyph-name="Dcaron" unicode="&#x10e;" horiz-adv-x="1166" 
d="M304 1237h308q170 0 285 -77t168 -215.5t35 -324.5q-17 -188 -97 -327.5t-210 -216t-299 -76.5h-307zM396 1136l-98 -1040h207q134 0 239 68t169.5 186.5t77.5 269.5q13 149 -29 265.5t-133 183.5t-226 67h-207zM982 1769l60 -57l-324 -306l-266 306l68 57l211 -224z" />
    <glyph glyph-name="Dcroat" unicode="&#x110;" horiz-adv-x="1166" 
d="M126 675h541l-9 -99h-544zM304 1237h308q170 0 285 -77t168 -215.5t35 -324.5q-17 -188 -97 -327.5t-210 -216t-299 -76.5h-307zM396 1136l-98 -1040h207q134 0 239 68t169.5 186.5t77.5 269.5q13 149 -29 265.5t-133 183.5t-226 67h-207z" />
    <glyph glyph-name="Ecaron" unicode="&#x11a;" horiz-adv-x="989" 
d="M187 0l117 1237h668l-13 -100h-563l-43 -465h530l-7 -96h-532l-43 -475h564l-12 -101h-666zM893 1769l60 -57l-324 -306l-266 306l68 57l211 -224z" />
    <glyph glyph-name="Edotaccent" unicode="&#x116;" horiz-adv-x="989" 
d="M187 0l117 1237h668l-13 -100h-563l-43 -465h530l-7 -96h-532l-43 -475h564l-12 -101h-666zM637 1489q-33 0 -51 25t-15 56q3 30 27 57t65 27q24 0 46 -20t19 -57q-5 -41 -31 -64.5t-60 -23.5z" />
    <glyph glyph-name="Emacron" unicode="&#x112;" horiz-adv-x="989" 
d="M187 0l117 1237h668l-13 -100h-563l-43 -465h530l-7 -96h-532l-43 -475h564l-12 -101h-666zM354 1554h590l-18 -98h-590z" />
    <glyph glyph-name="Eogonek" unicode="&#x118;" horiz-adv-x="989" 
d="M187 0l117 1237h668l-13 -100h-563l-43 -465h530l-7 -96h-532l-43 -475h564l-12 -101h-666zM714 -330q-62 -36 -131 -55t-131 -19q-94 0 -148 43t-54 118q0 83 70 159.5t210 127.5l61 -39q-117 -51 -184.5 -106t-67.5 -118q0 -48 38 -72t94 -24q48 0 99.5 16.5
t112.5 50.5z" />
    <glyph glyph-name="Gbreve" unicode="&#x11e;" horiz-adv-x="1129" 
d="M569 -18q-129 0 -230.5 73.5t-152.5 212t-32 331.5q14 165 68 288t135 204t178.5 121.5t198.5 40.5q115 0 205 -50.5t155 -159.5l-98 -51q-60 83 -129.5 120.5t-146.5 37.5q-109 0 -207 -66t-166 -189t-86 -296q-13 -149 20.5 -264.5t110.5 -182.5t193 -67q85 0 161 42.5
t124.5 132.5t51.5 232q1 10 -2.5 22.5t-17.5 34.5l67 -47l-341 17l8 78h398l-52 -597h-87q1 62 3.5 125.5t2.5 126.5l12 3q-45 -129 -129.5 -201t-214.5 -72zM686 1437q-116 0 -177.5 66t-49.5 159h101q-9 -67 29.5 -105t108.5 -38q71 0 119 38t57 105h102q-9 -97 -90 -161
t-200 -64z" />
    <glyph glyph-name="uni0122" unicode="&#x122;" horiz-adv-x="1129" 
d="M569 -18q-129 0 -230.5 73.5t-152.5 212t-32 331.5q14 165 68 288t135 204t178.5 121.5t198.5 40.5q115 0 205 -50.5t155 -159.5l-98 -51q-60 83 -129.5 120.5t-146.5 37.5q-109 0 -207 -66t-166 -189t-86 -296q-13 -149 20.5 -264.5t110.5 -182.5t193 -67q85 0 161 42.5
t124.5 132.5t51.5 232q1 10 -2.5 22.5t-17.5 34.5l67 -47l-341 17l8 78h398l-52 -597h-87q1 62 3.5 125.5t2.5 126.5l12 3q-45 -129 -129.5 -201t-214.5 -72zM439 -396l-73 41q50 23 84 57t49 80q-38 1 -60 23t-17 59q5 33 28.5 56t58.5 23q29 0 49 -16t30 -44t7 -64
q-2 -35 -19.5 -75t-50.5 -76.5t-86 -63.5z" />
    <glyph glyph-name="Gdotaccent" unicode="&#x120;" horiz-adv-x="1129" 
d="M569 -18q-129 0 -230.5 73.5t-152.5 212t-32 331.5q14 165 68 288t135 204t178.5 121.5t198.5 40.5q115 0 205 -50.5t155 -159.5l-98 -51q-60 83 -129.5 120.5t-146.5 37.5q-109 0 -207 -66t-166 -189t-86 -296q-13 -149 20.5 -264.5t110.5 -182.5t193 -67q85 0 161 42.5
t124.5 132.5t51.5 232q1 10 -2.5 22.5t-17.5 34.5l67 -47l-341 17l8 78h398l-52 -597h-87q1 62 3.5 125.5t2.5 126.5l12 3q-45 -129 -129.5 -201t-214.5 -72zM707 1489q-33 0 -51 25t-15 56q3 30 27 57t65 27q24 0 46 -20t19 -57q-5 -41 -31 -64.5t-60 -23.5z" />
    <glyph glyph-name="Hbar" unicode="&#x126;" horiz-adv-x="1168" 
d="M189 0l117 1237h104l-64 -662l-40 40h671l-50 -40l64 662h106l-119 -1237h-104l54 567l41 -42h-671l49 42l-54 -567h-104zM327 773l20 89h660l-20 -89h-660z" />
    <glyph glyph-name="Idotaccent" unicode="&#x130;" horiz-adv-x="480" 
d="M189 0l117 1237h104l-117 -1237h-104zM382 1489q-33 0 -51 25t-15 56q3 30 27 57t65 27q24 0 46 -20t19 -57q-5 -41 -31 -64.5t-60 -23.5z" />
    <glyph glyph-name="Imacron" unicode="&#x12a;" horiz-adv-x="480" 
d="M189 0l117 1237h104l-117 -1237h-104zM168 1554h442.5l-13.5 -98h-442.5z" />
    <glyph glyph-name="Iogonek" unicode="&#x12e;" horiz-adv-x="480" 
d="M189 0l117 1237h104l-117 -1237h-104zM417 -335q-62 -36 -131 -55t-131 -19q-94 0 -148 43t-54 118q0 83 70 159.5t210 127.5l61 -39q-117 -51 -184.5 -106t-67.5 -118q0 -48 38 -72t94 -24q48 0 99.5 16.5t112.5 50.5z" />
    <glyph glyph-name="uni0136" unicode="&#x136;" horiz-adv-x="1051" 
d="M306 1237h106l-56 -609l587 609h144l-538 -554l450 -683h-135l-392 600l-135 -137l-42 -463h-106zM400 -396l-73 41q50 23 84 57t49 80q-38 1 -60 23t-17 59q5 33 28.5 56t58.5 23q29 0 49 -16t30 -44t7 -64q-2 -35 -19.5 -75t-50.5 -76.5t-86 -63.5z" />
    <glyph glyph-name="Lacute" unicode="&#x139;" horiz-adv-x="816" 
d="M189 0l117 1237h104l-107 -1136h517l-10 -101h-621zM450 1385l-29 74l416 267l42 -105z" />
    <glyph glyph-name="Lcaron" unicode="&#x13d;" horiz-adv-x="816" 
d="M189 0l117 1237h104l-107 -1136h517l-10 -101h-621zM807 1769l60 -57l-324 -306l-266 306l68 57l211 -224z" />
    <glyph glyph-name="uni013B" unicode="&#x13b;" horiz-adv-x="816" 
d="M189 0l117 1237h104l-107 -1136h517l-10 -101h-621zM416 -396l-73 41q50 23 84 57t49 80q-38 1 -60 23t-17 59q5 33 28.5 56t58.5 23q29 0 49 -16t30 -44t7 -64q-2 -35 -19.5 -75t-50.5 -76.5t-86 -63.5z" />
    <glyph glyph-name="Lslash" unicode="&#x141;" horiz-adv-x="816" 
d="M189 0l117 1237h104l-107 -1136h517l-10 -101h-621z" />
    <glyph glyph-name="Nacute" unicode="&#x143;" horiz-adv-x="1201" 
d="M185 0l117 1237h130l510 -1108l-25 4l107 1104h104l-115 -1237h-124l-519 1115l26 -4l-104 -1111h-107zM643 1385l-29 74l416 267l42 -105z" />
    <glyph glyph-name="Ncaron" unicode="&#x147;" horiz-adv-x="1201" 
d="M185 0l117 1237h130l510 -1108l-25 4l107 1104h104l-115 -1237h-124l-519 1115l26 -4l-104 -1111h-107zM1000 1769l60 -57l-324 -306l-266 306l68 57l211 -224z" />
    <glyph glyph-name="uni0145" unicode="&#x145;" horiz-adv-x="1201" 
d="M185 0l117 1237h130l510 -1108l-25 4l107 1104h104l-115 -1237h-124l-519 1115l26 -4l-104 -1111h-107zM545 -396l-73 41q50 23 84 57t49 80q-38 1 -60 23t-17 59q5 33 28.5 56t58.5 23q29 0 49 -16t30 -44t7 -64q-2 -35 -19.5 -75t-50.5 -76.5t-86 -63.5z" />
    <glyph glyph-name="Eng" unicode="&#x14a;" horiz-adv-x="1181" 
d="M439 -401l9 126q56 -50 115 -75.5t121 -25.5q104 0 154 66.5t61 184.5l84 894h100l-82 -893q-11 -126 -54.5 -206t-111.5 -117.5t-156 -37.5q-72 0 -128.5 24t-111.5 60zM185 0l117 1237h130l510 -1108l-25 4l107 1104h104l-115 -1237l-90 -74l-553 1189l26 -4
l-104 -1111h-107z" />
    <glyph glyph-name="Ohungarumlaut" unicode="&#x150;" horiz-adv-x="1125" 
d="M560 -18q-132 0 -230.5 69t-146.5 210t-27 355q19 215 93.5 357t187 212.5t245.5 70.5t232.5 -71t148.5 -213t29 -356q-22 -216 -98 -357t-188.5 -209t-245.5 -68zM572 88q165 0 275 132.5t136 394.5q26 259 -60 398t-252 139q-168 0 -275.5 -139t-134.5 -397
q-24 -262 60.5 -395t250.5 -133zM829 1374l-69 9l24 319l99 -12zM611 1378l-69 8l18 320l100 -10z" />
    <glyph glyph-name="Omacron" unicode="&#x14c;" horiz-adv-x="1125" 
d="M560 -18q-132 0 -230.5 69t-146.5 210t-27 355q19 215 93.5 357t187 212.5t245.5 70.5t232.5 -71t148.5 -213t29 -356q-22 -216 -98 -357t-188.5 -209t-245.5 -68zM572 88q165 0 275 132.5t136 394.5q26 259 -60 398t-252 139q-168 0 -275.5 -139t-134.5 -397
q-24 -262 60.5 -395t250.5 -133zM422 1554h590l-18 -98h-590z" />
    <glyph glyph-name="Oslash" unicode="&#xd8;" horiz-adv-x="1125" 
d="M560 -18q-132 0 -230.5 69t-146.5 210t-27 355q19 215 93.5 357t187 212.5t245.5 70.5t232.5 -71t148.5 -213t29 -356q-22 -216 -98 -357t-188.5 -209t-245.5 -68zM572 88q165 0 275 132.5t136 394.5q26 259 -60 398t-252 139q-168 0 -275.5 -139t-134.5 -397
q-24 -262 60.5 -395t250.5 -133z" />
    <glyph glyph-name="OE" unicode="&#x152;" horiz-adv-x="1685" 
d="M945 139q-61 -65 -130 -99t-134 -46t-117 -12q-215 0 -327.5 158.5t-81.5 475.5q21 217 94.5 359t188 211.5t257.5 69.5q77 0 141 -19.5t112.5 -54.5t82.5 -81l-32 -101q-61 76 -136.5 114t-172.5 38q-192 0 -298 -138.5t-132 -397.5q-17 -181 14.5 -300t111 -177
t202.5 -58q46 0 99 10.5t111 39t118 83.5zM884 0l116 1237h669l-14 -100h-562l-44 -465h531l-8 -96h-531l-44 -475h565l-12 -101h-666z" />
    <glyph glyph-name="Thorn" unicode="&#xde;" horiz-adv-x="972" 
d="M186 0l117 1237h101l-25 -262l-41 45h287q120 0 196.5 -48t109 -133t22.5 -196q-16 -164 -117.5 -265t-282.5 -101h-280l46 45l-30 -322h-103zM319 325l-42 50h287q125 0 198.5 71.5t84.5 196.5q12 128 -49 202.5t-183 74.5h-287l51 52z" />
    <glyph glyph-name="Racute" unicode="&#x154;" horiz-adv-x="1073" 
d="M189 0l117 1237h373q187 0 270 -101t66 -260q-13 -145 -99.5 -241.5t-242.5 -114.5l282 -520h-131l-264 519h-218l-49 -519h-104zM351 603h261q134 0 210.5 74.5t88.5 194.5q12 123 -51.5 194t-191.5 71h-270zM579 1385l-29 74l416 267l42 -105z" />
    <glyph glyph-name="Rcaron" unicode="&#x158;" horiz-adv-x="1073" 
d="M189 0l117 1237h373q187 0 270 -101t66 -260q-13 -145 -99.5 -241.5t-242.5 -114.5l282 -520h-131l-264 519h-218l-49 -519h-104zM351 603h261q134 0 210.5 74.5t88.5 194.5q12 123 -51.5 194t-191.5 71h-270zM936 1769l60 -57l-324 -306l-266 306l68 57l211 -224z" />
    <glyph glyph-name="uni0156" unicode="&#x156;" horiz-adv-x="1073" 
d="M189 0l117 1237h373q187 0 270 -101t66 -260q-13 -145 -99.5 -241.5t-242.5 -114.5l282 -520h-131l-264 519h-218l-49 -519h-104zM351 603h261q134 0 210.5 74.5t88.5 194.5q12 123 -51.5 194t-191.5 71h-270zM411 -396l-73 41q50 23 84 57t49 80q-38 1 -60 23t-17 59
q5 33 28.5 56t58.5 23q29 0 49 -16t30 -44t7 -64q-2 -35 -19.5 -75t-50.5 -76.5t-86 -63.5z" />
    <glyph glyph-name="Sacute" unicode="&#x15a;" horiz-adv-x="1056" 
d="M523 -18q-108 0 -193 44.5t-131.5 130t-38.5 206.5h98q-8 -95 28 -156.5t102 -91.5t144 -30q92 0 161 33.5t109 87.5t45 116q8 87 -35 142t-133 86l-175 71q-137 49 -203 118t-54 197q14 140 117 230t283 90q160 0 244 -81.5t87 -215.5h-102q-3 92 -65.5 141.5
t-174.5 49.5q-124 0 -197 -62.5t-81 -157.5q-6 -78 30.5 -122.5t124.5 -76.5l217 -79q113 -41 177 -119t52 -210q-7 -91 -60.5 -168.5t-148 -125t-227.5 -47.5zM570 1385l-29 74l416 267l42 -105z" />
    <glyph glyph-name="Scaron" unicode="&#x160;" horiz-adv-x="1056" 
d="M523 -18q-108 0 -193 44.5t-131.5 130t-38.5 206.5h98q-8 -95 28 -156.5t102 -91.5t144 -30q92 0 161 33.5t109 87.5t45 116q8 87 -35 142t-133 86l-175 71q-137 49 -203 118t-54 197q14 140 117 230t283 90q160 0 244 -81.5t87 -215.5h-102q-3 92 -65.5 141.5
t-174.5 49.5q-124 0 -197 -62.5t-81 -157.5q-6 -78 30.5 -122.5t124.5 -76.5l217 -79q113 -41 177 -119t52 -210q-7 -91 -60.5 -168.5t-148 -125t-227.5 -47.5zM927 1769l60 -57l-324 -306l-266 306l68 57l211 -224z" />
    <glyph glyph-name="Scedilla" unicode="&#x15e;" horiz-adv-x="1056" 
d="M523 -18q-108 0 -193 44.5t-131.5 130t-38.5 206.5h98q-8 -95 28 -156.5t102 -91.5t144 -30q92 0 161 33.5t109 87.5t45 116q8 87 -35 142t-133 86l-175 71q-137 49 -203 118t-54 197q14 140 117 230t283 90q160 0 244 -81.5t87 -215.5h-102q-3 92 -65.5 141.5
t-174.5 49.5q-124 0 -197 -62.5t-81 -157.5q-6 -78 30.5 -122.5t124.5 -76.5l217 -79q113 -41 177 -119t52 -210q-7 -91 -60.5 -168.5t-148 -125t-227.5 -47.5zM336 -350l21 57q80 -43 142.5 -49t98.5 15t36 58q0 39 -35 67.5t-85 47t-96 28.5l56 171l82 -6l-54 -161l-43 55
q89 -22 152.5 -51t97 -66.5t33.5 -86.5q0 -57 -41 -91t-105.5 -44t-134 4t-125.5 52z" />
    <glyph glyph-name="uni0218" unicode="&#x218;" horiz-adv-x="1056" 
d="M523 -18q-108 0 -193 44.5t-131.5 130t-38.5 206.5h98q-8 -95 28 -156.5t102 -91.5t144 -30q92 0 161 33.5t109 87.5t45 116q8 87 -35 142t-133 86l-175 71q-137 49 -203 118t-54 197q14 140 117 230t283 90q160 0 244 -81.5t87 -215.5h-102q-3 92 -65.5 141.5
t-174.5 49.5q-124 0 -197 -62.5t-81 -157.5q-6 -78 30.5 -122.5t124.5 -76.5l217 -79q113 -41 177 -119t52 -210q-7 -91 -60.5 -168.5t-148 -125t-227.5 -47.5zM506 -396l-73 41q50 23 84 57t49 80q-38 1 -60 23t-17 59q5 33 28.5 56t58.5 23q29 0 49 -16t30 -44t7 -64
q-2 -35 -19.5 -75t-50.5 -76.5t-86 -63.5z" />
    <glyph glyph-name="uni1E9E" unicode="&#x1e9e;" horiz-adv-x="1077" 
d="M682 -20q-44 0 -97.5 14t-103.5 40l24 90q43 -22 89 -36t83 -14q46 0 93 24t77.5 70.5t30.5 111.5q0 60 -25 104t-62 81t-74 70.5t-62 70.5t-25 82q0 48 26.5 89t61.5 82.5t62 89.5t27 107q0 78 -51.5 128.5t-141.5 50.5q-64 0 -118.5 -30.5t-91 -99.5t-47.5 -186
l-86 -919h-99l87 932q12 128 59 217.5t124 136.5t177 47q75 0 129.5 -22.5t89 -60.5t51.5 -84.5t17 -95.5q0 -68 -27 -121t-61.5 -95t-61.5 -79t-27 -75q0 -35 25 -67t63 -66.5t75 -75.5t62 -93.5t25 -120.5q0 -84 -41.5 -151.5t-109 -106.5t-146.5 -39z" />
    <glyph glyph-name="Tbar" unicode="&#x166;" horiz-adv-x="871" 
d="M385 0l104 1137h-372l11 100h850l-12 -100h-373l-104 -1137h-104zM211 768h590l-18 -98h-590z" />
    <glyph glyph-name="Tcaron" unicode="&#x164;" horiz-adv-x="871" 
d="M385 0l104 1137h-372l11 100h850l-12 -100h-373l-104 -1137h-104zM835 1769l60 -57l-324 -306l-266 306l68 57l211 -224z" />
    <glyph glyph-name="uni0162" unicode="&#x162;" horiz-adv-x="871" 
d="M385 0l104 1137h-372l11 100h850l-12 -100h-373l-104 -1137h-104zM244 -350l21 57q80 -43 142.5 -49t98.5 15t36 58q0 39 -35 67.5t-85 47t-96 28.5l56 171l82 -6l-54 -161l-43 55q89 -22 152.5 -51t97 -66.5t33.5 -86.5q0 -57 -41 -91t-105.5 -44t-134 4t-125.5 52z" />
    <glyph glyph-name="uni021A" unicode="&#x21a;" horiz-adv-x="871" 
d="M385 0l104 1137h-372l11 100h850l-12 -100h-373l-104 -1137h-104zM415 -396l-73 41q50 23 84 57t49 80q-38 1 -60 23t-17 59q5 33 28.5 56t58.5 23q29 0 49 -16t30 -44t7 -64q-2 -35 -19.5 -75t-50.5 -76.5t-86 -63.5z" />
    <glyph glyph-name="Uhungarumlaut" unicode="&#x170;" horiz-adv-x="1144" 
d="M564 -18q-183 0 -283.5 111.5t-80.5 340.5l78 803h104l-78 -803q-17 -183 58.5 -266t214.5 -83q135 0 225 83t107 266l78 803h104l-78 -803q-13 -152 -74 -253t-157.5 -150t-217.5 -49zM839 1374l-69 9l24 319l99 -12zM621 1378l-69 8l18 320l100 -10z" />
    <glyph glyph-name="Umacron" unicode="&#x16a;" horiz-adv-x="1144" 
d="M564 -18q-183 0 -283.5 111.5t-80.5 340.5l78 803h104l-78 -803q-17 -183 58.5 -266t214.5 -83q135 0 225 83t107 266l78 803h104l-78 -803q-13 -152 -74 -253t-157.5 -150t-217.5 -49zM432 1554h590l-18 -98h-590z" />
    <glyph glyph-name="Uogonek" unicode="&#x172;" horiz-adv-x="1144" 
d="M564 -18q-183 0 -283.5 111.5t-80.5 340.5l78 803h104l-78 -803q-17 -183 58.5 -266t214.5 -83q135 0 225 83t107 266l78 803h104l-78 -803q-13 -152 -74 -253t-157.5 -150t-217.5 -49zM735 -347q-62 -36 -131 -55t-131 -19q-94 0 -148 43t-54 118q0 83 70 159.5
t210 127.5l61 -39q-117 -51 -184.5 -106t-67.5 -118q0 -48 38 -72t94 -24q48 0 99.5 16.5t112.5 50.5z" />
    <glyph glyph-name="Uring" unicode="&#x16e;" horiz-adv-x="1144" 
d="M564 -18q-183 0 -283.5 111.5t-80.5 340.5l78 803h104l-78 -803q-17 -183 58.5 -266t214.5 -83q135 0 225 83t107 266l78 803h104l-78 -803q-13 -152 -74 -253t-157.5 -150t-217.5 -49zM716 1381q-49 0 -90.5 24.5t-66 66t-24.5 90.5q0 50 24.5 91t66 65.5t90.5 24.5
q50 0 91 -24.5t65.5 -65.5t24.5 -91q0 -49 -24.5 -90.5t-65.5 -66t-91 -24.5zM716 1469q39 0 66 27.5t27 65.5q0 39 -27 66t-66 27q-38 0 -65.5 -27t-27.5 -66q0 -38 27.5 -65.5t65.5 -27.5z" />
    <glyph glyph-name="Wacute" unicode="&#x1e82;" horiz-adv-x="1541" 
d="M137 1237h114l183 -1076l383 922h70l193 -926l445 1080h109l-514 -1237h-110l-180 843l-356 -843h-108zM813 1385l-29 74l416 267l42 -105z" />
    <glyph glyph-name="Wcircumflex" unicode="&#x174;" horiz-adv-x="1541" 
d="M137 1237h114l183 -1076l383 922h70l193 -926l445 1080h109l-514 -1237h-110l-180 843l-356 -843h-108zM652 1402l-60 57l323 306l266 -306l-68 -57l-210 224z" />
    <glyph glyph-name="Wdieresis" unicode="&#x1e84;" horiz-adv-x="1541" 
d="M137 1237h114l183 -1076l383 922h70l193 -926l445 1080h109l-514 -1237h-110l-180 843l-356 -843h-108zM775 1491q-34 0 -52 24t-14 56q2 29 24 56.5t60 27.5q29 0 51 -20t21 -57q-2 -42 -31 -64.5t-59 -22.5zM1050 1489q-32 0 -49.5 25t-14.5 56q2 30 25 57t58 27
q25 0 49.5 -18t23.5 -59q-1 -46 -33.5 -67t-58.5 -21z" />
    <glyph glyph-name="Wgrave" unicode="&#x1e80;" horiz-adv-x="1541" 
d="M137 1237h114l183 -1076l383 922h70l193 -926l445 1080h109l-514 -1237h-110l-180 843l-356 -843h-108zM1086 1376l-385 236l59 105l366 -267z" />
    <glyph glyph-name="Yacute" unicode="&#xdd;" horiz-adv-x="933" 
d="M414 0l47 505l-333 732h125l273 -612l391 612h121l-470 -732l-47 -505h-107zM509 1385l-29 74l416 267l42 -105z" />
    <glyph glyph-name="Ycircumflex" unicode="&#x176;" horiz-adv-x="933" 
d="M414 0l47 505l-333 732h125l273 -612l391 612h121l-470 -732l-47 -505h-107zM349 1402l-60 57l323 306l266 -306l-68 -57l-210 224z" />
    <glyph glyph-name="Ydieresis" unicode="&#x178;" horiz-adv-x="933" 
d="M414 0l47 505l-333 732h125l273 -612l391 612h121l-470 -732l-47 -505h-107zM471 1491q-34 0 -52 24t-14 56q2 29 24 56.5t60 27.5q29 0 51 -20t21 -57q-2 -42 -31 -64.5t-59 -22.5zM746 1489q-32 0 -49.5 25t-14.5 56q2 30 25 57t58 27q25 0 49.5 -18t23.5 -59
q-1 -46 -33.5 -67t-58.5 -21z" />
    <glyph glyph-name="Ygrave" unicode="&#x1ef2;" horiz-adv-x="933" 
d="M414 0l47 505l-333 732h125l273 -612l391 612h121l-470 -732l-47 -505h-107zM782 1376l-385 236l59 105l366 -267z" />
    <glyph glyph-name="Zacute" unicode="&#x179;" horiz-adv-x="1030" 
d="M132 0l8 109l771 1014l-673 9l10 105h803l-10 -110l-772 -1014l676 -8l-13 -105h-800zM557 1385l-29 74l416 267l42 -105z" />
    <glyph glyph-name="Zcaron" unicode="&#x17d;" horiz-adv-x="1030" 
d="M132 0l8 109l771 1014l-673 9l10 105h803l-10 -110l-772 -1014l676 -8l-13 -105h-800zM914 1769l60 -57l-324 -306l-266 306l68 57l211 -224z" />
    <glyph glyph-name="Zdotaccent" unicode="&#x17b;" horiz-adv-x="1030" 
d="M132 0l8 109l771 1014l-673 9l10 105h803l-10 -110l-772 -1014l676 -8l-13 -105h-800zM657 1489q-33 0 -51 25t-15 56q3 30 27 57t65 27q24 0 46 -20t19 -57q-5 -41 -31 -64.5t-60 -23.5z" />
    <glyph glyph-name="abreve" unicode="&#x103;" horiz-adv-x="984" 
d="M430 -18q-94 0 -155.5 41t-88 105t-19.5 132q11 99 61.5 160.5t126.5 90.5t161 29q63 0 129 -15t123 -45l14 136q15 144 -36.5 205t-155.5 61q-58 0 -108.5 -18.5t-83.5 -59.5t-38 -107h-117q9 103 61.5 162.5t129.5 85t157 25.5q147 0 228 -82t63 -273l-58 -615h-87
q1 45 2.5 88t1.5 87q-48 -99 -133 -146t-178 -47zM439 72q79 0 153.5 40t123 116t45.5 180q-62 21 -124.5 32.5t-119.5 11.5q-94 0 -162.5 -42t-78.5 -150q-7 -78 31 -133t132 -55zM572 1148q-116 0 -177.5 66t-49.5 159h101q-9 -67 29.5 -105t108.5 -38q71 0 119 38t57 105
h102q-9 -97 -90 -161t-200 -64z" />
    <glyph glyph-name="amacron" unicode="&#x101;" horiz-adv-x="984" 
d="M430 -18q-94 0 -155.5 41t-88 105t-19.5 132q11 99 61.5 160.5t126.5 90.5t161 29q63 0 129 -15t123 -45l14 136q15 144 -36.5 205t-155.5 61q-58 0 -108.5 -18.5t-83.5 -59.5t-38 -107h-117q9 103 61.5 162.5t129.5 85t157 25.5q147 0 228 -82t63 -273l-58 -615h-87
q1 45 2.5 88t1.5 87q-48 -99 -133 -146t-178 -47zM439 72q79 0 153.5 40t123 116t45.5 180q-62 21 -124.5 32.5t-119.5 11.5q-94 0 -162.5 -42t-78.5 -150q-7 -78 31 -133t132 -55zM311 1265h590l-18 -98h-590z" />
    <glyph glyph-name="aogonek" unicode="&#x105;" horiz-adv-x="984" 
d="M430 -18q-94 0 -155.5 41t-88 105t-19.5 132q11 99 61.5 160.5t126.5 90.5t161 29q63 0 129 -15t123 -45l14 136q15 144 -36.5 205t-155.5 61q-58 0 -108.5 -18.5t-83.5 -59.5t-38 -107h-117q9 103 61.5 162.5t129.5 85t157 25.5q147 0 228 -82t63 -273l-58 -615h-87
q1 45 2.5 88t1.5 87q-48 -99 -133 -146t-178 -47zM439 72q79 0 153.5 40t123 116t45.5 180q-62 21 -124.5 32.5t-119.5 11.5q-94 0 -162.5 -42t-78.5 -150q-7 -78 31 -133t132 -55zM948 -335q-62 -36 -131 -55t-131 -19q-94 0 -148 43t-54 118q0 83 70 159.5t210 127.5
l61 -39q-117 -51 -184.5 -106t-67.5 -118q0 -48 38 -72t94 -24q48 0 99.5 16.5t112.5 50.5z" />
    <glyph glyph-name="aring" unicode="&#xe5;" horiz-adv-x="984" 
d="M430 -18q-94 0 -155.5 41t-88 105t-19.5 132q11 99 61.5 160.5t126.5 90.5t161 29q63 0 129 -15t123 -45l14 136q15 144 -36.5 205t-155.5 61q-58 0 -108.5 -18.5t-83.5 -59.5t-38 -107h-117q9 103 61.5 162.5t129.5 85t157 25.5q147 0 228 -82t63 -273l-58 -615h-87
q1 45 2.5 88t1.5 87q-48 -99 -133 -146t-178 -47zM439 72q79 0 153.5 40t123 116t45.5 180q-62 21 -124.5 32.5t-119.5 11.5q-94 0 -162.5 -42t-78.5 -150q-7 -78 31 -133t132 -55zM595 1092q-49 0 -90.5 24.5t-66 66t-24.5 90.5q0 50 24.5 91t66 65.5t90.5 24.5
q50 0 91 -24.5t65.5 -65.5t24.5 -91q0 -49 -24.5 -90.5t-65.5 -66t-91 -24.5zM595 1180q39 0 66 27.5t27 65.5q0 39 -27 66t-66 27q-38 0 -65.5 -27t-27.5 -66q0 -38 27.5 -65.5t65.5 -27.5z" />
    <glyph glyph-name="ae" unicode="&#xe6;" horiz-adv-x="1525" 
d="M168 260q7 91 57 153.5t126 94.5t161 32q62 0 133.5 -18.5t134.5 -55.5l-31 -31l18 181q14 146 -35.5 206t-144.5 60q-54 0 -104 -19t-83.5 -59.5t-38.5 -106.5h-117q9 104 63.5 163.5t130.5 84.5t150 25q112 0 184.5 -56.5t79.5 -192.5l-20 8q56 115 146 178t201 63
q75 0 131.5 -28t93.5 -77.5t54.5 -116t14.5 -143.5q-1 -33 -5.5 -73.5t-12.5 -78.5h-639l49 39q-14 -118 4 -212t73 -149.5t153 -55.5q92 0 157 52t86 147h109q-23 -96 -77.5 -161.5t-127.5 -98t-151 -32.5q-87 0 -154 37t-109.5 95.5t-55.5 123.5l24 1
q-62 -126 -167.5 -191.5t-206.5 -65.5q-76 0 -136 34.5t-92.5 97t-25.5 146.5zM277 260q-7 -78 31 -133t127 -55q59 0 117.5 25.5t105.5 74t71.5 118t15.5 155.5l31 -47q-69 24 -136.5 39t-126.5 15q-55 0 -106.5 -17t-87 -58.5t-42.5 -116.5zM863 496l-41 33h547
q12 95 -2.5 174t-61 127t-133.5 48q-94 0 -159 -55t-102 -142t-48 -185z" />
    <glyph glyph-name="cacute" unicode="&#x107;" horiz-adv-x="911" 
d="M477 -18q-104 0 -187 59t-125 170t-28 265q15 157 77.5 267t156 168.5t197.5 58.5q64 0 115 -21t89.5 -58.5t63.5 -87.5t34 -109l-104 -19q-18 93 -74 144t-135 51q-75 0 -142 -46.5t-112.5 -134.5t-56.5 -213q-11 -115 14.5 -204.5t84 -140t146.5 -50.5q97 0 163.5 59
t72.5 169h110q-8 -98 -58.5 -171.5t-129.5 -114.5t-172 -41zM517 1096l-29 74l416 267l42 -105z" />
    <glyph glyph-name="ccaron" unicode="&#x10d;" horiz-adv-x="911" 
d="M477 -18q-104 0 -187 59t-125 170t-28 265q15 157 77.5 267t156 168.5t197.5 58.5q64 0 115 -21t89.5 -58.5t63.5 -87.5t34 -109l-104 -19q-18 93 -74 144t-135 51q-75 0 -142 -46.5t-112.5 -134.5t-56.5 -213q-11 -115 14.5 -204.5t84 -140t146.5 -50.5q97 0 163.5 59
t72.5 169h110q-8 -98 -58.5 -171.5t-129.5 -114.5t-172 -41zM874 1480l60 -57l-324 -306l-266 306l68 57l211 -224z" />
    <glyph glyph-name="ccedilla" unicode="&#xe7;" horiz-adv-x="911" 
d="M477 -18q-104 0 -187 59t-125 170t-28 265q15 157 77.5 267t156 168.5t197.5 58.5q64 0 115 -21t89.5 -58.5t63.5 -87.5t34 -109l-104 -19q-18 93 -74 144t-135 51q-75 0 -142 -46.5t-112.5 -134.5t-56.5 -213q-11 -115 14.5 -204.5t84 -140t146.5 -50.5q97 0 163.5 59
t72.5 169h110q-8 -98 -58.5 -171.5t-129.5 -114.5t-172 -41zM304 -350l21 57q80 -43 142.5 -49t98.5 15t36 58q0 39 -35 67.5t-85 47t-96 28.5l56 171l82 -6l-54 -161l-43 55q89 -22 152.5 -51t97 -66.5t33.5 -86.5q0 -57 -41 -91t-105.5 -44t-134 4t-125.5 52z" />
    <glyph glyph-name="cdotaccent" unicode="&#x10b;" horiz-adv-x="911" 
d="M477 -18q-104 0 -187 59t-125 170t-28 265q15 157 77.5 267t156 168.5t197.5 58.5q64 0 115 -21t89.5 -58.5t63.5 -87.5t34 -109l-104 -19q-18 93 -74 144t-135 51q-75 0 -142 -46.5t-112.5 -134.5t-56.5 -213q-11 -115 14.5 -204.5t84 -140t146.5 -50.5q97 0 163.5 59
t72.5 169h110q-8 -98 -58.5 -171.5t-129.5 -114.5t-172 -41zM617 1200q-33 0 -51 25t-15 56q3 30 27 57t65 27q24 0 46 -20t19 -57q-5 -41 -31 -64.5t-60 -23.5z" />
    <glyph glyph-name="eth" unicode="&#xf0;" horiz-adv-x="1037" 
d="M460 -20q-82 0 -153 39t-115.5 118.5t-44.5 200.5q0 113 38.5 204.5t102.5 156.5t141.5 100t155.5 35q46 0 94.5 -15.5t90.5 -54t68 -107t26 -174.5l-10 -1q31 246 -2.5 438.5t-119.5 346t-215 279.5l87 51q128 -131 204 -268t110 -283t34 -306q0 -206 -45 -351
t-118.5 -235.5t-160 -132t-168.5 -41.5zM476 71q97 0 168 60t110 153.5t39 193.5q0 131 -61.5 198t-155.5 67q-91 0 -163.5 -58.5t-114.5 -151t-42 -194.5q0 -116 56.5 -192t163.5 -76zM522 1035l-35 71l577 332l37 -71z" />
    <glyph glyph-name="dcaron" unicode="&#x10f;" horiz-adv-x="1050" 
d="M491 -18q-95 0 -171 51.5t-120 144.5t-44 217q0 89 25.5 189t76.5 187.5t129.5 143t186.5 55.5q92 0 156 -45t98 -129l54 560h102l-126 -1356h-84l-1 164q-49 -89 -123.5 -135.5t-158.5 -46.5zM509 81q60 0 121.5 33t106.5 98t53 158l21 237q1 10 1.5 12.5t0.5 12.5
q0 81 -34.5 133.5t-89 78.5t-112.5 26q-85 0 -144 -46.5t-95.5 -118.5t-53 -152t-16.5 -147q0 -150 69 -237.5t172 -87.5zM897 1695l60 -57l-324 -306l-266 306l68 57l211 -224z" />
    <glyph glyph-name="dcroat" unicode="&#x111;" horiz-adv-x="1050" 
d="M491 -18q-95 0 -171 51.5t-120 144.5t-44 217q0 89 25.5 189t76.5 187.5t129.5 143t186.5 55.5q92 0 156 -45t98 -129l54 560h102l-126 -1356h-84l-1 164q-49 -89 -123.5 -135.5t-158.5 -46.5zM509 81q60 0 121.5 33t106.5 98t53 158l21 237q1 10 1.5 12.5t0.5 12.5
q0 81 -34.5 133.5t-89 78.5t-112.5 26q-85 0 -144 -46.5t-95.5 -118.5t-53 -152t-16.5 -147q0 -150 69 -237.5t172 -87.5zM1147 1034l-73 41q50 23 84 57t49 80q-38 1 -60 23t-17 59q5 33 28.5 56t58.5 23q29 0 49 -16t30 -44t7 -64q-2 -35 -19.5 -75t-50.5 -76.5t-86 -63.5
z" />
    <glyph glyph-name="ecaron" unicode="&#x11b;" horiz-adv-x="911" 
d="M469 -18q-112 0 -192.5 57.5t-118 166.5t-22.5 264q15 156 73 268t149 172t202 60q77 0 134 -28t95 -77.5t55.5 -116t15.5 -143.5q-1 -33 -5.5 -73.5t-12.5 -78.5h-648l49 31q-13 -114 5.5 -206.5t75 -147.5t157.5 -55q92 0 157 51t87 148h109q-24 -97 -77.5 -162
t-127.5 -97.5t-160 -32.5zM243 512l-36 17h596l-49 -11q13 94 1 176t-59 133t-140 51q-92 0 -157.5 -51.5t-104 -134.5t-51.5 -180zM814 1480l60 -57l-324 -306l-266 306l68 57l211 -224z" />
    <glyph glyph-name="edotaccent" unicode="&#x117;" horiz-adv-x="911" 
d="M469 -18q-112 0 -192.5 57.5t-118 166.5t-22.5 264q15 156 73 268t149 172t202 60q77 0 134 -28t95 -77.5t55.5 -116t15.5 -143.5q-1 -33 -5.5 -73.5t-12.5 -78.5h-648l49 31q-13 -114 5.5 -206.5t75 -147.5t157.5 -55q92 0 157 51t87 148h109q-24 -97 -77.5 -162
t-127.5 -97.5t-160 -32.5zM243 512l-36 17h596l-49 -11q13 94 1 176t-59 133t-140 51q-92 0 -157.5 -51.5t-104 -134.5t-51.5 -180zM557 1200q-33 0 -51 25t-15 56q3 30 27 57t65 27q24 0 46 -20t19 -57q-5 -41 -31 -64.5t-60 -23.5z" />
    <glyph glyph-name="emacron" unicode="&#x113;" horiz-adv-x="911" 
d="M469 -18q-112 0 -192.5 57.5t-118 166.5t-22.5 264q15 156 73 268t149 172t202 60q77 0 134 -28t95 -77.5t55.5 -116t15.5 -143.5q-1 -33 -5.5 -73.5t-12.5 -78.5h-648l49 31q-13 -114 5.5 -206.5t75 -147.5t157.5 -55q92 0 157 51t87 148h109q-24 -97 -77.5 -162
t-127.5 -97.5t-160 -32.5zM243 512l-36 17h596l-49 -11q13 94 1 176t-59 133t-140 51q-92 0 -157.5 -51.5t-104 -134.5t-51.5 -180zM274 1265h590l-18 -98h-590z" />
    <glyph glyph-name="eogonek" unicode="&#x119;" horiz-adv-x="911" 
d="M469 -18q-112 0 -192.5 57.5t-118 166.5t-22.5 264q15 156 73 268t149 172t202 60q77 0 134 -28t95 -77.5t55.5 -116t15.5 -143.5q-1 -33 -5.5 -73.5t-12.5 -78.5h-648l49 31q-13 -114 5.5 -206.5t75 -147.5t157.5 -55q92 0 157 51t87 148h109q-24 -97 -77.5 -162
t-127.5 -97.5t-160 -32.5zM243 512l-36 17h596l-49 -11q13 94 1 176t-59 133t-140 51q-92 0 -157.5 -51.5t-104 -134.5t-51.5 -180zM638 -346q-62 -36 -131 -55t-131 -19q-94 0 -148 43t-54 118q0 83 70 159.5t210 127.5l61 -39q-117 -51 -184.5 -106t-67.5 -118
q0 -48 38 -72t94 -24q48 0 99.5 16.5t112.5 50.5z" />
    <glyph glyph-name="gbreve" unicode="&#x11f;" horiz-adv-x="998" 
d="M434 -486q-128 0 -217.5 38.5t-134.5 105t-39 149.5q6 80 54.5 137.5t128.5 81.5q-51 27 -74 71t-19 96q5 70 53.5 116t112.5 61q-38 47 -56 111.5t-11 142.5q10 104 60.5 181.5t130 121t175.5 43.5q66 0 121.5 -20.5t93.5 -59.5q15 67 48.5 117.5t85 78.5t122.5 28
l-29 -118q-77 0 -123.5 -38.5t-59.5 -124.5q25 -42 36.5 -94.5t6.5 -114.5q-10 -104 -62 -184t-133.5 -125.5t-179.5 -45.5q-50 0 -97.5 14t-84.5 41q-42 -7 -75.5 -40t-40.5 -87q-6 -50 26 -82t132 -32h357q110 0 170 -57t53 -151q-7 -91 -75.5 -174t-185.5 -135t-270 -52z
M434 -394q117 0 211.5 37t151.5 96.5t62 128.5q5 53 -25.5 91t-99.5 38h-372q-93 0 -151.5 -55t-62.5 -132q-4 -84 66 -144t220 -60zM540 355q71 0 127 35t91 96.5t42 137.5q11 114 -45.5 187t-163.5 73q-106 0 -176 -72t-82 -188q-11 -114 45.5 -191.5t161.5 -77.5z
M647 1148q-116 0 -177.5 66t-49.5 159h101q-9 -67 29.5 -105t108.5 -38q71 0 119 38t57 105h102q-9 -97 -90 -161t-200 -64z" />
    <glyph glyph-name="uni0123" unicode="&#x123;" horiz-adv-x="998" 
d="M434 -486q-128 0 -217.5 38.5t-134.5 105t-39 149.5q6 80 54.5 137.5t128.5 81.5q-51 27 -74 71t-19 96q5 70 53.5 116t112.5 61q-38 47 -56 111.5t-11 142.5q10 104 60.5 181.5t130 121t175.5 43.5q66 0 121.5 -20.5t93.5 -59.5q15 67 48.5 117.5t85 78.5t122.5 28
l-29 -118q-77 0 -123.5 -38.5t-59.5 -124.5q25 -42 36.5 -94.5t6.5 -114.5q-10 -104 -62 -184t-133.5 -125.5t-179.5 -45.5q-50 0 -97.5 14t-84.5 41q-42 -7 -75.5 -40t-40.5 -87q-6 -50 26 -82t132 -32h357q110 0 170 -57t53 -151q-7 -91 -75.5 -174t-185.5 -135t-270 -52z
M434 -394q117 0 211.5 37t151.5 96.5t62 128.5q5 53 -25.5 91t-99.5 38h-372q-93 0 -151.5 -55t-62.5 -132q-4 -84 66 -144t220 -60zM540 355q71 0 127 35t91 96.5t42 137.5q11 114 -45.5 187t-163.5 73q-106 0 -176 -72t-82 -188q-11 -114 45.5 -191.5t161.5 -77.5z
M652 1418l73 -41q-50 -23 -84 -57t-49 -80q38 -1 60 -23t17 -59q-5 -33 -28.5 -56t-58.5 -23q-29 0 -49 16t-30 44t-7 64q2 35 19.5 75t50.5 76.5t86 63.5z" />
    <glyph glyph-name="gdotaccent" unicode="&#x121;" horiz-adv-x="998" 
d="M434 -486q-128 0 -217.5 38.5t-134.5 105t-39 149.5q6 80 54.5 137.5t128.5 81.5q-51 27 -74 71t-19 96q5 70 53.5 116t112.5 61q-38 47 -56 111.5t-11 142.5q10 104 60.5 181.5t130 121t175.5 43.5q66 0 121.5 -20.5t93.5 -59.5q15 67 48.5 117.5t85 78.5t122.5 28
l-29 -118q-77 0 -123.5 -38.5t-59.5 -124.5q25 -42 36.5 -94.5t6.5 -114.5q-10 -104 -62 -184t-133.5 -125.5t-179.5 -45.5q-50 0 -97.5 14t-84.5 41q-42 -7 -75.5 -40t-40.5 -87q-6 -50 26 -82t132 -32h357q110 0 170 -57t53 -151q-7 -91 -75.5 -174t-185.5 -135t-270 -52z
M434 -394q117 0 211.5 37t151.5 96.5t62 128.5q5 53 -25.5 91t-99.5 38h-372q-93 0 -151.5 -55t-62.5 -132q-4 -84 66 -144t220 -60zM540 355q71 0 127 35t91 96.5t42 137.5q11 114 -45.5 187t-163.5 73q-106 0 -176 -72t-82 -188q-11 -114 45.5 -191.5t161.5 -77.5z
M668 1200q-33 0 -51 25t-15 56q3 30 27 57t65 27q24 0 46 -20t19 -57q-5 -41 -31 -64.5t-60 -23.5z" />
    <glyph glyph-name="hbar" unicode="&#x127;" horiz-adv-x="1070" 
d="M189 0l128 1356h104l-57 -596q48 98 127.5 154t184.5 56q98 0 166.5 -48.5t100.5 -140.5t20 -223l-54 -558h-100l52 558q15 153 -44 232.5t-168 79.5q-93 0 -160 -54t-106 -151.5t-49 -229.5l-41 -435h-104zM171.038 1164.28h509.66l-15.5488 -82.3223h-509.66z" />
    <glyph glyph-name="dotlessi" unicode="&#x131;" horiz-adv-x="510" 
d="M192 0l89 950h104l-89 -950h-104z" />
    <glyph glyph-name="i.loclTRK" horiz-adv-x="510" 
d="M192 0l89 950h104l-89 -950h-104zM357 1200q-33 0 -51 25t-15 56q3 30 27 57t65 27q24 0 46 -20t19 -57q-5 -41 -31 -64.5t-60 -23.5z" />
    <glyph glyph-name="imacron" unicode="&#x12b;" horiz-adv-x="510" 
d="M192 0l89 950h104l-89 -950h-104zM160.373 1265h389.385l-11.8799 -98h-389.384z" />
    <glyph glyph-name="iogonek" unicode="&#x12f;" horiz-adv-x="510" 
d="M192 0l89 950h104l-89 -950h-104zM357 1200q-33 0 -51 25t-15 56q3 30 27 57t65 27q24 0 46 -20t19 -57q-5 -41 -31 -64.5t-60 -23.5zM419 -335q-62 -36 -131 -55t-131 -19q-94 0 -148 43t-54 118q0 83 70 159.5t210 127.5l61 -39q-117 -51 -184.5 -106t-67.5 -118
q0 -48 38 -72t94 -24q48 0 99.5 16.5t112.5 50.5z" />
    <glyph glyph-name="uni0237" unicode="&#x237;" horiz-adv-x="546" 
d="M27 -486q-59 0 -114.5 20t-111.5 60l17 102q51 -39 99 -60t100 -21q84 0 133 56t62 183l106 1098h104l-104 -1096q-11 -124 -53 -199.5t-104 -109t-134 -33.5z" />
    <glyph glyph-name="uni0137" unicode="&#x137;" horiz-adv-x="1006" 
d="M786 0l-318 524l-136 -114l-39 -410h-104l128 1356h104l-76 -816l492 408h148l-433 -357l364 -591h-130zM377 -396l-73 41q50 23 84 57t49 80q-38 1 -60 23t-17 59q5 33 28.5 56t58.5 23q29 0 49 -16t30 -44t7 -64q-2 -35 -19.5 -75t-50.5 -76.5t-86 -63.5z" />
    <glyph glyph-name="lacute" unicode="&#x13a;" horiz-adv-x="480" 
d="M189 0l128 1356h104l-128 -1356h-104zM315 1557l-29 74l416 267l42 -105z" />
    <glyph glyph-name="lcaron" unicode="&#x13e;" horiz-adv-x="480" 
d="M189 0l128 1356h104l-128 -1356h-104zM672 1941l60 -57l-324 -306l-266 306l68 57l211 -224z" />
    <glyph glyph-name="uni013C" unicode="&#x13c;" horiz-adv-x="480" 
d="M189 0l128 1356h104l-128 -1356h-104zM114 -396l-73 41q50 23 84 57t49 80q-38 1 -60 23t-17 59q5 33 28.5 56t58.5 23q29 0 49 -16t30 -44t7 -64q-2 -35 -19.5 -75t-50.5 -76.5t-86 -63.5z" />
    <glyph glyph-name="lslash" unicode="&#x142;" horiz-adv-x="480" 
d="M189 0l128 1356h104l-128 -1356h-104zM110.863 911.48l435.981 61.2539l-3.12598 -74.2861l-435.982 -61.2539z" />
    <glyph glyph-name="nacute" unicode="&#x144;" horiz-adv-x="1066" 
d="M187 0l89 948h88l-6 -198q49 106 129.5 163t185.5 57q99 0 167.5 -48t100 -140t17.5 -224l-52 -558h-100l52 558q15 155 -45.5 233.5t-167.5 78.5q-134 0 -214.5 -112t-97.5 -296l-42 -462h-104zM535 1096l-29 74l416 267l42 -105z" />
    <glyph glyph-name="ncaron" unicode="&#x148;" horiz-adv-x="1066" 
d="M187 0l89 948h88l-6 -198q49 106 129.5 163t185.5 57q99 0 167.5 -48t100 -140t17.5 -224l-52 -558h-100l52 558q15 155 -45.5 233.5t-167.5 78.5q-134 0 -214.5 -112t-97.5 -296l-42 -462h-104zM892 1480l60 -57l-324 -306l-266 306l68 57l211 -224z" />
    <glyph glyph-name="uni0146" unicode="&#x146;" horiz-adv-x="1066" 
d="M187 0l89 948h88l-6 -198q49 106 129.5 163t185.5 57q99 0 167.5 -48t100 -140t17.5 -224l-52 -558h-100l52 558q15 155 -45.5 233.5t-167.5 78.5q-134 0 -214.5 -112t-97.5 -296l-42 -462h-104zM408 -396l-73 41q50 23 84 57t49 80q-38 1 -60 23t-17 59q5 33 28.5 56
t58.5 23q29 0 49 -16t30 -44t7 -64q-2 -35 -19.5 -75t-50.5 -76.5t-86 -63.5z" />
    <glyph glyph-name="eng" unicode="&#x14b;" horiz-adv-x="1122" 
d="M601 -486q-58 0 -113.5 20t-111.5 60l17 102q51 -39 99 -60t101 -21q83 0 135.5 55.5t64.5 183.5l65 704q14 151 -44.5 231.5t-169.5 80.5q-88 0 -154 -51t-105.5 -142t-51.5 -215l-42 -462h-104l89 948h88l-6 -198q50 107 130.5 163.5t185.5 56.5q100 0 168 -49
t99 -141.5t19 -221.5l-67 -702q-11 -124 -52.5 -199.5t-104 -109t-135.5 -33.5z" />
    <glyph glyph-name="ohungarumlaut" unicode="&#x151;" horiz-adv-x="962" 
d="M479 -18q-116 0 -198.5 56.5t-121 166.5t-23.5 269q16 160 75.5 271t153 168t208.5 57q117 0 199 -58.5t120 -169t23 -268.5t-75 -268t-153 -167t-208 -57zM484 80q141 0 224 107.5t101 286.5q18 181 -43 289t-203 108q-140 0 -219.5 -106.5t-97.5 -290.5
q-10 -117 10.5 -206t76.5 -138.5t151 -49.5zM719 1085l-69 9l24 319l99 -12zM501 1089l-69 8l18 320l100 -10z" />
    <glyph glyph-name="omacron" unicode="&#x14d;" horiz-adv-x="962" 
d="M479 -18q-116 0 -198.5 56.5t-121 166.5t-23.5 269q16 160 75.5 271t153 168t208.5 57q117 0 199 -58.5t120 -169t23 -268.5t-75 -268t-153 -167t-208 -57zM484 80q141 0 224 107.5t101 286.5q18 181 -43 289t-203 108q-140 0 -219.5 -106.5t-97.5 -290.5
q-10 -117 10.5 -206t76.5 -138.5t151 -49.5zM312 1265h590l-18 -98h-590z" />
    <glyph glyph-name="oslash" unicode="&#xf8;" horiz-adv-x="962" 
d="M479 -18q-116 0 -198.5 56.5t-121 166.5t-23.5 269q16 160 75.5 271t153 168t208.5 57q117 0 199 -58.5t120 -169t23 -268.5t-75 -268t-153 -167t-208 -57zM484 80q141 0 224 107.5t101 286.5q18 181 -43 289t-203 108q-140 0 -219.5 -106.5t-97.5 -290.5
q-10 -117 10.5 -206t76.5 -138.5t151 -49.5z" />
    <glyph glyph-name="oe" unicode="&#x153;" horiz-adv-x="1528" 
d="M465 -18q-110 0 -190 56.5t-117 166.5t-22 269q15 160 72.5 271t147 168t199.5 57q112 0 190.5 -58.5t115.5 -169t22 -268.5q-14 -158 -71.5 -268t-146.5 -167t-200 -57zM470 80q134 0 214 107.5t97 286.5q17 181 -41.5 289t-193.5 108q-134 0 -210 -106.5t-93 -290.5
q-10 -117 10 -206t73.5 -138.5t143.5 -49.5zM1101 -18q-108 0 -185.5 57.5t-113 166.5t-21.5 264q15 156 71 268t143 172t193 60q95 0 159.5 -45t97.5 -123t33 -177q0 -38 -5 -83t-15 -89h-620l47 31q-12 -114 6 -206.5t71.5 -147.5t149.5 -55q88 0 150 51t82 148h106
q-23 -97 -74 -162t-122 -97.5t-153 -32.5zM885 512l-35 17h570l-47 -11q12 94 0.5 176t-56 133t-133.5 51q-87 0 -149.5 -51.5t-99.5 -134.5t-50 -180z" />
    <glyph glyph-name="thorn" unicode="&#xfe;" horiz-adv-x="1055" 
d="M143 -468l164 1722h106l-47 -491h-21q52 101 131 154t171 53q100 0 180 -59t122.5 -169.5t27.5 -265.5q-14 -154 -77.5 -264.5t-156 -170t-194.5 -59.5q-84 0 -147 40t-96 114l-59 -604h-104zM558 81q68 0 135 45t115 132.5t60 217.5q12 127 -17 214.5t-88 133.5t-135 46
q-65 0 -126.5 -35.5t-104.5 -105t-53 -173.5l-16 -170q-9 -98 22.5 -166.5t87.5 -103.5t120 -35z" />
    <glyph glyph-name="racute" unicode="&#x155;" horiz-adv-x="653" 
d="M187 0l89 950h104l-18 -178q43 100 103 147t145 47q22 0 50.5 -4.5t54.5 -16.5l-20 -110q-29 12 -58.5 18.5t-58.5 6.5q-80 0 -131 -55t-79.5 -150t-39.5 -219l-37 -436h-104zM328 1096l-29 74l416 267l42 -105z" />
    <glyph glyph-name="rcaron" unicode="&#x159;" horiz-adv-x="653" 
d="M187 0l89 950h104l-18 -178q43 100 103 147t145 47q22 0 50.5 -4.5t54.5 -16.5l-20 -110q-29 12 -58.5 18.5t-58.5 6.5q-80 0 -131 -55t-79.5 -150t-39.5 -219l-37 -436h-104zM685 1480l60 -57l-324 -306l-266 306l68 57l211 -224z" />
    <glyph glyph-name="uni0157" unicode="&#x157;" horiz-adv-x="653" 
d="M187 0l89 950h104l-18 -178q43 100 103 147t145 47q22 0 50.5 -4.5t54.5 -16.5l-20 -110q-29 12 -58.5 18.5t-58.5 6.5q-80 0 -131 -55t-79.5 -150t-39.5 -219l-37 -436h-104zM201 -396l-73 41q50 23 84 57t49 80q-38 1 -60 23t-17 59q5 33 28.5 56t58.5 23q29 0 49 -16
t30 -44t7 -64q-2 -35 -19.5 -75t-50.5 -76.5t-86 -63.5z" />
    <glyph glyph-name="sacute" unicode="&#x15b;" horiz-adv-x="945" 
d="M476 -18q-114 0 -189.5 39.5t-111 106t-31.5 147.5h102q-5 -96 62.5 -150t172.5 -54q102 0 174 49t81 128q7 65 -36.5 100.5t-123.5 62.5l-151 55q-107 38 -161.5 99t-44.5 156q8 74 51 130t117 87.5t173 31.5q148 0 227 -67t74 -169h-105q-3 72 -57 108.5t-142 36.5
q-76 0 -125 -23.5t-74.5 -59.5t-30.5 -74q-9 -65 35.5 -106t123.5 -66l149 -52q107 -35 164.5 -95.5t46.5 -154.5q-8 -70 -53 -131t-125 -98t-192 -37zM499 1096l-29 74l416 267l42 -105z" />
    <glyph glyph-name="scaron" unicode="&#x161;" horiz-adv-x="945" 
d="M476 -18q-114 0 -189.5 39.5t-111 106t-31.5 147.5h102q-5 -96 62.5 -150t172.5 -54q102 0 174 49t81 128q7 65 -36.5 100.5t-123.5 62.5l-151 55q-107 38 -161.5 99t-44.5 156q8 74 51 130t117 87.5t173 31.5q148 0 227 -67t74 -169h-105q-3 72 -57 108.5t-142 36.5
q-76 0 -125 -23.5t-74.5 -59.5t-30.5 -74q-9 -65 35.5 -106t123.5 -66l149 -52q107 -35 164.5 -95.5t46.5 -154.5q-8 -70 -53 -131t-125 -98t-192 -37zM856 1480l60 -57l-324 -306l-266 306l68 57l211 -224z" />
    <glyph glyph-name="scedilla" unicode="&#x15f;" horiz-adv-x="945" 
d="M476 -18q-114 0 -189.5 39.5t-111 106t-31.5 147.5h102q-5 -96 62.5 -150t172.5 -54q102 0 174 49t81 128q7 65 -36.5 100.5t-123.5 62.5l-151 55q-107 38 -161.5 99t-44.5 156q8 74 51 130t117 87.5t173 31.5q148 0 227 -67t74 -169h-105q-3 72 -57 108.5t-142 36.5
q-76 0 -125 -23.5t-74.5 -59.5t-30.5 -74q-9 -65 35.5 -106t123.5 -66l149 -52q107 -35 164.5 -95.5t46.5 -154.5q-8 -70 -53 -131t-125 -98t-192 -37zM302 -348l21 57q80 -43 142.5 -49t98.5 15t36 58q0 39 -35 67.5t-85 47t-96 28.5l56 171l82 -6l-54 -161l-43 55
q89 -22 152.5 -51t97 -66.5t33.5 -86.5q0 -57 -41 -91t-105.5 -44t-134 4t-125.5 52z" />
    <glyph glyph-name="uni0219" unicode="&#x219;" horiz-adv-x="945" 
d="M476 -18q-114 0 -189.5 39.5t-111 106t-31.5 147.5h102q-5 -96 62.5 -150t172.5 -54q102 0 174 49t81 128q7 65 -36.5 100.5t-123.5 62.5l-151 55q-107 38 -161.5 99t-44.5 156q8 74 51 130t117 87.5t173 31.5q148 0 227 -67t74 -169h-105q-3 72 -57 108.5t-142 36.5
q-76 0 -125 -23.5t-74.5 -59.5t-30.5 -74q-9 -65 35.5 -106t123.5 -66l149 -52q107 -35 164.5 -95.5t46.5 -154.5q-8 -70 -53 -131t-125 -98t-192 -37zM472 -394l-73 41q50 23 84 57t49 80q-38 1 -60 23t-17 59q5 33 28.5 56t58.5 23q29 0 49 -16t30 -44t7 -64
q-2 -35 -19.5 -75t-50.5 -76.5t-86 -63.5z" />
    <glyph glyph-name="germandbls" unicode="&#xdf;" horiz-adv-x="1077" 
d="M682 -20q-44 0 -97.5 14t-103.5 40l24 90q43 -22 89 -36t83 -14q46 0 93 24t77.5 70.5t30.5 111.5q0 60 -25 104t-62 81t-74 70.5t-62 70.5t-25 82q0 48 26.5 89t61.5 82.5t62 89.5t27 107q0 78 -51.5 128.5t-141.5 50.5q-64 0 -118.5 -30.5t-91 -99.5t-47.5 -186
l-86 -919h-99l87 932q12 128 59 217.5t124 136.5t177 47q75 0 129.5 -22.5t89 -60.5t51.5 -84.5t17 -95.5q0 -68 -27 -121t-61.5 -95t-61.5 -79t-27 -75q0 -35 25 -67t63 -66.5t75 -75.5t62 -93.5t25 -120.5q0 -84 -41.5 -151.5t-109 -106.5t-146.5 -39z" />
    <glyph glyph-name="tbar" unicode="&#x167;" horiz-adv-x="658" 
d="M436 -18q-67 0 -115.5 27.5t-71.5 83.5t-15 143l60 657l41 -25h-195l13 80h188l-49 -45l32 315h104l-32 -315l-41 45h333l-10 -80h-332l49 25l-63 -658q-7 -80 24 -120.5t96 -40.5q38 0 77 10.5t83 28.5l7 -83q-47 -24 -92.5 -36t-90.5 -12zM119.676 775.342h552.262
l-10.8203 -86.2402h-552.26z" />
    <glyph glyph-name="tcaron" unicode="&#x165;" horiz-adv-x="658" 
d="M436 -18q-67 0 -115.5 27.5t-71.5 83.5t-15 143l60 657l41 -25h-195l13 80h188l-49 -45l32 315h104l-32 -315l-41 45h333l-10 -80h-332l49 25l-63 -658q-7 -80 24 -120.5t96 -40.5q38 0 77 10.5t83 28.5l7 -83q-47 -24 -92.5 -36t-90.5 -12zM756 1600l60 -57l-324 -306
l-266 306l68 57l211 -224z" />
    <glyph glyph-name="uni0163" unicode="&#x163;" horiz-adv-x="658" 
d="M436 -18q-67 0 -115.5 27.5t-71.5 83.5t-15 143l60 657l41 -25h-195l13 80h188l-49 -45l32 315h104l-32 -315l-41 45h333l-10 -80h-332l49 25l-63 -658q-7 -80 24 -120.5t96 -40.5q38 0 77 10.5t83 28.5l7 -83q-47 -24 -92.5 -36t-90.5 -12zM237 -350l21 57
q80 -43 142.5 -49t98.5 15t36 58q0 39 -35 67.5t-85 47t-96 28.5l56 171l82 -6l-54 -161l-43 55q89 -22 152.5 -51t97 -66.5t33.5 -86.5q0 -57 -41 -91t-105.5 -44t-134 4t-125.5 52z" />
    <glyph glyph-name="uni021B" unicode="&#x21b;" horiz-adv-x="658" 
d="M436 -18q-67 0 -115.5 27.5t-71.5 83.5t-15 143l60 657l41 -25h-195l13 80h188l-49 -45l32 315h104l-32 -315l-41 45h333l-10 -80h-332l49 25l-63 -658q-7 -80 24 -120.5t96 -40.5q38 0 77 10.5t83 28.5l7 -83q-47 -24 -92.5 -36t-90.5 -12zM408 -396l-73 41q50 23 84 57
t49 80q-38 1 -60 23t-17 59q5 33 28.5 56t58.5 23q29 0 49 -16t30 -44t7 -64q-2 -35 -19.5 -75t-50.5 -76.5t-86 -63.5z" />
    <glyph glyph-name="uhungarumlaut" unicode="&#x171;" horiz-adv-x="1070" 
d="M477 -18q-99 0 -166.5 41.5t-98 123t-20.5 201.5l56 602h104l-54 -596q-15 -135 36.5 -203t164.5 -68q90 0 158.5 54t110.5 145t52 200l44 468h104l-90 -950h-102l19 198q-53 -101 -135 -158.5t-183 -57.5zM761 1085l-69 9l24 319l99 -12zM543 1089l-69 8l18 320l100 -10
z" />
    <glyph glyph-name="umacron" unicode="&#x16b;" horiz-adv-x="1070" 
d="M477 -18q-99 0 -166.5 41.5t-98 123t-20.5 201.5l56 602h104l-54 -596q-15 -135 36.5 -203t164.5 -68q90 0 158.5 54t110.5 145t52 200l44 468h104l-90 -950h-102l19 198q-53 -101 -135 -158.5t-183 -57.5zM354 1265h590l-18 -98h-590z" />
    <glyph glyph-name="uogonek" unicode="&#x173;" horiz-adv-x="1070" 
d="M477 -18q-99 0 -166.5 41.5t-98 123t-20.5 201.5l56 602h104l-54 -596q-15 -135 36.5 -203t164.5 -68q90 0 158.5 54t110.5 145t52 200l44 468h104l-90 -950h-102l19 198q-53 -101 -135 -158.5t-183 -57.5zM1002 -334q-62 -36 -131 -55t-131 -19q-94 0 -148 43t-54 118
q0 83 70 159.5t210 127.5l61 -39q-117 -51 -184.5 -106t-67.5 -118q0 -48 38 -72t94 -24q48 0 99.5 16.5t112.5 50.5z" />
    <glyph glyph-name="uring" unicode="&#x16f;" horiz-adv-x="1070" 
d="M477 -18q-99 0 -166.5 41.5t-98 123t-20.5 201.5l56 602h104l-54 -596q-15 -135 36.5 -203t164.5 -68q90 0 158.5 54t110.5 145t52 200l44 468h104l-90 -950h-102l19 198q-53 -101 -135 -158.5t-183 -57.5zM638 1092q-49 0 -90.5 24.5t-66 66t-24.5 90.5q0 50 24.5 91
t66 65.5t90.5 24.5q50 0 91 -24.5t65.5 -65.5t24.5 -91q0 -49 -24.5 -90.5t-65.5 -66t-91 -24.5zM638 1180q39 0 66 27.5t27 65.5q0 39 -27 66t-66 27q-38 0 -65.5 -27t-27.5 -66q0 -38 27.5 -65.5t65.5 -27.5z" />
    <glyph glyph-name="wacute" unicode="&#x1e83;" horiz-adv-x="1272" 
d="M127 948h107l154 -797l292 754h80l153 -765l302 808h104l-369 -948h-98l-152 718l-280 -718h-98zM637 1096l-29 74l416 267l42 -105z" />
    <glyph glyph-name="wcircumflex" unicode="&#x175;" horiz-adv-x="1272" 
d="M127 948h107l154 -797l292 754h80l153 -765l302 808h104l-369 -948h-98l-152 718l-280 -718h-98zM477 1113l-60 57l323 306l266 -306l-68 -57l-210 224z" />
    <glyph glyph-name="wdieresis" unicode="&#x1e85;" horiz-adv-x="1272" 
d="M127 948h107l154 -797l292 754h80l153 -765l302 808h104l-369 -948h-98l-152 718l-280 -718h-98zM599 1202q-34 0 -52 24t-14 56q2 29 24 56.5t60 27.5q29 0 51 -20t21 -57q-2 -42 -31 -64.5t-59 -22.5zM874 1200q-32 0 -49.5 25t-14.5 56q2 30 25 57t58 27
q25 0 49.5 -18t23.5 -59q-1 -46 -33.5 -67t-58.5 -21z" />
    <glyph glyph-name="wgrave" unicode="&#x1e81;" horiz-adv-x="1272" 
d="M127 948h107l154 -797l292 754h80l153 -765l302 808h104l-369 -948h-98l-152 718l-280 -718h-98zM910 1087l-385 236l59 105l366 -267z" />
    <glyph glyph-name="yacute" unicode="&#xfd;" horiz-adv-x="852" 
d="M164 -486q-52 0 -97 18.5t-90 53.5l11 110q40 -44 82 -62.5t90 -18.5q61 0 104 43.5t73.5 109.5t52.5 132l36 100l-263 948h113l212 -794l290 794h105l-422 -1145q-32 -87 -75 -152.5t-98 -101t-124 -35.5zM428 1096l-29 74l416 267l42 -105z" />
    <glyph glyph-name="ycircumflex" unicode="&#x177;" horiz-adv-x="852" 
d="M164 -486q-52 0 -97 18.5t-90 53.5l11 110q40 -44 82 -62.5t90 -18.5q61 0 104 43.5t73.5 109.5t52.5 132l36 100l-263 948h113l212 -794l290 794h105l-422 -1145q-32 -87 -75 -152.5t-98 -101t-124 -35.5zM268 1113l-60 57l323 306l266 -306l-68 -57l-210 224z" />
    <glyph glyph-name="ydieresis" unicode="&#xff;" horiz-adv-x="852" 
d="M164 -486q-52 0 -97 18.5t-90 53.5l11 110q40 -44 82 -62.5t90 -18.5q61 0 104 43.5t73.5 109.5t52.5 132l36 100l-263 948h113l212 -794l290 794h105l-422 -1145q-32 -87 -75 -152.5t-98 -101t-124 -35.5zM390 1202q-34 0 -52 24t-14 56q2 29 24 56.5t60 27.5
q29 0 51 -20t21 -57q-2 -42 -31 -64.5t-59 -22.5zM665 1200q-32 0 -49.5 25t-14.5 56q2 30 25 57t58 27q25 0 49.5 -18t23.5 -59q-1 -46 -33.5 -67t-58.5 -21z" />
    <glyph glyph-name="ygrave" unicode="&#x1ef3;" horiz-adv-x="852" 
d="M164 -486q-52 0 -97 18.5t-90 53.5l11 110q40 -44 82 -62.5t90 -18.5q61 0 104 43.5t73.5 109.5t52.5 132l36 100l-263 948h113l212 -794l290 794h105l-422 -1145q-32 -87 -75 -152.5t-98 -101t-124 -35.5zM701 1087l-385 236l59 105l366 -267z" />
    <glyph glyph-name="zacute" unicode="&#x17a;" horiz-adv-x="834" 
d="M92 0l7 94l606 760h-534l10 94h654l-10 -94l-602 -760h529l-5 -94h-655zM419 1096l-29 74l416 267l42 -105z" />
    <glyph glyph-name="zcaron" unicode="&#x17e;" horiz-adv-x="834" 
d="M92 0l7 94l606 760h-534l10 94h654l-10 -94l-602 -760h529l-5 -94h-655zM776 1480l60 -57l-324 -306l-266 306l68 57l211 -224z" />
    <glyph glyph-name="zdotaccent" unicode="&#x17c;" horiz-adv-x="834" 
d="M92 0l7 94l606 760h-534l10 94h654l-10 -94l-602 -760h529l-5 -94h-655zM519 1200q-33 0 -51 25t-15 56q3 30 27 57t65 27q24 0 46 -20t19 -57q-5 -41 -31 -64.5t-60 -23.5z" />
    <glyph glyph-name="ordfeminine" unicode="&#xaa;" horiz-adv-x="984" 
d="M430 -18q-94 0 -155.5 41t-88 105t-19.5 132q11 99 61.5 160.5t126.5 90.5t161 29q63 0 129 -15t123 -45l14 136q15 144 -36.5 205t-155.5 61q-58 0 -108.5 -18.5t-83.5 -59.5t-38 -107h-117q9 103 61.5 162.5t129.5 85t157 25.5q147 0 228 -82t63 -273l-58 -615h-87
q1 45 2.5 88t1.5 87q-48 -99 -133 -146t-178 -47zM439 72q79 0 153.5 40t123 116t45.5 180q-62 21 -124.5 32.5t-119.5 11.5q-94 0 -162.5 -42t-78.5 -150q-7 -78 31 -133t132 -55z" />
    <glyph glyph-name="ordmasculine" unicode="&#xba;" horiz-adv-x="962" 
d="M479 -18q-116 0 -198.5 56.5t-121 166.5t-23.5 269q16 160 75.5 271t153 168t208.5 57q117 0 199 -58.5t120 -169t23 -268.5t-75 -268t-153 -167t-208 -57zM484 80q141 0 224 107.5t101 286.5q18 181 -43 289t-203 108q-140 0 -219.5 -106.5t-97.5 -290.5
q-10 -117 10.5 -206t76.5 -138.5t151 -49.5z" />
    <glyph glyph-name="uni0394" unicode="&#x394;" horiz-adv-x="1083" 
d="M50 0l512 1234h135l336 -1234h-121l-294 1092l-449 -1092h-119zM129 0l7 98h833l-7 -98h-833z" />
    <glyph glyph-name="uni03A9" unicode="&#x3a9;" horiz-adv-x="1274" 
d="M538 20q-72 0 -143.5 35t-128 107.5t-87.5 184.5t-22 266q13 211 92 353.5t203 215t271 72.5q145 0 259 -70.5t174 -213.5t43 -357q-17 -203 -90 -334t-174 -195t-200 -64l5 67q77 0 150 63t125 181t64 284q19 263 -81 400t-282 137q-189 0 -306 -144t-133 -395
q-11 -168 25.5 -286t101 -179t139.5 -61zM114 -1l7 88h422l-7 -88h-422zM733 -1l7 88h422l-7 -88h-422z" />
    <glyph glyph-name="uni03BC" unicode="&#x3bc;" horiz-adv-x="1070" 
d="M470 -18q-95 0 -161 42.5t-96.5 124.5t-20.5 199l56 602h104l-56 -596q-12 -125 36.5 -198t158.5 -73q95 0 165 53.5t112 144t52 201.5l44 468h104l-90 -950h-102l19 198q-53 -100 -133.5 -158t-191.5 -58zM118 -407l130 1357h102l-129 -1357h-103z" />
    <glyph glyph-name="pi" unicode="&#x3c0;" horiz-adv-x="1174" 
d="M1102 -17q-92 0 -163 41t-108 125t-28 213l41 587h112l-41 -587q-10 -151 54 -214.5t167 -63.5zM348 0l66 949h115l-67 -949h-114zM142 852l8 98h1108l-7 -98h-1109z" />
    <glyph glyph-name="zero.tf" 
d="M533 -18q-127 0 -214 71t-124 212.5t-18 354.5q19 211 84 352t167 212.5t230 71.5t215.5 -71.5t125.5 -212.5t19 -352q-18 -213 -84 -354.5t-169 -212.5t-232 -71zM546 85q157 0 247 139.5t116 395.5q26 254 -40 392t-225 138q-151 0 -243 -138t-117 -392
q-25 -256 42 -395.5t220 -139.5z" />
    <glyph glyph-name="one.tf" 
d="M224 0l9 108h293l92 993q-46 -34 -98 -55t-97 -25l11 118q55 6 108.5 30t100.5 69h89l-105 -1130h306l-9 -108h-700z" />
    <glyph glyph-name="two.tf" 
d="M173 0l15 166q8 109 48 179.5t103 116.5t140 80l223 99q92 41 146 106t62 165q13 108 -48 174t-176 66q-114 0 -192 -51.5t-98 -153.5h-113q17 96 70 165t140.5 106.5t202.5 37.5q106 0 184 -46t117 -125.5t28 -178.5q-16 -146 -95 -231.5t-193 -135.5l-228 -102
q-99 -44 -153 -104t-64 -153l-6 -72h649l-8 -108h-754z" />
    <glyph glyph-name="three.tf" 
d="M570 -18q-82 0 -154.5 25t-126.5 74.5t-81 122.5t-17 170h105q-9 -95 27.5 -159.5t105 -97t155.5 -32.5q131 0 211 74.5t90 183.5q6 69 -20 124t-90.5 87.5t-175.5 32.5h-116l13 94h62q144 0 234 62.5t101 169.5q11 101 -50 169t-182 68q-89 0 -163.5 -41t-108.5 -152
h-106q38 162 146 230.5t244 68.5q104 0 182.5 -43.5t120.5 -119t33 -171.5q-11 -99 -69.5 -168.5t-159.5 -107.5q104 -31 165 -108.5t50 -201.5q-11 -105 -64.5 -185.5t-145 -124.5t-215.5 -44z" />
    <glyph glyph-name="four.tf" 
d="M838 1256h90l-79 -843h192l-12 -101h-193l-28 -312h-98l26 312h-580l9 93zM806 1060l-515 -655h454z" />
    <glyph glyph-name="five.tf" 
d="M541 -18q-96 0 -177.5 39t-126 116.5t-33.5 192.5h101q-11 -120 62 -182.5t184 -62.5q132 0 214 88.5t94 221.5q11 127 -61 193t-218 66h-275l103 583h590l-11 -105h-488l-73 -400q43 8 90 13t86 5q187 0 286.5 -88.5t80.5 -266.5q-13 -119 -69 -213t-147.5 -147
t-211.5 -53z" />
    <glyph glyph-name="six.tf" 
d="M557 -22q-129 0 -217 82t-126 221.5t-22 313.5q20 204 87.5 352t176.5 228.5t250 80.5q95 0 161.5 -40.5t102.5 -111.5t37 -165h-111q-9 97 -54.5 154t-144.5 57q-122 0 -219.5 -96.5t-150 -271.5t-41.5 -411q20 138 73.5 218t128.5 114.5t154 34.5q99 0 174 -49.5
t115 -136t30 -199.5q-12 -112 -66 -196.5t-140.5 -131.5t-197.5 -47zM569 85q113 0 192.5 72t90.5 200q11 125 -54 197t-176 72q-73 0 -134.5 -36t-101 -97t-45.5 -136q-11 -128 55 -200t173 -72z" />
    <glyph glyph-name="seven.tf" 
d="M206 0l656 1126h-622l10 111h743l-11 -104l-635 -1133h-141z" />
    <glyph glyph-name="eight.tf" 
d="M559 -18q-123 0 -215 45t-140.5 123.5t-40.5 178.5q9 124 88 204.5t197 101.5q-49 25 -96 65t-75.5 98t-22.5 135q8 91 62 164t148.5 116t219.5 43q114 0 197 -44.5t125.5 -121t34.5 -172.5q-9 -104 -79.5 -189.5t-196.5 -106.5l42 -16q80 -28 132 -69.5t74.5 -101
t14.5 -138.5q-10 -95 -69 -166t-161 -110t-239 -39zM573 85q149 0 243 59t102 154q8 73 -37.5 123t-124.5 81l-204 88q-119 -18 -196 -91t-86 -162q-11 -122 76.5 -187t226.5 -65zM647 675q115 4 196 69.5t91 170.5q11 103 -62 169t-202 66q-81 0 -147 -30t-107 -80.5
t-50 -110.5q-6 -77 36 -121t120 -78z" />
    <glyph glyph-name="nine.tf" 
d="M521 -18q-109 0 -187 50t-116 137t-28 196h112q-11 -127 48.5 -203.5t178.5 -76.5q111 0 189.5 71.5t124.5 201.5t58 308q3 44 4.5 81t-0.5 82q-19 -106 -68 -179.5t-121 -112t-160 -38.5q-99 0 -174 49.5t-114 136.5t-29 199q11 112 64.5 195.5t140.5 130t194 46.5
q124 0 213.5 -75t131.5 -212.5t25 -326.5q-20 -205 -79.5 -353t-161 -227.5t-246.5 -79.5zM578 607q72 0 133 36t99.5 98t44.5 137q12 126 -52 198t-176 72q-111 0 -188.5 -72t-90.5 -198q-12 -126 52.5 -198.5t177.5 -72.5z" />
    <glyph glyph-name="uni2080" unicode="&#x2080;" horiz-adv-x="880" 
d="M387 -11q-116 0 -176.5 98t-42.5 294q17 195 97.5 293.5t199.5 98.5q117 0 177.5 -98.5t43.5 -293.5q-17 -196 -98 -294t-201 -98zM395 53q97 0 152.5 85.5t71.5 242.5t-24.5 241.5t-138.5 84.5q-93 0 -150 -84.5t-72 -241.5q-16 -157 25.5 -242.5t135.5 -85.5z" />
    <glyph glyph-name="uni2081" unicode="&#x2081;" horiz-adv-x="880" 
d="M169 0l5 66h181l56 611q-28 -21 -60 -33.5t-59 -15.5l6 72q34 5 67 20t61 42h55l-64 -696h188l-5 -66h-431z" />
    <glyph glyph-name="uni2082" unicode="&#x2082;" horiz-adv-x="880" 
d="M151 0l8 102q9 101 59 150.5t121 81.5l137 61q57 24 90 64.5t39 101.5q7 66 -30.5 107t-108.5 41q-70 0 -118 -31.5t-60 -95.5h-70q11 60 44 102.5t86 65.5t124 23q98 0 155.5 -62t47.5 -154q-10 -90 -58.5 -142t-118.5 -84l-141 -62q-61 -27 -94.5 -64t-38.5 -94l-4 -45
h400l-6 -66h-463z" />
    <glyph glyph-name="uni2083" unicode="&#x2083;" horiz-adv-x="880" 
d="M385 -11q-67 0 -123 27t-87 80.5t-23 133.5h64q-8 -88 45 -132.5t133 -44.5t129.5 45.5t55.5 112.5q6 63 -34 106.5t-141 43.5h-72l7 58h40q88 0 143 38.5t62 104.5q7 61 -31 103t-112 42q-55 0 -100.5 -24.5t-66.5 -94.5h-65q23 100 89.5 142.5t150.5 42.5
q96 0 155.5 -58.5t51.5 -146.5q-7 -61 -43 -104t-98 -67q64 -19 101 -66.5t31 -123.5q-7 -65 -40 -114.5t-89 -76.5t-133 -27z" />
    <glyph glyph-name="uni2084" unicode="&#x2084;" horiz-adv-x="880" 
d="M554 773h55l-48 -518h118l-7 -62h-119l-17 -193h-61l16 193h-356l5 56zM535 653l-317 -404h279z" />
    <glyph glyph-name="uni2085" unicode="&#x2085;" horiz-adv-x="880" 
d="M340 -11q-60 0 -109.5 24t-77 72t-20.5 118h62q-7 -73 37.5 -111.5t114.5 -38.5q81 0 131.5 54t56.5 136q8 78 -36.5 119t-134.5 41h-169l63 358h363l-7 -65h-300l-45 -245q27 4 56 7.5t53 3.5q114 0 175.5 -55t49.5 -164q-8 -74 -42 -131.5t-90.5 -90t-130.5 -32.5z" />
    <glyph glyph-name="uni2086" unicode="&#x2086;" horiz-adv-x="880" 
d="M394 -13q-80 0 -134 50t-77.5 136t-13.5 193q19 188 102.5 297.5t213.5 109.5q88 0 136 -54.5t50 -140.5h-69q-5 59 -33.5 94t-88.5 35q-75 0 -135 -59.5t-92.5 -167t-25.5 -251.5q18 127 82 176t137 49q91 0 148 -66.5t48 -170.5q-11 -104 -79 -167t-169 -63zM401 53
q70 0 119 44t55 123q7 77 -33 121.5t-108 44.5q-67 0 -117.5 -49t-55.5 -117q-7 -79 33.5 -123t106.5 -44z" />
    <glyph glyph-name="uni2087" unicode="&#x2087;" horiz-adv-x="880" 
d="M206 0l404 693h-383l6 68h457l-6 -63l-391 -698h-87z" />
    <glyph glyph-name="uni2088" unicode="&#x2088;" horiz-adv-x="880" 
d="M378 -11q-114 0 -182.5 60.5t-61.5 153.5q7 75 55 125t121 63q-45 22 -85 66.5t-35 116.5q7 84 78 141.5t187 57.5q70 0 121.5 -27.5t77.5 -74.5t21 -106q-6 -64 -49.5 -116.5t-120.5 -65.5l25 -10q74 -25 109 -71t28 -119q-10 -88 -86 -141t-203 -53zM387 53
q92 0 149.5 35.5t63.5 94.5q4 45 -24 75.5t-77 50.5l-126 54q-73 -11 -120.5 -56t-51.5 -100q-8 -74 46 -114t140 -40zM433 415q70 2 120 43t56 105q7 63 -38.5 103.5t-123.5 40.5q-75 0 -127.5 -40t-59.5 -95q-4 -48 22 -75t73 -48z" />
    <glyph glyph-name="uni2089" unicode="&#x2089;" horiz-adv-x="880" 
d="M375 -11q-67 0 -115 31t-71 84t-17 121h68q-6 -78 30.5 -125t109.5 -47q102 0 160 96.5t69 259.5q2 27 3 50t0 51q-18 -98 -76.5 -150.5t-138.5 -52.5q-91 0 -148 66.5t-48 170.5q11 103 79 166t167 63q77 0 132 -46t81 -131t14 -201q-17 -189 -91 -297.5t-208 -108.5z
M410 373q67 0 116 49t55 118q8 78 -32 122t-108 44t-116 -44t-56 -122q-8 -77 31.5 -122t109.5 -45z" />
    <glyph glyph-name="zero.dnom" horiz-adv-x="880" 
d="M387 -11q-117 0 -177 98.5t-42 293.5q17 194 97.5 293t199.5 99q118 0 178.5 -99t42.5 -293q-17 -195 -98 -293.5t-201 -98.5zM395 53q97 0 152.5 85.5t71.5 242.5t-25 241.5t-138 84.5q-93 0 -150 -84.5t-72 -241.5q-16 -157 25.5 -242.5t135.5 -85.5z" />
    <glyph glyph-name="one.dnom" horiz-adv-x="880" 
d="M169 0l5 66h181l56 611q-28 -21 -60 -33.5t-59 -15.5l6 72q33 5 66.5 20t61.5 42h55l-64 -696h188l-5 -66h-431z" />
    <glyph glyph-name="two.dnom" horiz-adv-x="880" 
d="M151 0l8 102q9 101 58.5 150.5t121.5 81.5l137 61q56 24 89.5 64.5t39.5 101.5q7 67 -30.5 107.5t-108.5 40.5q-70 0 -118 -32t-60 -95h-70q11 60 44 102.5t86 65.5t124 23q98 0 155.5 -62t47.5 -154q-10 -89 -58.5 -141.5t-118.5 -84.5l-141 -62q-61 -27 -94 -63.5
t-39 -94.5l-4 -45h400l-6 -66h-463z" />
    <glyph glyph-name="three.dnom" horiz-adv-x="880" 
d="M385 -11q-67 0 -122.5 27t-87 81t-23.5 133h64q-8 -88 45 -132.5t133 -44.5q81 0 129.5 45.5t55.5 112.5q6 63 -34 106.5t-141 43.5h-72l7 58h40q89 0 144 38.5t61 104.5q7 62 -31 103.5t-112 41.5q-55 0 -100 -24.5t-67 -94.5h-65q23 100 89.5 142.5t150.5 42.5
q96 0 155.5 -58.5t51.5 -146.5q-7 -61 -43 -104t-98 -67q64 -19 101.5 -66.5t30.5 -123.5q-7 -65 -40 -114.5t-89 -76.5t-133 -27z" />
    <glyph glyph-name="four.dnom" horiz-adv-x="880" 
d="M554 773h55l-48 -518h118l-7 -62h-119l-17 -193h-61l16 193h-356l5 56zM535 653l-317 -404h279z" />
    <glyph glyph-name="five.dnom" horiz-adv-x="880" 
d="M340 -11q-60 0 -109.5 24t-77 71.5t-20.5 118.5h62q-6 -73 38.5 -111.5t113.5 -38.5q81 0 131.5 54.5t56.5 135.5q8 79 -36.5 119.5t-134.5 40.5h-169l63 358h363l-7 -65h-300l-45 -245q27 5 56 8t53 3q114 0 175.5 -55t49.5 -164q-7 -73 -41.5 -131t-91 -90.5
t-130.5 -32.5z" />
    <glyph glyph-name="six.dnom" horiz-adv-x="880" 
d="M394 -13q-80 0 -134 50.5t-77.5 136t-13.5 192.5q18 188 102 297.5t214 109.5q88 0 136 -54.5t50 -140.5h-69q-5 60 -33.5 94.5t-88.5 34.5q-75 0 -135 -59.5t-92.5 -167t-25.5 -251.5q18 127 82 176t137 49q90 0 147.5 -67t48.5 -170q-11 -104 -79 -167t-169 -63z
M401 53q70 0 119 44.5t55 122.5q8 77 -32 121.5t-109 44.5q-67 0 -117.5 -49t-55.5 -117q-7 -78 33.5 -122.5t106.5 -44.5z" />
    <glyph glyph-name="seven.dnom" horiz-adv-x="880" 
d="M206 0l404 693h-383l6 68h457l-6 -63l-391 -698h-87z" />
    <glyph glyph-name="eight.dnom" horiz-adv-x="880" 
d="M378 -11q-114 0 -182.5 60.5t-61.5 153.5q6 76 54.5 125.5t121.5 62.5q-45 22 -85 66.5t-35 116.5q7 84 78 141.5t187 57.5q70 0 121.5 -27.5t77.5 -74.5t21 -106q-6 -64 -49.5 -116.5t-120.5 -65.5l25 -10q74 -25 109.5 -71t27.5 -119q-10 -88 -86 -141t-203 -53z
M387 53q92 0 149.5 36t63.5 94q4 45 -24 75.5t-77 50.5l-126 54q-73 -11 -120.5 -56t-51.5 -100q-7 -74 46.5 -114t139.5 -40zM433 415q71 2 120.5 43t55.5 105q7 63 -38 103.5t-124 40.5q-75 0 -128 -40t-59 -95q-4 -47 22 -74.5t73 -48.5z" />
    <glyph glyph-name="nine.dnom" horiz-adv-x="880" 
d="M375 -11q-67 0 -115 31t-71 84t-17 121h68q-6 -78 30.5 -125t109.5 -47q102 0 160 96.5t69 259.5q2 27 3 50t0 51q-18 -98 -76.5 -150.5t-138.5 -52.5q-91 0 -148 67t-48 170q11 103 79 166t167 63q77 0 132 -46t81 -130.5t14 -201.5q-17 -189 -90.5 -297.5
t-208.5 -108.5zM410 373q67 0 116 49t55 118q8 78 -32 122t-108 44t-116 -44t-56 -122q-8 -77 31.5 -122t109.5 -45z" />
    <glyph glyph-name="zero.numr" horiz-adv-x="880" 
d="M471 589q-117 0 -177 98.5t-42 293.5q17 194 97.5 293t199.5 99q118 0 178.5 -99t42.5 -293q-17 -195 -98 -293.5t-201 -98.5zM479 653q97 0 152.5 85.5t71.5 242.5t-25 241.5t-138 84.5q-93 0 -150 -84.5t-72 -241.5q-16 -157 25.5 -242.5t135.5 -85.5z" />
    <glyph glyph-name="one.numr" horiz-adv-x="880" 
d="M253 600l5 66h181l56 611q-28 -21 -60 -33.5t-59 -15.5l6 72q33 5 66.5 20t61.5 42h55l-64 -696h188l-5 -66h-431z" />
    <glyph glyph-name="two.numr" horiz-adv-x="880" 
d="M235 600l8 102q9 101 58.5 150.5t121.5 81.5l137 61q56 24 89.5 64.5t39.5 101.5q7 67 -30.5 107.5t-108.5 40.5q-70 0 -118 -32t-60 -95h-70q11 60 44 102.5t86 65.5t124 23q98 0 155.5 -62t47.5 -154q-10 -89 -58.5 -141.5t-118.5 -84.5l-141 -62q-61 -27 -94 -63.5
t-39 -94.5l-4 -45h400l-6 -66h-463z" />
    <glyph glyph-name="three.numr" horiz-adv-x="783" 
d="M426 589q-67 0 -123 27t-87 81t-23 133h64q-8 -88 44.5 -132.5t132.5 -44.5q82 0 130.5 45.5t54.5 112.5q7 63 -33 106.5t-142 43.5h-71l7 58h39q89 0 144 38.5t62 104.5q7 62 -31 103.5t-112 41.5q-55 0 -100.5 -24.5t-66.5 -94.5h-66q23 100 89.5 142.5t151.5 42.5
q95 0 156 -58.5t50 -146.5q-6 -61 -42.5 -104t-98.5 -67q65 -19 102.5 -66.5t30.5 -123.5q-7 -65 -40 -114.5t-89.5 -76.5t-132.5 -27z" />
    <glyph glyph-name="four.numr" horiz-adv-x="880" 
d="M638 1373h55l-48 -518h118l-7 -62h-119l-17 -193h-61l16 193h-356l5 56zM619 1253l-317 -404h279z" />
    <glyph glyph-name="five.numr" horiz-adv-x="880" 
d="M424 589q-60 0 -109.5 24t-77 72t-20.5 118h62q-6 -73 38.5 -111.5t113.5 -38.5q81 0 131.5 54.5t56.5 135.5q8 79 -36.5 119.5t-134.5 40.5h-169l63 358h363l-7 -65h-300l-45 -245q27 5 56 8t53 3q114 0 175.5 -55t49.5 -164q-7 -73 -41.5 -131t-91 -90.5t-130.5 -32.5z
" />
    <glyph glyph-name="six.numr" horiz-adv-x="880" 
d="M478 587q-80 0 -134 50.5t-77.5 136t-13.5 192.5q18 188 102 297.5t214 109.5q88 0 136 -54.5t50 -140.5h-69q-5 60 -33.5 94.5t-88.5 34.5q-75 0 -135 -59.5t-92.5 -167t-25.5 -251.5q18 127 82 176t137 49q90 0 147.5 -67t48.5 -170q-11 -104 -79 -167t-169 -63z
M485 653q70 0 119 44.5t55 122.5q8 77 -32 121.5t-109 44.5q-67 0 -117.5 -49t-55.5 -117q-7 -78 33.5 -122.5t106.5 -44.5z" />
    <glyph glyph-name="seven.numr" horiz-adv-x="880" 
d="M290 600l404 693h-383l6 68h457l-6 -63l-391 -698h-87z" />
    <glyph glyph-name="eight.numr" horiz-adv-x="880" 
d="M462 589q-114 0 -182.5 60.5t-61.5 153.5q6 76 54.5 125.5t121.5 62.5q-45 22 -85 66.5t-35 116.5q7 84 78 141.5t187 57.5q70 0 121.5 -27.5t77.5 -74.5t21 -106q-6 -64 -49.5 -116.5t-120.5 -65.5l25 -10q74 -25 109.5 -71t27.5 -119q-10 -88 -86 -141t-203 -53z
M471 653q92 0 149.5 36t63.5 94q4 45 -24 75.5t-77 50.5l-126 54q-73 -11 -120.5 -56t-51.5 -100q-7 -74 46.5 -114t139.5 -40zM517 1015q71 2 120.5 43t55.5 105q7 63 -38 103.5t-124 40.5q-75 0 -128 -40t-59 -95q-4 -47 22 -74.5t73 -48.5z" />
    <glyph glyph-name="nine.numr" horiz-adv-x="880" 
d="M459 589q-67 0 -115 31t-71 84t-17 121h68q-6 -78 30.5 -125t109.5 -47q102 0 160 96.5t69 259.5q2 27 3 50t0 51q-18 -98 -76.5 -150.5t-138.5 -52.5q-91 0 -148 67t-48 170q11 103 79 166t167 63q77 0 132 -46t81 -130.5t14 -201.5q-17 -189 -90.5 -297.5
t-208.5 -108.5zM494 973q67 0 116 49t55 118q8 78 -32 122t-108 44t-116 -44t-56 -122q-8 -77 31.5 -122t109.5 -45z" />
    <glyph glyph-name="uni2070" unicode="&#x2070;" horiz-adv-x="880" 
d="M471 589q-117 0 -177 98.5t-42 293.5q17 194 97.5 293t199.5 99q118 0 178.5 -99t42.5 -293q-17 -195 -98 -293.5t-201 -98.5zM479 653q97 0 152.5 85.5t71.5 242.5t-25 241.5t-138 84.5q-93 0 -150 -84.5t-72 -241.5q-16 -157 25.5 -242.5t135.5 -85.5z" />
    <glyph glyph-name="uni00B9" unicode="&#xb9;" horiz-adv-x="880" 
d="M253 600l5 66h181l56 611q-28 -21 -60 -33.5t-59 -15.5l6 72q33 5 66.5 20t61.5 42h55l-64 -696h188l-5 -66h-431z" />
    <glyph glyph-name="uni00B2" unicode="&#xb2;" horiz-adv-x="880" 
d="M235 600l8 102q9 101 58.5 150.5t121.5 81.5l137 61q56 24 89.5 64.5t39.5 101.5q7 67 -30.5 107.5t-108.5 40.5q-70 0 -118 -32t-60 -95h-70q11 60 44 102.5t86 65.5t124 23q98 0 155.5 -62t47.5 -154q-10 -89 -58.5 -141.5t-118.5 -84.5l-141 -62q-61 -27 -94 -63.5
t-39 -94.5l-4 -45h400l-6 -66h-463z" />
    <glyph glyph-name="uni00B3" unicode="&#xb3;" horiz-adv-x="783" 
d="M426 589q-67 0 -123 27t-87 81t-23 133h64q-8 -88 44.5 -132.5t132.5 -44.5q82 0 130.5 45.5t54.5 112.5q7 63 -33 106.5t-142 43.5h-71l7 58h39q89 0 144 38.5t62 104.5q7 62 -31 103.5t-112 41.5q-55 0 -100.5 -24.5t-66.5 -94.5h-66q23 100 89.5 142.5t151.5 42.5
q95 0 156 -58.5t50 -146.5q-6 -61 -42.5 -104t-98.5 -67q65 -19 102.5 -66.5t30.5 -123.5q-7 -65 -40 -114.5t-89.5 -76.5t-132.5 -27z" />
    <glyph glyph-name="uni2074" unicode="&#x2074;" horiz-adv-x="880" 
d="M638 1373h55l-48 -518h118l-7 -62h-119l-17 -193h-61l16 193h-356l5 56zM619 1253l-317 -404h279z" />
    <glyph glyph-name="uni2075" unicode="&#x2075;" horiz-adv-x="880" 
d="M424 589q-60 0 -109.5 24t-77 72t-20.5 118h62q-6 -73 38.5 -111.5t113.5 -38.5q81 0 131.5 54.5t56.5 135.5q8 79 -36.5 119.5t-134.5 40.5h-169l63 358h363l-7 -65h-300l-45 -245q27 5 56 8t53 3q114 0 175.5 -55t49.5 -164q-7 -73 -41.5 -131t-91 -90.5t-130.5 -32.5z
" />
    <glyph glyph-name="uni2076" unicode="&#x2076;" horiz-adv-x="880" 
d="M478 587q-80 0 -134 50.5t-77.5 136t-13.5 192.5q18 188 102 297.5t214 109.5q88 0 136 -54.5t50 -140.5h-69q-5 60 -33.5 94.5t-88.5 34.5q-75 0 -135 -59.5t-92.5 -167t-25.5 -251.5q18 127 82 176t137 49q90 0 147.5 -67t48.5 -170q-11 -104 -79 -167t-169 -63z
M485 653q70 0 119 44.5t55 122.5q8 77 -32 121.5t-109 44.5q-67 0 -117.5 -49t-55.5 -117q-7 -78 33.5 -122.5t106.5 -44.5z" />
    <glyph glyph-name="uni2077" unicode="&#x2077;" horiz-adv-x="880" 
d="M290 600l404 693h-383l6 68h457l-6 -63l-391 -698h-87z" />
    <glyph glyph-name="uni2078" unicode="&#x2078;" horiz-adv-x="880" 
d="M462 589q-114 0 -182.5 60.5t-61.5 153.5q6 76 54.5 125.5t121.5 62.5q-45 22 -85 66.5t-35 116.5q7 84 78 141.5t187 57.5q70 0 121.5 -27.5t77.5 -74.5t21 -106q-6 -64 -49.5 -116.5t-120.5 -65.5l25 -10q74 -25 109.5 -71t27.5 -119q-10 -88 -86 -141t-203 -53z
M471 653q92 0 149.5 36t63.5 94q4 45 -24 75.5t-77 50.5l-126 54q-73 -11 -120.5 -56t-51.5 -100q-7 -74 46.5 -114t139.5 -40zM517 1015q71 2 120.5 43t55.5 105q7 63 -38 103.5t-124 40.5q-75 0 -128 -40t-59 -95q-4 -47 22 -74.5t73 -48.5z" />
    <glyph glyph-name="uni2079" unicode="&#x2079;" horiz-adv-x="880" 
d="M459 589q-67 0 -115 31t-71 84t-17 121h68q-6 -78 30.5 -125t109.5 -47q102 0 160 96.5t69 259.5q2 27 3 50t0 51q-18 -98 -76.5 -150.5t-138.5 -52.5q-91 0 -148 67t-48 170q11 103 79 166t167 63q77 0 132 -46t81 -130.5t14 -201.5q-17 -189 -90.5 -297.5
t-208.5 -108.5zM494 973q67 0 116 49t55 118q8 78 -32 122t-108 44t-116 -44t-56 -122q-8 -77 31.5 -122t109.5 -45z" />
    <glyph glyph-name="fraction" unicode="&#x2044;" horiz-adv-x="257" 
d="M-303.862 -15.0957l868.464 1371.3h92.2949l-871.126 -1371.3h-89.6328z" />
    <glyph glyph-name="onehalf" unicode="&#xbd;" horiz-adv-x="2000" 
d="M233 600l5 66h181l57 611q-29 -21 -61 -33.5t-59 -15.5l6 72q34 5 67 20t62 42h54l-64 -696h188l-5 -66h-431zM1268 0l9 102q8 101 57.5 150.5t121.5 81.5l137 61q57 24 90.5 64.5t38.5 101.5q7 67 -30.5 107.5t-108.5 40.5q-70 0 -118 -32t-60 -95h-70q11 60 44 102.5
t86.5 65.5t124.5 23q97 0 154.5 -62t47.5 -154q-10 -89 -58 -141.5t-119 -84.5l-140 -62q-62 -27 -94.5 -63.5t-39.5 -94.5l-4 -45h400l-5 -66h-464zM509 0l872 1350h91l-874 -1350h-89z" />
    <glyph glyph-name="onequarter" unicode="&#xbc;" horiz-adv-x="2000" 
d="M213 600l5 66h181l56 611q-28 -21 -60 -33.5t-59 -15.5l6 72q33 5 66.5 20t61.5 42h55l-64 -696h188l-5 -66h-431zM1651 773h55l-48 -518h118l-7 -62h-119l-17 -193h-60l16 193h-357l5 56zM1632 653l-317 -404h279zM506 0l872 1350h91l-874 -1350h-89z" />
    <glyph glyph-name="threequarters" unicode="&#xbe;" horiz-adv-x="1894" 
d="M506 0l872 1350h91l-874 -1350h-89zM421 589q-67 0 -122.5 27t-87 81t-23.5 133h64q-8 -88 45 -132.5t133 -44.5q81 0 130 45.5t55 112.5q6 63 -34 106.5t-141 43.5h-72l7 58h40q89 0 144 38.5t62 104.5q7 62 -31.5 103.5t-112.5 41.5q-55 0 -100 -24.5t-67 -94.5h-65
q23 100 89.5 142.5t150.5 42.5q96 0 156.5 -58.5t50.5 -146.5q-7 -61 -43 -104t-98 -67q64 -19 102 -66.5t30 -123.5q-6 -65 -39 -114.5t-89.5 -76.5t-133.5 -27zM1566 773h55l-48 -518h118l-7 -62h-119l-17 -193h-61l16 193h-356l5 56zM1547 653l-317 -404h279z" />
    <glyph glyph-name="oneeighth" unicode="&#x215b;" horiz-adv-x="2000" 
d="M1489 -11q-114 0 -182.5 60.5t-61.5 153.5q5 76 53.5 125.5t121.5 62.5q-45 22 -85 66.5t-34 116.5q7 84 78 141.5t187 57.5q70 0 121 -27.5t77.5 -74.5t20.5 -106q-5 -64 -49 -117t-123 -66l28 -9q72 -31 108 -74t28 -116q-10 -88 -85.5 -141t-202.5 -53zM1497 53
q92 0 150 36t63 94q4 45 -24 75.5t-76 50.5l-126 54q-73 -11 -120 -56t-53 -100q-7 -74 47 -114t139 -40zM1543 415q71 2 120.5 43t55.5 105q7 63 -37.5 103.5t-124.5 40.5q-75 0 -128.5 -39.5t-58.5 -95.5q-4 -47 22 -74.5t74 -48.5zM235 600l5 66h181l56 611
q-28 -21 -60 -33.5t-59 -15.5l6 72q33 5 66 20t62 42h55l-65 -696h188l-4 -66h-431zM499 0l872 1350h91l-874 -1350h-89z" />
    <glyph glyph-name="threeeighths" unicode="&#x215c;" horiz-adv-x="2000" 
d="M509 0l872 1350h91l-874 -1350h-89zM481 589q-67 0 -123 27t-87 81t-23 133h64q-8 -88 44.5 -132.5t132.5 -44.5q82 0 130.5 45.5t54.5 112.5q7 63 -33 106.5t-142 43.5h-71l7 58h39q89 0 144 38.5t62 104.5q7 62 -31 103.5t-112 41.5q-56 0 -101 -24.5t-66 -94.5h-66
q23 100 89.5 142.5t151.5 42.5q95 0 156 -58.5t50 -146.5q-6 -61 -42.5 -104t-98.5 -67q65 -19 102.5 -66.5t30.5 -123.5q-6 -65 -39.5 -114.5t-90 -76.5t-132.5 -27zM1482 53q92 0 149.5 36t63.5 94q4 45 -24 75.5t-77 50.5l-125 54q-73 -11 -120.5 -56t-52.5 -100
q-7 -74 46.5 -114t139.5 -40zM1474 -11q-115 0 -183.5 60.5t-61.5 153.5q6 76 54.5 125.5t121.5 62.5q-45 22 -85 66.5t-34 116.5q7 84 77.5 141.5t186.5 57.5q70 0 121.5 -27.5t77.5 -74.5t21 -106q-5 -64 -49 -117t-122 -65l27 -10q72 -31 108 -74t28 -116
q-10 -88 -86 -141t-202 -53zM1528 415q71 2 120.5 43t55.5 105q7 63 -38 103.5t-124 40.5q-75 0 -128.5 -39.5t-58.5 -95.5q-4 -47 22 -74.5t73 -48.5z" />
    <glyph glyph-name="fiveeighths" unicode="&#x215d;" horiz-adv-x="2000" 
d="M523 0l872 1350h91l-874 -1350h-89zM419 589q-59 0 -109 24t-77 72t-21 118h63q-7 -73 38 -111.5t113 -38.5q81 0 131.5 54.5t57.5 135.5q7 79 -37.5 119.5t-133.5 40.5h-170l64 358h362l-6 -65h-300l-45 -245q26 5 55 8t53 3q115 0 176.5 -55t49.5 -164
q-8 -73 -42.5 -131t-91 -90.5t-130.5 -32.5zM1513 53q92 0 149.5 36t63.5 94q4 45 -24.5 75.5t-76.5 50.5l-126 54q-73 -11 -120 -56t-52 -100q-7 -74 46.5 -114t139.5 -40zM1504 -11q-114 0 -182.5 60.5t-61.5 153.5q6 76 54.5 125.5t121.5 62.5q-45 22 -85 66.5t-35 116.5
q8 84 78.5 141.5t186.5 57.5q70 0 121.5 -27.5t77.5 -74.5t20 -106q-5 -64 -49 -117t-123 -67l28 -8q73 -31 109 -74t28 -116q-10 -88 -86 -141t-203 -53zM1559 415q71 2 120.5 43t55.5 105q7 63 -38 103.5t-124 40.5q-75 0 -128.5 -39.5t-58.5 -95.5q-4 -47 22 -74.5
t73 -48.5z" />
    <glyph glyph-name="seveneighths" unicode="&#x215e;" horiz-adv-x="2000" 
d="M479 0l872 1350h91l-874 -1350h-89zM287 600l404 693h-383l6 68h457l-6 -63l-391 -698h-87zM1489 53q92 0 149.5 36t63.5 94q4 45 -24.5 75.5t-76.5 50.5l-126 54q-73 -11 -120 -56t-52 -100q-7 -74 46.5 -114t139.5 -40zM1480 -11q-114 0 -182.5 60.5t-61.5 153.5
q6 76 54.5 125.5t120.5 62.5q-44 22 -84 66.5t-35 116.5q7 84 78 141.5t187 57.5q70 0 121.5 -27.5t77.5 -74.5t20 -106q-5 -64 -48.5 -117t-123.5 -66l28 -9q73 -31 109 -74t28 -116q-10 -88 -86 -141t-203 -53zM1535 415q71 2 120.5 43t55.5 105q7 63 -38 103.5t-124 40.5
q-75 0 -128.5 -39.5t-58.5 -95.5q-4 -47 22 -74.5t73 -48.5z" />
    <glyph glyph-name="ellipsis" unicode="&#x2026;" horiz-adv-x="976" 
d="M139 -18q-37 0 -57 27t-16 63q4 37 29.5 62t62.5 25q35 0 56.5 -24t16.5 -63q-3 -35 -29 -62.5t-63 -27.5zM478 -18q-37 0 -57 27t-16 63q4 37 29.5 62t62.5 25q35 0 56.5 -24t16.5 -63q-3 -35 -29 -62.5t-63 -27.5zM827 -18q-37 0 -57 27t-16 63q4 37 29.5 62t62.5 25
q35 0 56.5 -24t16.5 -63q-3 -35 -29 -62.5t-63 -27.5z" />
    <glyph glyph-name="exclamdown" unicode="&#xa1;" horiz-adv-x="485" 
d="M392 890l-73 -908h-102l95 908h80zM383 1214q37 0 58 -27t19 -60q-3 -35 -28.5 -62.5t-63.5 -27.5q-37 0 -58 26.5t-17 63.5q4 36 29.5 61.5t60.5 25.5z" />
    <glyph glyph-name="questiondown" unicode="&#xbf;" horiz-adv-x="880" 
d="M577 907l-8 -95q-8 -91 -30.5 -145.5t-66 -94t-114.5 -85.5q-60 -40 -102.5 -72.5t-66.5 -72t-27 -97.5q-5 -98 54 -150t173 -52q116 0 180.5 52.5t89.5 138.5h114q-23 -130 -126.5 -213.5t-265.5 -83.5q-117 0 -192 42t-109.5 113t-28.5 158q6 82 42.5 139t87.5 96.5
t101 70.5q64 40 101 70t56 72t28 120l11 89h99zM555 1211q40 0 58 -26t14 -62t-28 -61t-63 -25q-43 0 -60 27t-14 60q3 38 28.5 62.5t64.5 24.5z" />
    <glyph glyph-name="periodcentered" unicode="&#xb7;" horiz-adv-x="288" 
d="M205 450q-37 0 -57 27t-16 63q4 37 29.5 62t62.5 25q35 0 56.5 -24t16.5 -63q-3 -35 -29 -62.5t-63 -27.5z" />
    <glyph glyph-name="bullet" unicode="&#x2022;" horiz-adv-x="425" 
d="M261 379q-44 0 -75 22.5t-44.5 59.5t-9.5 80q5 43 27 78.5t57 56.5t80 21q42 0 73.5 -20t47.5 -55t11 -81q-4 -42 -27 -79t-59 -60t-81 -23z" />
    <glyph glyph-name="period.tf" horiz-adv-x="463" 
d="M167 -18q-34 0 -56 25.5t-19 61.5q3 30 26 60t63 30q36 0 58 -25.5t18 -64.5q-4 -34 -29 -60.5t-61 -26.5z" />
    <glyph glyph-name="comma.tf" horiz-adv-x="550" 
d="M158 -188l-74 41q51 23 85.5 57t48.5 80q-36 1 -58 22.5t-19 59.5q3 33 27.5 56t60.5 23q43 0 66.5 -35t18.5 -89q-3 -37 -20.5 -77t-51.5 -76t-84 -62z" />
    <glyph glyph-name="colon.tf" horiz-adv-x="535" 
d="M288 684q-34 0 -55.5 25.5t-19.5 61.5q1 31 24.5 60.5t63.5 29.5q37 0 59 -26t17 -64q-3 -34 -28.5 -60.5t-60.5 -26.5zM230 63q-36 0 -56.5 26t-18.5 61t26.5 62.5t62.5 27.5q36 0 58 -26t17 -64q-3 -35 -28.5 -61t-60.5 -26z" />
    <glyph glyph-name="semicolon.tf" horiz-adv-x="535" 
d="M156 -188l-75 41q51 23 85.5 57t49.5 80q-37 1 -59 23t-18 59q3 36 27.5 57.5t59.5 21.5q45 0 68.5 -35.5t17.5 -88.5q-3 -37 -21.5 -77.5t-52 -76.5t-82.5 -61zM281 684q-34 0 -55 25t-19 62q2 32 25.5 61t63.5 29q38 0 59 -27t17 -63q-4 -34 -29 -60.5t-62 -26.5z" />
    <glyph glyph-name="exclam.tf" horiz-adv-x="535" 
d="M205 306l72 908h103l-96 -908h-79zM213 -18q-36 0 -57 25.5t-19 61.5q3 33 28 61.5t63 28.5q36 0 58.5 -26t17.5 -64q-4 -33 -29.5 -60t-61.5 -27z" />
    <glyph glyph-name="question.tf" horiz-adv-x="1000" 
d="M402 286l8 95q8 88 28.5 143t64 97t117.5 87q61 36 103.5 68t66.5 72.5t27 99.5q6 87 -48.5 144.5t-177.5 57.5q-113 0 -178.5 -50.5t-91.5 -140.5h-115q23 130 127 213.5t265 83.5q114 0 189.5 -41.5t111.5 -112t29 -159.5q-6 -81 -41 -137.5t-85.5 -96.5t-105.5 -72
q-63 -39 -100 -68.5t-55.5 -72.5t-28.5 -121l-11 -89h-99zM422 -18q-35 0 -54.5 25.5t-15.5 66.5q5 37 29 61t63 24q43 0 60 -28.5t13 -60.5q-4 -39 -32 -63.5t-63 -24.5z" />
    <glyph glyph-name="asterisk.tf" horiz-adv-x="729" 
d="M272 768l-62 65l185 186l-207 83l47 91l186 -112l6 266h94l-41 -266l210 109l27 -89l-223 -83l147 -185l-70 -65l-130 210z" />
    <glyph glyph-name="numbersign.tf" 
d="M250 60l53 287h-190l17 83h188l73 378h-192l16 78h190l53 286h98l-53 -286h294l52 286h95l-53 -286h191l-13 -78h-192l-73 -378h191l-15 -83h-191l-53 -287h-98l53 287h-294l-52 -287h-95zM416 430h293l73 378h-294z" />
    <glyph glyph-name="slash.tf" 
d="M250 -138l597 1585h103l-599 -1585h-101z" />
    <glyph glyph-name="backslash.tf" 
d="M847 -139l-597 1584h101l599 -1584h-103z" />
    <glyph glyph-name="parenleft.tf" horiz-adv-x="816" 
d="M621 1428l72 -60q-113 -111 -194.5 -237t-130 -259.5t-61.5 -269.5q-12 -135 10.5 -268.5t80 -260t149.5 -239.5l-80 -54q-100 113 -164.5 247t-91.5 280.5t-13 294.5q22 224 131.5 438.5t291.5 387.5z" />
    <glyph glyph-name="parenright.tf" horiz-adv-x="816" 
d="M232 -220l-71 54q113 113 194 239.5t129.5 260t61.5 268.5q12 136 -10.5 269.5t-80 259.5t-149.5 237l81 60q151 -173 219.5 -387.5t45.5 -438.5q-13 -148 -67 -294.5t-143 -280.5t-210 -247z" />
    <glyph glyph-name="braceleft.tf" horiz-adv-x="891" 
d="M577 -256q-127 0 -195 57.5t-90.5 159t-9.5 231.5l16 185q9 87 -4.5 125.5t-46.5 38.5h-20l9 106h22q34 0 54 38t29 127l15 181q13 130 55 232t121.5 161t206.5 59l-7 -97q-132 0 -194 -93t-80 -263l-15 -180q-9 -91 -36 -141.5t-65 -73.5l-3 -6q36 -19 53.5 -71
t6.5 -144l-15 -182q-15 -170 27.5 -261.5t177.5 -91.5z" />
    <glyph glyph-name="braceright.tf" horiz-adv-x="891" 
d="M185 -256l9 97q132 0 195.5 92.5t76.5 263.5l15 179q9 92 38 144.5t67 73.5v3q-30 18 -46.5 57.5t-15.5 110.5q0 10 0.5 23t1.5 24l14 183q3 34 3.5 51t0.5 30q2 131 -44.5 201.5t-162.5 70.5l10 97q113 0 179 -45.5t94 -127t26 -188.5q0 -20 -1.5 -43t-2.5 -44l-16 -185
q-1 -17 -2.5 -30t-1.5 -26q0 -61 14 -85t41 -24h21l-10 -106h-22q-33 0 -54 -37.5t-29 -126.5l-15 -181q-12 -130 -53.5 -232.5t-122 -161t-207.5 -58.5z" />
    <glyph glyph-name="bracketleft.tf" horiz-adv-x="891" 
d="M239 -161l145 1559h306l-6 -101h-204l-130 -1359h205l-8 -99h-308z" />
    <glyph glyph-name="bracketright.tf" horiz-adv-x="891" 
d="M230 -161l9 99h204l144 1359h-204l10 101h310l-165 -1559h-308z" />
    <glyph glyph-name="uni00AD" unicode="&#xad;" 
d="M109 521l10 98h481l-11 -98h-480z" />
    <glyph glyph-name="hyphen.tf" horiz-adv-x="725" 
d="M131 521l10 98h481l-11 -98h-480z" />
    <glyph glyph-name="underscore.tf" horiz-adv-x="1264" 
d="M79 -1l8 98h1065l-7 -98h-1066z" />
    <glyph glyph-name="quotesinglbase" unicode="&#x201a;" 
d="M118 -188l-73 41q50 23 84 57t49 80q-38 1 -60 23t-17 59q5 33 28.5 56t58.5 23q29 0 49 -16t30 -44t7 -64q-2 -35 -19.5 -75t-50.5 -76.5t-86 -63.5z" />
    <glyph glyph-name="quotedblbase" unicode="&#x201e;" 
d="M118 -188l-73 41q50 23 84 57t49 80q-38 1 -60 23t-17 59q5 33 28.5 56t58.5 23q29 0 49 -16t30 -44t7 -64q-2 -35 -19.5 -75t-50.5 -76.5t-86 -63.5zM118 -188l-73 41q50 23 84 57t49 80q-38 1 -60 23t-17 59q5 33 28.5 56t58.5 23q29 0 49 -16t30 -44t7 -64
q-2 -35 -19.5 -75t-50.5 -76.5t-86 -63.5z" />
    <glyph glyph-name="quotedblleft" unicode="&#x201c;" 
d="M245 879q-41 0 -65.5 36.5t-20.5 89.5q5 40 23.5 80.5t52.5 77t83 61.5l69 -40q-48 -29 -81 -63t-46 -77q36 -2 56.5 -23t17.5 -59q-4 -33 -28.5 -58t-60.5 -25zM245 879q-41 0 -65.5 36.5t-20.5 89.5q5 40 23.5 80.5t52.5 77t83 61.5l69 -40q-48 -29 -81 -63t-46 -77
q36 -2 56.5 -23t17.5 -59q-4 -33 -28.5 -58t-60.5 -25z" />
    <glyph glyph-name="quotedblright" unicode="&#x201d;" 
d="M172 879l-71 43q49 29 82.5 62t46.5 77q-34 2 -56 23.5t-20 56.5q3 34 27.5 58.5t59.5 24.5q30 0 51 -15.5t31 -44t5 -66.5q-3 -38 -22 -78t-52.5 -76.5t-81.5 -64.5zM172 879l-71 43q49 29 82.5 62t46.5 77q-34 2 -56 23.5t-20 56.5q3 34 27.5 58.5t59.5 24.5
q30 0 51 -15.5t31 -44t5 -66.5q-3 -38 -22 -78t-52.5 -76.5t-81.5 -64.5z" />
    <glyph glyph-name="guillemotleft" unicode="&#xab;" horiz-adv-x="1126" 
d="M489 98l-347 427l467 427l89 -52l-450 -403l-2 54l338 -402zM930 98l-347 427l467 427l89 -52l-450 -403l-2 54l338 -402z" />
    <glyph glyph-name="guillemotright" unicode="&#xbb;" horiz-adv-x="1125" 
d="M178 98l-89 51l450 402l2 -53l-338 403l95 51l347 -427zM618 98l-89 51l450 402l2 -53l-338 403l95 51l347 -427z" />
    <glyph glyph-name="guilsinglleft" unicode="&#x2039;" horiz-adv-x="685" 
d="M489 98l-347 427l467 427l89 -52l-450 -403l-2 54l338 -402z" />
    <glyph glyph-name="guilsinglright" unicode="&#x203a;" horiz-adv-x="685" 
d="M178 98l-89 51l450 402l2 -53l-338 403l95 51l347 -427z" />
    <glyph glyph-name="quotedbl.tf" horiz-adv-x="900" 
d="M380 1356h114l-55 -420h-83zM650 1356h114l-56 -420h-82z" />
    <glyph glyph-name="uni00A0" unicode="&#xa0;" horiz-adv-x="413" 
 />
    <glyph glyph-name="Rupee" unicode="&#x20b9;" horiz-adv-x="1023" 
d="M676 0l-454 498l8 76h102q119 0 198 46t118 119.5t39 152.5q0 120 -74 192t-229 72h-103l10 81h704l-12 -81h-329q79 -46 111 -110t32 -143q0 -65 -22.5 -134t-73 -128.5t-133.5 -98.5t-202 -44l458 -498h-148zM250 819l8 76h701l-6 -76h-703z" />
    <glyph glyph-name="cent" unicode="&#xa2;" horiz-adv-x="911" 
d="M548 950l36 189h94l-36 -189h-94zM367 -173l36 189h95l-36 -189h-95zM469 -18q-105 0 -187.5 59t-125 170t-28.5 265q15 157 78 267t156 168.5t197 58.5q64 0 115.5 -21t90 -58.5t63 -87.5t34.5 -109l-105 -19q-18 93 -74 144t-135 51q-75 0 -142 -46.5t-112.5 -134.5
t-56.5 -213q-11 -115 14.5 -204.5t84.5 -140t146 -50.5q97 0 163.5 59t72.5 169h110q-8 -98 -58.5 -171.5t-129.5 -114.5t-171 -41z" />
    <glyph glyph-name="currency" unicode="&#xa4;" 
d="M575 256q-97 0 -175.5 48t-122 129.5t-36.5 180.5q7 95 60 176t137.5 130t183.5 49t176.5 -48t120.5 -128.5t36 -178.5q-6 -100 -60 -181t-138.5 -129t-181.5 -48zM206 207l-54 59l182 166l54 -59zM915 203l-141 160l62 60l145 -162zM580 365q68 0 126.5 32.5t96.5 89.5
t43 127q5 71 -25.5 126t-83.5 87.5t-121 32.5t-126.5 -33t-95.5 -88.5t-43 -124.5q-4 -71 25 -127t83 -89t121 -33zM382 809l-150 169l64 58l151 -171zM862 793l-60 60l181 160l56 -59z" />
    <glyph glyph-name="Euro" unicode="&#x20ac;" horiz-adv-x="1084" 
d="M560 -18q-147 0 -244 83.5t-137.5 229.5t-22.5 333q18 203 93.5 343t189 212.5t243.5 72.5q170 0 270 -96t134 -251l-120 -27q-27 126 -106.5 198.5t-187.5 72.5q-96 0 -183 -60t-147.5 -177t-75.5 -288q-15 -154 12 -277.5t99 -195.5t194 -72q147 0 242.5 86.5
t108.5 227.5h110q-10 -130 -75 -223t-167.5 -142.5t-229.5 -49.5zM18 502l8 76h587l-6 -76h-589zM49 670l9 79h590l-12 -79h-587z" />
    <glyph glyph-name="florin" unicode="&#x192;" horiz-adv-x="450" 
d="M-79 -497q-31 0 -63.5 6.5t-67.5 20.5l28 93q27 -14 56 -21.5t56 -7.5q31 0 62.5 14t55 51.5t29.5 107.5l123 1343q9 92 45.5 150t93 85t121.5 27q32 0 64.5 -5.5t66.5 -21.5l-27 -92q-27 13 -56.5 21t-56.5 8q-31 0 -62 -14t-54 -51.5t-31 -108.5l-123 -1343
q-8 -91 -45 -149t-93 -85.5t-122 -27.5zM32 866l7 82h436l-7 -82h-436z" />
    <glyph glyph-name="uni20A8" unicode="&#x20a8;" horiz-adv-x="1023" 
d="M676 0l-454 498l8 76h102q119 0 198 46t118 119.5t39 152.5q0 120 -74 192t-229 72h-103l10 81h704l-12 -81h-329q79 -46 111 -110t32 -143q0 -65 -22.5 -134t-73 -128.5t-133.5 -98.5t-202 -44l458 -498h-148zM250 819l8 76h701l-6 -76h-703z" />
    <glyph glyph-name="yen" unicode="&#xa5;" horiz-adv-x="933" 
d="M817 419h-621l9 80h624zM804 267h-623l12 80h622zM414 0l47 505l-333 732h125l273 -612l391 612h121l-470 -732l-47 -505h-107z" />
    <glyph glyph-name="cent.tf" 
d="M656 950l36 189h94l-36 -189h-94zM475 -173l36 189h95l-36 -189h-95zM577 -18q-105 0 -187.5 59t-125 170t-28.5 265q15 157 78 267t156 168.5t197 58.5q64 0 115.5 -21t90 -58.5t63 -87.5t34.5 -109l-105 -19q-18 93 -74 144t-135 51q-75 0 -142 -46.5t-112.5 -134.5
t-56.5 -213q-11 -115 14.5 -204.5t84.5 -140t146 -50.5q97 0 163.5 59t72.5 169h110q-8 -98 -58.5 -171.5t-129.5 -114.5t-171 -41z" />
    <glyph glyph-name="currency.tf" 
d="M575 256q-97 0 -175.5 48t-122 129.5t-36.5 180.5q7 95 60 176t137.5 130t183.5 49t176.5 -48t120.5 -128.5t36 -178.5q-6 -100 -60 -181t-138.5 -129t-181.5 -48zM206 207l-54 59l182 166l54 -59zM915 203l-141 160l62 60l145 -162zM580 365q68 0 126.5 32.5t96.5 89.5
t43 127q5 71 -25.5 126t-83.5 87.5t-121 32.5t-126.5 -33t-95.5 -88.5t-43 -124.5q-4 -71 25 -127t83 -89t121 -33zM382 809l-150 169l64 58l151 -171zM862 793l-60 60l181 160l56 -59z" />
    <glyph glyph-name="dollar.tf" 
d="M496 -171l14 155q-100 9 -178 55t-119.5 128t-32.5 196h98q-10 -131 58.5 -197t182.5 -78l51 517l-38 16q-141 50 -209 118.5t-54 196.5q11 130 103.5 216t259.5 99l14 149h89l-13 -151q144 -9 219 -87.5t81 -202.5h-102q-10 83 -61.5 131.5t-147.5 58.5l-43 -466
l106 -37q112 -41 176.5 -118t52.5 -206q-9 -82 -57.5 -156.5t-134.5 -124t-210 -57.5l-13 -155h-92zM610 87q126 11 197.5 81.5t81.5 155.5q6 85 -36.5 142t-125.5 86l-69 24zM582 714l38 432q-108 -10 -172 -69.5t-70 -145.5q-6 -78 30.5 -123.5t121.5 -76.5z" />
    <glyph glyph-name="Euro.tf" 
d="M568 -18q-147 0 -244 83.5t-137.5 229.5t-22.5 333q18 203 93.5 343t189 212.5t243.5 72.5q170 0 270 -96t134 -251l-120 -27q-27 126 -106.5 198.5t-187.5 72.5q-96 0 -183 -60t-147.5 -177t-75.5 -288q-15 -154 12 -277.5t99 -195.5t194 -72q147 0 242.5 86.5
t108.5 227.5h110q-10 -130 -75 -223t-167.5 -142.5t-229.5 -49.5zM26 502l8 76h587l-6 -76h-589zM57 670l9 79h590l-12 -79h-587z" />
    <glyph glyph-name="uni20A8.tf" horiz-adv-x="1023" 
d="M580 0l-454 498l8 76h102q119 0 198 46t118 119.5t39 152.5q0 120 -74 192t-229 72h-103l10 81h704l-12 -81h-329q79 -46 111 -110t32 -143q0 -65 -22.5 -134t-73 -128.5t-133.5 -98.5t-202 -44l458 -498h-148zM154 819l8 76h701l-6 -76h-703z" />
    <glyph glyph-name="sterling.tf" 
d="M146 0l7 96h47q70 0 108.5 45.5t44.5 138.5l23 239h-168l7 87h171l23 245q13 124 54.5 215t115.5 140.5t182 49.5q113 0 184.5 -70.5t77.5 -201.5h-100q-10 84 -58 125t-115 41q-99 0 -161 -70.5t-76 -228.5l-26 -245h340l-9 -87h-338l-24 -236q-7 -68 -25.5 -114.5
t-61.5 -72.5h379q87 0 133 44.5t67 135.5h105q-23 -126 -92.5 -201t-223.5 -75h-591z" />
    <glyph glyph-name="yen.tf" 
d="M835 419h-621l9 80h624zM822 267h-623l12 80h622zM432 0l47 505l-333 732h125l273 -612l391 612h121l-470 -732l-47 -505h-107z" />
    <glyph glyph-name="DivisionSlash" unicode="&#x2215;" horiz-adv-x="257" 
d="M-303.862 -15.0957l868.464 1371.3h92.2949l-871.126 -1371.3h-89.6328z" />
    <glyph glyph-name="multiply" unicode="&#xd7;" horiz-adv-x="980" 
d="M150 140l-77 73l379 313l-6 -65l-302 302l82 68l301 -301l-70 -1l374 314l76 -76l-378 -311l7 65l301 -302l-81 -68l-302 301l71 1z" />
    <glyph glyph-name="divide" unicode="&#xf7;" horiz-adv-x="860" 
d="M53 537h739l-13 -96h-739zM456 665q-37 0 -57 27t-16 63q4 37 29.5 62t62.5 25q35 0 56.5 -24t16.5 -63q-3 -35 -29 -62.5t-63 -27.5zM364 143q-37 0 -57 27t-16 63q4 37 29.5 62t62.5 25q35 0 56.5 -24t16.5 -63q-3 -35 -29 -62.5t-63 -27.5z" />
    <glyph glyph-name="notequal" unicode="&#x2260;" horiz-adv-x="860" 
d="M145 361h586l-8 -98h-585zM178 685h587l-9 -103h-586zM244 107l321 770h112l-325 -770h-108z" />
    <glyph glyph-name="greaterequal" unicode="&#x2265;" horiz-adv-x="772" 
d="M107 291l-26 87l581 189l-16 -46l-563 249l28 96l609 -279l-8 -94zM5 95h740l-14 -95h-739z" />
    <glyph glyph-name="lessequal" unicode="&#x2264;" horiz-adv-x="860" 
d="M730 271l-603 224l-11 95l578 268l47 -90l-562 -245l7 53l577 -215zM58 95h739l-13 -95h-739z" />
    <glyph glyph-name="plusminus" unicode="&#xb1;" horiz-adv-x="878" 
d="M464 1016h104l-28 -328h336l-8 -95h-337l-27 -324h-105l29 324h-329l7 95h330zM66 95h739l-14 -95h-738z" />
    <glyph glyph-name="approxequal" unicode="&#x2248;" horiz-adv-x="871" 
d="M191 489l-61 34q38 96 88 143.5t110 47.5q29 0 62 -12t102 -43q77 -35 105.5 -45.5t49.5 -10.5q38 0 71 26t66 89l52 -38q-40 -99 -87.5 -144.5t-106.5 -45.5q-24 0 -55.5 10.5t-116.5 46.5q-79 35 -107.5 46.5t-49.5 11.5q-34 0 -64 -25t-58 -91zM155 159l-60 34
q38 95 88 143t110 48q29 0 61.5 -12.5t102.5 -43.5q77 -34 105.5 -45t49.5 -11q38 0 71 26t65 90l53 -39q-40 -98 -87.5 -143.5t-106.5 -45.5q-24 0 -55.5 10.5t-116.5 46.5q-79 34 -107.5 46t-50.5 12q-34 0 -64 -25.5t-58 -90.5z" />
    <glyph glyph-name="logicalnot" unicode="&#xac;" 
d="M257 612h670l-44 -321h-93l38 272l27 -41h-610z" />
    <glyph glyph-name="infinity" unicode="&#x221e;" horiz-adv-x="1330" 
d="M323 190q-80 0 -146 31t-100 96.5t-20 168.5t67 168t128 96.5t154 31.5q62 0 122 -21t106 -70t63 -137h-19q42 88 101.5 137t126 70t127.5 21q80 0 146 -31.5t100 -96.5t20 -168q-15 -103 -67.5 -168.5t-127 -96.5t-155.5 -31q-60 0 -120.5 20.5t-106 70t-63.5 137.5h19
q-42 -88 -101.5 -137.5t-126 -70t-127.5 -20.5zM348 264q94 0 177.5 59.5t142.5 181.5l-6 -39q-25 122 -91 181.5t-161 59.5q-62 0 -117.5 -24.5t-93.5 -73.5t-49 -123q-10 -74 14.5 -123.5t73 -74t110.5 -24.5zM946 264q62 0 117.5 24.5t93.5 74t48 123.5q11 74 -13.5 123
t-73 73.5t-110.5 24.5q-95 0 -178 -59.5t-142 -181.5l6 39q24 -122 90.5 -181.5t161.5 -59.5z" />
    <glyph glyph-name="emptyset" unicode="&#x2205;" 
d="M567 191q-102 0 -179.5 49.5t-116.5 133t-27 185.5q14 101 73.5 184.5t149.5 133t192 49.5t178.5 -49.5t116 -133t26.5 -184.5q-13 -102 -73 -185.5t-149 -133t-191 -49.5zM576 272q79 0 148.5 39t116.5 104t58 144q10 79 -20.5 143.5t-90.5 103.5t-139 39t-149 -39
t-117 -103.5t-57 -143.5q-11 -79 20 -144t91 -104t139 -39zM1070 1012l46 -54l-961 -855l-48 55z" />
    <glyph glyph-name="integral" unicode="&#x222b;" 
d="M187 -389l28 94q32 -13 62.5 -19.5t57.5 -6.5q34 0 70.5 13t63.5 49.5t31 107.5l88 1263q6 90 44 148t99 85.5t136 27.5q36 0 73 -5.5t75 -18.5l-28 -94q-32 13 -62 19.5t-58 6.5q-34 0 -70.5 -13t-63 -49.5t-32.5 -107.5l-87 -1263q-6 -90 -44 -148t-99 -85.5
t-136 -27.5q-36 0 -73.5 5.5t-74.5 18.5z" />
    <glyph glyph-name="product" unicode="&#x220f;" 
d="M39 -468l238 1702h894l-237 -1702h-113l231 1653l35 -46h-753l49 46l-231 -1653h-113z" />
    <glyph glyph-name="summation" unicode="&#x2211;" 
d="M548 383l-336 756l13 95h895l-14 -95h-850l49 46l366 -802h-123zM548 383h123l-590 -803l-36 46h850l-13 -95h-895l14 95z" />
    <glyph glyph-name="radical" unicode="&#x221a;" 
d="M455 1l-121 446l35 -36l-311 -44l-14 70l396 73l107 -411h-41l663 1582h110l-721 -1680h-103z" />
    <glyph glyph-name="uni00B5" unicode="&#xb5;" horiz-adv-x="1070" 
d="M470 -18q-95 0 -161 42.5t-96.5 124.5t-20.5 199l56 602h104l-56 -596q-12 -125 36.5 -198t158.5 -73q95 0 165 53.5t112 144t52 201.5l44 468h104l-90 -950h-102l19 198q-53 -100 -133.5 -158t-191.5 -58zM120 -407l130 1357h102l-129 -1357h-103z" />
    <glyph glyph-name="partialdiff" unicode="&#x2202;" horiz-adv-x="981" 
d="M460 -20q-82 0 -153 39t-115.5 118.5t-44.5 200.5q0 113 38.5 204.5t102.5 156.5t141.5 100t155.5 35q46 0 94.5 -15.5t90.5 -54t68 -107t26 -174.5l-10 -1q31 246 -2.5 438.5t-119.5 346t-215 279.5l87 51q128 -131 204 -268t110 -283t34 -306q0 -206 -45 -351
t-118.5 -235.5t-160 -132t-168.5 -41.5zM476 71q97 0 168 60t110 153.5t39 193.5q0 131 -61.5 198t-155.5 67q-91 0 -163.5 -58.5t-114.5 -151t-42 -194.5q0 -116 56.5 -192t163.5 -76z" />
    <glyph glyph-name="perthousand" unicode="&#x2030;" horiz-adv-x="1816" 
d="M450 1256q87 0 147.5 -72.5t48.5 -208.5q-13 -133 -87 -204.5t-161 -71.5q-59 0 -106.5 32t-72.5 93.5t-16 150.5q9 91 45.5 153.5t89.5 95t112 32.5zM443 1174q-62 0 -104 -49.5t-52 -149.5q-9 -98 23.5 -144.5t94.5 -46.5q55 0 97 46.5t52 144.5q10 100 -23 149.5
t-88 49.5zM209 0l857 1237h112l-861 -1237h-108zM984 537q89 0 149.5 -71.5t46.5 -208.5q-12 -135 -86.5 -205t-163.5 -70q-85 0 -144.5 70t-46.5 205q13 137 86.5 208.5t158.5 71.5zM978 454q-60 0 -102 -49t-54 -148q-7 -98 25.5 -144.5t92.5 -46.5q59 0 100 46.5
t48 144.5q12 99 -20.5 148t-89.5 49zM1542 537q59 0 107 -32t73.5 -94t16.5 -154q-13 -135 -87.5 -205t-163.5 -70q-56 0 -102.5 31.5t-71.5 93t-17 150.5q13 137 86.5 208.5t158.5 71.5zM1536 454q-60 0 -104 -48.5t-52 -148.5q-7 -98 26 -144.5t92 -46.5t98.5 46.5
t50.5 144.5q11 99 -21.5 148t-89.5 49z" />
    <glyph glyph-name="plus.tf" 
d="M504 0l38 444h-379l8 94h383l38 444h108l-42 -444h380l-8 -94h-384l-38 -444h-104z" />
    <glyph glyph-name="minus.tf" 
d="M228 455h739l-13 -96h-739z" />
    <glyph glyph-name="multiply.tf" 
d="M260 140l-77 73l379 313l-6 -65l-302 302l82 68l301 -301l-70 -1l374 314l76 -76l-378 -311l7 65l301 -302l-81 -68l-302 301l71 1z" />
    <glyph glyph-name="divide.tf" 
d="M224 537h739l-13 -96h-739zM627 665q-37 0 -57 27t-16 63q4 37 29.5 62t62.5 25q35 0 56.5 -24t16.5 -63q-3 -35 -29 -62.5t-63 -27.5zM535 143q-37 0 -57 27t-16 63q4 37 29.5 62t62.5 25q35 0 56.5 -24t16.5 -63q-3 -35 -29 -62.5t-63 -27.5z" />
    <glyph glyph-name="equal.tf" 
d="M301 356h577l-8 -98h-576zM334 721h578l-10 -103h-576z" />
    <glyph glyph-name="notequal.tf" 
d="M266 361h586l-8 -98h-585zM299 685h587l-9 -103h-586zM365 107l321 770h112l-325 -770h-108z" />
    <glyph glyph-name="greater.tf" 
d="M333 93l-61 91l549 408l-471 415l76 88l507 -454l-9 -97z" />
    <glyph glyph-name="less.tf" 
d="M872 1095l59 -88l-556 -415l478 -408l-74 -91l-512 451l8 97z" />
    <glyph glyph-name="greaterequal.tf" 
d="M309 291l-26 87l581 189l-16 -46l-563 249l28 96l609 -279l-8 -94zM207 95h740l-14 -95h-739z" />
    <glyph glyph-name="lessequal.tf" 
d="M888 271l-603 224l-11 95l578 268l47 -90l-562 -245l7 53l577 -215zM216 95h739l-13 -95h-739z" />
    <glyph glyph-name="plusminus.tf" 
d="M613 1016h104l-28 -328h336l-8 -95h-337l-27 -324h-105l29 324h-329l7 95h330zM215 95h739l-14 -95h-738z" />
    <glyph glyph-name="approxequal.tf" 
d="M380 489l-61 34q38 96 88 143.5t110 47.5q29 0 62 -12t102 -43q77 -35 105.5 -45.5t49.5 -10.5q38 0 71 26t66 89l52 -38q-40 -99 -87.5 -144.5t-106.5 -45.5q-24 0 -55.5 10.5t-116.5 46.5q-79 35 -107.5 46.5t-49.5 11.5q-34 0 -64 -25t-58 -91zM344 159l-60 34
q38 95 88 143t110 48q29 0 61.5 -12.5t102.5 -43.5q77 -34 105.5 -45t49.5 -11q38 0 71 26t65 90l53 -39q-40 -98 -87.5 -143.5t-106.5 -45.5q-24 0 -55.5 10.5t-116.5 46.5q-79 34 -107.5 46t-50.5 12q-34 0 -64 -25.5t-58 -90.5z" />
    <glyph glyph-name="asciitilde.tf" 
d="M308 466l-61 34q38 95 88.5 143t103.5 48q30 0 65.5 -11.5t104.5 -44.5q75 -33 106.5 -44t56.5 -11q71 0 129 115l52 -38q-38 -98 -88.5 -144t-106.5 -46q-25 0 -64.5 14.5t-106.5 41.5q-73 35 -105.5 47t-57.5 12q-28 0 -59 -26t-57 -90z" />
    <glyph glyph-name="asciicircum.tf" 
d="M266 520l355 634h77l236 -634h-117l-171 495l-261 -495h-119z" />
    <glyph glyph-name="percent.tf" 
d="M355 1256q87 0 147.5 -72.5t48.5 -208.5q-13 -133 -87 -204.5t-161 -71.5q-59 0 -106.5 32t-72.5 93.5t-16 150.5q9 91 45.5 153.5t89.5 95t112 32.5zM348 1174q-62 0 -104 -49.5t-52 -149.5q-9 -98 23.5 -144.5t94.5 -46.5q55 0 97 46.5t52 144.5q10 100 -23 149.5
t-88 49.5zM114 0l857 1237h112l-861 -1237h-108zM889 537q89 0 149.5 -71.5t46.5 -208.5q-12 -135 -86.5 -205t-163.5 -70q-85 0 -144.5 70t-46.5 205q13 137 86.5 208.5t158.5 71.5zM883 454q-60 0 -102 -49t-54 -148q-7 -98 25.5 -144.5t92.5 -46.5q59 0 100 46.5
t48 144.5q12 99 -20.5 148t-89.5 49z" />
    <glyph glyph-name="lozenge" unicode="&#x25ca;" horiz-adv-x="927" 
d="M154 618l384 616h86l271 -616l-382 -618h-87zM271 595l4 45l217 -525h-24l309 525l-3 -45l-216 524h25z" />
    <glyph glyph-name="paragraph" unicode="&#xb6;" 
d="M539 490q-201 0 -293 101.5t-75 268.5q18 168 131 271t314 103h351l-10 -100h-276l-68 -644h-74zM487 -252l156 1486h91l-156 -1486h-91zM750 -252l156 1486h92l-156 -1486h-92z" />
    <glyph glyph-name="section" unicode="&#xa7;" horiz-adv-x="979" 
d="M551 225l6 89q100 3 169 53.5t78 125.5q7 66 -36 101t-124 63l-151 55q-107 38 -161.5 99t-44.5 156q8 74 51 129.5t117 87.5t173 32q148 0 227 -67t74 -169h-105q-3 72 -57 108.5t-142 36.5q-76 0 -125 -23.5t-74 -59.5t-31 -74q-9 -65 35.5 -106t123.5 -66l149 -53
q107 -34 164.5 -94.5t46.5 -155.5q-8 -71 -53.5 -131.5t-124 -98t-185.5 -38.5zM449 -208q-114 0 -189.5 39.5t-111 106t-31.5 147.5h102q-5 -96 62.5 -150t172.5 -54q102 0 174 49t81 128q7 65 -36.5 100.5t-123.5 62.5l-151 55q-107 38 -161.5 99t-44.5 156
q11 110 101.5 181t239.5 77l-2 -91q-113 -6 -168.5 -57t-62.5 -109q-9 -65 35.5 -106t123.5 -66l149 -52q107 -35 164.5 -95.5t46.5 -154.5q-8 -70 -53 -131t-125 -98t-192 -37z" />
    <glyph glyph-name="copyright" unicode="&#xa9;" horiz-adv-x="1358" 
d="M633 -12q-130 0 -239.5 49t-187 135.5t-114.5 201t-23 245.5q14 130 75 244.5t156.5 201t215 135.5t250.5 49q130 0 239.5 -49t187 -135.5t114.5 -201t23 -244.5q-13 -131 -74.5 -245.5t-157 -201.5t-215 -135.5t-250.5 -48.5zM640 53q118 0 225 44t193 122t140.5 180.5
t66.5 219.5t-21 219t-102.5 180t-167.5 122t-215 44t-224.5 -44t-193.5 -121.5t-140.5 -180t-66.5 -219.5t21 -219.5t102.5 -180.5t168 -122t214.5 -44zM653 233q-90 0 -149 51.5t-84 141t-14 202.5q10 125 57 211t116 130t149 44q103 0 164.5 -58.5t82.5 -152.5l-72 -17
q-17 77 -66 121.5t-115 44.5q-59 0 -113 -37t-91 -108.5t-46 -177.5q-8 -93 8.5 -169t60.5 -120.5t119 -44.5q90 0 149 53t67 140h66q-6 -79 -45.5 -136t-102.5 -87.5t-141 -30.5z" />
    <glyph glyph-name="registered" unicode="&#xae;" horiz-adv-x="1358" 
d="M633 -12q-130 0 -239.5 49t-187 135.5t-114.5 201t-23 245.5q14 130 75 244.5t156.5 201t215 135.5t250.5 49q130 0 239.5 -49t187 -135.5t114.5 -201t23 -244.5q-13 -131 -74.5 -245.5t-157 -201.5t-215 -135.5t-250.5 -48.5zM640 53q118 0 225 44t193 122t140.5 180.5
t66.5 219.5t-21 219t-102.5 180t-167.5 122t-215 44t-224.5 -44t-193.5 -121.5t-140.5 -180t-66.5 -219.5t21 -219.5t102.5 -180.5t168 -122t214.5 -44zM448 218l76 802h241q121 0 174.5 -65.5t42.5 -168.5q-8 -94 -64.5 -156.5t-158.5 -73.5l184 -338h-82l-173 337h-143
l-31 -337h-66zM551 608h170q88 0 138 48.5t57 127.5q8 81 -33.5 127t-124.5 46h-176z" />
    <glyph glyph-name="trademark" unicode="&#x2122;" horiz-adv-x="1186" 
d="M649 948l58 618h75l165 -448l248 448h75l-60 -618h-52l52 552l9 1l-263 -470h-36l-176 476l9 -3l-52 -556h-52zM311 948l52 568h-186l5 50h425l-5 -50h-187l-52 -568h-52z" />
    <glyph glyph-name="degree" unicode="&#xb0;" horiz-adv-x="619" 
d="M393 969q-68 0 -120.5 33t-80.5 88.5t-23 122.5q7 67 44.5 122t95.5 88t126 33q67 0 119 -33t80.5 -88t22.5 -122q-5 -67 -43 -122.5t-96 -88.5t-125 -33zM398 1042q71 0 125.5 50.5t59.5 120.5q6 71 -40 120.5t-116 49.5q-71 0 -124.5 -51t-60.5 -119
q-6 -70 40.5 -120.5t115.5 -50.5z" />
    <glyph glyph-name="brokenbar" unicode="&#xa6;" horiz-adv-x="480" 
d="M165 -244l73 778h104l-73 -778h-104zM254 699l73 778h104l-73 -778h-104z" />
    <glyph glyph-name="dagger" unicode="&#x2020;" 
d="M462 -252l192 1486h126l-225 -1486h-93zM246 787l9 67l410 14l408 -14l-10 -67l-411 -16z" />
    <glyph glyph-name="daggerdbl" unicode="&#x2021;" 
d="M462 -252l192 1486h126l-225 -1486h-93zM246 787l9 67l410 14l408 -14l-10 -67l-411 -16zM199 518l10 67l410 14l407 -14l-9 -67l-411 -16z" />
    <glyph glyph-name="uni0308" unicode="&#x308;" horiz-adv-x="0" 
d="M315 1202q-34 0 -52 24t-14 56q2 29 24 56.5t60 27.5q29 0 51 -20t21 -57q-2 -42 -31 -64.5t-59 -22.5zM590 1200q-32 0 -49.5 25t-14.5 56q2 30 25 57t58 27q25 0 49.5 -18t23.5 -59q-1 -46 -33.5 -67t-58.5 -21z" />
    <glyph glyph-name="uni0307" unicode="&#x307;" horiz-adv-x="0" 
d="M314 1200q-33 0 -51 25t-15 56q3 30 27 57t65 27q24 0 46 -20t19 -57q-5 -41 -31 -64.5t-60 -23.5z" />
    <glyph glyph-name="gravecomb" unicode="&#x300;" horiz-adv-x="0" 
d="M640 1087l-385 236l59 105l366 -267z" />
    <glyph glyph-name="acutecomb" unicode="&#x301;" horiz-adv-x="0" 
d="M262 1096l-29 74l416 267l42 -105z" />
    <glyph glyph-name="uni030B" unicode="&#x30b;" horiz-adv-x="0" 
d="M536 1085l-69 9l24 319l99 -12zM318 1089l-69 8l18 320l100 -10z" />
    <glyph glyph-name="uni0302" unicode="&#x302;" horiz-adv-x="0" 
d="M293 1113l-60 57l323 306l266 -306l-68 -57l-210 224z" />
    <glyph glyph-name="uni030C" unicode="&#x30c;" horiz-adv-x="0" 
d="M798 1480l60 -57l-324 -306l-266 306l68 57l211 -224z" />
    <glyph glyph-name="uni0306" unicode="&#x306;" horiz-adv-x="0" 
d="M488 1148q-116 0 -177.5 66t-49.5 159h101q-9 -67 29.5 -105t108.5 -38q71 0 119 38t57 105h102q-9 -97 -90 -161t-200 -64z" />
    <glyph glyph-name="uni030A" unicode="&#x30a;" horiz-adv-x="0" 
d="M430 1092q-49 0 -90.5 24.5t-66 66t-24.5 90.5q0 50 24.5 91t66 65.5t90.5 24.5q50 0 91 -24.5t65.5 -65.5t24.5 -91q0 -49 -24.5 -90.5t-65.5 -66t-91 -24.5zM430 1180q39 0 66 27.5t27 65.5q0 39 -27 66t-66 27q-38 0 -65.5 -27t-27.5 -66q0 -38 27.5 -65.5t65.5 -27.5
z" />
    <glyph glyph-name="tildecomb" unicode="&#x303;" horiz-adv-x="0" 
d="M278 1174l-41 29q33 96 73 138.5t88 42.5q22 0 46 -10.5t79 -43.5q54 -31 75 -42t39 -11q31 0 56.5 23.5t52.5 83.5l45 -35q-19 -58 -45 -96.5t-55 -58.5t-59 -20q-22 0 -48.5 13t-89.5 46q-52 29 -70.5 36.5t-34.5 7.5q-28 0 -54.5 -22t-56.5 -81z" />
    <glyph glyph-name="uni0304" unicode="&#x304;" horiz-adv-x="0" 
d="M250 1265h590l-18 -98h-590z" />
    <glyph glyph-name="uni0312" unicode="&#x312;" horiz-adv-x="0" 
d="M367 1418l73 -41q-50 -23 -84 -57t-49 -80q38 -1 60 -23t17 -59q-5 -33 -28.5 -56t-58.5 -23q-29 0 -49 16t-30 44t-7 64q2 35 19.5 75t50.5 76.5t86 63.5z" />
    <glyph glyph-name="uni0326" unicode="&#x326;" horiz-adv-x="0" 
d="M94 -396l-73 41q50 23 84 57t49 80q-38 1 -60 23t-17 59q5 33 28.5 56t58.5 23q29 0 49 -16t30 -44t7 -64q-2 -35 -19.5 -75t-50.5 -76.5t-86 -63.5z" />
    <glyph glyph-name="uni0327" unicode="&#x327;" horiz-adv-x="0" 
d="M19 -350l21 57q80 -43 142.5 -49t98.5 15t36 58q0 39 -35 67.5t-85 47t-96 28.5l56 171l82 -6l-54 -161l-43 55q89 -22 152.5 -51t97 -66.5t33.5 -86.5q0 -57 -41 -91t-105.5 -44t-134 4t-125.5 52z" />
    <glyph glyph-name="uni0328" unicode="&#x328;" horiz-adv-x="0" 
d="M498 -347q-62 -36 -131 -55t-131 -19q-94 0 -148 43t-54 118q0 83 70 159.5t210 127.5l61 -39q-117 -51 -184.5 -106t-67.5 -118q0 -48 38 -72t94 -24q48 0 99.5 16.5t112.5 50.5z" />
    <glyph glyph-name="breve" unicode="&#x2d8;" horiz-adv-x="698" 
d="M488 1148q-116 0 -177.5 66t-49.5 159h101q-9 -67 29.5 -105t108.5 -38q71 0 119 38t57 105h102q-9 -97 -90 -161t-200 -64z" />
    <glyph glyph-name="caron" unicode="&#x2c7;" horiz-adv-x="771" 
d="M798 1480l60 -57l-324 -306l-266 306l68 57l211 -224z" />
    <glyph glyph-name="cedilla" unicode="&#xb8;" horiz-adv-x="578" 
d="M19 -350l21 57q80 -43 142.5 -49t98.5 15t36 58q0 39 -35 67.5t-85 47t-96 28.5l56 171l82 -6l-54 -161l-43 55q89 -22 152.5 -51t97 -66.5t33.5 -86.5q0 -57 -41 -91t-105.5 -44t-134 4t-125.5 52z" />
    <glyph glyph-name="dotaccent" unicode="&#x2d9;" horiz-adv-x="337" 
d="M314 1200q-33 0 -51 25t-15 56q3 30 27 57t65 27q24 0 46 -20t19 -57q-5 -41 -31 -64.5t-60 -23.5z" />
    <glyph glyph-name="hungarumlaut" unicode="&#x2dd;" horiz-adv-x="506" 
d="M536 1085l-69 9l24 319l99 -12zM318 1089l-69 8l18 320l100 -10z" />
    <glyph glyph-name="macron" unicode="&#xaf;" horiz-adv-x="776" 
d="M250 1265h590l-18 -98h-590z" />
    <glyph glyph-name="ogonek" unicode="&#x2db;" horiz-adv-x="660" 
d="M498 -347q-62 -36 -131 -55t-131 -19q-94 0 -148 43t-54 118q0 83 70 159.5t210 127.5l61 -39q-117 -51 -184.5 -106t-67.5 -118q0 -48 38 -72t94 -24q48 0 99.5 16.5t112.5 50.5z" />
    <glyph glyph-name="ring" unicode="&#x2da;" horiz-adv-x="547" 
d="M430 1092q-49 0 -90.5 24.5t-66 66t-24.5 90.5q0 50 24.5 91t66 65.5t90.5 24.5q50 0 91 -24.5t65.5 -65.5t24.5 -91q0 -49 -24.5 -90.5t-65.5 -66t-91 -24.5zM430 1180q39 0 66 27.5t27 65.5q0 39 -27 66t-66 27q-38 0 -65.5 -27t-27.5 -66q0 -38 27.5 -65.5t65.5 -27.5
z" />
    </font>
</defs>
</svg>
