<?xml version="1.0" standalone="no"?>
<!DOCTYPE svg PUBLIC "-//W3C//DTD SVG 1.1//EN" "http://www.w3.org/Graphics/SVG/1.1/DTD/svg11.dtd" >
<svg xmlns="http://www.w3.org/2000/svg" xmlns:xlink="http://www.w3.org/1999/xlink" version="1.1">
<metadata>
Created by FontForge 20190801 at Fri Sep 20 16:13:05 2019
 By Jimmy Wärting
Copyright 2019 The Karla Project Authors (https://github.com/bghryct/karmilla)
</metadata>
<defs>
<font id="Karla-Medium" horiz-adv-x="1200" >
  <font-face 
    font-family="Karla Medium"
    font-weight="500"
    font-stretch="normal"
    units-per-em="2000"
    panose-1="2 11 0 4 3 5 3 3 0 3"
    ascent="1600"
    descent="-400"
    x-height="962"
    cap-height="1274"
    bbox="-345.123 -497 2354 1974"
    underline-thickness="50"
    underline-position="-125"
    unicode-range="U+000D-FB02"
  />
<missing-glyph horiz-adv-x="1031" 
d="M0 -5v1660h1031v-1660h-1031zM80 44h871l-435 732zM57 104l429 721l-429 721v-1442zM974 104v1442l-429 -721zM516 874l435 732h-871z" />
    <glyph glyph-name="fi" unicode="fi" horiz-adv-x="1328" 
d="M249 0v1097q0 100 38 163t102.5 92.5t141.5 29.5q44 0 91 -6t91 -17l-37 -149q-27 10 -55.5 16t-54.5 6q-31 0 -59.5 -11.5t-47.5 -41.5t-19 -85v-1094h-191zM98 833v129h532v-129h-532zM1011 1167q-57 0 -89.5 31.5t-32.5 85.5q0 51 32.5 82t89.5 31t89.5 -31t32.5 -82
q0 -54 -32.5 -85.5t-89.5 -31.5zM916 0v965h190v-965h-190z" />
    <glyph glyph-name="fl" unicode="fl" horiz-adv-x="1287" 
d="M249 0v1097q0 100 38 163t102.5 92.5t141.5 29.5q44 0 91 -6t91 -17l-37 -149q-27 10 -55.5 16t-54.5 6q-31 0 -59.5 -11.5t-47.5 -41.5t-19 -85v-1094h-191zM98 833v129h532v-129h-532zM902 0v1367h190v-1367h-190z" />
    <glyph glyph-name=".notdef" horiz-adv-x="1031" 
d="M0 -5v1660h1031v-1660h-1031zM80 44h871l-435 732zM57 104l429 721l-429 721v-1442zM974 104v1442l-429 -721zM516 874l435 732h-871z" />
    <glyph glyph-name=".null" 
 />
    <glyph glyph-name="CR" unicode="&#xd;" 
 />
    <glyph glyph-name="space" unicode=" " horiz-adv-x="488" 
 />
    <glyph glyph-name="comma" unicode="," horiz-adv-x="455" 
d="M200 -250l-155 75q68 35 117 78.5t66 99.5q-55 8 -92.5 41.5t-37.5 87.5t40.5 92.5t105.5 38.5q79 0 127 -57t48 -139q0 -59 -25.5 -119t-74 -112t-119.5 -86z" />
    <glyph glyph-name="period" unicode="." horiz-adv-x="388" 
d="M55 113q0 55 38.5 94.5t97.5 39.5q60 0 100.5 -39.5t40.5 -94.5q0 -56 -40.5 -93.5t-100.5 -37.5q-59 0 -97.5 37.5t-38.5 93.5z" />
    <glyph glyph-name="semicolon" unicode=";" horiz-adv-x="562" 
d="M256 -250l-155 75q68 35 117 78.5t66 99.5q-55 8 -92.5 41.5t-37.5 87.5t40.5 92.5t105.5 38.5q79 0 127 -57t48 -139q0 -59 -25.5 -119t-74 -112t-119.5 -86zM167 771q0 55 38.5 94.5t97.5 39.5q60 0 100.5 -39.5t40.5 -94.5q0 -56 -40.5 -93.5t-100.5 -37.5
q-59 0 -97.5 37.5t-38.5 93.5z" />
    <glyph glyph-name="colon" unicode=":" horiz-adv-x="494" 
d="M108 165q0 55 38.5 94.5t97.5 39.5q60 0 100.5 -39.5t40.5 -94.5q0 -56 -40.5 -93.5t-100.5 -37.5q-59 0 -97.5 37.5t-38.5 93.5zM108 771q0 55 38.5 94.5t97.5 39.5q60 0 100.5 -39.5t40.5 -94.5q0 -56 -40.5 -93.5t-100.5 -37.5q-59 0 -97.5 37.5t-38.5 93.5z" />
    <glyph glyph-name="hyphen" unicode="-" horiz-adv-x="718" 
d="M83 508v166h552v-166h-552z" />
    <glyph glyph-name="endash" unicode="&#x2013;" horiz-adv-x="989" 
d="M110 508v166h770v-166h-770z" />
    <glyph glyph-name="emdash" unicode="&#x2014;" horiz-adv-x="1486" 
d="M110 508v166h1268v-166h-1268z" />
    <glyph glyph-name="exclam" unicode="!" horiz-adv-x="568" 
d="M210 388l-23 896h204l-23 -896h-158zM289 -18q-59 0 -98 37.5t-39 93.5q0 55 39 94.5t98 39.5t99.5 -39.5t40.5 -94.5q0 -56 -40.5 -93.5t-99.5 -37.5z" />
    <glyph glyph-name="a" unicode="a" horiz-adv-x="1130" 
d="M799 0l-25 221v401q0 118 -49.5 171.5t-154.5 53.5q-60 0 -106.5 -17.5t-73 -52.5t-26.5 -88h-210q0 106 52 172t145.5 96.5t218.5 30.5q117 0 205.5 -38.5t138.5 -120.5t50 -212v-617h-165zM476 -26q-121 0 -201 43t-119.5 111.5t-39.5 146.5q0 95 48.5 156.5
t134.5 91.5t198 30q77 0 150.5 -14t143.5 -37v-115q-57 21 -128 33.5t-132 12.5q-91 0 -152 -36.5t-61 -121.5q0 -64 47.5 -109t152.5 -45q76 0 134 34.5t90 86.5t32 104h46q0 -99 -40.5 -184t-117 -136.5t-186.5 -51.5z" />
    <glyph glyph-name="b" unicode="b" horiz-adv-x="1203" 
d="M658 -26q-94 0 -170.5 50.5t-122 149.5t-45.5 243h65q0 -84 36.5 -145t93.5 -93.5t119 -32.5q74 0 133.5 41t95 117.5t35.5 180.5q0 103 -35 177.5t-95 115t-136 40.5q-64 0 -120.5 -31t-91.5 -91t-35 -148h-65q0 141 43.5 239.5t122.5 149.5t185 51q116 0 211 -61.5
t152.5 -174.5t57.5 -267q0 -155 -59 -270t-157.5 -178t-217.5 -63zM195 0v1367h190v-1136l-61 -231h-129z" />
    <glyph glyph-name="c" unicode="c" horiz-adv-x="1043" 
d="M545 -26q-118 0 -219.5 62.5t-164 177t-62.5 268.5q0 162 62.5 274.5t164 172t219.5 59.5q87 0 155 -27.5t117 -73.5t79.5 -104.5t42.5 -120.5l-193 -10q-21 74 -73.5 120t-129.5 46q-65 0 -122.5 -36.5t-93.5 -110.5t-36 -189q0 -105 33.5 -181t90.5 -115.5t128 -39.5
q102 0 152.5 49.5t50.5 136.5h193q0 -101 -47.5 -182t-135 -128.5t-211.5 -47.5z" />
    <glyph glyph-name="d" unicode="d" horiz-adv-x="1203" 
d="M544 -26q-118 0 -217 63t-157.5 178t-58.5 270q0 154 57 267t152.5 174.5t211.5 61.5q106 0 185 -51t122.5 -149.5t43.5 -239.5h-66q0 88 -35 148t-90.5 91t-120.5 31q-75 0 -135.5 -40.5t-96 -115t-35.5 -177.5q0 -104 35.5 -180.5t96 -117.5t134.5 -41q61 0 117.5 32.5
t93 93.5t36.5 145h66q0 -144 -45.5 -243t-122.5 -149.5t-171 -50.5zM850 0l-33 231v1136h191v-1367h-158z" />
    <glyph glyph-name="e" unicode="e" horiz-adv-x="1041" 
d="M540 -26q-124 0 -224 64t-158.5 178t-58.5 265q0 158 58 271.5t158 174.5t225 61q112 0 192 -45t129.5 -122t67.5 -174t6 -200h-684v110h554l-46 -30q3 53 -5.5 107.5t-32.5 100t-67.5 73t-110.5 27.5q-83 0 -140 -42t-86 -112.5t-29 -154.5v-77q0 -93 27.5 -165
t84 -113.5t140.5 -41.5q83 0 137.5 39t67.5 117h194q-15 -94 -69 -164t-138.5 -108.5t-191.5 -38.5z" />
    <glyph glyph-name="f" unicode="f" horiz-adv-x="707" 
d="M249 0v1097q0 100 38 163t102.5 92.5t141.5 29.5q44 0 91 -6t91 -17l-37 -149q-27 10 -55.5 16t-54.5 6q-31 0 -59.5 -11.5t-47.5 -41.5t-19 -85v-1094h-191zM98 833v129h532v-129h-532z" />
    <glyph glyph-name="g" unicode="g" horiz-adv-x="1144" 
d="M549 -497q-155 0 -268 44t-174 115.5t-61 156.5q0 108 79 165.5t201 57.5l123 -59q-104 0 -160.5 -41.5t-56.5 -113.5q0 -75 82.5 -123.5t234.5 -48.5q111 0 194.5 32.5t130 85.5t46.5 112q0 41 -29.5 69t-89.5 28h-352q-98 0 -172.5 30.5t-116.5 81.5t-42 111
q0 61 33.5 104t90 65.5t123.5 22.5l43 -66q-29 0 -58 -12.5t-48 -37t-19 -62.5q0 -44 36 -72t130 -28h352q144 0 226 -57t82 -166q0 -98 -68 -188.5t-193.5 -148t-298.5 -57.5zM570 289q-112 0 -203.5 43.5t-145.5 122.5t-54 183q0 106 54 184.5t145.5 122t203.5 43.5
q109 0 199.5 -43.5t145 -122t54.5 -184.5q0 -104 -54.5 -183t-145 -122.5t-199.5 -43.5zM570 423q103 0 157.5 61.5t54.5 153.5q0 96 -55 155t-157 59t-158 -59t-56 -155q0 -92 56.5 -153.5t157.5 -61.5zM897 834l-89 43q0 86 36 150t100 100t147 36l-12 -185
q-89 0 -135.5 -35t-46.5 -109z" />
    <glyph glyph-name="h" unicode="h" horiz-adv-x="1224" 
d="M870 0v564q0 125 -60.5 189.5t-160.5 64.5q-80 0 -139.5 -43.5t-92 -127t-32.5 -203.5h-68q0 177 45.5 298t130.5 183.5t205 62.5q116 0 196.5 -52.5t122 -147.5t41.5 -224v-564h-188zM195 0v1367h190v-1367h-190z" />
    <glyph glyph-name="i" unicode="i" horiz-adv-x="622" 
d="M305 1167q-57 0 -89.5 31.5t-32.5 85.5q0 51 32.5 82t89.5 31q56 0 88.5 -31t32.5 -82q0 -54 -32.5 -85.5t-88.5 -31.5zM210 0v965h190v-965h-190z" />
    <glyph glyph-name="j" unicode="j" horiz-adv-x="645" 
d="M327 1167q-56 0 -88.5 31.5t-32.5 85.5q0 51 32.5 82t88.5 31t89 -31t33 -82q0 -54 -33 -85.5t-89 -31.5zM110 -497q-74 0 -139.5 18t-134.5 52l7 164q55 -29 111.5 -48.5t114.5 -19.5q79 0 122 49t43 157v1091h189v-1094q0 -198 -84.5 -283.5t-228.5 -85.5z" />
    <glyph glyph-name="k" unicode="k" horiz-adv-x="1151" 
d="M195 0v1367h190v-1367h-190zM358 571l457 391h261l-718 -590v199zM867 0l-446 610l186 39l492 -649h-232z" />
    <glyph glyph-name="l" unicode="l" horiz-adv-x="581" 
d="M195 0v1367h190v-1367h-190z" />
    <glyph glyph-name="m" unicode="m" horiz-adv-x="1882" 
d="M1528 0v564q0 125 -59.5 189.5t-159.5 64.5q-120 0 -185.5 -94t-65.5 -270h-83q0 139 27 240t77 166t120.5 96.5t158.5 31.5q116 0 196.5 -52.5t122.5 -147.5t42 -224v-564h-191zM195 0v962h165l21 -181q46 101 126.5 154t190.5 53q116 0 196.5 -52.5t122 -147.5
t41.5 -224v-564h-188v564q0 125 -60.5 189.5t-160.5 64.5q-80 0 -139.5 -43.5t-92 -127t-32.5 -203.5v-444h-190z" />
    <glyph glyph-name="n" unicode="n" horiz-adv-x="1224" 
d="M870 0v564q0 125 -60.5 189.5t-160.5 64.5q-80 0 -139.5 -43.5t-92 -127t-32.5 -203.5h-68q0 177 45.5 298t130.5 183.5t205 62.5q116 0 196.5 -52.5t122 -147.5t41.5 -224v-564h-188zM195 0v962h165l25 -208v-754h-190z" />
    <glyph glyph-name="o" unicode="o" horiz-adv-x="1110" 
d="M557 -26q-131 0 -234.5 57t-163.5 170t-60 279q0 170 60 282.5t163.5 169t234.5 56.5q129 0 231.5 -56.5t162.5 -169t60 -282.5q0 -166 -60 -279t-162.5 -170t-231.5 -57zM551 140q84 0 144 40t92.5 116.5t32.5 183.5q0 164 -66.5 254t-191.5 90q-84 0 -144.5 -40.5
t-93.5 -117t-33 -186.5q0 -162 67.5 -251t192.5 -89z" />
    <glyph glyph-name="p" unicode="p" horiz-adv-x="1191" 
d="M651 -26q-105 0 -181.5 47.5t-117.5 140t-41 229.5h74q0 -79 34 -133.5t89.5 -83t118.5 -28.5q66 0 128.5 37.5t102.5 112.5t40 186q0 106 -36 181t-96.5 115t-136.5 40q-64 0 -120 -30.5t-90 -88.5t-34 -143h-74q0 145 46.5 241t125.5 143.5t175 47.5q113 0 212 -60.5
t160.5 -173.5t61.5 -272t-62 -272.5t-162.5 -174.5t-216.5 -61zM195 -472v1434h157l33 -231v-1203h-190z" />
    <glyph glyph-name="q" unicode="q" horiz-adv-x="1191" 
d="M540 -26q-116 0 -216.5 61t-162.5 174.5t-62 272.5t61.5 272t160 173.5t210.5 60.5q97 0 176 -47.5t126 -143.5t47 -241h-76q0 85 -34 143t-89 88.5t-120 30.5q-75 0 -136 -40t-97.5 -115t-36.5 -181q0 -111 40.5 -186t103 -112.5t129.5 -37.5q62 0 116.5 28.5t89 83
t34.5 133.5h46q0 -124 -33.5 -217.5t-102 -146.5t-174.5 -53zM804 -472v1203l63 231h126v-1434h-189z" />
    <glyph glyph-name="r" unicode="r" horiz-adv-x="749" 
d="M195 0v965h190v-965h-190zM333 430q0 186 38.5 308t108 182t163.5 60q28 0 52.5 -3.5t48.5 -11.5l-7 -189q-27 8 -59 13.5t-57 5.5q-82 0 -134.5 -44t-77 -125.5t-24.5 -195.5h-52z" />
    <glyph glyph-name="s" unicode="s" horiz-adv-x="1053" 
d="M547 -26q-140 0 -236 39.5t-146.5 110t-52.5 165.5h179q4 -83 66 -123t170 -40q58 0 104 18t73.5 49.5t27.5 69.5q0 49 -36.5 77.5t-115.5 51.5l-197 66q-118 40 -180.5 106.5t-62.5 159.5q0 119 105.5 191.5t281.5 72.5q179 0 278 -76t103 -192h-183q-7 57 -56.5 87.5
t-141.5 30.5q-89 0 -138 -38t-49 -86q0 -86 148 -128l207 -73q118 -38 182 -97.5t64 -152.5q0 -74 -49 -140t-137.5 -107.5t-207.5 -41.5z" />
    <glyph glyph-name="t" unicode="t" horiz-adv-x="768" 
d="M504 -26q-81 0 -147.5 31t-105 93.5t-38.5 157.5v968h189v-962q0 -136 127 -136q38 0 75 8.5t85 25.5l27 -135q-53 -22 -104.5 -36.5t-107.5 -14.5zM66 833v129h621v-129h-621z" />
    <glyph glyph-name="u" unicode="u" horiz-adv-x="1229" 
d="M844 965h190v-965h-190v965zM171 965h190v-596q0 -109 53.5 -165t150.5 -56q82 0 144.5 43t98.5 122t36 187h60q0 -169 -46 -284.5t-129 -174.5t-194 -59q-106 0 -188.5 38.5t-129 120t-46.5 211.5v613z" />
    <glyph glyph-name="v" unicode="v" horiz-adv-x="1019" 
d="M31 962h218l271 -799h-20l271 799h218l-374 -962h-211z" />
    <glyph glyph-name="w" unicode="w" horiz-adv-x="1477" 
d="M31 962h198l229 -772h-21l221 723h165l220 -725h-20l229 774h190l-316 -962h-186l-218 680h29l-215 -680h-186z" />
    <glyph glyph-name="x" unicode="x" horiz-adv-x="1059" 
d="M44 0l368 480l-368 485h232l259 -341l247 341h232l-369 -485l368 -480h-232l-260 342l-245 -342h-232z" />
    <glyph glyph-name="y" unicode="y" horiz-adv-x="963" 
d="M42 962h213l290 -796h-39l233 796h194l-365 -1147q-50 -156 -128.5 -234t-196.5 -78q-66 0 -126.5 17t-123.5 51v171q54 -38 104.5 -55.5t103.5 -17.5q55 0 93 33t64.5 86.5t45.5 116.5l29 95z" />
    <glyph glyph-name="z" unicode="z" horiz-adv-x="966" 
d="M109 0v154l539 654h-539v154h751v-154l-527 -654h527v-154h-751z" />
    <glyph glyph-name="A" unicode="A" horiz-adv-x="1192" 
d="M49 0l436 1274h235l423 -1274h-200l-99 304h-492l-103 -304h-200zM400 450h397l-198 595z" />
    <glyph glyph-name="B" unicode="B" horiz-adv-x="1266" 
d="M195 0v1274h493q144 0 238 -45.5t141 -122t47 -167.5q0 -109 -61 -188t-176 -109q76 -13 134 -54t91.5 -102.5t33.5 -135.5q0 -63 -22 -125t-73 -113t-137 -81.5t-215 -30.5h-494zM385 166h300q130 0 188.5 53.5t58.5 140.5t-62 140t-185 53h-300v-387zM385 1110v-392
h296q112 0 175 53t63 148q0 88 -61.5 139.5t-174.5 51.5h-298z" />
    <glyph glyph-name="C" unicode="C" horiz-adv-x="1243" 
d="M647 -26q-168 0 -291 82.5t-190 233t-67 353.5q0 214 71 359.5t195.5 220t281.5 74.5q212 0 336.5 -104.5t165.5 -271.5l-203 -39q-35 111 -113.5 177.5t-185.5 66.5q-94 0 -172.5 -54t-125 -161.5t-46.5 -267.5q0 -148 38.5 -259.5t115.5 -173.5t190 -62q139 0 219 74.5
t80 193.5h205q0 -138 -62.5 -237t-175.5 -152t-266 -53z" />
    <glyph glyph-name="D" unicode="D" horiz-adv-x="1343" 
d="M195 1274h390q194 0 338 -78.5t223.5 -221t79.5 -337.5q0 -193 -79.5 -336t-223.5 -222t-338 -79h-390v1274zM385 1103v-935h200q136 0 233.5 61.5t150.5 167.5t53 240q0 136 -53 241t-150.5 165t-233.5 60h-200z" />
    <glyph glyph-name="E" unicode="E" horiz-adv-x="1145" 
d="M193 0v1274h800v-164h-610v-388h574v-164h-574v-392h610v-166h-800z" />
    <glyph glyph-name="F" unicode="F" horiz-adv-x="1067" 
d="M195 0v1274h787v-164h-597v-386h552v-162h-552v-562h-190z" />
    <glyph glyph-name="G" unicode="G" horiz-adv-x="1316" 
d="M651 -26q-154 0 -279.5 80.5t-199 227t-73.5 344.5q0 161 46.5 286t129 211t191.5 130t233 44q162 0 278 -68.5t191 -214.5l-188 -55q-61 83 -133 124.5t-156 41.5q-106 0 -194.5 -60t-141.5 -172t-53 -267q0 -141 44.5 -248.5t126 -168t192.5 -60.5q88 0 158 39.5
t110.5 118.5t40.5 195h50q0 -161 -38.5 -279.5t-120.5 -183.5t-214 -65zM1004 0l-30 292v216l-306 8v125h490v-641h-154z" />
    <glyph glyph-name="H" unicode="H" horiz-adv-x="1369" 
d="M195 1274h190v-549h598v549h190v-1274h-190v560h-598v-560h-190v1274z" />
    <glyph glyph-name="I" unicode="I" horiz-adv-x="581" 
d="M195 0v1274h190v-1274h-190z" />
    <glyph glyph-name="J" unicode="J" horiz-adv-x="841" 
d="M23 59v193q74 -46 147.5 -69t140.5 -23q96 0 138.5 56.5t42.5 164.5v893h190v-893q0 -145 -44.5 -235t-125 -131t-187.5 -41q-84 0 -159 24t-143 61z" />
    <glyph glyph-name="K" unicode="K" horiz-adv-x="1255" 
d="M929 1274h262l-825 -847v263zM600 741l626 -741h-247l-513 617zM195 1274h192v-1274h-192v1274z" />
    <glyph glyph-name="L" unicode="L" horiz-adv-x="958" 
d="M385 1274v-1108h549v-166h-739v1274h190z" />
    <glyph glyph-name="M" unicode="M" horiz-adv-x="1718" 
d="M195 1274h273l404 -837h-18l404 837h264v-1274h-192v1065h31l-436 -914h-125l-434 909h19v-1060h-190v1274z" />
    <glyph glyph-name="N" unicode="N" horiz-adv-x="1396" 
d="M192 1274h217l617 -988h-15v988h190v-1274h-202l-647 1032h30v-1032h-190v1274z" />
    <glyph glyph-name="O" unicode="O" horiz-adv-x="1323" 
d="M661 -26q-163 0 -290 74t-199.5 221.5t-72.5 366.5q0 224 72.5 370.5t199.5 218.5t290 72q164 0 291.5 -73t200 -220.5t72.5 -367.5q0 -222 -72.5 -369t-200 -220t-291.5 -73zM661 148q170 0 268.5 125t98.5 365q0 233 -98.5 361t-268.5 128q-167 0 -266 -128t-99 -363
q0 -238 99 -363t266 -125z" />
    <glyph glyph-name="P" unicode="P" horiz-adv-x="1130" 
d="M190 0v1274h427q213 0 328 -106.5t115 -292.5q0 -185 -115 -290.5t-328 -105.5h-235v-479h-192zM382 645h235q122 0 185 63t63 167q0 105 -63 170t-185 65h-235v-465z" />
    <glyph glyph-name="Q" unicode="Q" horiz-adv-x="1332" 
d="M661 -26q-163 0 -290 74t-199.5 221.5t-72.5 366.5q0 224 72.5 370.5t199.5 218.5t290 72q164 0 291.5 -73t200 -220.5t72.5 -367.5q0 -222 -72.5 -369t-200 -220t-291.5 -73zM1047 -345q-93 0 -169.5 48.5t-137.5 139.5l-132 193l160 63l116 -172q31 -44 67.5 -62
t72.5 -20q51 0 97 13.5t97 36.5v-203q-46 -19 -87.5 -28t-83.5 -9zM661 148q170 0 268.5 125t98.5 365q0 233 -98.5 361t-268.5 128q-167 0 -266 -128t-99 -363q0 -238 99 -363t266 -125z" />
    <glyph glyph-name="R" unicode="R" horiz-adv-x="1251" 
d="M195 0v1274h456q223 0 339.5 -105.5t116.5 -277.5q0 -170 -116.5 -275t-339.5 -105h-266v-511h-190zM898 0l-353 586h205l395 -586h-247zM385 641h249q137 0 207 65.5t70 169.5q0 107 -66 170.5t-194 63.5h-266v-469z" />
    <glyph glyph-name="S" unicode="S" horiz-adv-x="1237" 
d="M619 -26q-130 0 -239 46.5t-175.5 138t-69.5 230.5h186q0 -82 40.5 -135.5t108 -79t147.5 -25.5q83 0 145.5 24.5t97 67t34.5 96.5q0 73 -45 117.5t-137 75.5l-237 88q-153 57 -233 131.5t-80 207.5q0 151 118 245.5t332 94.5q203 0 315.5 -94t128.5 -256h-187
q-14 82 -76.5 130t-180.5 48q-115 0 -178.5 -49.5t-63.5 -124.5q0 -62 40.5 -98.5t126.5 -67.5l270 -99q139 -49 217 -132t78 -211q0 -108 -56 -191t-163.5 -130.5t-263.5 -47.5z" />
    <glyph glyph-name="T" unicode="T" horiz-adv-x="1027" 
d="M12 1110v164h1004v-164h-450l43 43v-1153h-190v1153l43 -43h-450z" />
    <glyph glyph-name="U" unicode="U" horiz-adv-x="1338" 
d="M171 1274h190v-805q0 -169 85.5 -244.5t222.5 -75.5q136 0 222 75.5t86 244.5v805h189v-805q0 -160 -60.5 -270.5t-171.5 -167.5t-265 -57q-153 0 -265 57t-172.5 167.5t-60.5 270.5v805z" />
    <glyph glyph-name="V" unicode="V" horiz-adv-x="1159" 
d="M568 205l355 1069h201l-447 -1274h-199l-442 1274h202l352 -1069h-22z" />
    <glyph glyph-name="W" unicode="W" horiz-adv-x="1832" 
d="M25 1274h213l321 -1106h-52l324 994h129l326 -983h-48l355 1095h214l-445 -1274h-200l-275 816h27l-281 -816h-199z" />
    <glyph glyph-name="X" unicode="X" horiz-adv-x="1319" 
d="M86 0l448 633l-452 641h232l347 -494l312 494h230l-437 -638l465 -636h-236l-354 485l-326 -485h-229z" />
    <glyph glyph-name="Y" unicode="Y" horiz-adv-x="1129" 
d="M16 1274h227l339 -588h-42l347 588h225l-457 -750v-524h-191v524z" />
    <glyph glyph-name="Z" unicode="Z" horiz-adv-x="1215" 
d="M146 0v167l763 999v-70l-763 4v174h948v-166l-730 -958l-10 28l740 -4v-174h-948z" />
    <glyph glyph-name="quotesingle" unicode="'" horiz-adv-x="308" 
d="M58 1354h193l-26 -455h-142z" />
    <glyph glyph-name="apostrophe" unicode="&#x2bc;" horiz-adv-x="411" 
d="M217 884l-155 75q68 35 117 78.5t66 99.5q-55 8 -92.5 41.5t-37.5 87.5t40.5 92.5t105.5 38.5q79 0 127 -57t48 -139q0 -59 -25.5 -119t-74 -112t-119.5 -86z" />
    <glyph glyph-name="quoteleft" unicode="&#x2018;" horiz-adv-x="475" 
d="M232 804q-72 0 -116 52.5t-44 130.5q0 54 25 107.5t71.5 100.5t109.5 79l134 -74q-61 -29 -105 -68.5t-60 -92.5q51 -6 84.5 -35t33.5 -77q0 -51 -37 -87t-96 -36z" />
    <glyph glyph-name="quoteright" unicode="&#x2019;" horiz-adv-x="475" 
d="M176 804l-134 74q61 30 105.5 69.5t58.5 90.5q-51 6 -85 36t-34 79q0 51 38 86t99 35q71 0 113.5 -53t42.5 -129q0 -54 -25 -107.5t-70.5 -100t-108.5 -80.5z" />
    <glyph glyph-name="parenleft" unicode="(" horiz-adv-x="748" 
d="M551 1477l137 -98q-114 -117 -190.5 -240t-115 -251.5t-38.5 -264.5q0 -202 86.5 -389.5t257.5 -363.5l-137 -101q-203 184 -304 401.5t-101 452.5q0 237 101 454.5t304 399.5z" />
    <glyph glyph-name="parenright" unicode=")" horiz-adv-x="748" 
d="M198 -231l-139 101q173 176 259.5 363.5t86.5 389.5q0 136 -38.5 264.5t-115.5 251.5t-192 240l139 98q202 -182 303.5 -399.5t101.5 -454.5q0 -157 -45 -306.5t-135 -287.5t-225 -260z" />
    <glyph glyph-name="plus" unicode="+" horiz-adv-x="1068" 
d="M440 982h189v-409h404v-164h-404v-409h-189v409h-404v164h404v409z" />
    <glyph glyph-name="minus" unicode="&#x2212;" horiz-adv-x="1068" 
d="M36 577h997v-165h-997v165z" />
    <glyph glyph-name="equal" unicode="=" horiz-adv-x="991" 
d="M158 380h674v-164h-674v164zM158 779h674v-165h-674v165z" />
    <glyph glyph-name="zero" unicode="0" horiz-adv-x="1220" 
d="M611 -26q-152 0 -268 73.5t-180 220.5t-64 369q0 223 64 369.5t180 218.5t268 72t267 -72t179.5 -218.5t64.5 -369.5q0 -222 -64.5 -369t-179.5 -220.5t-267 -73.5zM611 149q152 0 233.5 126.5t81.5 361.5q0 234 -81.5 361t-233.5 127q-153 0 -234 -127t-81 -361
q0 -235 81 -361.5t234 -126.5z" />
    <glyph glyph-name="one" unicode="1" horiz-adv-x="683" 
d="M339 1279h148v-1279h-190v1054q-50 -29 -102 -45t-104 -17v184q65 8 126.5 32.5t121.5 70.5z" />
    <glyph glyph-name="two" unicode="2" horiz-adv-x="1181" 
d="M125 0v201q0 109 34 183.5t99.5 124.5t157.5 86l256 100q92 37 137 93.5t45 141.5q0 87 -61.5 144t-172.5 57q-110 0 -181 -50t-81 -147h-211q5 119 66 200t165 122t239 41q126 0 226 -48t158.5 -132.5t58.5 -196.5q0 -98 -36 -172t-106 -128t-170 -94l-260 -103
q-88 -35 -130.5 -80t-42.5 -117v-51h735v-175h-925z" />
    <glyph glyph-name="three" unicode="3" horiz-adv-x="1207" 
d="M608 -26q-99 0 -190 27t-163 80t-114 131.5t-42 181.5h198q3 -78 44 -133t110 -83.5t157 -28.5q131 0 205 63t74 158q0 61 -30.5 107t-94.5 71.5t-168 25.5h-155v150h118q131 0 207.5 54.5t76.5 148.5q0 84 -63 141t-183 57q-95 0 -169 -38.5t-98 -137.5h-197
q15 124 78 200.5t161 112t219 35.5q132 0 235 -44.5t162 -123.5t59 -182q0 -99 -55.5 -170.5t-161.5 -109.5q118 -36 192 -114.5t74 -198.5q0 -111 -59.5 -197t-169 -134.5t-257.5 -48.5z" />
    <glyph glyph-name="four" unicode="4" horiz-adv-x="1148" 
d="M709 1290h181v-830h221v-162h-221v-298h-188v298h-653v145zM710 1000l-436 -557h436v557z" />
    <glyph glyph-name="five" unicode="5" horiz-adv-x="1144" 
d="M576 -26q-127 0 -229.5 45.5t-162 133.5t-61.5 213h192q0 -107 75.5 -162t185.5 -55q125 0 199 77.5t74 190.5q0 224 -293 224h-362l57 633h731v-174h-578l38 60l-40 -415l-20 19q48 11 111 16t110 5q203 0 322.5 -93.5t119.5 -274.5q0 -125 -57.5 -225t-162.5 -159
t-249 -59z" />
    <glyph glyph-name="six" unicode="6" horiz-adv-x="1174" 
d="M620 -26q-156 0 -273.5 84t-182.5 229t-65 327q0 217 66 369.5t187 233t286 80.5q119 0 210 -44.5t145 -124.5t62 -187h-205q-13 84 -63 134t-144 50q-164 0 -259 -143.5t-95 -389.5q0 -34 2 -77t8 -80q12 129 65.5 202.5t131.5 104.5t165 31q117 0 208.5 -51t144 -141.5
t52.5 -207.5q0 -119 -56.5 -209t-156.5 -140t-233 -50zM620 149q106 0 177 62.5t71 167.5q0 108 -71 170t-177 62q-69 0 -125 -30t-88.5 -82t-32.5 -120q0 -105 70.5 -167.5t175.5 -62.5z" />
    <glyph glyph-name="seven" unicode="7" horiz-adv-x="963" 
d="M106 0l598 1092h-656v182h880v-179l-568 -1095h-254z" />
    <glyph glyph-name="eight" unicode="8" horiz-adv-x="1256" 
d="M628 -26q-156 0 -274 48.5t-183.5 132t-65.5 188.5q0 94 49.5 161t135 102.5t194.5 35.5q34 0 65 -5t69 -14v-51q-94 0 -165 -29.5t-111.5 -77.5t-40.5 -105q0 -67 44 -114t118 -72t165 -25q159 0 242.5 47.5t83.5 121.5q0 60 -43 100.5t-118 68.5l-356 137
q-64 24 -131 68t-112.5 109.5t-45.5 154.5q0 102 57 179t164.5 119.5t258.5 42.5q136 0 244.5 -46t170.5 -127t62 -185q0 -77 -40 -142t-117 -105t-188 -40q-32 0 -59.5 4.5t-63.5 15.5v58q75 0 136.5 24.5t98 69.5t36.5 104t-35.5 103t-98.5 69t-146 25q-80 0 -143.5 -23.5
t-101 -63.5t-37.5 -89q0 -60 40.5 -96.5t114.5 -64.5l361 -139q140 -54 215 -125.5t75 -196.5q0 -102 -61.5 -182t-179 -125.5t-283.5 -45.5z" />
    <glyph glyph-name="nine" unicode="9" horiz-adv-x="1186" 
d="M579 -26q-128 0 -229.5 52t-159.5 143t-58 208h197q4 -105 70 -166.5t174 -61.5q115 0 185.5 66t103.5 185.5t33 280.5q0 35 -2 66.5t-7 68.5q-16 -109 -66.5 -178.5t-126.5 -103t-169 -33.5q-115 0 -206.5 51t-144 141.5t-52.5 207.5q0 120 56 209t156.5 138t231.5 49
q111 0 206 -45t166 -129t110.5 -201t39.5 -262q0 -210 -55.5 -363.5t-168 -238t-284.5 -84.5zM566 663q69 0 125 30t89.5 82t33.5 117q0 107 -73 169.5t-176 62.5q-105 0 -176 -62.5t-71 -169.5t71 -168t177 -61z" />
    <glyph glyph-name="dollar" unicode="$" horiz-adv-x="1311" 
d="M668 -26q-107 0 -203.5 25.5t-170.5 77t-116.5 129.5t-42.5 183h186q0 -84 43.5 -137.5t124 -78t187.5 -24.5q98 0 161 26.5t94.5 71t31.5 95.5q0 67 -44 114.5t-124 74.5l-134 48v167l221 -75q143 -48 219 -126.5t76 -207.5q0 -90 -55.5 -173.5t-168 -136.5t-285.5 -53z
M585 -191v1637h142v-1637h-142zM627 577l-121 41q-166 55 -254 130.5t-88 208.5q0 151 124.5 245.5t362.5 94.5q218 0 334.5 -95.5t143.5 -254.5h-190q-15 82 -88.5 134t-202.5 52q-137 0 -207.5 -51t-70.5 -131q0 -62 37 -99.5t118 -64.5l102 -39v-171z" />
    <glyph glyph-name="question" unicode="?" horiz-adv-x="1013" 
d="M352 349v86q0 87 19.5 143t62.5 96t117 78q66 35 103.5 64t53.5 62.5t16 80.5q0 71 -58.5 118.5t-159.5 47.5q-115 0 -176.5 -48t-74.5 -130h-200q12 157 124.5 253.5t320.5 96.5q134 0 230.5 -45.5t149 -123t52.5 -173.5q0 -103 -52.5 -174t-166.5 -130
q-65 -35 -103 -65t-53.5 -68t-15.5 -99v-70h-189zM451 -26q-60 0 -98 38.5t-38 91.5q0 56 37.5 95t97.5 39t100.5 -38.5t40.5 -94.5q0 -54 -40.5 -92.5t-99.5 -38.5z" />
    <glyph glyph-name="sterling" unicode="&#xa3;" horiz-adv-x="1161" 
d="M101 113v55q76 0 108.5 44t32.5 134v528q0 136 45.5 230.5t131.5 143.5t208 49q150 0 243.5 -80.5t117.5 -240.5h-187q-12 75 -59.5 112t-114.5 37q-90 0 -142.5 -60.5t-52.5 -190.5v-517q0 -127 -70.5 -185.5t-260.5 -58.5zM42 0v168h643q97 0 141.5 40.5t56.5 123.5
h205q-7 -154 -97 -243t-306 -89h-643zM67 546v130h719v-130h-719z" />
    <glyph glyph-name="grave" unicode="`" horiz-adv-x="679" 
d="M487 1122l-389 330l130 105l352 -360z" />
    <glyph glyph-name="acute" unicode="&#xb4;" horiz-adv-x="679" 
d="M192 1122l-93 75l352 360l130 -105z" />
    <glyph glyph-name="agrave" unicode="&#xe0;" horiz-adv-x="1130" 
d="M799 0l-25 221v401q0 118 -49.5 171.5t-154.5 53.5q-60 0 -106.5 -17.5t-73 -52.5t-26.5 -88h-210q0 106 52 172t145.5 96.5t218.5 30.5q117 0 205.5 -38.5t138.5 -120.5t50 -212v-617h-165zM476 -26q-121 0 -201 43t-119.5 111.5t-39.5 146.5q0 95 48.5 156.5
t134.5 91.5t198 30q77 0 150.5 -14t143.5 -37v-115q-57 21 -128 33.5t-132 12.5q-91 0 -152 -36.5t-61 -121.5q0 -64 47.5 -109t152.5 -45q76 0 134 34.5t90 86.5t32 104h46q0 -99 -40.5 -184t-117 -136.5t-186.5 -51.5zM714 1122l-389 330l130 105l352 -360z" />
    <glyph glyph-name="egrave" unicode="&#xe8;" horiz-adv-x="1041" 
d="M540 -26q-124 0 -224 64t-158.5 178t-58.5 265q0 158 58 271.5t158 174.5t225 61q112 0 192 -45t129.5 -122t67.5 -174t6 -200h-684v110h554l-46 -30q3 53 -5.5 107.5t-32.5 100t-67.5 73t-110.5 27.5q-83 0 -140 -42t-86 -112.5t-29 -154.5v-77q0 -93 27.5 -165
t84 -113.5t140.5 -41.5q83 0 137.5 39t67.5 117h194q-15 -94 -69 -164t-138.5 -108.5t-191.5 -38.5zM670 1122l-389 330l130 105l352 -360z" />
    <glyph glyph-name="ograve" unicode="&#xf2;" horiz-adv-x="1110" 
d="M557 -26q-131 0 -234.5 57t-163.5 170t-60 279q0 170 60 282.5t163.5 169t234.5 56.5q129 0 231.5 -56.5t162.5 -169t60 -282.5q0 -166 -60 -279t-162.5 -170t-231.5 -57zM551 140q84 0 144 40t92.5 116.5t32.5 183.5q0 164 -66.5 254t-191.5 90q-84 0 -144.5 -40.5
t-93.5 -117t-33 -186.5q0 -162 67.5 -251t192.5 -89zM704 1122l-389 330l130 105l352 -360z" />
    <glyph glyph-name="Agrave" unicode="&#xc0;" horiz-adv-x="1192" 
d="M49 0l436 1274h235l423 -1274h-200l-99 304h-492l-103 -304h-200zM400 450h397l-198 595zM754 1433l-389 330l130 105l352 -360z" />
    <glyph glyph-name="Egrave" unicode="&#xc8;" horiz-adv-x="1145" 
d="M193 0v1274h800v-164h-610v-388h574v-164h-574v-392h610v-166h-800zM721 1433l-389 330l130 105l352 -360z" />
    <glyph glyph-name="ugrave" unicode="&#xf9;" horiz-adv-x="1229" 
d="M844 965h190v-965h-190v965zM171 965h190v-596q0 -109 53.5 -165t150.5 -56q82 0 144.5 43t98.5 122t36 187h60q0 -169 -46 -284.5t-129 -174.5t-194 -59q-106 0 -188.5 38.5t-129 120t-46.5 211.5v613zM781 1122l-389 330l130 105l352 -360z" />
    <glyph glyph-name="aacute" unicode="&#xe1;" horiz-adv-x="1130" 
d="M799 0l-25 221v401q0 118 -49.5 171.5t-154.5 53.5q-60 0 -106.5 -17.5t-73 -52.5t-26.5 -88h-210q0 106 52 172t145.5 96.5t218.5 30.5q117 0 205.5 -38.5t138.5 -120.5t50 -212v-617h-165zM476 -26q-121 0 -201 43t-119.5 111.5t-39.5 146.5q0 95 48.5 156.5
t134.5 91.5t198 30q77 0 150.5 -14t143.5 -37v-115q-57 21 -128 33.5t-132 12.5q-91 0 -152 -36.5t-61 -121.5q0 -64 47.5 -109t152.5 -45q76 0 134 34.5t90 86.5t32 104h46q0 -99 -40.5 -184t-117 -136.5t-186.5 -51.5zM504 1117l-93 75l352 360l130 -105z" />
    <glyph glyph-name="eacute" unicode="&#xe9;" horiz-adv-x="1041" 
d="M540 -26q-124 0 -224 64t-158.5 178t-58.5 265q0 158 58 271.5t158 174.5t225 61q112 0 192 -45t129.5 -122t67.5 -174t6 -200h-684v110h554l-46 -30q3 53 -5.5 107.5t-32.5 100t-67.5 73t-110.5 27.5q-83 0 -140 -42t-86 -112.5t-29 -154.5v-77q0 -93 27.5 -165
t84 -113.5t140.5 -41.5q83 0 137.5 39t67.5 117h194q-15 -94 -69 -164t-138.5 -108.5t-191.5 -38.5zM460 1117l-93 75l352 360l130 -105z" />
    <glyph glyph-name="oacute" unicode="&#xf3;" horiz-adv-x="1110" 
d="M557 -26q-131 0 -234.5 57t-163.5 170t-60 279q0 170 60 282.5t163.5 169t234.5 56.5q129 0 231.5 -56.5t162.5 -169t60 -282.5q0 -166 -60 -279t-162.5 -170t-231.5 -57zM551 140q84 0 144 40t92.5 116.5t32.5 183.5q0 164 -66.5 254t-191.5 90q-84 0 -144.5 -40.5
t-93.5 -117t-33 -186.5q0 -162 67.5 -251t192.5 -89zM494 1117l-93 75l352 360l130 -105z" />
    <glyph glyph-name="uacute" unicode="&#xfa;" horiz-adv-x="1229" 
d="M844 965h190v-965h-190v965zM171 965h190v-596q0 -109 53.5 -165t150.5 -56q82 0 144.5 43t98.5 122t36 187h60q0 -169 -46 -284.5t-129 -174.5t-194 -59q-106 0 -188.5 38.5t-129 120t-46.5 211.5v613zM571 1117l-93 75l352 360l130 -105z" />
    <glyph glyph-name="Aacute" unicode="&#xc1;" horiz-adv-x="1192" 
d="M49 0l436 1274h235l423 -1274h-200l-99 304h-492l-103 -304h-200zM400 450h397l-198 595zM544 1428l-93 75l352 360l130 -105z" />
    <glyph glyph-name="Eacute" unicode="&#xc9;" horiz-adv-x="1145" 
d="M193 0v1274h800v-164h-610v-388h574v-164h-574v-392h610v-166h-800zM511 1428l-93 75l352 360l130 -105z" />
    <glyph glyph-name="Igrave" unicode="&#xcc;" horiz-adv-x="581" 
d="M195 0v1274h190v-1274h-190zM439 1433l-389 330l130 105l352 -360z" />
    <glyph glyph-name="Iacute" unicode="&#xcd;" horiz-adv-x="581" 
d="M195 0v1274h190v-1274h-190zM229 1428l-93 75l352 360l130 -105z" />
    <glyph glyph-name="Ograve" unicode="&#xd2;" horiz-adv-x="1323" 
d="M661 -26q-163 0 -290 74t-199.5 221.5t-72.5 366.5q0 224 72.5 370.5t199.5 218.5t290 72q164 0 291.5 -73t200 -220.5t72.5 -367.5q0 -222 -72.5 -369t-200 -220t-291.5 -73zM661 148q170 0 268.5 125t98.5 365q0 233 -98.5 361t-268.5 128q-167 0 -266 -128t-99 -363
q0 -238 99 -363t266 -125zM816 1433l-389 330l130 105l352 -360z" />
    <glyph glyph-name="Oacute" unicode="&#xd3;" horiz-adv-x="1323" 
d="M661 -26q-163 0 -290 74t-199.5 221.5t-72.5 366.5q0 224 72.5 370.5t199.5 218.5t290 72q164 0 291.5 -73t200 -220.5t72.5 -367.5q0 -222 -72.5 -369t-200 -220t-291.5 -73zM661 148q170 0 268.5 125t98.5 365q0 233 -98.5 361t-268.5 128q-167 0 -266 -128t-99 -363
q0 -238 99 -363t266 -125zM606 1428l-93 75l352 360l130 -105z" />
    <glyph glyph-name="Ugrave" unicode="&#xd9;" horiz-adv-x="1338" 
d="M171 1274h190v-805q0 -169 85.5 -244.5t222.5 -75.5q136 0 222 75.5t86 244.5v805h189v-805q0 -160 -60.5 -270.5t-171.5 -167.5t-265 -57q-153 0 -265 57t-172.5 167.5t-60.5 270.5v805zM818 1433l-389 330l130 105l352 -360z" />
    <glyph glyph-name="Uacute" unicode="&#xda;" horiz-adv-x="1338" 
d="M171 1274h190v-805q0 -169 85.5 -244.5t222.5 -75.5q136 0 222 75.5t86 244.5v805h189v-805q0 -160 -60.5 -270.5t-171.5 -167.5t-265 -57q-153 0 -265 57t-172.5 167.5t-60.5 270.5v805zM608 1428l-93 75l352 360l130 -105z" />
    <glyph glyph-name="circumflex" unicode="&#x2c6;" horiz-adv-x="865" 
d="M212 1100l-113 89l333 308l335 -308l-113 -89l-255 245h67z" />
    <glyph glyph-name="acircumflex" unicode="&#xe2;" horiz-adv-x="1130" 
d="M799 0l-25 221v401q0 118 -49.5 171.5t-154.5 53.5q-60 0 -106.5 -17.5t-73 -52.5t-26.5 -88h-210q0 106 52 172t145.5 96.5t218.5 30.5q117 0 205.5 -38.5t138.5 -120.5t50 -212v-617h-165zM476 -26q-121 0 -201 43t-119.5 111.5t-39.5 146.5q0 95 48.5 156.5
t134.5 91.5t198 30q77 0 150.5 -14t143.5 -37v-115q-57 21 -128 33.5t-132 12.5q-91 0 -152 -36.5t-61 -121.5q0 -64 47.5 -109t152.5 -45q76 0 134 34.5t90 86.5t32 104h46q0 -99 -40.5 -184t-117 -136.5t-186.5 -51.5zM344 1090l-113 89l333 308l335 -308l-113 -89
l-255 245h67z" />
    <glyph glyph-name="ecircumflex" unicode="&#xea;" horiz-adv-x="1041" 
d="M540 -26q-124 0 -224 64t-158.5 178t-58.5 265q0 158 58 271.5t158 174.5t225 61q112 0 192 -45t129.5 -122t67.5 -174t6 -200h-684v110h554l-46 -30q3 53 -5.5 107.5t-32.5 100t-67.5 73t-110.5 27.5q-83 0 -140 -42t-86 -112.5t-29 -154.5v-77q0 -93 27.5 -165
t84 -113.5t140.5 -41.5q83 0 137.5 39t67.5 117h194q-15 -94 -69 -164t-138.5 -108.5t-191.5 -38.5zM300 1090l-113 89l333 308l335 -308l-113 -89l-255 245h67z" />
    <glyph glyph-name="ocircumflex" unicode="&#xf4;" horiz-adv-x="1110" 
d="M557 -26q-131 0 -234.5 57t-163.5 170t-60 279q0 170 60 282.5t163.5 169t234.5 56.5q129 0 231.5 -56.5t162.5 -169t60 -282.5q0 -166 -60 -279t-162.5 -170t-231.5 -57zM551 140q84 0 144 40t92.5 116.5t32.5 183.5q0 164 -66.5 254t-191.5 90q-84 0 -144.5 -40.5
t-93.5 -117t-33 -186.5q0 -162 67.5 -251t192.5 -89zM334 1090l-113 89l333 308l335 -308l-113 -89l-255 245h67z" />
    <glyph glyph-name="ucircumflex" unicode="&#xfb;" horiz-adv-x="1229" 
d="M844 965h190v-965h-190v965zM171 965h190v-596q0 -109 53.5 -165t150.5 -56q82 0 144.5 43t98.5 122t36 187h60q0 -169 -46 -284.5t-129 -174.5t-194 -59q-106 0 -188.5 38.5t-129 120t-46.5 211.5v613zM410 1090l-113 89l333 308l335 -308l-113 -89l-255 245h67z" />
    <glyph glyph-name="Acircumflex" unicode="&#xc2;" horiz-adv-x="1192" 
d="M49 0l436 1274h235l423 -1274h-200l-99 304h-492l-103 -304h-200zM400 450h397l-198 595zM384 1401l-113 89l333 308l335 -308l-113 -89l-255 245h67z" />
    <glyph glyph-name="Ecircumflex" unicode="&#xca;" horiz-adv-x="1145" 
d="M193 0v1274h800v-164h-610v-388h574v-164h-574v-392h610v-166h-800zM351 1401l-113 89l333 308l335 -308l-113 -89l-255 245h67z" />
    <glyph glyph-name="Icircumflex" unicode="&#xce;" horiz-adv-x="581" 
d="M195 0v1274h190v-1274h-190zM69 1401l-113 89l333 308l335 -308l-113 -89l-255 245h67z" />
    <glyph glyph-name="Ocircumflex" unicode="&#xd4;" horiz-adv-x="1323" 
d="M661 -26q-163 0 -290 74t-199.5 221.5t-72.5 366.5q0 224 72.5 370.5t199.5 218.5t290 72q164 0 291.5 -73t200 -220.5t72.5 -367.5q0 -222 -72.5 -369t-200 -220t-291.5 -73zM661 148q170 0 268.5 125t98.5 365q0 233 -98.5 361t-268.5 128q-167 0 -266 -128t-99 -363
q0 -238 99 -363t266 -125zM446 1401l-113 89l333 308l335 -308l-113 -89l-255 245h67z" />
    <glyph glyph-name="Ucircumflex" unicode="&#xdb;" horiz-adv-x="1338" 
d="M171 1274h190v-805q0 -169 85.5 -244.5t222.5 -75.5q136 0 222 75.5t86 244.5v805h189v-805q0 -160 -60.5 -270.5t-171.5 -167.5t-265 -57q-153 0 -265 57t-172.5 167.5t-60.5 270.5v805zM447 1401l-113 89l333 308l335 -308l-113 -89l-255 245h67z" />
    <glyph glyph-name="tilde" unicode="&#x2dc;" horiz-adv-x="853" 
d="M176 1123l-77 47q24 109 74.5 168t118.5 59q28 0 57.5 -10t88.5 -41q57 -29 81.5 -39.5t48.5 -10.5q29 0 57 24.5t49 76.5l81 -54q-15 -67 -43.5 -116.5t-65 -76.5t-73.5 -27q-33 0 -67 13t-96 44q-52 28 -74.5 36.5t-43.5 8.5q-32 0 -60.5 -21.5t-55.5 -80.5z" />
    <glyph glyph-name="ampersand" unicode="&#x26;" horiz-adv-x="1872" 
d="M1485 -26q-85 0 -159 37t-158 114l-646 576q-69 60 -109.5 134.5t-40.5 155.5q0 86 48.5 154.5t140.5 109t220 40.5q122 0 211 -40t137 -108t48 -152q0 -82 -40 -150.5t-123.5 -125.5t-214.5 -106l-102 97q103 44 161.5 85.5t83.5 85.5t25 96q0 66 -51 110.5t-135 44.5
q-99 0 -150 -50t-51 -117q0 -52 25 -97.5t79 -94.5l636 -566q39 -33 71 -49t78 -16q49 0 85.5 36.5t42.5 121.5h175q-5 -152 -77 -239t-210 -87zM691 -26q-107 0 -200.5 29.5t-163 81.5t-108.5 121.5t-39 150.5q0 154 123.5 232t350.5 97l55 -107q-166 -16 -243 -68.5
t-77 -143.5q0 -61 35 -111t103.5 -80t166.5 -30q117 0 216 47.5t181 132.5t146.5 198t112.5 243l131 -72q-51 -156 -126.5 -287.5t-174.5 -228.5t-221 -151t-268 -54z" />
    <glyph glyph-name="at" unicode="@" horiz-adv-x="1952" 
d="M1109 -392q-221 0 -400.5 62.5t-308 175t-197.5 266t-69 334.5q0 184 69 339t193.5 270t292 178.5t364.5 63.5q184 0 332 -54.5t253 -152t161 -227t56 -279.5q0 -127 -38 -228t-102.5 -172t-146 -108.5t-167.5 -37.5t-142 37t-69 101l-8 31q-34 -69 -93.5 -119
t-156.5 -50q-89 0 -164 45t-121 126.5t-46 191.5q0 98 37 184t101.5 151t147.5 101.5t174 36.5q126 0 199 -75.5t73 -226.5v-286q0 -54 18.5 -78.5t55.5 -24.5q53 0 112.5 46t101.5 135t42 218q0 159 -72 282t-206 193.5t-323 70.5q-165 0 -300 -54t-232.5 -150.5t-150 -225
t-52.5 -275.5q0 -195 93 -344t268 -232.5t421 -83.5v-155zM961 191q75 0 125 45.5t91 127.5v208q0 73 -26.5 114t-90.5 41q-63 0 -129 -40t-110 -113t-44 -172q0 -104 52 -157.5t132 -53.5z" />
    <glyph glyph-name="dieresis" unicode="&#xa8;" horiz-adv-x="793" 
d="M573 1141q-50 0 -84.5 32t-34.5 81q0 48 34.5 81.5t84.5 33.5q52 0 87 -33.5t35 -81.5q0 -49 -35 -81t-87 -32zM218 1141q-52 0 -85.5 32t-33.5 79q0 49 33.5 82t85.5 33q53 0 87 -33t34 -82q0 -47 -34 -79t-87 -32z" />
    <glyph glyph-name="adieresis" unicode="&#xe4;" horiz-adv-x="1130" 
d="M799 0l-25 221v401q0 118 -49.5 171.5t-154.5 53.5q-60 0 -106.5 -17.5t-73 -52.5t-26.5 -88h-210q0 106 52 172t145.5 96.5t218.5 30.5q117 0 205.5 -38.5t138.5 -120.5t50 -212v-617h-165zM476 -26q-121 0 -201 43t-119.5 111.5t-39.5 146.5q0 95 48.5 156.5
t134.5 91.5t198 30q77 0 150.5 -14t143.5 -37v-115q-57 21 -128 33.5t-132 12.5q-91 0 -152 -36.5t-61 -121.5q0 -64 47.5 -109t152.5 -45q76 0 134 34.5t90 86.5t32 104h46q0 -99 -40.5 -184t-117 -136.5t-186.5 -51.5zM741 1141q-50 0 -84.5 32t-34.5 81q0 48 34.5 81.5
t84.5 33.5q52 0 87 -33.5t35 -81.5q0 -49 -35 -81t-87 -32zM386 1141q-52 0 -85.5 32t-33.5 79q0 49 33.5 82t85.5 33q53 0 87 -33t34 -82q0 -47 -34 -79t-87 -32z" />
    <glyph glyph-name="edieresis" unicode="&#xeb;" horiz-adv-x="1041" 
d="M540 -26q-124 0 -224 64t-158.5 178t-58.5 265q0 158 58 271.5t158 174.5t225 61q112 0 192 -45t129.5 -122t67.5 -174t6 -200h-684v110h554l-46 -30q3 53 -5.5 107.5t-32.5 100t-67.5 73t-110.5 27.5q-83 0 -140 -42t-86 -112.5t-29 -154.5v-77q0 -93 27.5 -165
t84 -113.5t140.5 -41.5q83 0 137.5 39t67.5 117h194q-15 -94 -69 -164t-138.5 -108.5t-191.5 -38.5zM697 1141q-50 0 -84.5 32t-34.5 81q0 48 34.5 81.5t84.5 33.5q52 0 87 -33.5t35 -81.5q0 -49 -35 -81t-87 -32zM342 1141q-52 0 -85.5 32t-33.5 79q0 49 33.5 82t85.5 33
q53 0 87 -33t34 -82q0 -47 -34 -79t-87 -32z" />
    <glyph glyph-name="odieresis" unicode="&#xf6;" horiz-adv-x="1110" 
d="M557 -26q-131 0 -234.5 57t-163.5 170t-60 279q0 170 60 282.5t163.5 169t234.5 56.5q129 0 231.5 -56.5t162.5 -169t60 -282.5q0 -166 -60 -279t-162.5 -170t-231.5 -57zM551 140q84 0 144 40t92.5 116.5t32.5 183.5q0 164 -66.5 254t-191.5 90q-84 0 -144.5 -40.5
t-93.5 -117t-33 -186.5q0 -162 67.5 -251t192.5 -89zM731 1141q-50 0 -84.5 32t-34.5 81q0 48 34.5 81.5t84.5 33.5q52 0 87 -33.5t35 -81.5q0 -49 -35 -81t-87 -32zM376 1141q-52 0 -85.5 32t-33.5 79q0 49 33.5 82t85.5 33q53 0 87 -33t34 -82q0 -47 -34 -79t-87 -32z" />
    <glyph glyph-name="udieresis" unicode="&#xfc;" horiz-adv-x="1229" 
d="M844 965h190v-965h-190v965zM171 965h190v-596q0 -109 53.5 -165t150.5 -56q82 0 144.5 43t98.5 122t36 187h60q0 -169 -46 -284.5t-129 -174.5t-194 -59q-106 0 -188.5 38.5t-129 120t-46.5 211.5v613zM808 1141q-50 0 -84.5 32t-34.5 81q0 48 34.5 81.5t84.5 33.5
q52 0 87 -33.5t35 -81.5q0 -49 -35 -81t-87 -32zM453 1141q-52 0 -85.5 32t-33.5 79q0 49 33.5 82t85.5 33q53 0 87 -33t34 -82q0 -47 -34 -79t-87 -32z" />
    <glyph glyph-name="Adieresis" unicode="&#xc4;" horiz-adv-x="1192" 
d="M49 0l436 1274h235l423 -1274h-200l-99 304h-492l-103 -304h-200zM400 450h397l-198 595zM781 1452q-50 0 -84.5 32t-34.5 81q0 48 34.5 81.5t84.5 33.5q52 0 87 -33.5t35 -81.5q0 -49 -35 -81t-87 -32zM426 1452q-52 0 -85.5 32t-33.5 79q0 49 33.5 82t85.5 33
q53 0 87 -33t34 -82q0 -47 -34 -79t-87 -32z" />
    <glyph glyph-name="Edieresis" unicode="&#xcb;" horiz-adv-x="1145" 
d="M193 0v1274h800v-164h-610v-388h574v-164h-574v-392h610v-166h-800zM749 1452q-50 0 -84.5 32t-34.5 81q0 48 34.5 81.5t84.5 33.5q52 0 87 -33.5t35 -81.5q0 -49 -35 -81t-87 -32zM394 1452q-52 0 -85.5 32t-33.5 79q0 49 33.5 82t85.5 33q53 0 87 -33t34 -82
q0 -47 -34 -79t-87 -32z" />
    <glyph glyph-name="Idieresis" unicode="&#xcf;" horiz-adv-x="581" 
d="M195 0v1274h190v-1274h-190zM467 1452q-50 0 -84.5 32t-34.5 81q0 48 34.5 81.5t84.5 33.5q52 0 87 -33.5t35 -81.5q0 -49 -35 -81t-87 -32zM112 1452q-52 0 -85.5 32t-33.5 79q0 49 33.5 82t85.5 33q53 0 87 -33t34 -82q0 -47 -34 -79t-87 -32z" />
    <glyph glyph-name="Odieresis" unicode="&#xd6;" horiz-adv-x="1323" 
d="M661 -26q-163 0 -290 74t-199.5 221.5t-72.5 366.5q0 224 72.5 370.5t199.5 218.5t290 72q164 0 291.5 -73t200 -220.5t72.5 -367.5q0 -222 -72.5 -369t-200 -220t-291.5 -73zM661 148q170 0 268.5 125t98.5 365q0 233 -98.5 361t-268.5 128q-167 0 -266 -128t-99 -363
q0 -238 99 -363t266 -125zM843 1452q-50 0 -84.5 32t-34.5 81q0 48 34.5 81.5t84.5 33.5q52 0 87 -33.5t35 -81.5q0 -49 -35 -81t-87 -32zM488 1452q-52 0 -85.5 32t-33.5 79q0 49 33.5 82t85.5 33q53 0 87 -33t34 -82q0 -47 -34 -79t-87 -32z" />
    <glyph glyph-name="Udieresis" unicode="&#xdc;" horiz-adv-x="1338" 
d="M171 1274h190v-805q0 -169 85.5 -244.5t222.5 -75.5q136 0 222 75.5t86 244.5v805h189v-805q0 -160 -60.5 -270.5t-171.5 -167.5t-265 -57q-153 0 -265 57t-172.5 167.5t-60.5 270.5v805zM845 1452q-50 0 -84.5 32t-34.5 81q0 48 34.5 81.5t84.5 33.5q52 0 87 -33.5
t35 -81.5q0 -49 -35 -81t-87 -32zM490 1452q-52 0 -85.5 32t-33.5 79q0 49 33.5 82t85.5 33q53 0 87 -33t34 -82q0 -47 -34 -79t-87 -32z" />
    <glyph glyph-name="igrave" unicode="&#xec;" horiz-adv-x="622" 
d="M210 0v965h190v-965h-190zM452 1122l-389 330l130 105l352 -360z" />
    <glyph glyph-name="iacute" unicode="&#xed;" horiz-adv-x="622" 
d="M210 0v965h190v-965h-190zM242 1117l-93 75l352 360l130 -105z" />
    <glyph glyph-name="icircumflex" unicode="&#xee;" horiz-adv-x="622" 
d="M210 0v965h190v-965h-190zM82 1090l-113 89l333 308l335 -308l-113 -89l-255 245h67z" />
    <glyph glyph-name="idieresis" unicode="&#xef;" horiz-adv-x="622" 
d="M210 0v965h190v-965h-190zM480 1141q-50 0 -84.5 32t-34.5 81q0 48 34.5 81.5t84.5 33.5q52 0 87 -33.5t35 -81.5q0 -49 -35 -81t-87 -32zM125 1141q-52 0 -85.5 32t-33.5 79q0 49 33.5 82t85.5 33q53 0 87 -33t34 -82q0 -47 -34 -79t-87 -32z" />
    <glyph glyph-name="Rupee" unicode="&#x20b9;" horiz-adv-x="1181" 
d="M706 0l-530 493v114h148l648 -607h-266zM240 493v114h65q178 0 261 80t83 199t-83 197.5t-261 78.5h-65v81h65q184 0 305.5 -45.5t182 -127t60.5 -192.5q0 -104 -54.5 -191.5t-174.5 -140.5t-319 -53h-65zM176 824v113h871v-113h-871zM176 1162v112h871v-112h-871z" />
    <glyph glyph-name="less" unicode="&#x3c;" horiz-adv-x="948" 
d="M731 1181l126 -145l-636 -451v79l636 -447l-126 -147l-646 470v169z" />
    <glyph glyph-name="greater" unicode="&#x3e;" horiz-adv-x="948" 
d="M218 70l-126 147l633 447v-79l-633 451l126 145l645 -472v-169z" />
    <glyph glyph-name="quotedbl" unicode="&#x22;" horiz-adv-x="675" 
d="M60 1367h193l-26 -455h-142zM423 1367h193l-26 -455h-142z" />
    <glyph glyph-name="numbersign" unicode="#" horiz-adv-x="1295" 
d="M274 64l29 271h-194l12 126h194l37 341h-195l13 126h195l28 268h179l-28 -268h292l29 268h177l-27 -268h196l-14 -126h-197l-34 -341h197l-14 -126h-197l-29 -271h-178l29 271h-293l-29 -271h-178zM494 461h292l37 341h-293z" />
    <glyph glyph-name="asterisk" unicode="*" horiz-adv-x="822" 
d="M159 871l177 170l-229 79l53 120l206 -103l-20 248h136l-20 -248l206 106l53 -123l-226 -77l177 -172l-103 -88l-153 206l-157 -206z" />
    <glyph glyph-name="slash" unicode="/" horiz-adv-x="897" 
d="M111 -151l507 1625h194l-510 -1625h-191z" />
    <glyph glyph-name="percent" unicode="%" horiz-adv-x="1484" 
d="M218 0l860 1274h195l-860 -1274h-195zM1108 -21q-69 0 -128.5 33t-96.5 98.5t-37 163.5t37 163t96.5 98t128.5 33q71 0 131 -33t97 -98t37 -163t-37 -163.5t-97 -98.5t-131 -33zM1108 106q52 0 84.5 39t32.5 129q0 88 -32.5 128.5t-84.5 40.5t-84 -40.5t-32 -128.5
q0 -90 32 -129t84 -39zM384 711q-69 0 -128.5 33t-96.5 98.5t-37 162.5t37 162t96.5 97.5t128.5 32.5q71 0 131.5 -32.5t97 -97.5t36.5 -162t-36.5 -162.5t-97 -98.5t-131.5 -33zM384 836q51 0 83.5 40t32.5 129q0 88 -32.5 128.5t-83.5 40.5q-52 0 -84 -40.5t-32 -128.5
q0 -89 32 -129t84 -40z" />
    <glyph glyph-name="backslash" unicode="\" horiz-adv-x="897" 
d="M87 1474l507 -1625h194l-510 1625h-191z" />
    <glyph glyph-name="bar" unicode="|" horiz-adv-x="581" 
d="M195 -244v1761h190v-1761h-190z" />
    <glyph glyph-name="bracketleft" unicode="[" horiz-adv-x="663" 
d="M195 -236v1747h437v-170h-247v-1407h247v-170h-437z" />
    <glyph glyph-name="bracketright" unicode="]" horiz-adv-x="611" 
d="M417 -236v1747h-437v-170h247v-1407h-247v-170h437z" />
    <glyph glyph-name="asciicircum" unicode="^" horiz-adv-x="961" 
d="M41 467l370 720h151l369 -720h-210l-271 571h72l-269 -571h-212z" />
    <glyph glyph-name="underscore" unicode="_" horiz-adv-x="1486" 
d="M110 0v166h1268v-166h-1268z" />
    <glyph glyph-name="braceleft" unicode="{" horiz-adv-x="732" 
d="M720 -291q-166 0 -268 62t-148.5 172t-46.5 249v182q0 85 -15.5 119t-54.5 34h-40v189h40q39 0 54.5 33t15.5 119v184q0 141 46.5 249.5t148.5 170.5t268 62v-169q-147 0 -211 -79.5t-64 -235.5v-189q0 -94 -32.5 -151.5t-83.5 -83.5v-8q51 -26 83.5 -83.5t32.5 -152.5
v-188q0 -157 64 -236t211 -79v-170z" />
    <glyph glyph-name="braceright" unicode="}" horiz-adv-x="732" 
d="M12 -291q166 0 268 62t148.5 172t46.5 249v182q0 85 15.5 119t54.5 34h40v189h-40q-39 0 -54.5 33t-15.5 119v184q0 141 -46.5 249.5t-148.5 170.5t-268 62v-169q147 0 211 -79.5t64 -235.5v-189q0 -94 32.5 -151.5t83.5 -83.5v-8q-51 -26 -83.5 -83.5t-32.5 -152.5v-188
q0 -157 -64 -236t-211 -79v-170z" />
    <glyph glyph-name="asciitilde" unicode="~" horiz-adv-x="1076" 
d="M212 430l-103 55q35 118 91.5 182.5t140.5 64.5q39 0 85.5 -13.5t121.5 -42.5q79 -31 117.5 -42t66.5 -11q38 0 72.5 28t58.5 84l102 -65q-38 -117 -101 -172.5t-145 -55.5q-31 0 -78.5 12.5t-122.5 43.5q-77 28 -113.5 39.5t-66.5 11.5q-36 0 -67.5 -26.5t-58.5 -92.5z
" />
    <glyph glyph-name="atilde" unicode="&#xe3;" horiz-adv-x="1130" 
d="M799 0l-25 221v401q0 118 -49.5 171.5t-154.5 53.5q-60 0 -106.5 -17.5t-73 -52.5t-26.5 -88h-210q0 106 52 172t145.5 96.5t218.5 30.5q117 0 205.5 -38.5t138.5 -120.5t50 -212v-617h-165zM476 -26q-121 0 -201 43t-119.5 111.5t-39.5 146.5q0 95 48.5 156.5
t134.5 91.5t198 30q77 0 150.5 -14t143.5 -37v-115q-57 21 -128 33.5t-132 12.5q-91 0 -152 -36.5t-61 -121.5q0 -64 47.5 -109t152.5 -45q76 0 134 34.5t90 86.5t32 104h46q0 -99 -40.5 -184t-117 -136.5t-186.5 -51.5zM314 1117l-77 47q24 109 74.5 168t118.5 59
q28 0 57.5 -10t88.5 -41q57 -29 81.5 -39.5t48.5 -10.5q29 0 57 24.5t49 76.5l81 -54q-15 -67 -43.5 -116.5t-65 -76.5t-73.5 -27q-33 0 -67 13t-96 44q-52 28 -74.5 36.5t-43.5 8.5q-32 0 -60.5 -21.5t-55.5 -80.5z" />
    <glyph glyph-name="ntilde" unicode="&#xf1;" horiz-adv-x="1224" 
d="M870 0v564q0 125 -60.5 189.5t-160.5 64.5q-80 0 -139.5 -43.5t-92 -127t-32.5 -203.5h-68q0 177 45.5 298t130.5 183.5t205 62.5q116 0 196.5 -52.5t122 -147.5t41.5 -224v-564h-188zM195 0v962h165l25 -208v-754h-190zM382 1127l-77 47q24 109 74.5 168t118.5 59
q28 0 57.5 -10t88.5 -41q57 -29 81.5 -39.5t48.5 -10.5q29 0 57 24.5t49 76.5l81 -54q-15 -67 -43.5 -116.5t-65 -76.5t-73.5 -27q-33 0 -67 13t-96 44q-52 28 -74.5 36.5t-43.5 8.5q-32 0 -60.5 -21.5t-55.5 -80.5z" />
    <glyph glyph-name="otilde" unicode="&#xf5;" horiz-adv-x="1110" 
d="M557 -26q-131 0 -234.5 57t-163.5 170t-60 279q0 170 60 282.5t163.5 169t234.5 56.5q129 0 231.5 -56.5t162.5 -169t60 -282.5q0 -166 -60 -279t-162.5 -170t-231.5 -57zM551 140q84 0 144 40t92.5 116.5t32.5 183.5q0 164 -66.5 254t-191.5 90q-84 0 -144.5 -40.5
t-93.5 -117t-33 -186.5q0 -162 67.5 -251t192.5 -89zM304 1117l-77 47q24 109 74.5 168t118.5 59q28 0 57.5 -10t88.5 -41q57 -29 81.5 -39.5t48.5 -10.5q29 0 57 24.5t49 76.5l81 -54q-15 -67 -43.5 -116.5t-65 -76.5t-73.5 -27q-33 0 -67 13t-96 44q-52 28 -74.5 36.5
t-43.5 8.5q-32 0 -60.5 -21.5t-55.5 -80.5z" />
    <glyph glyph-name="Atilde" unicode="&#xc3;" horiz-adv-x="1192" 
d="M49 0l436 1274h235l423 -1274h-200l-99 304h-492l-103 -304h-200zM400 450h397l-198 595zM354 1428l-77 47q24 109 74.5 168t118.5 59q28 0 57.5 -10t88.5 -41q57 -29 81.5 -39.5t48.5 -10.5q29 0 57 24.5t49 76.5l81 -54q-15 -67 -43.5 -116.5t-65 -76.5t-73.5 -27
q-33 0 -67 13t-96 44q-52 28 -74.5 36.5t-43.5 8.5q-32 0 -60.5 -21.5t-55.5 -80.5z" />
    <glyph glyph-name="Ntilde" unicode="&#xd1;" horiz-adv-x="1396" 
d="M192 1274h217l617 -988h-15v988h190v-1274h-202l-647 1032h30v-1032h-190v1274zM447 1428l-77 47q24 109 74.5 168t118.5 59q28 0 57.5 -10t88.5 -41q57 -29 81.5 -39.5t48.5 -10.5q29 0 57 24.5t49 76.5l81 -54q-15 -67 -43.5 -116.5t-65 -76.5t-73.5 -27q-33 0 -67 13
t-96 44q-52 28 -74.5 36.5t-43.5 8.5q-32 0 -60.5 -21.5t-55.5 -80.5z" />
    <glyph glyph-name="Otilde" unicode="&#xd5;" horiz-adv-x="1323" 
d="M661 -26q-163 0 -290 74t-199.5 221.5t-72.5 366.5q0 224 72.5 370.5t199.5 218.5t290 72q164 0 291.5 -73t200 -220.5t72.5 -367.5q0 -222 -72.5 -369t-200 -220t-291.5 -73zM661 148q170 0 268.5 125t98.5 365q0 233 -98.5 361t-268.5 128q-167 0 -266 -128t-99 -363
q0 -238 99 -363t266 -125zM416 1428l-77 47q24 109 74.5 168t118.5 59q28 0 57.5 -10t88.5 -41q57 -29 81.5 -39.5t48.5 -10.5q29 0 57 24.5t49 76.5l81 -54q-15 -67 -43.5 -116.5t-65 -76.5t-73.5 -27q-33 0 -67 13t-96 44q-52 28 -74.5 36.5t-43.5 8.5q-32 0 -60.5 -21.5
t-55.5 -80.5z" />
    <glyph glyph-name="Abreve" unicode="&#x102;" horiz-adv-x="1192" 
d="M49 0l436 1274h235l423 -1274h-200l-99 304h-492l-103 -304h-200zM400 450h397l-198 595zM605 1467q-136 0 -215 76.5t-79 202.5h153q0 -74 38 -113t103 -39t102.5 39t37.5 113h154q0 -126 -79 -202.5t-215 -76.5z" />
    <glyph glyph-name="Amacron" unicode="&#x100;" horiz-adv-x="1192" 
d="M49 0l436 1274h235l423 -1274h-200l-99 304h-492l-103 -304h-200zM400 450h397l-198 595zM278 1636h653v-157h-653v157z" />
    <glyph glyph-name="Aogonek" unicode="&#x104;" horiz-adv-x="1192" 
d="M49 0l436 1274h235l423 -1274h-200l-99 304h-492l-103 -304h-200zM400 450h397l-198 595zM1258 -329q-63 -35 -131 -53.5t-132 -18.5q-102 0 -166 46t-64 130q0 77 58.5 148t173.5 116l135 -39q-109 -41 -172 -88t-63 -103q0 -42 35 -60.5t81 -18.5q45 0 92 15t108 47z
" />
    <glyph glyph-name="Aring" unicode="&#xc5;" horiz-adv-x="1192" 
d="M49 0l436 1274h235l423 -1274h-200l-99 304h-492l-103 -304h-200zM400 450h397l-198 595zM606 1383q-59 0 -108.5 29t-78.5 78.5t-29 108.5q0 60 29 109t78.5 78t108.5 29q60 0 109 -29t78 -78t29 -109q0 -59 -29 -108.5t-78 -78.5t-109 -29zM606 1514q36 0 60.5 25
t24.5 60q0 36 -24.5 60.5t-60.5 24.5q-35 0 -60 -24.5t-25 -60.5q0 -35 25 -60t60 -25z" />
    <glyph glyph-name="AE" unicode="&#xc6;" horiz-adv-x="1717" 
d="M1565 1274v-164h-602l33 31v-495l-33 70h565v-164h-565l33 52v-521l-33 83h602v-166h-759v368l34 -64h-500l92 58l-143 -362h-197l505 1274h968zM840 450l-34 -55l-1 743l35 -28h-161l77 69l-307 -773l-49 44h440z" />
    <glyph glyph-name="Cacute" unicode="&#x106;" horiz-adv-x="1243" 
d="M647 -26q-168 0 -291 82.5t-190 233t-67 353.5q0 214 71 359.5t195.5 220t281.5 74.5q212 0 336.5 -104.5t165.5 -271.5l-203 -39q-35 111 -113.5 177.5t-185.5 66.5q-94 0 -172.5 -54t-125 -161.5t-46.5 -267.5q0 -148 38.5 -259.5t115.5 -173.5t190 -62q139 0 219 74.5
t80 193.5h205q0 -138 -62.5 -237t-175.5 -152t-266 -53zM580 1428l-93 75l352 360l130 -105z" />
    <glyph glyph-name="Ccaron" unicode="&#x10c;" horiz-adv-x="1243" 
d="M647 -26q-168 0 -291 82.5t-190 233t-67 353.5q0 214 71 359.5t195.5 220t281.5 74.5q212 0 336.5 -104.5t165.5 -271.5l-203 -39q-35 111 -113.5 177.5t-185.5 66.5q-94 0 -172.5 -54t-125 -161.5t-46.5 -267.5q0 -148 38.5 -259.5t115.5 -173.5t190 -62q139 0 219 74.5
t80 193.5h205q0 -138 -62.5 -237t-175.5 -152t-266 -53zM646 1422l-333 308l113 89l254 -264h-67l255 264l113 -89z" />
    <glyph glyph-name="Ccedilla" unicode="&#xc7;" horiz-adv-x="1243" 
d="M647 -26q-168 0 -291 82.5t-190 233t-67 353.5q0 214 71 359.5t195.5 220t281.5 74.5q212 0 336.5 -104.5t165.5 -271.5l-203 -39q-35 111 -113.5 177.5t-185.5 66.5q-94 0 -172.5 -54t-125 -161.5t-46.5 -267.5q0 -148 38.5 -259.5t115.5 -173.5t190 -62q139 0 219 74.5
t80 193.5h205q0 -138 -62.5 -237t-175.5 -152t-266 -53zM459 -361l29 73q72 -36 128 -41t90 14t37 53q2 32 -24 56t-70 41.5t-96 29.5l74 201l96 -11l-69 -185l-34 58q93 -17 153.5 -47t89 -68.5t25.5 -84.5q-4 -57 -49 -92t-111.5 -46.5t-138.5 1t-130 48.5z" />
    <glyph glyph-name="Cdotaccent" unicode="&#x10a;" horiz-adv-x="1243" 
d="M647 -26q-168 0 -291 82.5t-190 233t-67 353.5q0 214 71 359.5t195.5 220t281.5 74.5q212 0 336.5 -104.5t165.5 -271.5l-203 -39q-35 111 -113.5 177.5t-185.5 66.5q-94 0 -172.5 -54t-125 -161.5t-46.5 -267.5q0 -148 38.5 -259.5t115.5 -173.5t190 -62q139 0 219 74.5
t80 193.5h205q0 -138 -62.5 -237t-175.5 -152t-266 -53zM519 1589q0 55 38.5 94.5t97.5 39.5q60 0 100.5 -39.5t40.5 -94.5q0 -56 -40.5 -93.5t-100.5 -37.5q-59 0 -97.5 37.5t-38.5 93.5z" />
    <glyph glyph-name="Eth" unicode="&#xd0;" horiz-adv-x="1343" 
d="M44 719h628v-164h-628v164zM195 1274h390q194 0 338 -78.5t223.5 -221t79.5 -337.5q0 -193 -79.5 -336t-223.5 -222t-338 -79h-390v1274zM385 1103v-935h200q136 0 233.5 61.5t150.5 167.5t53 240q0 136 -53 241t-150.5 165t-233.5 60h-200z" />
    <glyph glyph-name="Dcaron" unicode="&#x10e;" horiz-adv-x="1343" 
d="M195 1274h390q194 0 338 -78.5t223.5 -221t79.5 -337.5q0 -193 -79.5 -336t-223.5 -222t-338 -79h-390v1274zM385 1103v-935h200q136 0 233.5 61.5t150.5 167.5t53 240q0 136 -53 241t-150.5 165t-233.5 60h-200zM677 1422l-333 308l113 89l254 -264h-67l255 264l113 -89
z" />
    <glyph glyph-name="Dcroat" unicode="&#x110;" horiz-adv-x="1343" 
d="M44 719h628v-164h-628v164zM195 1274h390q194 0 338 -78.5t223.5 -221t79.5 -337.5q0 -193 -79.5 -336t-223.5 -222t-338 -79h-390v1274zM385 1103v-935h200q136 0 233.5 61.5t150.5 167.5t53 240q0 136 -53 241t-150.5 165t-233.5 60h-200z" />
    <glyph glyph-name="Ecaron" unicode="&#x11a;" horiz-adv-x="1145" 
d="M193 0v1274h800v-164h-610v-388h574v-164h-574v-392h610v-166h-800zM577 1422l-333 308l113 89l254 -264h-67l255 264l113 -89z" />
    <glyph glyph-name="Edotaccent" unicode="&#x116;" horiz-adv-x="1145" 
d="M193 0v1274h800v-164h-610v-388h574v-164h-574v-392h610v-166h-800zM451 1589q0 55 38.5 94.5t97.5 39.5q60 0 100.5 -39.5t40.5 -94.5q0 -56 -40.5 -93.5t-100.5 -37.5q-59 0 -97.5 37.5t-38.5 93.5z" />
    <glyph glyph-name="Emacron" unicode="&#x112;" horiz-adv-x="1145" 
d="M193 0v1274h800v-164h-610v-388h574v-164h-574v-392h610v-166h-800zM246 1636h653v-157h-653v157z" />
    <glyph glyph-name="Eogonek" unicode="&#x118;" horiz-adv-x="1145" 
d="M193 0v1274h800v-164h-610v-388h574v-164h-574v-392h610v-166h-800zM875 -329q-63 -35 -131 -53.5t-132 -18.5q-102 0 -166 46t-64 130q0 77 58.5 148t173.5 116l135 -39q-109 -41 -172 -88t-63 -103q0 -42 35 -60.5t81 -18.5q45 0 92 15t108 47z" />
    <glyph glyph-name="Gbreve" unicode="&#x11e;" horiz-adv-x="1316" 
d="M651 -26q-154 0 -279.5 80.5t-199 227t-73.5 344.5q0 161 46.5 286t129 211t191.5 130t233 44q162 0 278 -68.5t191 -214.5l-188 -55q-61 83 -133 124.5t-156 41.5q-106 0 -194.5 -60t-141.5 -172t-53 -267q0 -141 44.5 -248.5t126 -168t192.5 -60.5q88 0 158 39.5
t110.5 118.5t40.5 195h50q0 -161 -38.5 -279.5t-120.5 -183.5t-214 -65zM1004 0l-30 292v216l-306 8v125h490v-641h-154zM658 1467q-136 0 -215 76.5t-79 202.5h153q0 -74 38 -113t103 -39t102.5 39t37.5 113h154q0 -126 -79 -202.5t-215 -76.5z" />
    <glyph glyph-name="uni0122" unicode="&#x122;" horiz-adv-x="1316" 
d="M651 -26q-154 0 -279.5 80.5t-199 227t-73.5 344.5q0 161 46.5 286t129 211t191.5 130t233 44q162 0 278 -68.5t191 -214.5l-188 -55q-61 83 -133 124.5t-156 41.5q-106 0 -194.5 -60t-141.5 -172t-53 -267q0 -141 44.5 -248.5t126 -168t192.5 -60.5q88 0 158 39.5
t110.5 118.5t40.5 195h50q0 -161 -38.5 -279.5t-120.5 -183.5t-214 -65zM1004 0l-30 292v216l-306 8v125h490v-641h-154zM611 -443l-97 50q52 25 88 55.5t49 74.5q-37 4 -61.5 26.5t-21.5 59.5q2 36 31 61.5t70 25.5q51 0 82 -36.5t27 -93.5q-2 -60 -45 -122t-122 -101z" />
    <glyph glyph-name="Gdotaccent" unicode="&#x120;" horiz-adv-x="1316" 
d="M651 -26q-154 0 -279.5 80.5t-199 227t-73.5 344.5q0 161 46.5 286t129 211t191.5 130t233 44q162 0 278 -68.5t191 -214.5l-188 -55q-61 83 -133 124.5t-156 41.5q-106 0 -194.5 -60t-141.5 -172t-53 -267q0 -141 44.5 -248.5t126 -168t192.5 -60.5q88 0 158 39.5
t110.5 118.5t40.5 195h50q0 -161 -38.5 -279.5t-120.5 -183.5t-214 -65zM1004 0l-30 292v216l-306 8v125h490v-641h-154zM537 1589q0 55 38.5 94.5t97.5 39.5q60 0 100.5 -39.5t40.5 -94.5q0 -56 -40.5 -93.5t-100.5 -37.5q-59 0 -97.5 37.5t-38.5 93.5z" />
    <glyph glyph-name="Hbar" unicode="&#x126;" horiz-adv-x="1369" 
d="M195 1274h190v-602h598v602h190v-1274h-190v506h-598v-506h-190v1274zM298 834v138h775v-138h-775z" />
    <glyph glyph-name="Idotaccent" unicode="&#x130;" horiz-adv-x="581" 
d="M195 0v1274h190v-1274h-190zM169 1589q0 55 38.5 94.5t97.5 39.5q60 0 100.5 -39.5t40.5 -94.5q0 -56 -40.5 -93.5t-100.5 -37.5q-59 0 -97.5 37.5t-38.5 93.5z" />
    <glyph glyph-name="Imacron" unicode="&#x12a;" horiz-adv-x="581" 
d="M195 0v1274h190v-1274h-190zM110.216 1636h430.962v-157h-430.962v157z" />
    <glyph glyph-name="Iogonek" unicode="&#x12e;" horiz-adv-x="581" 
d="M195 0v1274h190v-1274h-190zM511 -329q-63 -35 -131 -53.5t-132 -18.5q-102 0 -166 46t-64 130q0 77 58.5 148t173.5 116l135 -39q-109 -41 -172 -88t-63 -103q0 -42 35 -60.5t81 -18.5q45 0 92 15t108 47z" />
    <glyph glyph-name="uni0136" unicode="&#x136;" horiz-adv-x="1255" 
d="M929 1274h262l-825 -847v263zM600 741l626 -741h-247l-513 617zM195 1274h192v-1274h-192v1274zM580 -443l-97 50q52 25 88 55.5t49 74.5q-37 4 -61.5 26.5t-21.5 59.5q2 36 31 61.5t70 25.5q51 0 82 -36.5t27 -93.5q-2 -60 -45 -122t-122 -101z" />
    <glyph glyph-name="Lacute" unicode="&#x139;" horiz-adv-x="958" 
d="M385 1274v-1108h549v-166h-739v1274h190zM437 1428l-93 75l352 360l130 -105z" />
    <glyph glyph-name="Lcaron" unicode="&#x13d;" horiz-adv-x="958" 
d="M385 1274v-1108h549v-166h-739v1274h190zM503 1422l-333 308l113 89l254 -264h-67l255 264l113 -89z" />
    <glyph glyph-name="uni013B" unicode="&#x13b;" horiz-adv-x="958" 
d="M385 1274v-1108h549v-166h-739v1274h190zM432 -443l-97 50q52 25 88 55.5t49 74.5q-37 4 -61.5 26.5t-21.5 59.5q2 36 31 61.5t70 25.5q51 0 82 -36.5t27 -93.5q-2 -60 -45 -122t-122 -101z" />
    <glyph glyph-name="Lslash" unicode="&#x141;" horiz-adv-x="958" 
d="M72 630l-29 162l512 87l29 -162zM385 1274v-1108h549v-166h-739v1274h190z" />
    <glyph glyph-name="Nacute" unicode="&#x143;" horiz-adv-x="1396" 
d="M192 1274h217l617 -988h-15v988h190v-1274h-202l-647 1032h30v-1032h-190v1274zM637 1428l-93 75l352 360l130 -105z" />
    <glyph glyph-name="Ncaron" unicode="&#x147;" horiz-adv-x="1396" 
d="M192 1274h217l617 -988h-15v988h190v-1274h-202l-647 1032h30v-1032h-190v1274zM703 1422l-333 308l113 89l254 -264h-67l255 264l113 -89z" />
    <glyph glyph-name="uni0145" unicode="&#x145;" horiz-adv-x="1396" 
d="M192 1274h217l617 -988h-15v988h190v-1274h-202l-647 1032h30v-1032h-190v1274zM651 -443l-97 50q52 25 88 55.5t49 74.5q-37 4 -61.5 26.5t-21.5 59.5q2 36 31 61.5t70 25.5q51 0 82 -36.5t27 -93.5q-2 -60 -45 -122t-122 -101z" />
    <glyph glyph-name="Eng" unicode="&#x14a;" horiz-adv-x="1396" 
d="M888 -497q-74 0 -139.5 18t-134.5 52l7 164q55 -29 111.5 -48.5t114.5 -19.5q79 0 125.5 49t46.5 157l-6 616h188v-619q0 -198 -85 -283.5t-228 -85.5zM192 1274h217l617 -988h-15v988h190v-1274l-61 -218l-788 1250h30v-1032h-190v1274z" />
    <glyph glyph-name="Ohungarumlaut" unicode="&#x150;" horiz-adv-x="1323" 
d="M661 -26q-163 0 -290 74t-199.5 221.5t-72.5 366.5q0 224 72.5 370.5t199.5 218.5t290 72q164 0 291.5 -73t200 -220.5t72.5 -367.5q0 -222 -72.5 -369t-200 -220t-291.5 -73zM661 148q170 0 268.5 125t98.5 365q0 233 -98.5 361t-268.5 128q-167 0 -266 -128t-99 -363
q0 -238 99 -363t266 -125zM826 1410l-99 17l30 331l141 -29zM576 1422l-101 12l14 335l142 -22z" />
    <glyph glyph-name="Omacron" unicode="&#x14c;" horiz-adv-x="1323" 
d="M661 -26q-163 0 -290 74t-199.5 221.5t-72.5 366.5q0 224 72.5 370.5t199.5 218.5t290 72q164 0 291.5 -73t200 -220.5t72.5 -367.5q0 -222 -72.5 -369t-200 -220t-291.5 -73zM661 148q170 0 268.5 125t98.5 365q0 233 -98.5 361t-268.5 128q-167 0 -266 -128t-99 -363
q0 -238 99 -363t266 -125zM340 1636h653v-157h-653v157z" />
    <glyph glyph-name="Oslash" unicode="&#xd8;" horiz-adv-x="1323" 
d="M78 0l983 1275h164l-986 -1275h-161zM660 -26q-163 0 -290 74t-199.5 221.5t-72.5 366.5q0 224 72.5 370.5t199.5 218.5t290 72q164 0 291 -73t200 -220.5t73 -367.5q0 -222 -73 -369t-200 -220t-291 -73zM660 148q170 0 268.5 125t98.5 365q0 233 -98.5 361t-268.5 128
q-167 0 -266.5 -128t-99.5 -363q0 -238 99.5 -363t266.5 -125z" />
    <glyph glyph-name="OE" unicode="&#x152;" horiz-adv-x="1770" 
d="M637 -26q-155 0 -277 74.5t-191.5 222.5t-69.5 369q0 222 69.5 367.5t193 217.5t283.5 72q90 0 161.5 -22.5t116.5 -65.5l-24 -156q-52 35 -115.5 54.5t-131.5 19.5q-173 0 -264.5 -129t-91.5 -364q0 -234 91 -360t266 -126q73 0 133 21t117 56l19 -157
q-42 -37 -113.5 -65.5t-171.5 -28.5zM891 0v1274h727v-164h-579l38 43v-473l-38 42h543v-164h-543l38 43v-478l-38 43h579v-166h-727z" />
    <glyph glyph-name="Thorn" unicode="&#xde;" horiz-adv-x="1130" 
d="M190 0v1274h192v-253l-43 43h278q213 0 328 -106.5t115 -292.5q0 -185 -115 -290.5t-328 -105.5h-278l43 42v-311h-192zM382 392l-43 43h278q122 0 185 63t63 167q0 105 -63 170t-185 65h-278l43 43v-551z" />
    <glyph glyph-name="Racute" unicode="&#x154;" horiz-adv-x="1251" 
d="M195 0v1274h456q223 0 339.5 -105.5t116.5 -277.5q0 -170 -116.5 -275t-339.5 -105h-266v-511h-190zM898 0l-353 586h205l395 -586h-247zM385 641h249q137 0 207 65.5t70 169.5q0 107 -66 170.5t-194 63.5h-266v-469zM565 1428l-93 75l352 360l130 -105z" />
    <glyph glyph-name="Rcaron" unicode="&#x158;" horiz-adv-x="1251" 
d="M195 0v1274h456q223 0 339.5 -105.5t116.5 -277.5q0 -170 -116.5 -275t-339.5 -105h-266v-511h-190zM898 0l-353 586h205l395 -586h-247zM385 641h249q137 0 207 65.5t70 169.5q0 107 -66 170.5t-194 63.5h-266v-469zM631 1422l-333 308l113 89l254 -264h-67l255 264
l113 -89z" />
    <glyph glyph-name="uni0156" unicode="&#x156;" horiz-adv-x="1251" 
d="M195 0v1274h456q223 0 339.5 -105.5t116.5 -277.5q0 -170 -116.5 -275t-339.5 -105h-266v-511h-190zM898 0l-353 586h205l395 -586h-247zM385 641h249q137 0 207 65.5t70 169.5q0 107 -66 170.5t-194 63.5h-266v-469zM578 -443l-97 50q52 25 88 55.5t49 74.5
q-37 4 -61.5 26.5t-21.5 59.5q2 36 31 61.5t70 25.5q51 0 82 -36.5t27 -93.5q-2 -60 -45 -122t-122 -101z" />
    <glyph glyph-name="Sacute" unicode="&#x15a;" horiz-adv-x="1237" 
d="M619 -26q-130 0 -239 46.5t-175.5 138t-69.5 230.5h186q0 -82 40.5 -135.5t108 -79t147.5 -25.5q83 0 145.5 24.5t97 67t34.5 96.5q0 73 -45 117.5t-137 75.5l-237 88q-153 57 -233 131.5t-80 207.5q0 151 118 245.5t332 94.5q203 0 315.5 -94t128.5 -256h-187
q-14 82 -76.5 130t-180.5 48q-115 0 -178.5 -49.5t-63.5 -124.5q0 -62 40.5 -98.5t126.5 -67.5l270 -99q139 -49 217 -132t78 -211q0 -108 -56 -191t-163.5 -130.5t-263.5 -47.5zM557 1428l-93 75l352 360l130 -105z" />
    <glyph glyph-name="Scaron" unicode="&#x160;" horiz-adv-x="1237" 
d="M619 -26q-130 0 -239 46.5t-175.5 138t-69.5 230.5h186q0 -82 40.5 -135.5t108 -79t147.5 -25.5q83 0 145.5 24.5t97 67t34.5 96.5q0 73 -45 117.5t-137 75.5l-237 88q-153 57 -233 131.5t-80 207.5q0 151 118 245.5t332 94.5q203 0 315.5 -94t128.5 -256h-187
q-14 82 -76.5 130t-180.5 48q-115 0 -178.5 -49.5t-63.5 -124.5q0 -62 40.5 -98.5t126.5 -67.5l270 -99q139 -49 217 -132t78 -211q0 -108 -56 -191t-163.5 -130.5t-263.5 -47.5zM623 1422l-333 308l113 89l254 -264h-67l255 264l113 -89z" />
    <glyph glyph-name="Scedilla" unicode="&#x15e;" horiz-adv-x="1237" 
d="M619 -26q-130 0 -239 46.5t-175.5 138t-69.5 230.5h186q0 -82 40.5 -135.5t108 -79t147.5 -25.5q83 0 145.5 24.5t97 67t34.5 96.5q0 73 -45 117.5t-137 75.5l-237 88q-153 57 -233 131.5t-80 207.5q0 151 118 245.5t332 94.5q203 0 315.5 -94t128.5 -256h-187
q-14 82 -76.5 130t-180.5 48q-115 0 -178.5 -49.5t-63.5 -124.5q0 -62 40.5 -98.5t126.5 -67.5l270 -99q139 -49 217 -132t78 -211q0 -108 -56 -191t-163.5 -130.5t-263.5 -47.5zM426 -361l29 73q72 -36 128 -41t90 14t37 53q2 32 -24 56t-70 41.5t-96 29.5l74 201l96 -11
l-69 -185l-34 58q93 -17 153.5 -47t89 -68.5t25.5 -84.5q-4 -57 -49 -92t-111.5 -46.5t-138.5 1t-130 48.5z" />
    <glyph glyph-name="uni0218" unicode="&#x218;" horiz-adv-x="1237" 
d="M619 -26q-130 0 -239 46.5t-175.5 138t-69.5 230.5h186q0 -82 40.5 -135.5t108 -79t147.5 -25.5q83 0 145.5 24.5t97 67t34.5 96.5q0 73 -45 117.5t-137 75.5l-237 88q-153 57 -233 131.5t-80 207.5q0 151 118 245.5t332 94.5q203 0 315.5 -94t128.5 -256h-187
q-14 82 -76.5 130t-180.5 48q-115 0 -178.5 -49.5t-63.5 -124.5q0 -62 40.5 -98.5t126.5 -67.5l270 -99q139 -49 217 -132t78 -211q0 -108 -56 -191t-163.5 -130.5t-263.5 -47.5zM576 -443l-97 50q52 25 88 55.5t49 74.5q-37 4 -61.5 26.5t-21.5 59.5q2 36 31 61.5t70 25.5
q51 0 82 -36.5t27 -93.5q-2 -60 -45 -122t-122 -101z" />
    <glyph glyph-name="uni1E9E" unicode="&#x1e9e;" horiz-adv-x="1257" 
d="M621 1373q122 0 207 -39t129 -106.5t44 -151.5q0 -74 -27 -123t-62.5 -84.5t-63 -67t-27.5 -67.5q0 -40 33 -70t81 -60t96.5 -69.5t81 -96t32.5 -139.5q0 -97 -48.5 -170t-128.5 -113.5t-174 -40.5q-57 0 -127.5 15.5t-127.5 43.5l2 158q58 -40 115.5 -59.5t111.5 -19.5
q61 0 98.5 23t54.5 60t17 80q0 67 -31 113t-76 81t-90.5 68t-76 72.5t-30.5 93.5q0 55 29 94t67 74t67 76.5t29 100.5q0 77 -57 124.5t-159 47.5q-117 0 -170 -71.5t-53 -233.5v-916h-192v920q0 146 49.5 247t144.5 153.5t232 52.5z" />
    <glyph glyph-name="Tbar" unicode="&#x166;" horiz-adv-x="1027" 
d="M12 1110v164h1004v-164h-450l43 43v-1153h-190v1153l43 -43h-450zM170.42 505.059v149.182h653.276v-149.182h-653.276z" />
    <glyph glyph-name="Tcaron" unicode="&#x164;" horiz-adv-x="1027" 
d="M12 1110v164h1004v-164h-450l43 43v-1153h-190v1153l43 -43h-450zM519 1422l-333 308l113 89l254 -264h-67l255 264l113 -89z" />
    <glyph glyph-name="uni0162" unicode="&#x162;" horiz-adv-x="1027" 
d="M12 1110v164h1004v-164h-450l43 43v-1153h-190v1153l43 -43h-450zM272 -363l29 73q72 -36 128 -41t90 14t37 53q2 32 -24 56t-70 41.5t-96 29.5l74 201l96 -11l-69 -185l-34 58q93 -17 153.5 -47t89 -68.5t25.5 -84.5q-4 -57 -49 -92t-111.5 -46.5t-138.5 1t-130 48.5z
" />
    <glyph glyph-name="uni021A" unicode="&#x21a;" horiz-adv-x="1027" 
d="M12 1110v164h1004v-164h-450l43 43v-1153h-190v1153l43 -43h-450zM422 -445l-97 50q52 25 88 55.5t49 74.5q-37 4 -61.5 26.5t-21.5 59.5q2 36 31 61.5t70 25.5q51 0 82 -36.5t27 -93.5q-2 -60 -45 -122t-122 -101z" />
    <glyph glyph-name="Uhungarumlaut" unicode="&#x170;" horiz-adv-x="1338" 
d="M171 1274h190v-805q0 -169 85.5 -244.5t222.5 -75.5q136 0 222 75.5t86 244.5v805h189v-805q0 -160 -60.5 -270.5t-171.5 -167.5t-265 -57q-153 0 -265 57t-172.5 167.5t-60.5 270.5v805zM828 1410l-99 17l30 331l141 -29zM578 1422l-101 12l14 335l142 -22z" />
    <glyph glyph-name="Umacron" unicode="&#x16a;" horiz-adv-x="1338" 
d="M171 1274h190v-805q0 -169 85.5 -244.5t222.5 -75.5q136 0 222 75.5t86 244.5v805h189v-805q0 -160 -60.5 -270.5t-171.5 -167.5t-265 -57q-153 0 -265 57t-172.5 167.5t-60.5 270.5v805zM342 1636h653v-157h-653v157z" />
    <glyph glyph-name="Uogonek" unicode="&#x172;" horiz-adv-x="1338" 
d="M171 1274h190v-805q0 -169 85.5 -244.5t222.5 -75.5q136 0 222 75.5t86 244.5v805h189v-805q0 -160 -60.5 -270.5t-171.5 -167.5t-265 -57q-153 0 -265 57t-172.5 167.5t-60.5 270.5v805zM932 -329q-63 -35 -131 -53.5t-132 -18.5q-102 0 -166 46t-64 130q0 77 58.5 148
t173.5 116l135 -39q-109 -41 -172 -88t-63 -103q0 -42 35 -60.5t81 -18.5q45 0 92 15t108 47z" />
    <glyph glyph-name="Uring" unicode="&#x16e;" horiz-adv-x="1338" 
d="M171 1274h190v-805q0 -169 85.5 -244.5t222.5 -75.5q136 0 222 75.5t86 244.5v805h189v-805q0 -160 -60.5 -270.5t-171.5 -167.5t-265 -57q-153 0 -265 57t-172.5 167.5t-60.5 270.5v805zM670 1383q-59 0 -108.5 29t-78.5 78.5t-29 108.5q0 60 29 109t78.5 78t108.5 29
q60 0 109 -29t78 -78t29 -109q0 -59 -29 -108.5t-78 -78.5t-109 -29zM670 1514q36 0 60.5 25t24.5 60q0 36 -24.5 60.5t-60.5 24.5q-35 0 -60 -24.5t-25 -60.5q0 -35 25 -60t60 -25z" />
    <glyph glyph-name="Wacute" unicode="&#x1e82;" horiz-adv-x="1832" 
d="M25 1274h213l321 -1106h-52l324 994h129l326 -983h-48l355 1095h214l-445 -1274h-200l-275 816h27l-281 -816h-199zM850 1441l-93 75l352 360l130 -105z" />
    <glyph glyph-name="Wcircumflex" unicode="&#x174;" horiz-adv-x="1832" 
d="M25 1274h213l321 -1106h-52l324 994h129l326 -983h-48l355 1095h214l-445 -1274h-200l-275 816h27l-281 -816h-199zM690 1414l-113 89l333 308l335 -308l-113 -89l-255 245h67z" />
    <glyph glyph-name="Wdieresis" unicode="&#x1e84;" horiz-adv-x="1832" 
d="M25 1274h213l321 -1106h-52l324 994h129l326 -983h-48l355 1095h214l-445 -1274h-200l-275 816h27l-281 -816h-199zM1087 1464q-50 0 -84.5 32t-34.5 81q0 48 34.5 81.5t84.5 33.5q52 0 87 -33.5t35 -81.5q0 -49 -35 -81t-87 -32zM732 1464q-52 0 -85.5 32t-33.5 79
q0 49 33.5 82t85.5 33q53 0 87 -33t34 -82q0 -47 -34 -79t-87 -32z" />
    <glyph glyph-name="Wgrave" unicode="&#x1e80;" horiz-adv-x="1832" 
d="M25 1274h213l321 -1106h-52l324 994h129l326 -983h-48l355 1095h214l-445 -1274h-200l-275 816h27l-281 -816h-199zM1060 1445l-389 330l130 105l352 -360z" />
    <glyph glyph-name="Yacute" unicode="&#xdd;" horiz-adv-x="1129" 
d="M16 1274h227l339 -588h-42l347 588h225l-457 -750v-524h-191v524zM504 1428l-93 75l352 360l130 -105z" />
    <glyph glyph-name="Ycircumflex" unicode="&#x176;" horiz-adv-x="1129" 
d="M16 1274h227l339 -588h-42l347 588h225l-457 -750v-524h-191v524zM344 1401l-113 89l333 308l335 -308l-113 -89l-255 245h67z" />
    <glyph glyph-name="Ydieresis" unicode="&#x178;" horiz-adv-x="1129" 
d="M16 1274h227l339 -588h-42l347 588h225l-457 -750v-524h-191v524zM741 1452q-50 0 -84.5 32t-34.5 81q0 48 34.5 81.5t84.5 33.5q52 0 87 -33.5t35 -81.5q0 -49 -35 -81t-87 -32zM386 1452q-52 0 -85.5 32t-33.5 79q0 49 33.5 82t85.5 33q53 0 87 -33t34 -82
q0 -47 -34 -79t-87 -32z" />
    <glyph glyph-name="Ygrave" unicode="&#x1ef2;" horiz-adv-x="1129" 
d="M16 1274h227l339 -588h-42l347 588h225l-457 -750v-524h-191v524zM714 1433l-389 330l130 105l352 -360z" />
    <glyph glyph-name="Zacute" unicode="&#x179;" horiz-adv-x="1215" 
d="M146 0v167l763 999v-70l-763 4v174h948v-166l-730 -958l-10 28l740 -4v-174h-948zM577 1428l-93 75l352 360l130 -105z" />
    <glyph glyph-name="Zcaron" unicode="&#x17d;" horiz-adv-x="1215" 
d="M146 0v167l763 999v-70l-763 4v174h948v-166l-730 -958l-10 28l740 -4v-174h-948zM643 1422l-333 308l113 89l254 -264h-67l255 264l113 -89z" />
    <glyph glyph-name="Zdotaccent" unicode="&#x17b;" horiz-adv-x="1215" 
d="M146 0v167l763 999v-70l-763 4v174h948v-166l-730 -958l-10 28l740 -4v-174h-948zM517 1589q0 55 38.5 94.5t97.5 39.5q60 0 100.5 -39.5t40.5 -94.5q0 -56 -40.5 -93.5t-100.5 -37.5q-59 0 -97.5 37.5t-38.5 93.5z" />
    <glyph glyph-name="abreve" unicode="&#x103;" horiz-adv-x="1130" 
d="M799 0l-25 221v401q0 118 -49.5 171.5t-154.5 53.5q-60 0 -106.5 -17.5t-73 -52.5t-26.5 -88h-210q0 106 52 172t145.5 96.5t218.5 30.5q117 0 205.5 -38.5t138.5 -120.5t50 -212v-617h-165zM476 -26q-121 0 -201 43t-119.5 111.5t-39.5 146.5q0 95 48.5 156.5
t134.5 91.5t198 30q77 0 150.5 -14t143.5 -37v-115q-57 21 -128 33.5t-132 12.5q-91 0 -152 -36.5t-61 -121.5q0 -64 47.5 -109t152.5 -45q76 0 134 34.5t90 86.5t32 104h46q0 -99 -40.5 -184t-117 -136.5t-186.5 -51.5zM565 1156q-136 0 -215 76.5t-79 202.5h153
q0 -74 38 -113t103 -39t102.5 39t37.5 113h154q0 -126 -79 -202.5t-215 -76.5z" />
    <glyph glyph-name="amacron" unicode="&#x101;" horiz-adv-x="1130" 
d="M799 0l-25 221v401q0 118 -49.5 171.5t-154.5 53.5q-60 0 -106.5 -17.5t-73 -52.5t-26.5 -88h-210q0 106 52 172t145.5 96.5t218.5 30.5q117 0 205.5 -38.5t138.5 -120.5t50 -212v-617h-165zM476 -26q-121 0 -201 43t-119.5 111.5t-39.5 146.5q0 95 48.5 156.5
t134.5 91.5t198 30q77 0 150.5 -14t143.5 -37v-115q-57 21 -128 33.5t-132 12.5q-91 0 -152 -36.5t-61 -121.5q0 -64 47.5 -109t152.5 -45q76 0 134 34.5t90 86.5t32 104h46q0 -99 -40.5 -184t-117 -136.5t-186.5 -51.5zM238 1325h653v-157h-653v157z" />
    <glyph glyph-name="aogonek" unicode="&#x105;" horiz-adv-x="1130" 
d="M799 0l-25 221v401q0 118 -49.5 171.5t-154.5 53.5q-60 0 -106.5 -17.5t-73 -52.5t-26.5 -88h-210q0 106 52 172t145.5 96.5t218.5 30.5q117 0 205.5 -38.5t138.5 -120.5t50 -212v-617h-165zM476 -26q-121 0 -201 43t-119.5 111.5t-39.5 146.5q0 95 48.5 156.5
t134.5 91.5t198 30q77 0 150.5 -14t143.5 -37v-115q-57 21 -128 33.5t-132 12.5q-91 0 -152 -36.5t-61 -121.5q0 -64 47.5 -109t152.5 -45q76 0 134 34.5t90 86.5t32 104h46q0 -99 -40.5 -184t-117 -136.5t-186.5 -51.5zM1091 -329q-63 -35 -131 -53.5t-132 -18.5
q-102 0 -166 46t-64 130q0 77 58.5 148t173.5 116l135 -39q-109 -41 -172 -88t-63 -103q0 -42 35 -60.5t81 -18.5q45 0 92 15t108 47z" />
    <glyph glyph-name="aring" unicode="&#xe5;" horiz-adv-x="1130" 
d="M799 0l-25 221v401q0 118 -49.5 171.5t-154.5 53.5q-60 0 -106.5 -17.5t-73 -52.5t-26.5 -88h-210q0 106 52 172t145.5 96.5t218.5 30.5q117 0 205.5 -38.5t138.5 -120.5t50 -212v-617h-165zM476 -26q-121 0 -201 43t-119.5 111.5t-39.5 146.5q0 95 48.5 156.5
t134.5 91.5t198 30q77 0 150.5 -14t143.5 -37v-115q-57 21 -128 33.5t-132 12.5q-91 0 -152 -36.5t-61 -121.5q0 -64 47.5 -109t152.5 -45q76 0 134 34.5t90 86.5t32 104h46q0 -99 -40.5 -184t-117 -136.5t-186.5 -51.5zM566 1072q-59 0 -108.5 29t-78.5 78.5t-29 108.5
q0 60 29 109t78.5 78t108.5 29q60 0 109 -29t78 -78t29 -109q0 -59 -29 -108.5t-78 -78.5t-109 -29zM566 1203q36 0 60.5 25t24.5 60q0 36 -24.5 60.5t-60.5 24.5q-35 0 -60 -24.5t-25 -60.5q0 -35 25 -60t60 -25z" />
    <glyph glyph-name="ae" unicode="&#xe6;" horiz-adv-x="1706" 
d="M789 302h-24v320q0 116 -51.5 170.5t-151.5 54.5q-57 0 -102 -17.5t-70.5 -52.5t-25.5 -88h-210q0 106 51.5 172t136.5 96.5t185 30.5q126 0 211.5 -45t129.5 -133t44 -218v-177zM468 -26q-112 0 -191 40.5t-120 110t-41 153.5q0 92 47.5 153t131.5 91.5t190 30.5
q76 0 152 -14.5t145 -36.5v-115q-58 21 -131.5 33.5t-127.5 12.5q-86 0 -145.5 -36.5t-59.5 -117.5q0 -67 46 -112.5t137 -45.5q79 0 138.5 34t92.5 85.5t33 105.5h123q0 -91 -50 -176.5t-143.5 -140.5t-226.5 -55zM1216 -26q-131 0 -232 66.5t-158 182t-57 262.5
t56.5 260.5t156 178t228.5 64.5q109 0 188.5 -45.5t128 -122.5t67.5 -173.5t7 -199.5h-684v110h554l-46 -30q3 53 -6 107.5t-32.5 100t-67 73t-111.5 27.5q-83 0 -139.5 -42t-86 -112.5t-29.5 -154.5v-77q0 -93 28 -165t84 -113.5t142 -41.5q79 0 134.5 38.5t68.5 117.5h194
q-14 -93 -69 -163t-137.5 -109t-181.5 -39z" />
    <glyph glyph-name="cacute" unicode="&#x107;" horiz-adv-x="1043" 
d="M545 -26q-118 0 -219.5 62.5t-164 177t-62.5 268.5q0 162 62.5 274.5t164 172t219.5 59.5q87 0 155 -27.5t117 -73.5t79.5 -104.5t42.5 -120.5l-193 -10q-21 74 -73.5 120t-129.5 46q-65 0 -122.5 -36.5t-93.5 -110.5t-36 -189q0 -105 33.5 -181t90.5 -115.5t128 -39.5
q102 0 152.5 49.5t50.5 136.5h193q0 -101 -47.5 -182t-135 -128.5t-211.5 -47.5zM483 1117l-93 75l352 360l130 -105z" />
    <glyph glyph-name="ccaron" unicode="&#x10d;" horiz-adv-x="1043" 
d="M545 -26q-118 0 -219.5 62.5t-164 177t-62.5 268.5q0 162 62.5 274.5t164 172t219.5 59.5q87 0 155 -27.5t117 -73.5t79.5 -104.5t42.5 -120.5l-193 -10q-21 74 -73.5 120t-129.5 46q-65 0 -122.5 -36.5t-93.5 -110.5t-36 -189q0 -105 33.5 -181t90.5 -115.5t128 -39.5
q102 0 152.5 49.5t50.5 136.5h193q0 -101 -47.5 -182t-135 -128.5t-211.5 -47.5zM549 1111l-333 308l113 89l254 -264h-67l255 264l113 -89z" />
    <glyph glyph-name="ccedilla" unicode="&#xe7;" horiz-adv-x="1043" 
d="M545 -26q-118 0 -219.5 62.5t-164 177t-62.5 268.5q0 162 62.5 274.5t164 172t219.5 59.5q87 0 155 -27.5t117 -73.5t79.5 -104.5t42.5 -120.5l-193 -10q-21 74 -73.5 120t-129.5 46q-65 0 -122.5 -36.5t-93.5 -110.5t-36 -189q0 -105 33.5 -181t90.5 -115.5t128 -39.5
q102 0 152.5 49.5t50.5 136.5h193q0 -101 -47.5 -182t-135 -128.5t-211.5 -47.5zM346 -360l29 73q72 -36 128 -41t90 14t37 53q2 32 -24 56t-70 41.5t-96 29.5l74 201l96 -11l-69 -185l-34 58q93 -17 153.5 -47t89 -68.5t25.5 -84.5q-4 -57 -49 -92t-111.5 -46.5t-138.5 1
t-130 48.5z" />
    <glyph glyph-name="cdotaccent" unicode="&#x10b;" horiz-adv-x="1043" 
d="M545 -26q-118 0 -219.5 62.5t-164 177t-62.5 268.5q0 162 62.5 274.5t164 172t219.5 59.5q87 0 155 -27.5t117 -73.5t79.5 -104.5t42.5 -120.5l-193 -10q-21 74 -73.5 120t-129.5 46q-65 0 -122.5 -36.5t-93.5 -110.5t-36 -189q0 -105 33.5 -181t90.5 -115.5t128 -39.5
q102 0 152.5 49.5t50.5 136.5h193q0 -101 -47.5 -182t-135 -128.5t-211.5 -47.5zM423 1278q0 55 38.5 94.5t97.5 39.5q60 0 100.5 -39.5t40.5 -94.5q0 -56 -40.5 -93.5t-100.5 -37.5q-59 0 -97.5 37.5t-38.5 93.5z" />
    <glyph glyph-name="eth" unicode="&#xf0;" horiz-adv-x="1127" 
d="M549 -26q-119 0 -218.5 63t-159.5 178.5t-60 271.5q0 153 57.5 265t152 174t206.5 62t197 -60.5t133 -166.5t48 -244h-66q-1 104 -41.5 170t-101.5 98.5t-126 32.5q-75 0 -135.5 -40.5t-95.5 -115.5t-35 -179q0 -102 35 -178t96 -117.5t138 -41.5q83 0 140 46.5t88 126
t36 179.5q8 158 -14 303t-75 274t-141 241.5t-214 206.5l153 111q116 -98 205 -217t150 -251t92 -269t31 -271q0 -154 -37.5 -274.5t-103 -205t-151.5 -128.5t-183 -44zM433 1115l-56 119l596 293l56 -119z" />
    <glyph glyph-name="dcaron" unicode="&#x10f;" horiz-adv-x="1355" 
d="M1167 1032l-101 50q50 24 84.5 54.5t43.5 74.5q-38 5 -63.5 27.5t-25.5 58.5q0 37 26.5 62.5t69.5 25.5q50 0 84 -38t34 -96q0 -59 -39 -120.5t-113 -98.5zM544 -26q-118 0 -217 63t-157.5 178t-58.5 270q0 154 57 267t152.5 174.5t211.5 61.5q106 0 185 -51
t122.5 -149.5t43.5 -239.5h-66q0 88 -35 148t-90.5 91t-120.5 31q-75 0 -135.5 -40.5t-96 -115t-35.5 -177.5q0 -104 35.5 -180.5t96 -117.5t134.5 -41q61 0 117.5 32.5t93 93.5t36.5 145h66q0 -144 -45.5 -243t-122.5 -149.5t-171 -50.5zM850 0l-33 231v1136h191v-1367
h-158z" />
    <glyph glyph-name="dcroat" unicode="&#x111;" horiz-adv-x="1203" 
d="M544 -26q-118 0 -217 63t-157.5 178t-58.5 270q0 154 57 267t152.5 174.5t211.5 61.5q106 0 185 -51t122.5 -149.5t43.5 -239.5h-66q0 88 -35 148t-90.5 91t-120.5 31q-75 0 -135.5 -40.5t-96 -115t-35.5 -177.5q0 -104 35.5 -180.5t96 -117.5t134.5 -41q61 0 117.5 32.5
t93 93.5t36.5 145h66q0 -144 -45.5 -243t-122.5 -149.5t-171 -50.5zM850 0l-33 231v1136h191v-1367h-158zM587 1172v166h552v-166h-552z" />
    <glyph glyph-name="ecaron" unicode="&#x11b;" horiz-adv-x="1041" 
d="M540 -26q-124 0 -224 64t-158.5 178t-58.5 265q0 158 58 271.5t158 174.5t225 61q112 0 192 -45t129.5 -122t67.5 -174t6 -200h-684v110h554l-46 -30q3 53 -5.5 107.5t-32.5 100t-67.5 73t-110.5 27.5q-83 0 -140 -42t-86 -112.5t-29 -154.5v-77q0 -93 27.5 -165
t84 -113.5t140.5 -41.5q83 0 137.5 39t67.5 117h194q-15 -94 -69 -164t-138.5 -108.5t-191.5 -38.5zM526 1111l-333 308l113 89l254 -264h-67l255 264l113 -89z" />
    <glyph glyph-name="edotaccent" unicode="&#x117;" horiz-adv-x="1041" 
d="M540 -26q-124 0 -224 64t-158.5 178t-58.5 265q0 158 58 271.5t158 174.5t225 61q112 0 192 -45t129.5 -122t67.5 -174t6 -200h-684v110h554l-46 -30q3 53 -5.5 107.5t-32.5 100t-67.5 73t-110.5 27.5q-83 0 -140 -42t-86 -112.5t-29 -154.5v-77q0 -93 27.5 -165
t84 -113.5t140.5 -41.5q83 0 137.5 39t67.5 117h194q-15 -94 -69 -164t-138.5 -108.5t-191.5 -38.5zM400 1278q0 55 38.5 94.5t97.5 39.5q60 0 100.5 -39.5t40.5 -94.5q0 -56 -40.5 -93.5t-100.5 -37.5q-59 0 -97.5 37.5t-38.5 93.5z" />
    <glyph glyph-name="emacron" unicode="&#x113;" horiz-adv-x="1041" 
d="M540 -26q-124 0 -224 64t-158.5 178t-58.5 265q0 158 58 271.5t158 174.5t225 61q112 0 192 -45t129.5 -122t67.5 -174t6 -200h-684v110h554l-46 -30q3 53 -5.5 107.5t-32.5 100t-67.5 73t-110.5 27.5q-83 0 -140 -42t-86 -112.5t-29 -154.5v-77q0 -93 27.5 -165
t84 -113.5t140.5 -41.5q83 0 137.5 39t67.5 117h194q-15 -94 -69 -164t-138.5 -108.5t-191.5 -38.5zM194 1325h653v-157h-653v157z" />
    <glyph glyph-name="eogonek" unicode="&#x119;" horiz-adv-x="1041" 
d="M540 -26q-124 0 -224 64t-158.5 178t-58.5 265q0 158 58 271.5t158 174.5t225 61q112 0 192 -45t129.5 -122t67.5 -174t6 -200h-684v110h554l-46 -30q3 53 -5.5 107.5t-32.5 100t-67.5 73t-110.5 27.5q-83 0 -140 -42t-86 -112.5t-29 -154.5v-77q0 -93 27.5 -165
t84 -113.5t140.5 -41.5q83 0 137.5 39t67.5 117h194q-15 -94 -69 -164t-138.5 -108.5t-191.5 -38.5zM775 -329q-63 -35 -131 -53.5t-132 -18.5q-102 0 -166 46t-64 130q0 77 58.5 148t173.5 116l135 -39q-109 -41 -172 -88t-63 -103q0 -42 35 -60.5t81 -18.5q45 0 92 15
t108 47z" />
    <glyph glyph-name="gbreve" unicode="&#x11f;" horiz-adv-x="1144" 
d="M549 -497q-155 0 -268 44t-174 115.5t-61 156.5q0 108 79 165.5t201 57.5l123 -59q-104 0 -160.5 -41.5t-56.5 -113.5q0 -75 82.5 -123.5t234.5 -48.5q111 0 194.5 32.5t130 85.5t46.5 112q0 41 -29.5 69t-89.5 28h-352q-98 0 -172.5 30.5t-116.5 81.5t-42 111
q0 61 33.5 104t90 65.5t123.5 22.5l43 -66q-29 0 -58 -12.5t-48 -37t-19 -62.5q0 -44 36 -72t130 -28h352q144 0 226 -57t82 -166q0 -98 -68 -188.5t-193.5 -148t-298.5 -57.5zM570 289q-112 0 -203.5 43.5t-145.5 122.5t-54 183q0 106 54 184.5t145.5 122t203.5 43.5
q109 0 199.5 -43.5t145 -122t54.5 -184.5q0 -104 -54.5 -183t-145 -122.5t-199.5 -43.5zM570 423q103 0 157.5 61.5t54.5 153.5q0 96 -55 155t-157 59t-158 -59t-56 -155q0 -92 56.5 -153.5t157.5 -61.5zM897 834l-89 43q0 86 36 150t100 100t147 36l-12 -185
q-89 0 -135.5 -35t-46.5 -109zM573 1156q-136 0 -215 76.5t-79 202.5h153q0 -74 38 -113t103 -39t102.5 39t37.5 113h154q0 -126 -79 -202.5t-215 -76.5z" />
    <glyph glyph-name="uni0123" unicode="&#x123;" horiz-adv-x="1144" 
d="M549 -497q-155 0 -268 44t-174 115.5t-61 156.5q0 108 79 165.5t201 57.5l123 -59q-104 0 -160.5 -41.5t-56.5 -113.5q0 -75 82.5 -123.5t234.5 -48.5q111 0 194.5 32.5t130 85.5t46.5 112q0 41 -29.5 69t-89.5 28h-352q-98 0 -172.5 30.5t-116.5 81.5t-42 111
q0 61 33.5 104t90 65.5t123.5 22.5l43 -66q-29 0 -58 -12.5t-48 -37t-19 -62.5q0 -44 36 -72t130 -28h352q144 0 226 -57t82 -166q0 -98 -68 -188.5t-193.5 -148t-298.5 -57.5zM570 289q-112 0 -203.5 43.5t-145.5 122.5t-54 183q0 106 54 184.5t145.5 122t203.5 43.5
q109 0 199.5 -43.5t145 -122t54.5 -184.5q0 -104 -54.5 -183t-145 -122.5t-199.5 -43.5zM570 423q103 0 157.5 61.5t54.5 153.5q0 96 -55 155t-157 59t-158 -59t-56 -155q0 -92 56.5 -153.5t157.5 -61.5zM897 834l-89 43q0 86 36 150t100 100t147 36l-12 -185
q-89 0 -135.5 -35t-46.5 -109zM615 1389l97 -50q-52 -25 -88 -55.5t-49 -74.5q37 -4 61.5 -26.5t21.5 -59.5q-2 -36 -31 -61.5t-70 -25.5q-51 0 -82 36.5t-27 93.5q2 60 45 122t122 101z" />
    <glyph glyph-name="gdotaccent" unicode="&#x121;" horiz-adv-x="1144" 
d="M549 -497q-155 0 -268 44t-174 115.5t-61 156.5q0 108 79 165.5t201 57.5l123 -59q-104 0 -160.5 -41.5t-56.5 -113.5q0 -75 82.5 -123.5t234.5 -48.5q111 0 194.5 32.5t130 85.5t46.5 112q0 41 -29.5 69t-89.5 28h-352q-98 0 -172.5 30.5t-116.5 81.5t-42 111
q0 61 33.5 104t90 65.5t123.5 22.5l43 -66q-29 0 -58 -12.5t-48 -37t-19 -62.5q0 -44 36 -72t130 -28h352q144 0 226 -57t82 -166q0 -98 -68 -188.5t-193.5 -148t-298.5 -57.5zM570 289q-112 0 -203.5 43.5t-145.5 122.5t-54 183q0 106 54 184.5t145.5 122t203.5 43.5
q109 0 199.5 -43.5t145 -122t54.5 -184.5q0 -104 -54.5 -183t-145 -122.5t-199.5 -43.5zM570 423q103 0 157.5 61.5t54.5 153.5q0 96 -55 155t-157 59t-158 -59t-56 -155q0 -92 56.5 -153.5t157.5 -61.5zM897 834l-89 43q0 86 36 150t100 100t147 36l-12 -185
q-89 0 -135.5 -35t-46.5 -109zM451 1278q0 55 38.5 94.5t97.5 39.5q60 0 100.5 -39.5t40.5 -94.5q0 -56 -40.5 -93.5t-100.5 -37.5q-59 0 -97.5 37.5t-38.5 93.5z" />
    <glyph glyph-name="hbar" unicode="&#x127;" horiz-adv-x="1224" 
d="M870 0v564q0 125 -60.5 189.5t-160.5 64.5q-80 0 -139.5 -43.5t-92 -127t-32.5 -203.5h-68q0 177 45.5 298t130.5 183.5t205 62.5q116 0 196.5 -52.5t122 -147.5t41.5 -224v-564h-188zM195 0v1367h190v-1367h-190zM55.1992 1055.73v149.404h441.593v-149.404h-441.593z
" />
    <glyph glyph-name="dotlessi" unicode="&#x131;" horiz-adv-x="622" 
d="M210 0v965h190v-965h-190z" />
    <glyph glyph-name="i.loclTRK" horiz-adv-x="622" 
d="M210 0v965h190v-965h-190zM182 1278q0 55 38.5 94.5t97.5 39.5q60 0 100.5 -39.5t40.5 -94.5q0 -56 -40.5 -93.5t-100.5 -37.5q-59 0 -97.5 37.5t-38.5 93.5z" />
    <glyph glyph-name="imacron" unicode="&#x12b;" horiz-adv-x="622" 
d="M210 0v965h190v-965h-190zM119.455 1325h430.963v-157h-430.963v157z" />
    <glyph glyph-name="iogonek" unicode="&#x12f;" horiz-adv-x="622" 
d="M210 0v965h190v-965h-190zM182 1278q0 55 38.5 94.5t97.5 39.5q60 0 100.5 -39.5t40.5 -94.5q0 -56 -40.5 -93.5t-100.5 -37.5q-59 0 -97.5 37.5t-38.5 93.5zM525 -329q-63 -35 -131 -53.5t-132 -18.5q-102 0 -166 46t-64 130q0 77 58.5 148t173.5 116l135 -39
q-109 -41 -172 -88t-63 -103q0 -42 35 -60.5t81 -18.5q45 0 92 15t108 47z" />
    <glyph glyph-name="uni0237" unicode="&#x237;" horiz-adv-x="645" 
d="M110 -497q-74 0 -139.5 18t-134.5 52l7 164q55 -29 111.5 -48.5t114.5 -19.5q79 0 122 49t43 157v1091h189v-1094q0 -198 -84.5 -283.5t-228.5 -85.5z" />
    <glyph glyph-name="uni0137" unicode="&#x137;" horiz-adv-x="1151" 
d="M195 0v1367h190v-1367h-190zM358 571l457 391h261l-718 -590v199zM867 0l-446 610l186 39l492 -649h-232zM528 -443l-97 50q52 25 88 55.5t49 74.5q-37 4 -61.5 26.5t-21.5 59.5q2 36 31 61.5t70 25.5q51 0 82 -36.5t27 -93.5q-2 -60 -45 -122t-122 -101z" />
    <glyph glyph-name="lacute" unicode="&#x13a;" horiz-adv-x="581" 
d="M195 0v1367h190v-1367h-190zM229 1539l-93 75l352 360l130 -105z" />
    <glyph glyph-name="lcaron" unicode="&#x13e;" horiz-adv-x="581" 
d="M195 0v1367h190v-1367h-190zM295 1533l-333 308l113 89l254 -264h-67l255 264l113 -89z" />
    <glyph glyph-name="uni013C" unicode="&#x13c;" horiz-adv-x="581" 
d="M195 0v1367h190v-1367h-190zM243 -443l-97 50q52 25 88 55.5t49 74.5q-37 4 -61.5 26.5t-21.5 59.5q2 36 31 61.5t70 25.5q51 0 82 -36.5t27 -93.5q-2 -60 -45 -122t-122 -101z" />
    <glyph glyph-name="lslash" unicode="&#x142;" horiz-adv-x="581" 
d="M63 725l-25 124l513 87l24 -124zM195 0v1367h190v-1367h-190z" />
    <glyph glyph-name="nacute" unicode="&#x144;" horiz-adv-x="1224" 
d="M870 0v564q0 125 -60.5 189.5t-160.5 64.5q-80 0 -139.5 -43.5t-92 -127t-32.5 -203.5h-68q0 177 45.5 298t130.5 183.5t205 62.5q116 0 196.5 -52.5t122 -147.5t41.5 -224v-564h-188zM195 0v962h165l25 -208v-754h-190zM572 1128l-93 75l352 360l130 -105z" />
    <glyph glyph-name="ncaron" unicode="&#x148;" horiz-adv-x="1224" 
d="M870 0v564q0 125 -60.5 189.5t-160.5 64.5q-80 0 -139.5 -43.5t-92 -127t-32.5 -203.5h-68q0 177 45.5 298t130.5 183.5t205 62.5q116 0 196.5 -52.5t122 -147.5t41.5 -224v-564h-188zM195 0v962h165l25 -208v-754h-190zM638 1122l-333 308l113 89l254 -264h-67l255 264
l113 -89z" />
    <glyph glyph-name="uni0146" unicode="&#x146;" horiz-adv-x="1224" 
d="M870 0v564q0 125 -60.5 189.5t-160.5 64.5q-80 0 -139.5 -43.5t-92 -127t-32.5 -203.5h-68q0 177 45.5 298t130.5 183.5t205 62.5q116 0 196.5 -52.5t122 -147.5t41.5 -224v-564h-188zM195 0v962h165l25 -208v-754h-190zM565 -443l-97 50q52 25 88 55.5t49 74.5
q-37 4 -61.5 26.5t-21.5 59.5q2 36 31 61.5t70 25.5q51 0 82 -36.5t27 -93.5q-2 -60 -45 -122t-122 -101z" />
    <glyph glyph-name="eng" unicode="&#x14b;" horiz-adv-x="1255" 
d="M746 -497q-74 0 -139.5 18t-134.5 52l7 164q55 -29 111.5 -48.5t114.5 -19.5q79 0 122 49t43 157v644h189v-647q0 -198 -85 -283.5t-228 -85.5zM870 0v564q0 125 -60.5 189.5t-160.5 64.5q-80 0 -139.5 -43.5t-92 -127t-32.5 -203.5h-68q0 177 45.5 298t130.5 183.5
t205 62.5q116 0 196.5 -52.5t122 -147.5t41.5 -224v-564h-188zM195 0v962h165l25 -208v-754h-190z" />
    <glyph glyph-name="ohungarumlaut" unicode="&#x151;" horiz-adv-x="1110" 
d="M557 -26q-131 0 -234.5 57t-163.5 170t-60 279q0 170 60 282.5t163.5 169t234.5 56.5q129 0 231.5 -56.5t162.5 -169t60 -282.5q0 -166 -60 -279t-162.5 -170t-231.5 -57zM551 140q84 0 144 40t92.5 116.5t32.5 183.5q0 164 -66.5 254t-191.5 90q-84 0 -144.5 -40.5
t-93.5 -117t-33 -186.5q0 -162 67.5 -251t192.5 -89zM715 1099l-99 17l30 331l141 -29zM465 1111l-101 12l14 335l142 -22z" />
    <glyph glyph-name="omacron" unicode="&#x14d;" horiz-adv-x="1110" 
d="M557 -26q-131 0 -234.5 57t-163.5 170t-60 279q0 170 60 282.5t163.5 169t234.5 56.5q129 0 231.5 -56.5t162.5 -169t60 -282.5q0 -166 -60 -279t-162.5 -170t-231.5 -57zM551 140q84 0 144 40t92.5 116.5t32.5 183.5q0 164 -66.5 254t-191.5 90q-84 0 -144.5 -40.5
t-93.5 -117t-33 -186.5q0 -162 67.5 -251t192.5 -89zM229 1325h653v-157h-653v157z" />
    <glyph glyph-name="oslash" unicode="&#xf8;" horiz-adv-x="1110" 
d="M557 -26q-131 0 -234.5 57t-163.5 170t-60 279q0 170 60 282.5t163.5 169t234.5 56.5q129 0 231.5 -56.5t162.5 -169t60 -282.5q0 -166 -60 -279t-162.5 -170t-231.5 -57zM551 140q84 0 144 40t92.5 116.5t32.5 183.5q0 164 -66.5 254t-191.5 90q-84 0 -144.5 -40.5
t-93.5 -117t-33 -186.5q0 -162 67.5 -251t192.5 -89zM108.624 -35.0693l819.05 978.432h203.496l-822.196 -978.432h-200.35z" />
    <glyph glyph-name="oe" unicode="&#x153;" horiz-adv-x="1689" 
d="M534 -26q-124 0 -222.5 57t-155.5 170.5t-57 280.5q0 168 57 280.5t155.5 169t222.5 56.5t222 -56.5t155 -169t57 -280.5t-57 -281t-155 -170t-222 -57zM530 140q79 0 136.5 39.5t88.5 117t31 189.5q0 158 -63.5 248t-183.5 90q-80 0 -137.5 -40.5t-88.5 -117.5t-31 -188
q0 -160 64.5 -249t183.5 -89zM1215 -26q-123 0 -219.5 63.5t-152.5 178.5t-56 269t55.5 267t150.5 174.5t216 61.5q105 0 181 -45t123 -121.5t64.5 -173.5t6.5 -201h-651v110h527l-44 -30q3 53 -5 107.5t-31 100t-64.5 73t-106.5 27.5q-78 0 -132 -42t-82 -112.5t-28 -154.5
v-77q0 -93 26.5 -165t80 -113.5t135.5 -41.5q74 0 127 38t66 118h185q-13 -93 -65 -163t-131.5 -109t-175.5 -39z" />
    <glyph glyph-name="thorn" unicode="&#xfe;" 
d="M651 -26q-105 0 -181.5 47.5t-117.5 140t-41 229.5h74q0 -79 34 -133.5t89.5 -83t118.5 -28.5q66 0 128.5 37.5t102.5 112.5t40 186q0 106 -36 181t-96.5 115t-136.5 40q-64 0 -120 -30.5t-90 -88.5t-34 -143h-74q0 145 46.5 241t125.5 143.5t175 47.5q113 0 212 -60.5
t160.5 -173.5t61.5 -272t-62 -272.5t-162.5 -174.5t-216.5 -61zM195 -472v1746h190v-1746h-190z" />
    <glyph glyph-name="racute" unicode="&#x155;" horiz-adv-x="749" 
d="M195 0v965h190v-965h-190zM333 430q0 186 38.5 308t108 182t163.5 60q28 0 52.5 -3.5t48.5 -11.5l-7 -189q-27 8 -59 13.5t-57 5.5q-82 0 -134.5 -44t-77 -125.5t-24.5 -195.5h-52zM410 1117l-93 75l352 360l130 -105z" />
    <glyph glyph-name="rcaron" unicode="&#x159;" horiz-adv-x="749" 
d="M195 0v965h190v-965h-190zM333 430q0 186 38.5 308t108 182t163.5 60q28 0 52.5 -3.5t48.5 -11.5l-7 -189q-27 8 -59 13.5t-57 5.5q-82 0 -134.5 -44t-77 -125.5t-24.5 -195.5h-52zM476 1111l-333 308l113 89l254 -264h-67l255 264l113 -89z" />
    <glyph glyph-name="uni0157" unicode="&#x157;" horiz-adv-x="749" 
d="M195 0v965h190v-965h-190zM333 430q0 186 38.5 308t108 182t163.5 60q28 0 52.5 -3.5t48.5 -11.5l-7 -189q-27 8 -59 13.5t-57 5.5q-82 0 -134.5 -44t-77 -125.5t-24.5 -195.5h-52zM441 -438l-97 50q52 25 88 55.5t49 74.5q-37 4 -61.5 26.5t-21.5 59.5q2 36 31 61.5
t70 25.5q51 0 82 -36.5t27 -93.5q-2 -60 -45 -122t-122 -101z" />
    <glyph glyph-name="sacute" unicode="&#x15b;" horiz-adv-x="1053" 
d="M547 -26q-140 0 -236 39.5t-146.5 110t-52.5 165.5h179q4 -83 66 -123t170 -40q58 0 104 18t73.5 49.5t27.5 69.5q0 49 -36.5 77.5t-115.5 51.5l-197 66q-118 40 -180.5 106.5t-62.5 159.5q0 119 105.5 191.5t281.5 72.5q179 0 278 -76t103 -192h-183q-7 57 -56.5 87.5
t-141.5 30.5q-89 0 -138 -38t-49 -86q0 -86 148 -128l207 -73q118 -38 182 -97.5t64 -152.5q0 -74 -49 -140t-137.5 -107.5t-207.5 -41.5zM466 1117l-93 75l352 360l130 -105z" />
    <glyph glyph-name="scaron" unicode="&#x161;" horiz-adv-x="1053" 
d="M547 -26q-140 0 -236 39.5t-146.5 110t-52.5 165.5h179q4 -83 66 -123t170 -40q58 0 104 18t73.5 49.5t27.5 69.5q0 49 -36.5 77.5t-115.5 51.5l-197 66q-118 40 -180.5 106.5t-62.5 159.5q0 119 105.5 191.5t281.5 72.5q179 0 278 -76t103 -192h-183q-7 57 -56.5 87.5
t-141.5 30.5q-89 0 -138 -38t-49 -86q0 -86 148 -128l207 -73q118 -38 182 -97.5t64 -152.5q0 -74 -49 -140t-137.5 -107.5t-207.5 -41.5zM532 1111l-333 308l113 89l254 -264h-67l255 264l113 -89z" />
    <glyph glyph-name="scedilla" unicode="&#x15f;" horiz-adv-x="1053" 
d="M547 -26q-140 0 -236 39.5t-146.5 110t-52.5 165.5h179q4 -83 66 -123t170 -40q58 0 104 18t73.5 49.5t27.5 69.5q0 49 -36.5 77.5t-115.5 51.5l-197 66q-118 40 -180.5 106.5t-62.5 159.5q0 119 105.5 191.5t281.5 72.5q179 0 278 -76t103 -192h-183q-7 57 -56.5 87.5
t-141.5 30.5q-89 0 -138 -38t-49 -86q0 -86 148 -128l207 -73q118 -38 182 -97.5t64 -152.5q0 -74 -49 -140t-137.5 -107.5t-207.5 -41.5zM337 -360l29 73q72 -36 128 -41t90 14t37 53q2 32 -24 56t-70 41.5t-96 29.5l74 201l96 -11l-69 -185l-34 58q93 -17 153.5 -47
t89 -68.5t25.5 -84.5q-4 -57 -49 -92t-111.5 -46.5t-138.5 1t-130 48.5z" />
    <glyph glyph-name="uni0219" unicode="&#x219;" horiz-adv-x="1053" 
d="M547 -26q-140 0 -236 39.5t-146.5 110t-52.5 165.5h179q4 -83 66 -123t170 -40q58 0 104 18t73.5 49.5t27.5 69.5q0 49 -36.5 77.5t-115.5 51.5l-197 66q-118 40 -180.5 106.5t-62.5 159.5q0 119 105.5 191.5t281.5 72.5q179 0 278 -76t103 -192h-183q-7 57 -56.5 87.5
t-141.5 30.5q-89 0 -138 -38t-49 -86q0 -86 148 -128l207 -73q118 -38 182 -97.5t64 -152.5q0 -74 -49 -140t-137.5 -107.5t-207.5 -41.5zM487 -442l-97 50q52 25 88 55.5t49 74.5q-37 4 -61.5 26.5t-21.5 59.5q2 36 31 61.5t70 25.5q51 0 82 -36.5t27 -93.5
q-2 -60 -45 -122t-122 -101z" />
    <glyph glyph-name="germandbls" unicode="&#xdf;" horiz-adv-x="1257" 
d="M621 1373q122 0 207 -39t129 -106.5t44 -151.5q0 -74 -27 -123t-62.5 -84.5t-63 -67t-27.5 -67.5q0 -40 33 -70t81 -60t96.5 -69.5t81 -96t32.5 -139.5q0 -97 -48.5 -170t-128.5 -113.5t-174 -40.5q-57 0 -127.5 15.5t-127.5 43.5l2 158q58 -40 115.5 -59.5t111.5 -19.5
q61 0 98.5 23t54.5 60t17 80q0 67 -31 113t-76 81t-90.5 68t-76 72.5t-30.5 93.5q0 55 29 94t67 74t67 76.5t29 100.5q0 77 -57 124.5t-159 47.5q-117 0 -170 -71.5t-53 -233.5v-916h-192v920q0 146 49.5 247t144.5 153.5t232 52.5z" />
    <glyph glyph-name="tbar" unicode="&#x167;" horiz-adv-x="768" 
d="M504 -26q-81 0 -147.5 31t-105 93.5t-38.5 157.5v968h189v-962q0 -136 127 -136q38 0 75 8.5t85 25.5l27 -135q-53 -22 -104.5 -36.5t-107.5 -14.5zM66 833v129h621v-129h-621zM75 549.293v149.972h552v-149.972h-552z" />
    <glyph glyph-name="tcaron" unicode="&#x165;" horiz-adv-x="768" 
d="M504 -26q-81 0 -147.5 31t-105 93.5t-38.5 157.5v968h189v-962q0 -136 127 -136q38 0 75 8.5t85 25.5l27 -135q-53 -22 -104.5 -36.5t-107.5 -14.5zM66 833v129h621v-129h-621zM383 1300l-333 308l113 89l254 -264h-67l255 264l113 -89z" />
    <glyph glyph-name="uni0163" unicode="&#x163;" horiz-adv-x="768" 
d="M504 -26q-81 0 -147.5 31t-105 93.5t-38.5 157.5v968h189v-962q0 -136 127 -136q38 0 75 8.5t85 25.5l27 -135q-53 -22 -104.5 -36.5t-107.5 -14.5zM66 833v129h621v-129h-621zM246 -356l29 73q72 -36 128 -41t90 14t37 53q2 32 -24 56t-70 41.5t-96 29.5l74 201l96 -11
l-69 -185l-34 58q93 -17 153.5 -47t89 -68.5t25.5 -84.5q-4 -57 -49 -92t-111.5 -46.5t-138.5 1t-130 48.5z" />
    <glyph glyph-name="uni021B" unicode="&#x21b;" horiz-adv-x="768" 
d="M504 -26q-81 0 -147.5 31t-105 93.5t-38.5 157.5v968h189v-962q0 -136 127 -136q38 0 75 8.5t85 25.5l27 -135q-53 -22 -104.5 -36.5t-107.5 -14.5zM66 833v129h621v-129h-621zM396 -438l-97 50q52 25 88 55.5t49 74.5q-37 4 -61.5 26.5t-21.5 59.5q2 36 31 61.5t70 25.5
q51 0 82 -36.5t27 -93.5q-2 -60 -45 -122t-122 -101z" />
    <glyph glyph-name="uhungarumlaut" unicode="&#x171;" horiz-adv-x="1229" 
d="M844 965h190v-965h-190v965zM171 965h190v-596q0 -109 53.5 -165t150.5 -56q82 0 144.5 43t98.5 122t36 187h60q0 -169 -46 -284.5t-129 -174.5t-194 -59q-106 0 -188.5 38.5t-129 120t-46.5 211.5v613zM791 1099l-99 17l30 331l141 -29zM541 1111l-101 12l14 335
l142 -22z" />
    <glyph glyph-name="umacron" unicode="&#x16b;" horiz-adv-x="1229" 
d="M844 965h190v-965h-190v965zM171 965h190v-596q0 -109 53.5 -165t150.5 -56q82 0 144.5 43t98.5 122t36 187h60q0 -169 -46 -284.5t-129 -174.5t-194 -59q-106 0 -188.5 38.5t-129 120t-46.5 211.5v613zM305 1325h653v-157h-653v157z" />
    <glyph glyph-name="uogonek" unicode="&#x173;" horiz-adv-x="1229" 
d="M844 965h190v-965h-190v965zM171 965h190v-596q0 -109 53.5 -165t150.5 -56q82 0 144.5 43t98.5 122t36 187h60q0 -169 -46 -284.5t-129 -174.5t-194 -59q-106 0 -188.5 38.5t-129 120t-46.5 211.5v613zM1160 -329q-63 -35 -131 -53.5t-132 -18.5q-102 0 -166 46t-64 130
q0 77 58.5 148t173.5 116l135 -39q-109 -41 -172 -88t-63 -103q0 -42 35 -60.5t81 -18.5q45 0 92 15t108 47z" />
    <glyph glyph-name="uring" unicode="&#x16f;" horiz-adv-x="1229" 
d="M844 965h190v-965h-190v965zM171 965h190v-596q0 -109 53.5 -165t150.5 -56q82 0 144.5 43t98.5 122t36 187h60q0 -169 -46 -284.5t-129 -174.5t-194 -59q-106 0 -188.5 38.5t-129 120t-46.5 211.5v613zM633 1072q-59 0 -108.5 29t-78.5 78.5t-29 108.5q0 60 29 109
t78.5 78t108.5 29q60 0 109 -29t78 -78t29 -109q0 -59 -29 -108.5t-78 -78.5t-109 -29zM633 1203q36 0 60.5 25t24.5 60q0 36 -24.5 60.5t-60.5 24.5q-35 0 -60 -24.5t-25 -60.5q0 -35 25 -60t60 -25z" />
    <glyph glyph-name="wacute" unicode="&#x1e83;" horiz-adv-x="1477" 
d="M31 962h198l229 -772h-21l221 723h165l220 -725h-20l229 774h190l-316 -962h-186l-218 680h29l-215 -680h-186zM677 1117l-93 75l352 360l130 -105z" />
    <glyph glyph-name="wcircumflex" unicode="&#x175;" horiz-adv-x="1477" 
d="M31 962h198l229 -772h-21l221 723h165l220 -725h-20l229 774h190l-316 -962h-186l-218 680h29l-215 -680h-186zM517 1090l-113 89l333 308l335 -308l-113 -89l-255 245h67z" />
    <glyph glyph-name="wdieresis" unicode="&#x1e85;" horiz-adv-x="1477" 
d="M31 962h198l229 -772h-21l221 723h165l220 -725h-20l229 774h190l-316 -962h-186l-218 680h29l-215 -680h-186zM915 1141q-50 0 -84.5 32t-34.5 81q0 48 34.5 81.5t84.5 33.5q52 0 87 -33.5t35 -81.5q0 -49 -35 -81t-87 -32zM560 1141q-52 0 -85.5 32t-33.5 79
q0 49 33.5 82t85.5 33q53 0 87 -33t34 -82q0 -47 -34 -79t-87 -32z" />
    <glyph glyph-name="wgrave" unicode="&#x1e81;" horiz-adv-x="1477" 
d="M31 962h198l229 -772h-21l221 723h165l220 -725h-20l229 774h190l-316 -962h-186l-218 680h29l-215 -680h-186zM887 1122l-389 330l130 105l352 -360z" />
    <glyph glyph-name="yacute" unicode="&#xfd;" horiz-adv-x="963" 
d="M42 962h213l290 -796h-39l233 796h194l-365 -1147q-50 -156 -128.5 -234t-196.5 -78q-66 0 -126.5 17t-123.5 51v171q54 -38 104.5 -55.5t103.5 -17.5q55 0 93 33t64.5 86.5t45.5 116.5l29 95zM421 1117l-93 75l352 360l130 -105z" />
    <glyph glyph-name="ycircumflex" unicode="&#x177;" horiz-adv-x="963" 
d="M42 962h213l290 -796h-39l233 796h194l-365 -1147q-50 -156 -128.5 -234t-196.5 -78q-66 0 -126.5 17t-123.5 51v171q54 -38 104.5 -55.5t103.5 -17.5q55 0 93 33t64.5 86.5t45.5 116.5l29 95zM261 1090l-113 89l333 308l335 -308l-113 -89l-255 245h67z" />
    <glyph glyph-name="ydieresis" unicode="&#xff;" horiz-adv-x="963" 
d="M42 962h213l290 -796h-39l233 796h194l-365 -1147q-50 -156 -128.5 -234t-196.5 -78q-66 0 -126.5 17t-123.5 51v171q54 -38 104.5 -55.5t103.5 -17.5q55 0 93 33t64.5 86.5t45.5 116.5l29 95zM658 1141q-50 0 -84.5 32t-34.5 81q0 48 34.5 81.5t84.5 33.5q52 0 87 -33.5
t35 -81.5q0 -49 -35 -81t-87 -32zM303 1141q-52 0 -85.5 32t-33.5 79q0 49 33.5 82t85.5 33q53 0 87 -33t34 -82q0 -47 -34 -79t-87 -32z" />
    <glyph glyph-name="ygrave" unicode="&#x1ef3;" horiz-adv-x="963" 
d="M42 962h213l290 -796h-39l233 796h194l-365 -1147q-50 -156 -128.5 -234t-196.5 -78q-66 0 -126.5 17t-123.5 51v171q54 -38 104.5 -55.5t103.5 -17.5q55 0 93 33t64.5 86.5t45.5 116.5l29 95zM631 1122l-389 330l130 105l352 -360z" />
    <glyph glyph-name="zacute" unicode="&#x17a;" horiz-adv-x="966" 
d="M109 0v154l539 654h-539v154h751v-154l-527 -654h527v-154h-751zM423 1117l-93 75l352 360l130 -105z" />
    <glyph glyph-name="zcaron" unicode="&#x17e;" horiz-adv-x="966" 
d="M109 0v154l539 654h-539v154h751v-154l-527 -654h527v-154h-751zM489 1111l-333 308l113 89l254 -264h-67l255 264l113 -89z" />
    <glyph glyph-name="zdotaccent" unicode="&#x17c;" horiz-adv-x="966" 
d="M109 0v154l539 654h-539v154h751v-154l-527 -654h527v-154h-751zM362 1278q0 55 38.5 94.5t97.5 39.5q60 0 100.5 -39.5t40.5 -94.5q0 -56 -40.5 -93.5t-100.5 -37.5q-59 0 -97.5 37.5t-38.5 93.5z" />
    <glyph glyph-name="ordfeminine" unicode="&#xaa;" horiz-adv-x="1130" 
d="M799 0l-25 221v401q0 118 -49.5 171.5t-154.5 53.5q-60 0 -106.5 -17.5t-73 -52.5t-26.5 -88h-210q0 106 52 172t145.5 96.5t218.5 30.5q117 0 205.5 -38.5t138.5 -120.5t50 -212v-617h-165zM476 -26q-121 0 -201 43t-119.5 111.5t-39.5 146.5q0 95 48.5 156.5
t134.5 91.5t198 30q77 0 150.5 -14t143.5 -37v-115q-57 21 -128 33.5t-132 12.5q-91 0 -152 -36.5t-61 -121.5q0 -64 47.5 -109t152.5 -45q76 0 134 34.5t90 86.5t32 104h46q0 -99 -40.5 -184t-117 -136.5t-186.5 -51.5z" />
    <glyph glyph-name="ordmasculine" unicode="&#xba;" horiz-adv-x="1110" 
d="M557 -26q-131 0 -234.5 57t-163.5 170t-60 279q0 170 60 282.5t163.5 169t234.5 56.5q129 0 231.5 -56.5t162.5 -169t60 -282.5q0 -166 -60 -279t-162.5 -170t-231.5 -57zM551 140q84 0 144 40t92.5 116.5t32.5 183.5q0 164 -66.5 254t-191.5 90q-84 0 -144.5 -40.5
t-93.5 -117t-33 -186.5q0 -162 67.5 -251t192.5 -89z" />
    <glyph glyph-name="uni0394" unicode="&#x394;" horiz-adv-x="1192" 
d="M49 0l436 1274h235l423 -1274h-200l-344 1045l-350 -1045h-200zM161 0v165h856v-165h-856z" />
    <glyph glyph-name="uni03A9" unicode="&#x3a9;" horiz-adv-x="1323" 
d="M561 36q-85 0 -167 37.5t-149 112.5t-106.5 187.5t-39.5 262.5q0 224 72.5 370.5t199.5 218.5t290 72q164 0 291.5 -73t200 -220.5t72.5 -367.5q0 -152 -40 -264.5t-107 -187.5t-149.5 -111.5t-168.5 -36.5v93q64 0 125.5 61t102 175t40.5 273q0 233 -98.5 361
t-268.5 128q-167 0 -266 -128t-99 -363q0 -158 40.5 -271.5t102 -174.5t122.5 -61v-93zM99 -1v130h462v-130h-462zM760 -1v130h463v-130h-463z" />
    <glyph glyph-name="uni03BC" unicode="&#x3bc;" horiz-adv-x="1229" 
d="M535 -18q-106 0 -188.5 38.5t-129 120t-46.5 211.5v613h190v-596q0 -109 53.5 -165t150.5 -56q82 0 144.5 43t98.5 122t36 187h60q0 -169 -46 -284.5t-129 -174.5t-194 -59zM171 -402v1367h190v-1367h-190zM844 0v965h190v-965h-190z" />
    <glyph glyph-name="pi" unicode="&#x3c0;" horiz-adv-x="1241" 
d="M1092 -11q-105 0 -181.5 47t-117.5 137t-41 219v571h189v-571q0 -125 57.5 -179t142.5 -54zM292 0v962h190v-962h-190zM51 799v165h1155v-165h-1155z" />
    <glyph glyph-name="zero.tf" 
d="M600 -26q-152 0 -267.5 73.5t-179.5 220.5t-64 369q0 223 64 369.5t179.5 218.5t267.5 72t267 -72t179.5 -218.5t64.5 -369.5q0 -222 -64.5 -369t-179.5 -220.5t-267 -73.5zM600 149q153 0 234 126.5t81 361.5q0 234 -81 361t-234 127q-152 0 -233.5 -127t-81.5 -361
q0 -235 81.5 -361.5t233.5 -126.5z" />
    <glyph glyph-name="one.tf" 
d="M256 0v150h299l-47 -47v1017l56 -31q-64 -46 -130.5 -70t-131.5 -27v184q64 8 126 32.5t120 70.5h150v-1176l-49 47h302v-150h-695z" />
    <glyph glyph-name="two.tf" 
d="M135 0v201q0 109 34 183t99 124.5t157 86.5l255 100q93 37 138.5 93.5t45.5 141.5q0 87 -61.5 144t-173.5 57q-109 0 -180.5 -50t-81.5 -147h-210q4 119 64.5 200t165 122t239.5 41q126 0 226 -48t158.5 -132.5t58.5 -196.5q0 -98 -36 -172t-105 -128.5t-170 -93.5
l-261 -103q-88 -35 -130 -80t-42 -117v-51h733v-175h-923z" />
    <glyph glyph-name="three.tf" 
d="M607 -26q-99 0 -190.5 27t-163.5 80t-114 131.5t-42 181.5h199q3 -78 44 -133t110.5 -83.5t156.5 -28.5q131 0 205 63t74 158q0 61 -30.5 107t-95 71.5t-167.5 25.5h-156v150h119q131 0 207 54.5t76 148.5q0 84 -63 141t-183 57q-95 0 -169 -38.5t-96 -137.5h-200
q15 124 78.5 200.5t162 112t219.5 35.5q131 0 234 -44.5t162.5 -123.5t59.5 -182q0 -99 -56 -170.5t-162 -109.5q118 -36 191.5 -114.5t73.5 -198.5q0 -111 -59.5 -197t-168 -134.5t-256.5 -48.5z" />
    <glyph glyph-name="four.tf" 
d="M723 1290h181v-877l-39 30h242v-145h-240l37 47v-345h-187v345l58 -47h-703v145zM724 1099l66 -9l-539 -695l-6 48h536l-57 -49v705z" />
    <glyph glyph-name="five.tf" 
d="M588 -26q-127 0 -229.5 45.5t-162.5 133.5t-62 213h193q0 -107 75.5 -162t185.5 -55q124 0 198.5 77.5t74.5 190.5q0 110 -74.5 167t-219.5 57h-362l58 633h730v-174h-578l38 60l-41 -415l-20 19q48 11 111.5 16t111.5 5q203 0 322.5 -93.5t119.5 -274.5q0 -125 -58 -225
t-162.5 -159t-248.5 -59z" />
    <glyph glyph-name="six.tf" 
d="M622 -26q-157 0 -274 84t-182.5 229t-65.5 327q0 217 66.5 369.5t187 233t285.5 80.5q119 0 209.5 -44.5t144.5 -124.5t62 -187h-203q-12 84 -62.5 134t-145.5 50q-164 0 -257.5 -143.5t-93.5 -389.5q0 -34 2 -77t5 -80q13 129 66 202.5t131 104.5t165 31
q117 0 208.5 -51t144 -141.5t52.5 -207.5q0 -119 -56.5 -209t-156 -140t-232.5 -50zM622 149q104 0 176 62.5t72 167.5q0 108 -72 170t-177 62q-68 0 -124.5 -30t-89.5 -82t-33 -120q0 -105 72 -167.5t176 -62.5z" />
    <glyph glyph-name="seven.tf" 
d="M153 1274h880v-179l-568 -1095h-255l599 1092h-656v182z" />
    <glyph glyph-name="eight.tf" 
d="M598 -26q-156 0 -273.5 48.5t-183.5 132t-66 188.5q0 94 50 161t135.5 102.5t193.5 35.5q35 0 65.5 -5t68.5 -14v-51q-92 0 -163.5 -29.5t-111.5 -77.5t-40 -105q0 -67 43 -114t117 -72t165 -25q160 0 244 47.5t84 121.5q0 60 -43.5 100t-117.5 69l-357 137
q-65 24 -132 68t-112.5 109.5t-45.5 154.5q0 102 57 179t164.5 119.5t258.5 42.5q137 0 245 -46t171 -127t63 -185q0 -77 -40 -142t-117.5 -105t-189.5 -40q-32 0 -59.5 4.5t-61.5 15.5v58q75 0 136 24.5t97.5 69.5t36.5 104t-35.5 103t-98.5 69t-147 25q-80 0 -144 -23.5
t-101 -63.5t-37 -89q0 -60 40.5 -97t114.5 -64l363 -139q140 -54 214.5 -125.5t74.5 -196.5q0 -102 -62 -182t-179 -125.5t-284 -45.5z" />
    <glyph glyph-name="nine.tf" 
d="M574 -26q-129 0 -230.5 52t-159.5 143t-58 208h198q4 -105 70 -166.5t174 -61.5q115 0 185.5 66t103.5 185.5t33 280.5q0 35 -2 66.5t-8 68.5q-15 -109 -65.5 -178.5t-126.5 -103t-168 -33.5q-116 0 -207 51t-143.5 141.5t-52.5 207.5q0 120 56 209t156 138t229 49
q112 0 208 -45t167 -129t110.5 -201t39.5 -262q0 -210 -55.5 -363.5t-168.5 -238t-285 -84.5zM561 663q70 0 125.5 30t88.5 82t33 117q0 107 -72 169.5t-178 62.5q-104 0 -174.5 -62.5t-70.5 -169.5t71 -168t177 -61z" />
    <glyph glyph-name="uni2080" unicode="&#x2080;" horiz-adv-x="880" 
d="M439 -10q-137 0 -222.5 98.5t-85.5 300.5q0 201 85.5 299.5t222.5 98.5q138 0 223.5 -98.5t85.5 -299.5q0 -202 -85.5 -300.5t-223.5 -98.5zM439 95q93 0 142 76.5t49 217.5t-49 217.5t-142 76.5q-90 0 -139.5 -76.5t-49.5 -217.5t49.5 -217.5t139.5 -76.5z" />
    <glyph glyph-name="uni2081" unicode="&#x2081;" horiz-adv-x="880" 
d="M230 0v91h180l-28 -29v613l34 -19q-39 -28 -78.5 -42.5t-79.5 -15.5v110q38 5 75.5 19.5t72.5 43.5h90v-709l-29 29h182v-91h-419z" />
    <glyph glyph-name="uni2082" unicode="&#x2082;" horiz-adv-x="880" 
d="M158 0v122q0 98 46 150.5t129 85.5l154 60q56 23 83.5 57t27.5 86t-37 86.5t-105 34.5q-66 0 -108.5 -30.5t-48.5 -88.5h-128q4 71 40 120t99 74t144 25q76 0 136.5 -29t95.5 -80.5t35 -117.5q0 -89 -48.5 -145.5t-137.5 -92.5l-158 -62q-54 -21 -79 -48t-25 -71v-31h442
v-105h-557z" />
    <glyph glyph-name="uni2083" unicode="&#x2083;" horiz-adv-x="880" 
d="M448 -15q-79 0 -149.5 28.5t-114 84.5t-43.5 139h120q3 -70 55.5 -109t131.5 -39t123.5 38.5t44.5 95.5q0 55 -41.5 89t-134.5 34h-94v90h71q79 0 125 32.5t46 89.5q0 51 -38 85.5t-110 34.5q-58 0 -102.5 -23.5t-57.5 -83.5h-120q13 112 90 161.5t187 49.5
q118 0 196 -59t78 -152q0 -60 -33.5 -103.5t-97.5 -65.5q72 -22 116 -69.5t44 -118.5q0 -101 -79 -165t-213 -64z" />
    <glyph glyph-name="uni2084" unicode="&#x2084;" horiz-adv-x="855" 
d="M523 777h109v-528l-23 18h145v-88h-144l22 29v-208h-113v208l35 -29h-423v88zM524 662l39 -6l-324 -418l-4 29h323l-34 -30v425z" />
    <glyph glyph-name="uni2085" unicode="&#x2085;" horiz-adv-x="880" 
d="M436 -15q-76 0 -138 27t-98 80t-37 128h116q0 -64 45.5 -97.5t111.5 -33.5q75 0 120 47t45 115q0 66 -45 100.5t-132 34.5h-218l34 381h441v-104h-349l23 35l-24 -249l-13 11q29 6 67.5 9.5t67.5 3.5q122 0 194 -56.5t72 -165.5q0 -75 -35 -135.5t-98.5 -95.5t-149.5 -35
z" />
    <glyph glyph-name="uni2086" unicode="&#x2086;" horiz-adv-x="880" 
d="M464 -15q-95 0 -165.5 50.5t-110 137.5t-39.5 197q0 195 88 303.5t237 108.5q108 0 176 -59.5t75 -155.5h-123q-7 51 -37.5 81t-87.5 30q-99 0 -155 -86.5t-56 -234.5q0 -21 0.5 -47t3.5 -49q7 78 39 123t79 63.5t100 18.5q106 0 174.5 -68t68.5 -174q0 -107 -74 -173
t-193 -66zM464 89q62 0 105.5 38t43.5 101q0 66 -43.5 103t-106.5 37q-62 0 -105 -39.5t-43 -100.5q0 -63 43 -101t106 -38z" />
    <glyph glyph-name="uni2087" unicode="&#x2087;" horiz-adv-x="880" 
d="M178 767h530v-107l-341 -660h-154l361 658h-396v109z" />
    <glyph glyph-name="uni2088" unicode="&#x2088;" horiz-adv-x="880" 
d="M439 -15q-93 0 -164 28.5t-111 79t-40 114.5q0 85 65.5 132.5t162.5 47.5q22 0 40 -3t42 -9v-30q-85 0 -137.5 -38.5t-52.5 -89.5q0 -61 56 -94.5t139 -33.5q96 0 147 29t51 73q0 37 -26.5 61t-70.5 41l-215 83q-39 15 -79.5 41t-68 65.5t-27.5 93.5q0 92 76.5 149
t212.5 57q83 0 148 -28.5t103 -77t38 -111.5q0 -69 -54 -121t-155 -52q-20 0 -36 3t-37 10v34q66 0 114 33t48 87q0 52 -47 85.5t-122 33.5q-72 0 -121 -31t-49 -76q0 -36 24.5 -58t69.5 -39l218 -83q85 -33 129.5 -76t44.5 -118q0 -93 -82.5 -152.5t-233.5 -59.5z" />
    <glyph glyph-name="uni2089" unicode="&#x2089;" horiz-adv-x="880" 
d="M424 -15q-77 0 -138 31t-96 85.5t-35 125.5h119q2 -63 42 -100.5t105 -37.5q104 0 149 88t45 233q0 21 -1.5 40t-4.5 42q-14 -99 -73.5 -144.5t-142.5 -45.5q-106 0 -175 67.5t-69 172.5q0 109 74.5 174.5t192.5 65.5q89 0 160.5 -48t113.5 -134.5t42 -201.5
q0 -190 -76 -301.5t-232 -111.5zM417 399q63 0 106 39.5t43 98.5q0 65 -43.5 102.5t-106.5 37.5t-106 -37.5t-43 -102.5q0 -64 43 -101t107 -37z" />
    <glyph glyph-name="zero.dnom" horiz-adv-x="880" 
d="M439 -10q-137 0 -222.5 99t-85.5 300t85.5 299.5t222.5 98.5q138 0 223.5 -98.5t85.5 -299.5t-85.5 -300t-223.5 -99zM439 95q93 0 142 76.5t49 217.5t-49 217.5t-142 76.5q-90 0 -139.5 -76.5t-49.5 -217.5t49.5 -217.5t139.5 -76.5z" />
    <glyph glyph-name="one.dnom" horiz-adv-x="880" 
d="M230 0v91h180l-28 -29v613l34 -19q-39 -28 -78.5 -42.5t-79.5 -15.5v110q38 5 75.5 19.5t72.5 43.5h90v-709l-29 29h182v-91h-419z" />
    <glyph glyph-name="two.dnom" horiz-adv-x="880" 
d="M158 0v122q0 98 46 151t129 85l154 60q56 23 83.5 57t27.5 86t-37 86.5t-105 34.5q-65 0 -108 -30.5t-49 -88.5h-128q4 71 40.5 120t99 74t143.5 25q76 0 136.5 -29t95.5 -80t35 -118q0 -89 -48 -146t-138 -92l-158 -62q-53 -21 -78.5 -48t-25.5 -71v-31h442v-105h-557z
" />
    <glyph glyph-name="three.dnom" horiz-adv-x="880" 
d="M448 -15q-78 0 -149 28.5t-114.5 85t-43.5 138.5h120q3 -70 55.5 -109t131.5 -39t123.5 38.5t44.5 95.5q0 56 -41.5 89.5t-134.5 33.5h-94v90h71q80 0 125.5 32.5t45.5 89.5q0 51 -38 85.5t-110 34.5q-57 0 -102 -23t-58 -84h-120q14 112 90.5 161.5t186.5 49.5
q118 0 196 -59t78 -152q0 -60 -33.5 -103.5t-97.5 -65.5q72 -22 116 -69t44 -119q0 -101 -79 -165t-213 -64z" />
    <glyph glyph-name="four.dnom" horiz-adv-x="855" 
d="M523 777h109v-528l-23 18h145v-88h-144l22 29v-208h-113v208l35 -29h-423v88zM524 662l39 -6l-324 -418l-4 29h323l-34 -30v425z" />
    <glyph glyph-name="five.dnom" horiz-adv-x="880" 
d="M436 -15q-77 0 -138.5 27.5t-97.5 80t-38 127.5h116q0 -64 46 -97.5t112 -33.5q74 0 119 47t45 115q0 66 -45 100.5t-132 34.5h-218l35 381h440v-104h-348l22 35l-24 -249l-12 11q29 7 67.5 10t67.5 3q121 0 193 -56.5t72 -165.5q0 -75 -34.5 -135t-98 -95.5
t-149.5 -35.5z" />
    <glyph glyph-name="six.dnom" horiz-adv-x="880" 
d="M464 -15q-95 0 -166 50t-110 137t-39 198q0 195 88 303.5t236 108.5q109 0 176.5 -59.5t75.5 -155.5h-123q-8 51 -38.5 81t-86.5 30q-99 0 -155.5 -86.5t-56.5 -234.5q0 -21 1 -47t4 -49q7 78 38.5 123t79 63.5t99.5 18.5q106 0 175 -68t69 -174q0 -107 -74 -173
t-193 -66zM464 89q62 0 105.5 38t43.5 101q0 66 -43.5 103t-106.5 37t-106 -39t-43 -101q0 -63 43.5 -101t106.5 -38z" />
    <glyph glyph-name="seven.dnom" horiz-adv-x="880" 
d="M179 767h530v-107l-341 -660h-154l361 658h-396v109z" />
    <glyph glyph-name="eight.dnom" horiz-adv-x="880" 
d="M439 -15q-93 0 -164 28.5t-111 79t-40 114.5q0 85 66 132.5t162 47.5q22 0 40 -3t42 -9v-30q-85 0 -137.5 -38.5t-52.5 -89.5q0 -61 56 -94.5t139 -33.5q96 0 147 29t51 73q0 37 -26 61.5t-71 40.5l-215 83q-39 15 -79.5 41t-68 65.5t-27.5 93.5q0 91 76.5 148.5
t212.5 57.5q83 0 148 -28.5t103 -77t38 -111.5q0 -68 -54 -120.5t-155 -52.5q-19 0 -35.5 3t-37.5 10v34q67 0 114.5 33t47.5 87q0 53 -47 86t-122 33q-72 0 -121 -31t-49 -76q0 -36 24.5 -58t69.5 -39l218 -83q85 -32 129.5 -75.5t44.5 -118.5q0 -92 -82.5 -152t-233.5 -60
z" />
    <glyph glyph-name="nine.dnom" horiz-adv-x="880" 
d="M424 -15q-77 0 -138 31t-96 85.5t-35 125.5h119q3 -62 42.5 -100t104.5 -38q104 0 149 88t45 233q0 21 -1 40t-5 42q-14 -99 -73.5 -144.5t-142.5 -45.5q-105 0 -174.5 67.5t-69.5 172.5q0 109 74.5 174.5t192.5 65.5q90 0 161 -48t113 -134t42 -202q0 -189 -76 -301
t-232 -112zM417 399q63 0 106 39.5t43 98.5q0 65 -43.5 102.5t-106.5 37.5t-106 -37.5t-43 -102.5t43 -101.5t107 -36.5z" />
    <glyph glyph-name="zero.numr" horiz-adv-x="880" 
d="M439 590q-137 0 -222.5 99t-85.5 300t85.5 299.5t222.5 98.5q138 0 223.5 -98.5t85.5 -299.5t-85.5 -300t-223.5 -99zM439 695q93 0 142 76.5t49 217.5t-49 217.5t-142 76.5q-90 0 -139.5 -76.5t-49.5 -217.5t49.5 -217.5t139.5 -76.5z" />
    <glyph glyph-name="one.numr" horiz-adv-x="880" 
d="M230 600v91h180l-28 -29v613l34 -19q-39 -28 -78.5 -42.5t-79.5 -15.5v110q38 5 75.5 19.5t72.5 43.5h90v-709l-29 29h182v-91h-419z" />
    <glyph glyph-name="two.numr" horiz-adv-x="880" 
d="M158 600v122q0 98 46 151t129 85l154 60q56 23 83.5 57t27.5 86t-37 86.5t-105 34.5q-65 0 -108 -30.5t-49 -88.5h-128q4 71 40.5 120t99 74t143.5 25q76 0 136.5 -29t95.5 -80t35 -118q0 -89 -48 -146t-138 -92l-158 -62q-53 -21 -78.5 -48t-25.5 -71v-31h442v-105h-557
z" />
    <glyph glyph-name="three.numr" horiz-adv-x="880" 
d="M448 585q-78 0 -149 28.5t-114.5 85t-43.5 138.5h120q3 -70 55.5 -109t131.5 -39t123.5 38.5t44.5 95.5q0 56 -41.5 89.5t-134.5 33.5h-94v90h71q80 0 125.5 32.5t45.5 89.5q0 51 -38 85.5t-110 34.5q-57 0 -102 -23t-58 -84h-120q14 112 90.5 161.5t186.5 49.5
q118 0 196 -59t78 -152q0 -60 -33.5 -103.5t-97.5 -65.5q72 -22 116 -69t44 -119q0 -101 -79 -165t-213 -64z" />
    <glyph glyph-name="four.numr" horiz-adv-x="855" 
d="M523 1377h109v-528l-23 18h145v-88h-144l22 29v-208h-113v208l35 -29h-423v88zM524 1262l39 -6l-324 -418l-4 29h323l-34 -30v425z" />
    <glyph glyph-name="five.numr" horiz-adv-x="880" 
d="M436 585q-77 0 -138.5 27.5t-97.5 80t-38 127.5h116q0 -64 46 -97.5t112 -33.5q74 0 119 47t45 115q0 66 -45 100.5t-132 34.5h-218l35 381h440v-104h-348l22 35l-24 -249l-12 11q29 7 67.5 10t67.5 3q121 0 193 -56.5t72 -165.5q0 -75 -34.5 -135t-98 -95.5
t-149.5 -35.5z" />
    <glyph glyph-name="six.numr" horiz-adv-x="880" 
d="M464 585q-95 0 -166 50t-110 137.5t-39 197.5q0 195 88 303.5t236 108.5q109 0 176.5 -59.5t75.5 -155.5h-123q-8 51 -38.5 81t-86.5 30q-99 0 -155.5 -86.5t-56.5 -234.5q0 -21 1 -47t4 -49q7 78 38.5 123t79 63.5t99.5 18.5q106 0 175 -68t69 -174q0 -107 -74 -173
t-193 -66zM464 689q62 0 105.5 38t43.5 101q0 66 -43.5 103t-106.5 37t-106 -39t-43 -101q0 -63 43.5 -101t106.5 -38z" />
    <glyph glyph-name="seven.numr" horiz-adv-x="880" 
d="M179 1367h530v-107l-341 -660h-154l361 658h-396v109z" />
    <glyph glyph-name="eight.numr" horiz-adv-x="880" 
d="M439 585q-93 0 -164 28.5t-111 79t-40 114.5q0 85 66 132.5t162 47.5q22 0 40 -3t42 -9v-30q-85 0 -137.5 -38.5t-52.5 -89.5q0 -61 56 -94.5t139 -33.5q96 0 147 29t51 73q0 37 -26 61.5t-71 40.5l-215 83q-39 15 -79.5 41t-68 65.5t-27.5 93.5q0 91 76.5 148.5
t212.5 57.5q83 0 148 -28.5t103 -77t38 -111.5q0 -68 -54 -120.5t-155 -52.5q-19 0 -35.5 3t-37.5 10v34q67 0 114.5 33t47.5 87q0 53 -47 86t-122 33q-72 0 -121 -31t-49 -76q0 -36 24.5 -58t69.5 -39l218 -83q85 -32 129.5 -75.5t44.5 -118.5q0 -92 -82.5 -152t-233.5 -60
z" />
    <glyph glyph-name="nine.numr" horiz-adv-x="880" 
d="M424 585q-77 0 -138 31t-96 85.5t-35 125.5h119q3 -62 42.5 -100t104.5 -38q104 0 149 88t45 233q0 21 -1 40t-5 42q-14 -99 -73.5 -144.5t-142.5 -45.5q-105 0 -174.5 67.5t-69.5 172.5q0 109 74.5 174.5t192.5 65.5q90 0 161 -48t113 -134t42 -202q0 -189 -76 -301
t-232 -112zM417 999q63 0 106 39.5t43 98.5q0 65 -43.5 102.5t-106.5 37.5t-106 -37.5t-43 -102.5t43 -101.5t107 -36.5z" />
    <glyph glyph-name="uni2070" unicode="&#x2070;" horiz-adv-x="880" 
d="M439 590q-137 0 -222.5 99t-85.5 300t85.5 299.5t222.5 98.5q138 0 223.5 -98.5t85.5 -299.5t-85.5 -300t-223.5 -99zM439 695q93 0 142 76.5t49 217.5t-49 217.5t-142 76.5q-90 0 -139.5 -76.5t-49.5 -217.5t49.5 -217.5t139.5 -76.5z" />
    <glyph glyph-name="uni00B9" unicode="&#xb9;" horiz-adv-x="880" 
d="M230 600v91h180l-28 -29v613l34 -19q-39 -28 -78.5 -42.5t-79.5 -15.5v110q38 5 75.5 19.5t72.5 43.5h90v-709l-29 29h182v-91h-419z" />
    <glyph glyph-name="uni00B2" unicode="&#xb2;" horiz-adv-x="880" 
d="M158 600v122q0 98 46 151t129 85l154 60q56 23 83.5 57t27.5 86t-37 86.5t-105 34.5q-65 0 -108 -30.5t-49 -88.5h-128q4 71 40.5 120t99 74t143.5 25q76 0 136.5 -29t95.5 -80t35 -118q0 -89 -48 -146t-138 -92l-158 -62q-53 -21 -78.5 -48t-25.5 -71v-31h442v-105h-557
z" />
    <glyph glyph-name="uni00B3" unicode="&#xb3;" horiz-adv-x="880" 
d="M448 585q-78 0 -149 28.5t-114.5 85t-43.5 138.5h120q3 -70 55.5 -109t131.5 -39t123.5 38.5t44.5 95.5q0 56 -41.5 89.5t-134.5 33.5h-94v90h71q80 0 125.5 32.5t45.5 89.5q0 51 -38 85.5t-110 34.5q-57 0 -102 -23t-58 -84h-120q14 112 90.5 161.5t186.5 49.5
q118 0 196 -59t78 -152q0 -60 -33.5 -103.5t-97.5 -65.5q72 -22 116 -69t44 -119q0 -101 -79 -165t-213 -64z" />
    <glyph glyph-name="uni2074" unicode="&#x2074;" horiz-adv-x="880" 
d="M524 1377h109v-528l-23 18h145v-88h-144l22 29v-208h-113v208l35 -29h-423v88zM525 1262l39 -6l-324 -418l-4 29h323l-34 -30v425z" />
    <glyph glyph-name="uni2075" unicode="&#x2075;" horiz-adv-x="880" 
d="M436 585q-77 0 -138.5 27.5t-97.5 80t-38 127.5h116q0 -64 46 -97.5t112 -33.5q74 0 119 47t45 115q0 66 -45 100.5t-132 34.5h-218l35 381h440v-104h-348l22 35l-24 -249l-12 11q29 7 67.5 10t67.5 3q121 0 193 -56.5t72 -165.5q0 -75 -34.5 -135t-98 -95.5
t-149.5 -35.5z" />
    <glyph glyph-name="uni2076" unicode="&#x2076;" horiz-adv-x="880" 
d="M464 585q-95 0 -166 50t-110 137.5t-39 197.5q0 195 88 303.5t236 108.5q109 0 176.5 -59.5t75.5 -155.5h-123q-8 51 -38.5 81t-86.5 30q-99 0 -155.5 -86.5t-56.5 -234.5q0 -21 1 -47t4 -49q7 78 38.5 123t79 63.5t99.5 18.5q106 0 175 -68t69 -174q0 -107 -74 -173
t-193 -66zM464 689q62 0 105.5 38t43.5 101q0 66 -43.5 103t-106.5 37t-106 -39t-43 -101q0 -63 43.5 -101t106.5 -38z" />
    <glyph glyph-name="uni2077" unicode="&#x2077;" horiz-adv-x="880" 
d="M179 1367h530v-107l-341 -660h-154l361 658h-396v109z" />
    <glyph glyph-name="uni2078" unicode="&#x2078;" horiz-adv-x="880" 
d="M439 585q-93 0 -164 28.5t-111 79t-40 114.5q0 85 66 132.5t162 47.5q22 0 40 -3t42 -9v-30q-85 0 -137.5 -38.5t-52.5 -89.5q0 -61 56 -94.5t139 -33.5q96 0 147 29t51 73q0 37 -26 61.5t-71 40.5l-215 83q-39 15 -79.5 41t-68 65.5t-27.5 93.5q0 91 76.5 148.5
t212.5 57.5q83 0 148 -28.5t103 -77t38 -111.5q0 -68 -54 -120.5t-155 -52.5q-19 0 -35.5 3t-37.5 10v34q67 0 114.5 33t47.5 87q0 53 -47 86t-122 33q-72 0 -121 -31t-49 -76q0 -36 24.5 -58t69.5 -39l218 -83q85 -32 129.5 -75.5t44.5 -118.5q0 -92 -82.5 -152t-233.5 -60
z" />
    <glyph glyph-name="uni2079" unicode="&#x2079;" horiz-adv-x="880" 
d="M424 585q-77 0 -138 31t-96 85.5t-35 125.5h119q3 -62 42.5 -100t104.5 -38q104 0 149 88t45 233q0 21 -1 40t-5 42q-14 -99 -73.5 -144.5t-142.5 -45.5q-105 0 -174.5 67.5t-69.5 172.5q0 109 74.5 174.5t192.5 65.5q90 0 161 -48t113 -134t42 -202q0 -189 -76 -301
t-232 -112zM417 999q63 0 106 39.5t43 98.5q0 65 -43.5 102.5t-106.5 37.5t-106 -37.5t-43 -102.5t43 -101.5t107 -36.5z" />
    <glyph glyph-name="fraction" unicode="&#x2044;" horiz-adv-x="346" 
d="M-345.123 -22.1953l1199.7 1403.72h143.037l-1201.92 -1403.72h-140.825z" />
    <glyph glyph-name="onehalf" unicode="&#xbd;" horiz-adv-x="2000" 
d="M1312 0v122q0 98 46 151t129 85l154 60q56 23 83.5 57t27.5 86t-37 86.5t-105 34.5q-65 0 -108 -30.5t-49 -88.5h-128q3 71 40 120t99.5 74t143.5 25q76 0 136.5 -29t95.5 -80t35 -118q0 -89 -48 -146t-138 -92l-158 -62q-53 -21 -78.5 -48t-25.5 -71v-31h442v-105h-557z
M231 600v91h180l-28 -29v613l34 -19q-39 -28 -78.5 -42.5t-79.5 -15.5v110q39 5 76.5 19.5t71.5 43.5h91v-709l-30 29h182v-91h-419zM376 -19l1110 1371h151l-1113 -1371h-148z" />
    <glyph glyph-name="onequarter" unicode="&#xbc;" horiz-adv-x="2000" 
d="M1630 0v208l36 -29h-423v88l392 510h108v-528l-23 18h146v-88h-145l22 29v-208h-113zM202 600v91h180l-28 -29v613l34 -19q-39 -28 -79 -42.5t-79 -15.5v110q38 5 75.5 19.5t72.5 43.5h90v-709l-29 29h182v-91h-419zM1635 227v435l40 -6l-325 -418l-3 29h322zM380 -19
l1111 1371h151l-1114 -1371h-148z" />
    <glyph glyph-name="threequarters" unicode="&#xbe;" horiz-adv-x="2000" 
d="M459 585q-78 0 -148.5 28.5t-114.5 85t-44 138.5h120q3 -70 56 -109t131 -39q80 0 124.5 38.5t44.5 95.5q0 56 -42 89.5t-135 33.5h-94v90h72q79 0 124.5 32.5t45.5 89.5q0 51 -37.5 85.5t-109.5 34.5q-58 0 -102.5 -23t-58.5 -84h-120q14 112 91 161.5t186 49.5
q119 0 196.5 -59t77.5 -152q0 -60 -33.5 -103.5t-96.5 -65.5q71 -22 115 -69t44 -119q0 -101 -79 -165t-213 -64zM1626 0v208l35 -29h-423v88l392 510h109v-528l-23 18h145v-88h-144l22 29v-208h-113zM1612 227v435l39 -6l-324 -418l-4 29h323zM411 -19l1111 1371h151
l-1114 -1371h-148z" />
    <glyph glyph-name="oneeighth" unicode="&#x215b;" horiz-adv-x="2038" 
d="M333 -19l1111 1371h151l-1114 -1371h-148zM155 600v91h180l-28 -29v613l34 -19q-39 -28 -79 -42.5t-79 -15.5v110q38 5 75.5 19.5t72.5 43.5h90v-709l-29 29h181v-91h-418zM1576 -15q-94 0 -164.5 28.5t-110.5 79t-40 114.5q0 85 65.5 132.5t162.5 47.5q21 0 39.5 -3
t42.5 -9v-30q-85 0 -138 -38.5t-53 -89.5q0 -61 56.5 -94.5t139.5 -33.5q96 0 146.5 29t50.5 73q0 37 -25.5 61.5t-70.5 40.5l-216 83q-38 15 -78.5 41t-68 65.5t-27.5 93.5q0 91 76.5 148.5t212.5 57.5q83 0 148 -28.5t103 -77t38 -111.5q0 -68 -54 -120.5t-155 -52.5
q-19 0 -35.5 3t-37.5 10v34q67 0 114.5 33t47.5 87q0 53 -47 86t-122 33q-73 0 -121.5 -31t-48.5 -76q0 -36 24.5 -57.5t69.5 -39.5l218 -83q84 -32 129 -75.5t45 -118.5q0 -92 -82.5 -152t-233.5 -60z" />
    <glyph glyph-name="threeeighths" unicode="&#x215c;" horiz-adv-x="2000" 
d="M421 585q-79 0 -149.5 28.5t-114.5 85t-44 138.5h121q3 -70 55.5 -109t131.5 -39t123.5 38.5t44.5 95.5q0 56 -41.5 89.5t-134.5 33.5h-95v90h72q79 0 125 32.5t46 89.5q0 51 -38 85.5t-110 34.5q-57 0 -102 -23t-58 -84h-121q15 112 91.5 161.5t186.5 49.5
q118 0 196 -59t78 -152q0 -60 -33.5 -103.5t-97.5 -65.5q72 -22 116 -69t44 -119q0 -101 -79 -165t-213 -64zM1591 -15q-94 0 -164.5 28.5t-110.5 79t-40 114.5q0 85 65.5 132.5t162.5 47.5q22 0 40 -3t42 -9v-30q-85 0 -137.5 -38.5t-52.5 -89.5q0 -61 56 -94.5t139 -33.5
q96 0 146.5 29t50.5 73q0 37 -25.5 61.5t-70.5 40.5l-216 83q-38 15 -78.5 41t-68 65.5t-27.5 93.5q0 91 76.5 148.5t212.5 57.5q83 0 148 -28.5t103 -77t38 -111.5q0 -68 -54 -120.5t-155 -52.5q-19 0 -35.5 3t-37.5 10v34q67 0 114.5 33t47.5 87q0 53 -47 86t-122 33
q-72 0 -121 -31t-49 -76q0 -36 24.5 -57.5t69.5 -39.5l218 -83q84 -32 129 -75.5t45 -118.5q0 -92 -82.5 -152t-233.5 -60zM367 -19l1111 1371h151l-1114 -1371h-148z" />
    <glyph glyph-name="fiveeighths" unicode="&#x215d;" horiz-adv-x="2000" 
d="M391 585q-77 0 -138.5 27.5t-97.5 80t-38 127.5h116q0 -64 45.5 -97.5t112.5 -33.5q74 0 119 47t45 115q0 66 -45 100.5t-132 34.5h-218l34 381h441v-104h-349l23 35l-24 -249l-13 11q29 7 67.5 10t67.5 3q122 0 194 -56.5t72 -165.5q0 -75 -34.5 -135t-98 -95.5
t-149.5 -35.5zM1573 -15q-94 0 -164.5 28.5t-110.5 79t-40 114.5q0 85 65.5 132.5t162.5 47.5q22 0 40 -3t42 -9v-30q-85 0 -137.5 -38.5t-52.5 -89.5q0 -61 56 -94.5t139 -33.5q96 0 146.5 29t50.5 73q0 37 -25.5 61.5t-70.5 40.5l-216 83q-38 15 -78.5 41t-68 65.5
t-27.5 93.5q0 91 76.5 148.5t212.5 57.5q83 0 148 -28.5t103 -77t38 -111.5q0 -68 -54 -120.5t-155 -52.5q-19 0 -35.5 3t-37.5 10v34q67 0 114.5 33t47.5 87q0 53 -47 86t-122 33q-73 0 -121.5 -31t-48.5 -76q0 -36 24.5 -57.5t69.5 -39.5l218 -83q84 -32 129 -75.5
t45 -118.5q0 -92 -82.5 -152t-233.5 -60zM355 -18l1111 1372h151l-1114 -1372h-148z" />
    <glyph glyph-name="seveneighths" unicode="&#x215e;" horiz-adv-x="2038" 
d="M286 -19l1111 1371h151l-1114 -1371h-148zM226 600l360 658h-395v109h530v-107l-341 -660h-154zM1544 -15q-93 0 -164 28.5t-111 79t-40 114.5q0 85 66 132.5t162 47.5q22 0 40 -3t42 -9v-30q-85 0 -137.5 -38.5t-52.5 -89.5q0 -61 56 -94.5t139 -33.5q96 0 147 29t51 73
q0 37 -26 61.5t-71 40.5l-215 83q-39 15 -79.5 41t-68 65.5t-27.5 93.5q0 91 76.5 148.5t212.5 57.5q83 0 148 -28.5t103 -77t38 -111.5q0 -68 -54 -120.5t-155 -52.5q-19 0 -35.5 3t-37.5 10v34q68 0 115 33t47 87q0 53 -47 86t-122 33q-72 0 -120.5 -31t-48.5 -76
q0 -36 24 -57.5t69 -39.5l218 -83q85 -32 129.5 -75.5t44.5 -118.5q0 -92 -82.5 -152t-233.5 -60z" />
    <glyph glyph-name="ellipsis" unicode="&#x2026;" horiz-adv-x="1184" 
d="M55 113q0 55 38.5 94.5t97.5 39.5q60 0 100.5 -39.5t40.5 -94.5q0 -56 -40.5 -93.5t-100.5 -37.5q-59 0 -97.5 37.5t-38.5 93.5zM462 113q0 55 38.5 94.5t97.5 39.5q60 0 100.5 -39.5t40.5 -94.5q0 -56 -40.5 -93.5t-100.5 -37.5q-59 0 -97.5 37.5t-38.5 93.5zM850 113
q0 55 38.5 94.5t97.5 39.5q60 0 100.5 -39.5t40.5 -94.5q0 -56 -40.5 -93.5t-100.5 -37.5q-59 0 -97.5 37.5t-38.5 93.5z" />
    <glyph glyph-name="exclamdown" unicode="&#xa1;" horiz-adv-x="568" 
d="M210 875l-23 -896h204l-23 896h-158zM289 1281q-59 0 -98 -37.5t-39 -93.5q0 -55 39 -94.5t98 -39.5t99.5 39.5t40.5 94.5q0 56 -40.5 93.5t-99.5 37.5z" />
    <glyph glyph-name="questiondown" unicode="&#xbf;" horiz-adv-x="1013" 
d="M634 906v-86q0 -87 -19.5 -143t-62.5 -96t-117 -78q-66 -35 -103.5 -64t-53.5 -62.5t-16 -80.5q0 -71 58.5 -118.5t159.5 -47.5q115 0 176.5 48t74.5 130h200q-12 -157 -124.5 -253.5t-320.5 -96.5q-134 0 -230.5 45.5t-149 123t-52.5 173.5q0 103 52.5 174t166.5 130
q65 35 103 65t53.5 68t15.5 99v70h189zM535 1281q60 0 98 -38.5t38 -91.5q0 -56 -37.5 -95t-97.5 -39t-100.5 38.5t-40.5 94.5q0 54 40.5 92.5t99.5 38.5z" />
    <glyph glyph-name="periodcentered" unicode="&#xb7;" horiz-adv-x="388" 
d="M55 520q0 55 38.5 94.5t97.5 39.5q60 0 100.5 -39.5t40.5 -94.5q0 -56 -40.5 -93.5t-100.5 -37.5q-59 0 -97.5 37.5t-38.5 93.5z" />
    <glyph glyph-name="bullet" unicode="&#x2022;" horiz-adv-x="631" 
d="M85 537q0 62 29.5 112.5t81 81t116.5 30.5q67 0 119.5 -30t83.5 -81t31 -113q0 -61 -31 -110.5t-83.5 -78t-119.5 -28.5q-65 0 -116.5 28.5t-81 78t-29.5 110.5z" />
    <glyph glyph-name="period.tf" horiz-adv-x="507" 
d="M251 -24q-64 0 -106 41.5t-42 102.5q0 60 42 102t106 42q66 0 109.5 -42t43.5 -102q0 -61 -43.5 -102.5t-109.5 -41.5z" />
    <glyph glyph-name="comma.tf" horiz-adv-x="598" 
d="M271 -250l-155 75q68 35 117.5 78.5t65.5 99.5q-55 8 -92.5 41.5t-37.5 87.5t40.5 92.5t106.5 38.5q79 0 126.5 -57t47.5 -139q0 -59 -25.5 -119t-74 -112t-119.5 -86z" />
    <glyph glyph-name="colon.tf" horiz-adv-x="507" 
d="M115 165q0 55 38.5 94.5t97.5 39.5q60 0 100.5 -39.5t40.5 -94.5q0 -56 -40.5 -93.5t-100.5 -37.5q-59 0 -97.5 37.5t-38.5 93.5zM115 771q0 55 38.5 94.5t97.5 39.5q60 0 100.5 -39.5t40.5 -94.5q0 -56 -40.5 -93.5t-100.5 -37.5q-59 0 -97.5 37.5t-38.5 93.5z" />
    <glyph glyph-name="semicolon.tf" horiz-adv-x="598" 
d="M271 -250l-155 75q68 35 117 78.5t66 99.5q-55 8 -92.5 41.5t-37.5 87.5t40.5 92.5t105.5 38.5q79 0 127 -57t48 -139q0 -59 -25.5 -119t-74 -112t-119.5 -86zM182 771q0 55 38.5 94.5t97.5 39.5q60 0 100.5 -39.5t40.5 -94.5q0 -56 -40.5 -93.5t-100.5 -37.5
q-59 0 -97.5 37.5t-38.5 93.5z" />
    <glyph glyph-name="exclam.tf" horiz-adv-x="598" 
d="M218 388l-22 896h204l-23 -896h-159zM297 -18q-59 0 -97.5 37.5t-38.5 93.5q0 55 38.5 94.5t97.5 39.5q61 0 100.5 -39.5t39.5 -94.5q0 -56 -39.5 -93.5t-100.5 -37.5z" />
    <glyph glyph-name="question.tf" horiz-adv-x="1073" 
d="M395 349v86q0 87 19.5 142.5t63.5 95.5t117 79q65 36 102.5 65t54 62t16.5 80q0 71 -58.5 118.5t-160.5 47.5q-115 0 -176 -48t-75 -130h-200q13 157 125 253.5t319 96.5q135 0 232 -45.5t149 -123t52 -173.5q0 -103 -52 -173t-166 -131q-65 -34 -103 -64.5t-53.5 -68.5
t-15.5 -99v-70h-190zM494 -26q-60 0 -98 38.5t-38 92.5q0 55 38 94t98 39q59 0 99 -39t40 -94q0 -54 -40 -92.5t-99 -38.5z" />
    <glyph glyph-name="asterisk.tf" horiz-adv-x="811" 
d="M251 783l-100 88l177 170l-229 79l53 120l206 -103l-20 248h137l-21 -248l206 106l53 -123l-226 -77l177 -172l-103 -88l-153 206z" />
    <glyph glyph-name="numbersign.tf" 
d="M233 83l27 243h-174l12 126h176l37 339h-177l13 128h178l27 240h179l-28 -240h256l27 240h177l-27 -240h178l-15 -128h-177l-37 -339h180l-14 -126h-180l-28 -243h-179l27 243h-253l-27 -243h-178zM453 452h253l38 339h-255z" />
    <glyph glyph-name="slash.tf" 
d="M251 -151l506 1625h193l-507 -1625h-192z" />
    <glyph glyph-name="backslash.tf" 
d="M250 1474l507 -1625h194l-510 1625h-191z" />
    <glyph glyph-name="parenleft.tf" horiz-adv-x="891" 
d="M580 1477l137 -98q-114 -117 -190.5 -240t-115 -251.5t-38.5 -264.5q0 -202 86.5 -389.5t257.5 -363.5l-137 -101q-203 184 -304 401.5t-101 452.5q0 237 101 454.5t304 399.5z" />
    <glyph glyph-name="parenright.tf" horiz-adv-x="891" 
d="M312 -231l-139 101q173 176 259.5 363.5t86.5 389.5q0 136 -38.5 264.5t-115.5 251.5t-192 240l139 98q202 -182 303.5 -399.5t101.5 -454.5q0 -157 -45 -306.5t-135 -287.5t-225 -260z" />
    <glyph glyph-name="braceleft.tf" horiz-adv-x="891" 
d="M732 -291q-166 0 -268 62t-148.5 172t-46.5 249v182q0 85 -15.5 119t-54.5 34h-40v189h40q39 0 54.5 33t15.5 119v184q0 141 46.5 249.5t148.5 170.5t268 62v-169q-147 0 -211 -79.5t-64 -235.5v-189q0 -94 -32.5 -151.5t-83.5 -83.5v-8q51 -26 83.5 -83.5t32.5 -152.5
v-188q0 -157 64 -236t211 -79v-170z" />
    <glyph glyph-name="braceright.tf" horiz-adv-x="891" 
d="M159 -291q166 0 268 62t148.5 172t46.5 249v182q0 85 15.5 119t54.5 34h40v189h-40q-39 0 -54.5 33t-15.5 119v184q0 141 -46.5 249.5t-148.5 170.5t-268 62v-169q147 0 211 -79.5t64 -235.5v-189q0 -94 32.5 -151.5t83.5 -83.5v-8q-51 -26 -83.5 -83.5t-32.5 -152.5
v-188q0 -157 -64 -236t-211 -79v-170z" />
    <glyph glyph-name="bracketleft.tf" horiz-adv-x="891" 
d="M227 -236v1747h437v-170h-247v-1407h247v-170h-437z" />
    <glyph glyph-name="bracketright.tf" horiz-adv-x="1037" 
d="M737 -236v1747h-437v-170h247v-1407h-247v-170h437z" />
    <glyph glyph-name="uni00AD" unicode="&#xad;" 
d="M83 508v166h552v-166h-552z" />
    <glyph glyph-name="hyphen.tf" horiz-adv-x="800" 
d="M124 508v166h552v-166h-552z" />
    <glyph glyph-name="underscore.tf" 
d="M35 -193v166h1268v-166h-1268z" />
    <glyph glyph-name="quotesinglbase" unicode="&#x201a;" 
d="M200 -250l-155 75q68 35 117 78.5t66 99.5q-55 8 -92.5 41.5t-37.5 87.5t40.5 92.5t105.5 38.5q79 0 127 -57t48 -139q0 -59 -25.5 -119t-74 -112t-119.5 -86z" />
    <glyph glyph-name="quotedblbase" unicode="&#x201e;" 
d="M200 -250l-155 75q68 35 117 78.5t66 99.5q-55 8 -92.5 41.5t-37.5 87.5t40.5 92.5t105.5 38.5q79 0 127 -57t48 -139q0 -59 -25.5 -119t-74 -112t-119.5 -86zM200 -250l-155 75q68 35 117 78.5t66 99.5q-55 8 -92.5 41.5t-37.5 87.5t40.5 92.5t105.5 38.5q79 0 127 -57
t48 -139q0 -59 -25.5 -119t-74 -112t-119.5 -86z" />
    <glyph glyph-name="quotedblleft" unicode="&#x201c;" 
d="M232 804q-72 0 -116 52.5t-44 130.5q0 54 25 107.5t71.5 100.5t109.5 79l134 -74q-61 -29 -105 -68.5t-60 -92.5q51 -6 84.5 -35t33.5 -77q0 -51 -37 -87t-96 -36zM232 804q-72 0 -116 52.5t-44 130.5q0 54 25 107.5t71.5 100.5t109.5 79l134 -74q-61 -29 -105 -68.5
t-60 -92.5q51 -6 84.5 -35t33.5 -77q0 -51 -37 -87t-96 -36z" />
    <glyph glyph-name="quotedblright" unicode="&#x201d;" 
d="M176 804l-134 74q61 30 105.5 69.5t58.5 90.5q-51 6 -85 36t-34 79q0 51 38 86t99 35q71 0 113.5 -53t42.5 -129q0 -54 -25 -107.5t-70.5 -100t-108.5 -80.5zM176 804l-134 74q61 30 105.5 69.5t58.5 90.5q-51 6 -85 36t-34 79q0 51 38 86t99 35q71 0 113.5 -53
t42.5 -129q0 -54 -25 -107.5t-70.5 -100t-108.5 -80.5z" />
    <glyph glyph-name="guillemotleft" unicode="&#xab;" horiz-adv-x="1187" 
d="M277 505l368 365l-135 94l-411 -430l411 -430l135 94l-368 365v-58zM721 505l368 365l-135 94l-411 -430l411 -430l135 94l-368 365v-58z" />
    <glyph glyph-name="guillemotright" unicode="&#xbb;" horiz-adv-x="1187" 
d="M910 505l-368 365l135 94l411 -430l-411 -430l-135 94l368 365v-58zM466 505l-368 365l135 94l411 -430l-411 -430l-135 94l368 365v-58z" />
    <glyph glyph-name="guilsinglleft" unicode="&#x2039;" horiz-adv-x="743" 
d="M277 505l368 365l-135 94l-411 -430l411 -430l135 94l-368 365v-58z" />
    <glyph glyph-name="guilsinglright" unicode="&#x203a;" horiz-adv-x="743" 
d="M234 104l-135 94l367 365v-58l-367 365l135 94l411 -430z" />
    <glyph glyph-name="quotedbl.tf" horiz-adv-x="900" 
d="M172 1367h193l-26 -455h-142zM535 1367h193l-26 -455h-142z" />
    <glyph glyph-name="uni00A0" unicode="&#xa0;" horiz-adv-x="488" 
 />
    <glyph glyph-name="cent" unicode="&#xa2;" horiz-adv-x="1039" 
d="M462 -212v240h160v-240h-160zM462 941v215h160v-215h-160zM545 -26q-118 0 -219.5 62.5t-164 177t-62.5 268.5q0 162 62.5 274.5t164 172t219.5 59.5q87 0 155 -27.5t117 -73.5t79.5 -104.5t42.5 -120.5l-193 -10q-21 74 -73.5 120t-129.5 46q-65 0 -122.5 -36.5
t-93.5 -110.5t-36 -189q0 -105 33.5 -181t90.5 -115.5t128 -39.5q102 0 152.5 49.5t50.5 136.5h193q0 -101 -47.5 -182t-135 -128.5t-211.5 -47.5z" />
    <glyph glyph-name="currency" unicode="&#xa4;" 
d="M600 222q-114 0 -208 55.5t-150 150t-56 208.5t56 207.5t150 149.5t208 56q115 0 208 -56t148.5 -149.5t55.5 -207.5t-55.5 -208.5t-148.5 -150t-208 -55.5zM600 395q67 0 121 32.5t87 87.5t33 121q0 68 -33 122t-87 86t-121 32q-66 0 -121 -32t-87.5 -86t-32.5 -122
q0 -66 32.5 -121t87.5 -87.5t121 -32.5zM855 803l-89 89l211 208l88 -85zM336 812l-201 200l86 88l202 -200zM864 461l201 -201l-86 -90l-202 202zM336 461l87 -89l-202 -202l-86 90z" />
    <glyph glyph-name="Euro" unicode="&#x20ac;" horiz-adv-x="1243" 
d="M681 -26q-165 0 -287 82.5t-188.5 233t-66.5 353.5q0 214 71 359.5t194 220t277 74.5q209 0 333 -104.5t166 -271.5l-204 -39q-35 111 -112.5 177.5t-182.5 66.5q-90 0 -167 -54t-124 -161.5t-47 -267.5q0 -148 38.5 -259.5t114 -173.5t185.5 -62q136 0 215.5 74.5
t79.5 193.5h206q0 -138 -62.5 -237t-175 -152t-263.5 -53zM47 477v113h695v-113h-695zM47 686v114h695v-114h-695z" />
    <glyph glyph-name="florin" unicode="&#x192;" horiz-adv-x="692" 
d="M17 833l9 129h531l-9 -129h-531zM-164 -414l47 149q28 -11 55.5 -16.5t53.5 -5.5q31 0 61 11.5t51 41.5t25 84l86 1247q7 100 50 163t109.5 92.5t144.5 29.5q43 0 89 -6t91 -17l-48 -149q-27 10 -54.5 16t-54.5 6q-30 0 -59.5 -11.5t-51 -41.5t-25.5 -85l-86 -1246
q-7 -100 -50 -163t-109.5 -93t-144.5 -30q-43 0 -89 6.5t-91 17.5z" />
    <glyph glyph-name="uni20A8" unicode="&#x20a8;" horiz-adv-x="1181" 
d="M706 0l-530 493v114h148l648 -607h-266zM240 493v114h65q178 0 261 80t83 199t-83 197.5t-261 78.5h-65v81h65q184 0 305.5 -45.5t182 -127t60.5 -192.5q0 -104 -54.5 -191.5t-174.5 -140.5t-319 -53h-65zM176 824v113h871v-113h-871zM176 1162v112h871v-112h-871z" />
    <glyph glyph-name="yen" unicode="&#xa5;" horiz-adv-x="1129" 
d="M464 0v524l-448 750h227l339 -588h-42l347 588h225l-457 -750v-524h-191zM218 188v113h685v-113h-685zM218 393v113h685v-113h-685z" />
    <glyph glyph-name="cent.tf" 
d="M543 -212v240h160v-240h-160zM543 941v215h160v-215h-160zM626 -26q-118 0 -219.5 62.5t-164 177t-62.5 268.5q0 162 62.5 274.5t164 172t219.5 59.5q87 0 155 -27.5t117 -73.5t79.5 -104.5t42.5 -120.5l-193 -10q-21 74 -73.5 120t-129.5 46q-65 0 -122.5 -36.5
t-93.5 -110.5t-36 -189q0 -105 33.5 -181t90.5 -115.5t128 -39.5q102 0 152.5 49.5t50.5 136.5h193q0 -101 -47.5 -182t-135 -128.5t-211.5 -47.5z" />
    <glyph glyph-name="currency.tf" 
d="M600 222q-114 0 -208 55.5t-150 150t-56 208.5t56 207.5t150 149.5t208 56q115 0 208 -56t148.5 -149.5t55.5 -207.5t-55.5 -208.5t-148.5 -150t-208 -55.5zM600 395q67 0 121 32.5t87 87.5t33 121q0 68 -33 122t-87 86t-121 32q-66 0 -121 -32t-87.5 -86t-32.5 -122
q0 -66 32.5 -121t87.5 -87.5t121 -32.5zM855 803l-89 89l211 208l88 -85zM336 812l-201 200l86 88l202 -200zM864 461l201 -201l-86 -90l-202 202zM336 461l87 -89l-202 -202l-86 90z" />
    <glyph glyph-name="dollar.tf" 
d="M606 -26q-99 0 -191 25.5t-164 77t-114 129.5t-42 183h187q0 -84 43 -137.5t118 -78t170 -24.5q92 0 153.5 26.5t93 71t31.5 95.5q0 67 -42 116t-116 73l-135 48v167l220 -75q135 -46 210 -125.5t75 -208.5q0 -90 -54 -173.5t-164 -136.5t-279 -53zM540 -191v1637h143
v-1637h-143zM592 577l-121 41q-163 56 -250.5 131t-87.5 208q0 151 124.5 245.5t359.5 94.5q203 0 316 -95.5t136 -254.5h-187q-12 82 -83 134t-186 52q-133 0 -203.5 -51t-70.5 -131q0 -62 37 -100.5t114 -63.5l102 -39v-171z" />
    <glyph glyph-name="Euro.tf" 
d="M673 -26q-165 0 -286 82.5t-186 233t-65 352.5q0 215 70.5 360.5t189.5 220t264 74.5q201 0 319 -104.5t156 -271.5l-204 -39q-32 111 -103.5 177.5t-167.5 66.5q-81 0 -154 -53.5t-119.5 -162.5t-46.5 -277q0 -143 35 -252.5t106 -171t179 -61.5q86 0 148 34t95.5 94.5
t33.5 139.5h204q0 -138 -60 -237t-165.5 -152t-242.5 -53zM44 477v113h657v-113h-657zM44 686v114h657v-114h-657z" />
    <glyph glyph-name="uni20A8.tf" 
d="M695 0l-530 493v114h148l648 -607h-266zM229 493v114h65q178 0 261 80t83 199t-83 197.5t-261 78.5h-65v81h65q184 0 305.5 -45.5t182 -127t60.5 -192.5q0 -104 -54.5 -191.5t-174.5 -140.5t-319 -53h-65zM165 824v113h871v-113h-871zM165 1162v112h871v-112h-871z" />
    <glyph glyph-name="sterling.tf" 
d="M135 113v55q76 0 108.5 44t32.5 134v528q0 136 45.5 230.5t131 143.5t208.5 49q152 0 244.5 -80.5t116.5 -240.5h-187q-12 75 -59.5 112t-114.5 37q-89 0 -142 -60.5t-53 -190.5v-517q0 -127 -70.5 -185.5t-260.5 -58.5zM75 0v168h643q100 0 144 40.5t56 123.5h205
q-8 -154 -97.5 -243t-304.5 -89h-646zM103 546v130h716v-130h-716z" />
    <glyph glyph-name="yen.tf" 
d="M499 0v524l-436 750h226l328 -588h-41l335 588h226l-446 -750v-524h-192zM254 188v113h686v-113h-686zM254 393v113h686v-113h-686z" />
    <glyph glyph-name="DivisionSlash" unicode="&#x2215;" horiz-adv-x="346" 
d="M-345.123 -22.1953l1199.7 1403.72h143.037l-1201.92 -1403.72h-140.825z" />
    <glyph glyph-name="multiply" unicode="&#xd7;" horiz-adv-x="1069" 
d="M260 102l-133 134l274 275l-274 272l133 134l275 -274l274 274l135 -134l-276 -272l276 -275l-135 -134l-274 273z" />
    <glyph glyph-name="divide" unicode="&#xf7;" horiz-adv-x="1036" 
d="M151 449v166h732v-166h-732zM516 114q-50 0 -83 32.5t-33 79.5q0 46 33 79t83 33q51 0 85 -33t34 -79q0 -47 -34 -79.5t-85 -32.5zM516 722q-50 0 -83 31.5t-33 80.5q0 45 33 78t83 33q51 0 85 -33t34 -78q0 -49 -34 -80.5t-85 -31.5z" />
    <glyph glyph-name="notequal" unicode="&#x2260;" horiz-adv-x="991" 
d="M158 380h674v-164h-674v164zM158 779h674v-165h-674v165zM276 83l311 847h127l-309 -847h-129z" />
    <glyph glyph-name="greaterequal" unicode="&#x2265;" horiz-adv-x="991" 
d="M190 272l-44 153l580 202v-68l-580 206l44 151l642 -251v-143zM168 0v145h674v-145h-674z" />
    <glyph glyph-name="lessequal" unicode="&#x2264;" horiz-adv-x="991" 
d="M802 272l-644 250v143l644 251l43 -151l-581 -206v68l581 -202zM148 0v145h675v-145h-675z" />
    <glyph glyph-name="plusminus" unicode="&#xb1;" horiz-adv-x="991" 
d="M419 1070h152v-320h296v-126h-296v-320h-152v320h-296v126h296v320zM148 145h696v-145h-696v145z" />
    <glyph glyph-name="approxequal" unicode="&#x2248;" horiz-adv-x="1076" 
d="M222 505l-99 53q34 115 89.5 176.5t137.5 61.5q37 0 81 -13.5t117 -41.5q70 -27 107.5 -39.5t66.5 -12.5q42 0 74.5 25.5t58.5 84.5l97 -62q-35 -111 -96 -166t-139 -55q-37 0 -80.5 13.5t-116.5 40.5q-39 15 -71 26.5t-58 18t-45 6.5q-38 0 -68.5 -26.5t-55.5 -89.5z
M222 143l-99 52q34 116 89.5 177t137.5 61q37 0 81 -13t117 -41q70 -27 107.5 -39.5t66.5 -12.5q42 0 74.5 25.5t58.5 84.5l97 -62q-35 -112 -96 -166.5t-139 -54.5q-37 0 -80.5 13.5t-116.5 40.5q-39 15 -71 26.5t-58 18t-45 6.5q-38 0 -68.5 -26.5t-55.5 -89.5z" />
    <glyph glyph-name="logicalnot" unicode="&#xac;" 
d="M225 651h695v-356h-132v259l42 -48h-605v145z" />
    <glyph glyph-name="infinity" unicode="&#x221e;" horiz-adv-x="1353" 
d="M365 191q-76 0 -149 32.5t-120 100.5t-47 174q0 107 47 174.5t120 100t149 32.5q59 0 121 -21t117.5 -71t92.5 -138h-40q37 88 92 138t118 71t121 21q78 0 150 -32.5t119 -100t47 -174.5q0 -106 -47 -174t-119 -100.5t-150 -32.5q-58 0 -120.5 20.5t-117.5 71t-92 138.5
h40q-37 -88 -92.5 -138.5t-118 -71t-121.5 -20.5zM394 315q80 0 149 52.5t116 164.5v-68q-47 112 -116 164.5t-149 52.5q-47 0 -92.5 -19t-74.5 -59t-29 -105t29 -105.5t74.5 -59t92.5 -18.5zM958 315q48 0 93 18.5t74 59t29 105.5t-29 105t-74 59t-93 19
q-80 0 -148.5 -52.5t-116.5 -164.5v68q48 -112 116.5 -164.5t148.5 -52.5z" />
    <glyph glyph-name="emptyset" unicode="&#x2205;" 
d="M601 153q-113 0 -205 55t-147 147t-55 205t55 205t147 146.5t205 54.5t205 -54.5t146.5 -146.5t54.5 -205t-54.5 -205t-146.5 -147t-205 -55zM601 273q79 0 143.5 39t103.5 104t39 144t-39 143.5t-103.5 103.5t-143.5 39t-144 -39t-104 -103.5t-39 -143.5t39 -144
t104 -104t144 -39zM1008 1041l73 -75l-888 -889l-74 75z" />
    <glyph glyph-name="integral" unicode="&#x222b;" horiz-adv-x="960" 
d="M49 -414l47 149q27 -11 55 -16.5t54 -5.5q30 0 59.5 11.5t51 41.5t25.5 84l87 1247q7 100 49.5 163t109.5 92.5t144 29.5q43 0 89.5 -6t90.5 -17l-47 -149q-27 10 -55 16t-54 6q-31 0 -60.5 -11.5t-50.5 -41.5t-25 -85l-87 -1246q-7 -100 -50 -163t-109.5 -93t-143.5 -30
q-43 0 -89.5 6.5t-90.5 17.5z" />
    <glyph glyph-name="product" unicode="&#x220f;" horiz-adv-x="1313" 
d="M195 -472v1746h922v-1746h-189v1638l53 -56h-650l53 56v-1638h-189z" />
    <glyph glyph-name="summation" unicode="&#x2211;" horiz-adv-x="1119" 
d="M562 401l-463 709v164h922v-164h-862l101 56l508 -765h-206zM562 401h206l-508 -765l-101 55h862v-163h-922v163z" />
    <glyph glyph-name="radical" unicode="&#x221a;" horiz-adv-x="1179" 
d="M466 1l-205 467l67 -71l-271 -72l-47 112l395 134l192 -442h-79l488 1553h163l-549 -1681h-154z" />
    <glyph glyph-name="uni00B5" unicode="&#xb5;" horiz-adv-x="1229" 
d="M535 -18q-106 0 -188.5 38.5t-129 120t-46.5 211.5v613h190v-596q0 -109 53.5 -165t150.5 -56q82 0 144.5 43t98.5 122t36 187h60q0 -169 -46 -284.5t-129 -174.5t-194 -59zM171 -402v1367h190v-1367h-190zM844 0v965h190v-965h-190z" />
    <glyph glyph-name="partialdiff" unicode="&#x2202;" horiz-adv-x="1100" 
d="M549 -26q-119 0 -218.5 63t-159.5 178.5t-60 271.5q0 153 57.5 265t152 174t206.5 62t197 -60.5t133 -166.5t48 -244h-66q-1 104 -41.5 170t-101.5 98.5t-126 32.5q-75 0 -135.5 -40.5t-95.5 -115.5t-35 -179q0 -102 35 -178t96 -117.5t138 -41.5q83 0 140 46.5t88 126
t36 179.5q8 158 -14 303t-75 274t-141 241.5t-214 206.5l153 111q116 -98 205 -217t150 -251t92 -269t31 -271q0 -154 -37.5 -274.5t-103 -205t-151.5 -128.5t-183 -44z" />
    <glyph glyph-name="perthousand" unicode="&#x2030;" horiz-adv-x="2451" 
d="M205 -19l1111 1371h150l-1113 -1371h-148zM407 590q-138 0 -223 99t-85 300t85 299.5t223 98.5q137 0 222.5 -98.5t85.5 -299.5t-85.5 -300t-222.5 -99zM407 695q92 0 141 76.5t49 217.5t-49 217.5t-141 76.5q-91 0 -140.5 -76.5t-49.5 -217.5t49.5 -217.5t140.5 -76.5z
M1319 -10q-138 0 -223 99t-85 300t85 299.5t223 98.5t223.5 -98.5t85.5 -299.5t-85.5 -300t-223.5 -99zM1319 95q93 0 141.5 76.5t48.5 217.5t-48.5 217.5t-141.5 76.5q-91 0 -140 -76.5t-49 -217.5t49 -217.5t140 -76.5zM2045 -10q-137 0 -222.5 99t-85.5 300t85.5 299.5
t222.5 98.5q138 0 223.5 -98.5t85.5 -299.5t-85.5 -300t-223.5 -99zM2045 95q93 0 141.5 76.5t48.5 217.5t-48.5 217.5t-141.5 76.5q-90 0 -139.5 -76.5t-49.5 -217.5t49.5 -217.5t139.5 -76.5z" />
    <glyph glyph-name="plus.tf" 
d="M505 982h190v-409h404v-164h-404v-409h-190v409h-402v164h402v409z" />
    <glyph glyph-name="minus.tf" 
d="M97 573h1006v-165h-1006v165z" />
    <glyph glyph-name="multiply.tf" 
d="M325 102l-133 134l274 275l-274 272l133 134l275 -274l274 274l135 -134l-276 -272l276 -275l-135 -134l-274 273z" />
    <glyph glyph-name="divide.tf" 
d="M233 449v166h732v-166h-732zM598 114q-50 0 -83 32.5t-33 79.5q0 46 33 79t83 33q51 0 85 -33t34 -79q0 -47 -34 -79.5t-85 -32.5zM598 722q-50 0 -83 31.5t-33 80.5q0 45 33 78t83 33q51 0 85 -33t34 -78q0 -49 -34 -80.5t-85 -31.5z" />
    <glyph glyph-name="equal.tf" 
d="M262 380h676v-164h-676v164zM262 779h676v-165h-676v165z" />
    <glyph glyph-name="notequal.tf" 
d="M262 380h674v-164h-674v164zM262 779h674v-165h-674v165zM380 83l311 847h127l-309 -847h-129z" />
    <glyph glyph-name="greater.tf" 
d="M339 70l-124 147l632 447v-79l-632 451l124 145l646 -472v-169z" />
    <glyph glyph-name="less.tf" 
d="M859 1181l126 -145l-634 -451v79l634 -447l-126 -147l-646 470v169z" />
    <glyph glyph-name="greaterequal.tf" 
d="M294 272l-44 153l580 202v-68l-580 206l44 151l642 -251v-143zM272 0v145h674v-145h-674z" />
    <glyph glyph-name="lessequal.tf" 
d="M906 272l-644 250v143l644 251l43 -151l-581 -206v68l581 -202zM252 0v145h675v-145h-675z" />
    <glyph glyph-name="plusminus.tf" 
d="M523 1070h152v-320h296v-126h-296v-320h-152v320h-296v126h296v320zM252 145h696v-145h-696v145z" />
    <glyph glyph-name="approxequal.tf" 
d="M284 505l-99 53q34 115 89.5 176.5t137.5 61.5q37 0 81 -13.5t117 -41.5q70 -27 107.5 -39.5t66.5 -12.5q42 0 74.5 25.5t58.5 84.5l97 -62q-35 -111 -96 -166t-139 -55q-37 0 -80.5 13.5t-116.5 40.5q-39 15 -71 26.5t-58 18t-45 6.5q-38 0 -68.5 -26.5t-55.5 -89.5z
M284 143l-99 52q34 116 89.5 177t137.5 61q37 0 81 -13t117 -41q70 -27 107.5 -39.5t66.5 -12.5q42 0 74.5 25.5t58.5 84.5l97 -62q-35 -112 -96 -166.5t-139 -54.5q-37 0 -80.5 13.5t-116.5 40.5q-39 15 -71 26.5t-58 18t-45 6.5q-38 0 -68.5 -26.5t-55.5 -89.5z" />
    <glyph glyph-name="asciitilde.tf" 
d="M273 430l-103 55q34 118 90.5 182.5t141.5 64.5q39 0 85.5 -13.5t121.5 -42.5q78 -31 117.5 -42t67.5 -11q38 0 72 28t58 84l103 -65q-37 -117 -101 -172.5t-147 -55.5q-31 0 -78.5 12.5t-121.5 43.5q-76 30 -113.5 40.5t-67.5 10.5q-35 0 -66.5 -26.5t-58.5 -92.5z" />
    <glyph glyph-name="asciicircum.tf" 
d="M154 467l371 720h152l369 -720h-212l-269 571h72l-271 -571h-212z" />
    <glyph glyph-name="percent.tf" 
d="M89 0l839 1274h185l-840 -1274h-184zM922 -26q-63 0 -120.5 30t-93.5 95t-36 170q0 106 36 170t93.5 93.5t120.5 29.5q64 0 122 -29.5t94.5 -93.5t36.5 -170q0 -105 -36.5 -170t-94.5 -95t-122 -30zM922 101q49 0 82 38.5t33 129.5t-33 130.5t-82 39.5q-52 0 -84.5 -39.5
t-32.5 -130.5t32.5 -129.5t84.5 -38.5zM276 711q-63 0 -120 29.5t-93.5 94.5t-36.5 170t36.5 169.5t93.5 93.5t120 29q64 0 122.5 -29t94.5 -93.5t36 -169.5t-36 -170t-94.5 -94.5t-122.5 -29.5zM276 836q50 0 83.5 39t33.5 130t-33.5 130t-83.5 39t-82.5 -39t-32.5 -130
t32.5 -130t82.5 -39z" />
    <glyph glyph-name="lozenge" unicode="&#x25ca;" horiz-adv-x="1088" 
d="M99 637l371 637h151l370 -637l-370 -637h-151zM289 601v72l279 -501h-44l276 501v-72l-276 501h44z" />
    <glyph glyph-name="paragraph" unicode="&#xb6;" horiz-adv-x="1237" 
d="M574 479q-212 0 -327 105.5t-115 290.5q0 187 115 293t327 106h414v-169h-306v-626h-108zM589 -252v1526h144v-1526h-144zM876 -252v1526h145v-1526h-145z" />
    <glyph glyph-name="section" unicode="&#xa7;" 
d="M635 447q58 0 104.5 18t74 49.5t27.5 72.5q0 47 -38 75t-115 51l-196 66q-118 38 -181 105.5t-63 158.5q0 121 105 193.5t280 72.5q183 0 281 -76.5t102 -191.5h-183q-6 58 -57.5 88t-133.5 30q-97 0 -145.5 -38t-48.5 -88q0 -82 148 -126l207 -73q118 -38 182 -98
t64 -148q0 -77 -49 -144t-137.5 -108t-207.5 -41zM565 757q-87 0 -136.5 -39.5t-49.5 -91.5q0 -82 148 -126l207 -73q118 -39 182 -98.5t64 -148.5q0 -76 -47.5 -143t-138.5 -108t-224 -41q-126 0 -220 39t-146 110t-53 166h179q2 -82 65.5 -122.5t159.5 -40.5
q100 0 158 39.5t58 99.5q0 48 -38 76t-114 50l-197 67q-119 38 -181.5 105.5t-62.5 160.5q0 125 106 196t281 71v-148z" />
    <glyph glyph-name="copyright" unicode="&#xa9;" horiz-adv-x="1397" 
d="M699 -12q-135 0 -253 50.5t-207.5 140t-140 207.5t-50.5 252t50.5 252t140 208t207.5 140t253 50q134 0 252 -50t207.5 -140t140 -208t50.5 -252t-50.5 -252t-140 -207.5t-207.5 -140t-252 -50.5zM699 85q114 0 214 43.5t176 119t119 176t43 214.5q0 115 -43 214.5
t-119 176t-176 119t-214 42.5t-214.5 -42.5t-176.5 -119t-119 -176t-43 -214.5q0 -114 43 -214.5t119 -176t176.5 -119t214.5 -43.5zM697 233q-103 0 -178.5 50.5t-116.5 142.5t-41 217q0 130 44 219.5t120 135.5t172 46q129 0 205.5 -64.5t102.5 -165.5l-123 -24
q-22 69 -70.5 110t-114.5 41q-59 0 -107 -33.5t-76.5 -100t-28.5 -164.5q0 -91 23.5 -160t71 -107t117.5 -38q85 0 135 46t50 120h123q0 -86 -38 -146.5t-107.5 -92.5t-162.5 -32z" />
    <glyph glyph-name="registered" unicode="&#xae;" horiz-adv-x="1397" 
d="M699 -12q-135 0 -253 50.5t-207.5 140t-140 207.5t-50.5 252t50.5 252t140 208t207.5 140t252 50q135 0 253 -50t207.5 -140t140 -208t50.5 -252t-50.5 -252t-140 -207.5t-207.5 -140t-252 -50.5zM699 85q114 0 214 43.5t176 119t119 176t43 214.5q0 115 -43 214.5
t-119 176t-176 119t-214 42.5t-214.5 -42.5t-176.5 -119t-119 -176t-43 -214.5q0 -114 43 -214.5t119 -176t176.5 -119t214.5 -43.5zM459 283v732h262q127 0 194 -61t67 -159t-67 -158.5t-194 -60.5h-154v-293h-108zM864 283l-203 336h115l227 -336h-139zM567 650h144
q79 0 119.5 38t40.5 98q0 62 -38.5 99t-111.5 37h-154v-272z" />
    <glyph glyph-name="trademark" unicode="&#x2122;" horiz-adv-x="1373" 
d="M611 1601h137l202 -418h-9l202 418h132v-637h-96v533h15l-217 -457h-63l-217 455h9v-531h-95v637zM6 1520v81h502v-81h-225l21 21v-577h-95v577l22 -21h-225z" />
    <glyph glyph-name="degree" unicode="&#xb0;" horiz-adv-x="722" 
d="M361 962q-77 0 -141 38t-102 101.5t-38 141.5t38 141.5t102 101.5t141 38q78 0 141.5 -38t101.5 -101.5t38 -141.5q0 -77 -38 -141t-101.5 -102t-141.5 -38zM361 1091q62 0 106.5 44.5t44.5 107.5q0 62 -44.5 106.5t-106.5 44.5q-63 0 -107.5 -44.5t-44.5 -106.5
q0 -63 45 -107.5t107 -44.5z" />
    <glyph glyph-name="brokenbar" unicode="&#xa6;" horiz-adv-x="581" 
d="M195 727v790h190v-790h-190zM195 -244v790h190v-790h-190z" />
    <glyph glyph-name="dagger" unicode="&#x2020;" horiz-adv-x="1020" 
d="M420 -252l-22 1526h224l-25 -1526h-177zM87 776v127l423 15l423 -15v-127l-423 -17z" />
    <glyph glyph-name="daggerdbl" unicode="&#x2021;" horiz-adv-x="1020" 
d="M420 -252l-22 1526h224l-25 -1526h-177zM87 776v127l423 15l423 -15v-127l-423 -17zM87 435v126l423 15l423 -15v-126l-423 -18z" />
    <glyph glyph-name="uni0308" unicode="&#x308;" horiz-adv-x="0" 
d="M573 1141q-50 0 -84.5 32t-34.5 81q0 48 34.5 81.5t84.5 33.5q52 0 87 -33.5t35 -81.5q0 -49 -35 -81t-87 -32zM218 1141q-52 0 -85.5 32t-33.5 79q0 49 33.5 82t85.5 33q53 0 87 -33t34 -82q0 -47 -34 -79t-87 -32z" />
    <glyph glyph-name="uni0307" unicode="&#x307;" horiz-adv-x="0" 
d="M100 1280q0 55 38.5 94.5t97.5 39.5q60 0 100.5 -39.5t40.5 -94.5q0 -56 -40.5 -93.5t-100.5 -37.5q-59 0 -97.5 37.5t-38.5 93.5z" />
    <glyph glyph-name="gravecomb" unicode="&#x300;" horiz-adv-x="0" 
d="M485 1122l-389 330l130 105l352 -360z" />
    <glyph glyph-name="acutecomb" unicode="&#x301;" horiz-adv-x="0" 
d="M192 1122l-93 75l352 360l130 -105z" />
    <glyph glyph-name="uni030B" unicode="&#x30b;" horiz-adv-x="0" 
d="M450 1099l-99 17l30 331l141 -29zM200 1111l-101 12l14 335l142 -22z" />
    <glyph glyph-name="uni0302" unicode="&#x302;" horiz-adv-x="0" 
d="M212 1100l-113 89l333 308l335 -308l-113 -89l-255 245h67z" />
    <glyph glyph-name="uni030C" unicode="&#x30c;" horiz-adv-x="0" 
d="M432 1111l-333 308l113 89l254 -264h-67l255 264l113 -89z" />
    <glyph glyph-name="uni0306" unicode="&#x306;" horiz-adv-x="0" 
d="M393 1156q-136 0 -215 76.5t-79 202.5h153q0 -74 38 -113t103 -39t102.5 39t37.5 113h154q0 -126 -79 -202.5t-215 -76.5z" />
    <glyph glyph-name="uni030A" unicode="&#x30a;" horiz-adv-x="0" 
d="M315 1312q-59 0 -108.5 29t-78.5 78.5t-29 108.5q0 60 29 109t78.5 78t108.5 29q60 0 109 -29t78 -78t29 -109q0 -59 -29 -108.5t-78 -78.5t-109 -29zM315 1443q36 0 60.5 25t24.5 60q0 36 -24.5 60.5t-60.5 24.5q-35 0 -60 -24.5t-25 -60.5q0 -35 25 -60t60 -25z" />
    <glyph glyph-name="tildecomb" unicode="&#x303;" horiz-adv-x="0" 
d="M123 1123l-77 47q24 109 74.5 168t118.5 59q28 0 57.5 -10t88.5 -41q57 -29 81.5 -39.5t48.5 -10.5q29 0 57 24.5t49 76.5l81 -54q-15 -67 -43.5 -116.5t-65 -76.5t-73.5 -27q-33 0 -67 13t-96 44q-52 28 -74.5 36.5t-43.5 8.5q-32 0 -60.5 -21.5t-55.5 -80.5z" />
    <glyph glyph-name="uni0304" unicode="&#x304;" horiz-adv-x="0" 
d="M273 1325h653v-157h-653v157z" />
    <glyph glyph-name="uni0312" unicode="&#x312;" horiz-adv-x="0" 
d="M267 1389l97 -50q-52 -25 -88 -55.5t-49 -74.5q37 -4 61.5 -26.5t21.5 -59.5q-2 -36 -31 -61.5t-70 -25.5q-51 0 -82 36.5t-27 93.5q2 60 45 122t122 101z" />
    <glyph glyph-name="uni0326" unicode="&#x326;" horiz-adv-x="0" 
d="M196 -443l-97 50q52 25 88 55.5t49 74.5q-37 4 -61.5 26.5t-21.5 59.5q2 36 31 61.5t70 25.5q51 0 82 -36.5t27 -93.5q-2 -60 -45 -122t-122 -101z" />
    <glyph glyph-name="uni0327" unicode="&#x327;" horiz-adv-x="0" 
d="M99 -361l29 73q72 -36 128 -41t90 14t37 53q2 32 -24 56t-70 41.5t-96 29.5l74 201l96 -11l-69 -185l-34 58q93 -17 153.5 -47t89 -68.5t25.5 -84.5q-4 -57 -49 -92t-111.5 -46.5t-138.5 1t-130 48.5z" />
    <glyph glyph-name="uni0328" unicode="&#x328;" horiz-adv-x="0" 
d="M592 -363q-63 -35 -131 -53.5t-132 -18.5q-102 0 -166 46t-64 130q0 77 58.5 148t173.5 116l135 -39q-109 -41 -172 -88t-63 -103q0 -42 35 -60.5t81 -18.5q45 0 92 15t108 47z" />
    <glyph glyph-name="breve" unicode="&#x2d8;" horiz-adv-x="785" 
d="M393 1156q-136 0 -215 76.5t-79 202.5h153q0 -74 38 -113t103 -39t102.5 39t37.5 113h154q0 -126 -79 -202.5t-215 -76.5z" />
    <glyph glyph-name="caron" unicode="&#x2c7;" horiz-adv-x="865" 
d="M432 1111l-333 308l113 89l254 -264h-67l255 264l113 -89z" />
    <glyph glyph-name="cedilla" unicode="&#xb8;" horiz-adv-x="626" 
d="M99 -361l29 73q72 -36 128 -41t90 14t37 53q2 32 -24 56t-70 41.5t-96 29.5l74 201l96 -11l-69 -185l-34 58q93 -17 153.5 -47t89 -68.5t25.5 -84.5q-4 -57 -49 -92t-111.5 -46.5t-138.5 1t-130 48.5z" />
    <glyph glyph-name="dotaccent" unicode="&#x2d9;" horiz-adv-x="463" 
d="M100 1280q0 55 38.5 94.5t97.5 39.5q60 0 100.5 -39.5t40.5 -94.5q0 -56 -40.5 -93.5t-100.5 -37.5q-59 0 -97.5 37.5t-38.5 93.5z" />
    <glyph glyph-name="hungarumlaut" unicode="&#x2dd;" horiz-adv-x="620" 
d="M450 1099l-99 17l30 331l141 -29zM200 1111l-101 12l14 335l142 -22z" />
    <glyph glyph-name="macron" unicode="&#xaf;" horiz-adv-x="850" 
d="M99 1325h653v-157h-653v157z" />
    <glyph glyph-name="ogonek" unicode="&#x2db;" horiz-adv-x="691" 
d="M592 -363q-63 -35 -131 -53.5t-132 -18.5q-102 0 -166 46t-64 130q0 77 58.5 148t173.5 116l135 -39q-109 -41 -172 -88t-63 -103q0 -42 35 -60.5t81 -18.5q45 0 92 15t108 47z" />
    <glyph glyph-name="ring" unicode="&#x2da;" horiz-adv-x="629" 
d="M315 1312q-59 0 -108.5 29t-78.5 78.5t-29 108.5q0 60 29 109t78.5 78t108.5 29q60 0 109 -29t78 -78t29 -109q0 -59 -29 -108.5t-78 -78.5t-109 -29zM315 1443q36 0 60.5 25t24.5 60q0 36 -24.5 60.5t-60.5 24.5q-35 0 -60 -24.5t-25 -60.5q0 -35 25 -60t60 -25z" />
    </font>
</defs>
</svg>
